<?xml version="1.0" encoding="UTF-8" standalone="no"?>
<svg
   id="silk"
   viewBox="0 0 38.4 485.66929"
   version="1.1"
   sodipodi:docname="2hpBlank.svg"
   inkscape:version="1.4 (e7c3feb1, 2024-10-09)"
   width="10.16mm"
   height="128.5mm"
   xmlns:inkscape="http://www.inkscape.org/namespaces/inkscape"
   xmlns:sodipodi="http://sodipodi.sourceforge.net/DTD/sodipodi-0.dtd"
   xmlns="http://www.w3.org/2000/svg"
   xmlns:svg="http://www.w3.org/2000/svg">
  <sodipodi:namedview
     id="namedview10"
     pagecolor="#ffffff"
     bordercolor="#000000"
     borderopacity="0.25"
     inkscape:showpageshadow="2"
     inkscape:pageopacity="0.0"
     inkscape:pagecheckerboard="0"
     inkscape:deskcolor="#d1d1d1"
     inkscape:zoom="1.3850378"
     inkscape:cx="-118.40832"
     inkscape:cy="339.34093"
     inkscape:window-width="2560"
     inkscape:window-height="1387"
     inkscape:window-x="0"
     inkscape:window-y="25"
     inkscape:window-maximized="0"
     inkscape:current-layer="layer3"
     inkscape:document-units="mm" />
  <defs
     id="defs1">
    <style
       id="style1">
      .cls-1 {
        fill: #231f20;
      }
    </style>
  </defs>
  <g
     inkscape:groupmode="layer"
     id="layer3"
     inkscape:label="artwork">
    <rect
       style="fill:#d2d2d0;fill-opacity:1;stroke-width:1.32283"
       id="rect10"
       width="128.15535"
       height="676.15485"
       x="-44.877674"
       y="-68.889717" />
    <g
       id="g11"
       transform="matrix(1.4184137,0,0,1.4184137,-8.0335433,-15.501042)"
       style="stroke-width:0.705013">
      <path
         class="cls-1"
         d="m 14.17,315.88 v -1.71 l 7,-1.71 -7,-3.47 v -1.62 l 10.06,-0.14 V 309 l -6.02,0.08 6.02,2.98 v 1.44 l -6.32,1.53 6.32,1.61 v 1.81 l -10.06,-2.56 z"
         id="path1"
         style="stroke-width:0.705013" />
      <path
         class="cls-1"
         d="m 15.325,274.8 c 0.91,-0.8 1.95,-1.16 3.19,-1.16 3.12,0 5.84,2.33 5.84,5.92 0,1.01 -0.18,1.89 -0.6,2.62 l 1.05,0.92 -0.69,0.83 -1.04,-0.9 c -0.85,0.84 -1.99,1.26 -3.33,1.26 -3.33,0 -5.94,-2.55 -5.94,-5.84 0,-1.09 0.29,-2.09 0.8,-2.83 l -1.01,-0.88 0.71,-0.83 1.01,0.88 z m 0.69,2.04 c -0.28,0.48 -0.45,1.05 -0.45,1.65 0,2.3 2,3.92 4.09,3.92 0.74,0 1.44,-0.24 1.98,-0.66 l -5.62,-4.92 z m 6.29,4.08 c 0.2,-0.39 0.31,-0.92 0.31,-1.46 0,-2.21 -1.81,-3.95 -3.98,-3.95 -0.7,0 -1.34,0.2 -1.88,0.55 z"
         id="path2"
         style="stroke-width:0.705013" />
      <path
         class="cls-1"
         d="m 14.18,250.41 v -4.96 l 1.76,0.22 v 3.05 l 2.1,0.29 v -3.07 l 1.76,0.22 v 3.07 l 4.43,0.57 v 1.91 l -10.06,-1.32 z"
         id="path3"
         style="stroke-width:0.705013" />
      <path
         class="cls-1"
         d="m 14.18,222.69 v -4.96 l 1.76,0.22 V 221 l 2.1,0.29 v -3.07 l 1.76,0.22 v 3.07 l 4.43,0.57 v 1.91 l -10.06,-1.32 z"
         id="path4"
         style="stroke-width:0.705013" />
      <path
         class="cls-1"
         d="m 14.17,194.99 v -5.46 l 1.76,0.22 v 3.56 l 2.09,0.29 v -3.57 l 1.77,0.22 v 3.57 l 2.67,0.35 v -3.59 l 1.77,0.24 v 5.48 l -10.06,-1.32 z"
         id="path5"
         style="stroke-width:0.705013" />
      <path
         class="cls-1"
         d="m 14.17,166.55 v -1.65 l 6.84,-3.66 -6.84,-0.91 v -1.85 l 10.06,1.36 v 1.61 l -6.92,3.7 6.92,0.92 v 1.81 z"
         id="path6"
         style="stroke-width:0.705013" />
      <path
         class="cls-1"
         d="m 14.17,135.77 v -5.7 l 8.29,4.01 v -3.17 l 1.77,0.24 v 5.74 l -8.29,-4.01 V 136 l -1.76,-0.24 z"
         id="path7"
         style="stroke-width:0.705013" />
      <path
         class="cls-1"
         d="m 14.17,107.35 v -5.46 l 1.76,0.22 v 3.56 l 2.09,0.29 v -3.57 l 1.77,0.22 v 3.57 l 2.67,0.35 v -3.59 l 1.77,0.24 v 5.48 l -10.06,-1.32 z"
         id="path8"
         style="stroke-width:0.705013" />
      <path
         class="cls-1"
         d="m 14.17,79.07 v -5.46 l 1.76,0.22 v 3.56 l 2.09,0.29 v -3.57 l 1.77,0.22 v 3.57 l 2.67,0.35 v -3.59 l 1.77,0.24 v 5.48 L 14.17,79.06 Z"
         id="path9"
         style="stroke-width:0.705013" />
      <path
         class="cls-1"
         d="m 14.18,50.77 v -4.96 l 1.76,0.22 v 3.05 l 2.1,0.29 V 46.3 l 1.76,0.22 v 3.07 l 4.43,0.57 v 1.91 L 14.17,50.75 Z"
         id="path10"
         style="stroke-width:0.705013" />
    </g>
  </g>
  <g
     inkscape:groupmode="layer"
     id="layer4"
     inkscape:label="components"
     style="display:inline;fill:#00ff00" />
</svg>
