<?xml version="1.0" encoding="UTF-8" standalone="no"?>
<svg
   width="40.639999mm"
   height="128.5mm"
   version="1.1"
   viewBox="0 0 40.639999 128.5"
   id="svg146"
   sodipodi:docname="Swarm-dark.svg"
   inkscape:version="1.4 (e7c3feb1, 2024-10-09)"
   xmlns:inkscape="http://www.inkscape.org/namespaces/inkscape"
   xmlns:sodipodi="http://sodipodi.sourceforge.net/DTD/sodipodi-0.dtd"
   xmlns="http://www.w3.org/2000/svg"
   xmlns:svg="http://www.w3.org/2000/svg">
  <sodipodi:namedview
     id="namedview146"
     pagecolor="#ffffff"
     bordercolor="#000000"
     borderopacity="0.25"
     inkscape:showpageshadow="2"
     inkscape:pageopacity="0.0"
     inkscape:pagecheckerboard="0"
     inkscape:deskcolor="#d1d1d1"
     inkscape:document-units="mm"
     inkscape:zoom="2.0775454"
     inkscape:cx="148.73321"
     inkscape:cy="224.7845"
     inkscape:window-width="2560"
     inkscape:window-height="1387"
     inkscape:window-x="0"
     inkscape:window-y="25"
     inkscape:window-maximized="0"
     inkscape:current-layer="g1" />
  <!-- Generator: Adobe Illustrator 29.6.1, SVG Export Plug-In . SVG Version: 2.1.1 Build 9)  -->
  <defs
     id="defs1">
    <style
       id="style1">
      .st0 {
        fill: #010101;
      }

      .st1 {
        font-size: 9px;
      }

      .st1, .st2, .st3, .st4 {
        fill: #231f20;
        font-family: CenturyGothic-BoldItalic, 'Century Gothic';
        font-style: italic;
        font-weight: 700;
      }

      .st5 {
        fill: #545554;
      }

      .st6 {
        fill: none;
        stroke: #000;
        stroke-miterlimit: 10;
        stroke-width: .58px;
      }

      .st2 {
        font-size: 10px;
      }

      .st3 {
        font-size: 7px;
      }

      .st4 {
        font-size: 8px;
      }

      .st7 {
        fill: #515251;
      }
    </style>
  </defs>
  <g
     inkscape:groupmode="layer"
     id="layer2"
     inkscape:label="artwork">
    <g
       id="g1">
      <path
         id="rect1"
         style="display:inline;fill:#000000;stroke-width:1;stroke-dasharray:none"
         inkscape:label="panel"
         d="M -0.0181854,-0.05749953 H 40.658185 V 128.5575 H -0.0181854 Z" />
      <path
         d="m 13.448352,25.724528 h 0.928605 l -0.03178,0.271873 h -0.317773 l -0.16948,1.249909 h -0.282465 l 0.169479,-1.249909 h -0.331897 z"
         id="path1"
         style="display:inline;stroke-width:0.999998;fill:#ffffff" />
      <path
         d="m 14.948949,25.724528 h 0.278934 l -0.211849,1.521782 h -0.275403 z"
         id="path2"
         style="display:inline;stroke-width:0.999998;fill:#ffffff" />
      <path
         d="m 16.085872,25.724528 h 0.25775 l 0.257749,1.059245 0.526092,-1.059245 h 0.247157 l 0.02118,1.521782 h -0.268342 l -0.01412,-0.91095 -0.451945,0.91095 h -0.21891 l -0.233034,-0.956851 -0.243627,0.956851 h -0.271873 l 0.38839,-1.521782 z"
         id="path3"
         style="display:inline;stroke-width:0.999998;fill:#ffffff" />
      <path
         d="m 18.289102,25.724528 h 0.81915 l -0.03531,0.268342 H 18.54332 l -0.04237,0.314243 h 0.533153 l -0.03531,0.268342 h -0.536684 l -0.05649,0.402513 h 0.540215 l -0.03531,0.264812 H 18.080782 L 18.2891,25.720997 Z"
         id="path4"
         style="display:inline;stroke-width:0.999998;fill:#ffffff" />
      <path
         d="m 10.252962,124.99345 h 0.17301 l 0.17301,0.70617 0.349551,-0.70617 h 0.162418 l 0.01412,1.01335 H 10.94853 l -0.0071,-0.60377 -0.300119,0.60377 h -0.144764 l -0.155356,-0.63555 -0.162417,0.63555 H 9.9987432 l 0.2577498,-1.01335 z"
         id="path5"
         style="display:inline;stroke-width:0.999998;fill:#ffffff" />
      <path
         d="m 12.558586,125.12056 c 0.07768,0.0883 0.116517,0.19773 0.116517,0.32131 0,0.10592 -0.02825,0.20478 -0.08121,0.29659 -0.05296,0.0918 -0.123579,0.16594 -0.211849,0.21538 -0.08827,0.0494 -0.190664,0.0741 -0.30365,0.0741 -0.102394,0 -0.190665,-0.0212 -0.264812,-0.0636 l -0.0918,0.10592 -0.08121,-0.0671 0.0918,-0.1024 c -0.08474,-0.0883 -0.127109,-0.19772 -0.127109,-0.33542 0,-0.10946 0.02472,-0.21185 0.07768,-0.30365 0.05296,-0.0918 0.123579,-0.16595 0.211849,-0.21538 0.08827,-0.053 0.187133,-0.0777 0.296589,-0.0777 0.109455,0 0.208318,0.0282 0.285996,0.0812 l 0.08827,-0.1024 0.08121,0.0706 z m -0.699102,0.63202 0.494314,-0.56493 c -0.04943,-0.0282 -0.102393,-0.0424 -0.165948,-0.0424 -0.07062,0 -0.134171,0.0177 -0.194195,0.053 -0.06002,0.0353 -0.109455,0.0847 -0.144764,0.15183 -0.03531,0.0671 -0.05296,0.13417 -0.05296,0.20478 0,0.0777 0.02119,0.14477 0.06709,0.20126 z m 0.571992,-0.48725 -0.487253,0.55787 c 0.04237,0.0212 0.0918,0.0318 0.148295,0.0318 0.109455,0 0.204787,-0.0388 0.278934,-0.11651 0.07768,-0.0777 0.116517,-0.17301 0.116517,-0.28247 0,-0.0706 -0.01765,-0.13417 -0.05296,-0.18713 z"
         id="path6"
         style="display:inline;stroke-width:0.999998;fill:#ffffff" />
      <path
         d="m 13.187071,124.99345 h 0.494315 l -0.02472,0.18008 h -0.30012 l -0.03178,0.20831 h 0.30365 l -0.02472,0.17654 h -0.303651 l -0.06002,0.44489 h -0.190664 l 0.137702,-1.01335 z"
         id="path7"
         style="display:inline;stroke-width:0.999998;fill:#ffffff" />
      <path
         d="m 14.143923,124.99345 h 0.494314 l -0.02472,0.18008 h -0.300119 l -0.03178,0.20831 h 0.303651 l -0.02472,0.17654 h -0.30365 l -0.06002,0.44489 h -0.190664 l 0.137702,-1.01335 z"
         id="path8"
         style="display:inline;stroke-width:0.999998;fill:#ffffff" />
      <path
         d="m 15.100774,124.99345 h 0.543746 l -0.02472,0.18008 h -0.353082 l -0.02825,0.20831 h 0.356612 l -0.02472,0.17654 h -0.3566 l -0.03884,0.26835 h 0.360144 l -0.02472,0.17654 h -0.550808 l 0.137702,-1.01335 z"
         id="path9"
         style="display:inline;stroke-width:0.999998;fill:#ffffff" />
      <path
         d="m 16.128242,124.99345 h 0.165948 l 0.363674,0.68851 0.09533,-0.68851 h 0.183602 l -0.137702,1.01335 H 16.63668 l -0.370736,-0.69557 -0.09533,0.69557 h -0.183603 l 0.137702,-1.01335 z"
         id="path10"
         style="display:inline;stroke-width:0.999998;fill:#ffffff" />
      <path
         d="m 17.392274,124.99345 h 0.571993 l -0.402513,0.83681 h 0.317773 l -0.02472,0.17654 h -0.579054 l 0.402514,-0.83327 h -0.314243 l 0.02472,-0.17655 z"
         id="path11"
         style="display:inline;stroke-width:0.999998;fill:#ffffff" />
      <path
         d="m 18.426804,124.99345 h 0.543746 l -0.02472,0.18008 h -0.353082 l -0.02825,0.20831 h 0.356612 l -0.02472,0.17654 h -0.3566 l -0.03884,0.26835 h 0.360143 l -0.02472,0.17654 h -0.550808 l 0.137702,-1.01335 z"
         id="path12"
         style="display:inline;stroke-width:0.999998;fill:#ffffff" />
      <path
         d="m 19.440148,124.99345 h 0.543746 l -0.02472,0.18008 h -0.353082 l -0.02825,0.20831 h 0.356613 l -0.02472,0.17654 h -0.356612 l -0.03884,0.26835 h 0.360143 l -0.02472,0.17654 h -0.550807 l 0.137702,-1.01335 z"
         id="path13"
         style="display:inline;stroke-width:0.999998;fill:#ffffff" />
      <path
         d="m 20.457024,124.99345 h 0.494314 l -0.02472,0.18008 h -0.300119 l -0.03178,0.20831 h 0.30365 l -0.02472,0.17654 h -0.30365 l -0.06002,0.44489 h -0.190664 l 0.137702,-1.01335 z"
         id="path14"
         style="display:inline;stroke-width:0.999998;fill:#ffffff" />
      <path
         d="m 22.173001,124.99345 h 0.17301 l 0.17301,0.70617 0.349551,-0.70617 h 0.162418 l 0.01412,1.01335 h -0.176541 l -0.0071,-0.60377 -0.300119,0.60377 h -0.144764 l -0.155356,-0.63555 -0.162417,0.63555 h -0.180072 l 0.25775,-1.01335 z"
         id="path15"
         style="display:inline;stroke-width:0.999998;fill:#ffffff" />
      <path
         d="m 24.475094,125.12056 c 0.07768,0.0883 0.116517,0.19773 0.116517,0.32131 0,0.10592 -0.02825,0.20478 -0.08121,0.29659 -0.05296,0.0918 -0.123579,0.16594 -0.211849,0.21538 -0.08827,0.0494 -0.190664,0.0741 -0.30365,0.0741 -0.102394,0 -0.190665,-0.0212 -0.264812,-0.0636 l -0.0918,0.10592 -0.08121,-0.0671 0.0918,-0.1024 c -0.08474,-0.0883 -0.12711,-0.19772 -0.12711,-0.33542 0,-0.10946 0.02472,-0.21185 0.07768,-0.30365 0.05296,-0.0918 0.123579,-0.16595 0.211849,-0.21538 0.08827,-0.053 0.187133,-0.0777 0.296589,-0.0777 0.109455,0 0.208318,0.0282 0.285996,0.0812 l 0.08827,-0.1024 0.08121,0.0706 z m -0.699102,0.63202 0.494314,-0.56493 c -0.04943,-0.0282 -0.102393,-0.0424 -0.165948,-0.0424 -0.07062,0 -0.134171,0.0177 -0.194195,0.053 -0.06002,0.0353 -0.109455,0.0847 -0.144764,0.15183 -0.03531,0.0671 -0.05296,0.13417 -0.05296,0.20478 0,0.0777 0.02118,0.14477 0.06709,0.20126 z m 0.571992,-0.48725 -0.487252,0.55787 c 0.04237,0.0212 0.0918,0.0318 0.148294,0.0318 0.109455,0 0.204787,-0.0388 0.278934,-0.11651 0.07768,-0.0777 0.116517,-0.17301 0.116517,-0.28247 0,-0.0706 -0.01765,-0.13417 -0.05296,-0.18713 z"
         id="path16"
         style="display:inline;stroke-width:0.999998;fill:#ffffff" />
      <path
         d="m 25.114172,124.99345 h 0.158886 c 0.151826,0 0.261281,0.0177 0.335428,0.053 0.07415,0.0353 0.134171,0.0918 0.180072,0.16594 0.0459,0.0777 0.07062,0.16242 0.07062,0.26482 0,0.10239 -0.02472,0.19772 -0.07415,0.28246 -0.04943,0.0847 -0.109455,0.1483 -0.183603,0.18713 -0.07415,0.0388 -0.17654,0.06 -0.310711,0.06 H 24.97647 Z m 0.169479,0.17654 -0.08827,0.65674 h 0.06356 c 0.09533,0 0.165949,-0.007 0.208318,-0.0247 0.06002,-0.0247 0.109456,-0.0635 0.144764,-0.11652 0.03531,-0.0565 0.05649,-0.12357 0.05649,-0.20478 0,-0.0671 -0.01412,-0.12358 -0.03884,-0.16948 -0.02472,-0.0459 -0.06355,-0.0812 -0.109455,-0.10593 -0.0459,-0.0247 -0.109456,-0.0353 -0.187134,-0.0353 z"
         id="path17"
         style="display:inline;stroke-width:0.999998;fill:#ffffff" />
      <path
         d="m 26.378204,124.99345 h 0.190664 l -0.08474,0.62496 c -0.0071,0.053 -0.01059,0.0918 -0.01059,0.11652 0,0.0388 0.01059,0.0671 0.03531,0.0883 0.02472,0.0212 0.05649,0.0318 0.102394,0.0318 0.03531,0 0.06709,-0.007 0.09533,-0.0247 0.02118,-0.0106 0.03531,-0.0318 0.04943,-0.06 0.01059,-0.0282 0.02472,-0.0812 0.03531,-0.16594 l 0.08474,-0.61084 h 0.190665 l -0.08121,0.60377 c -0.01765,0.12358 -0.03884,0.21185 -0.06709,0.26835 -0.02825,0.053 -0.06708,0.0953 -0.120048,0.12357 -0.05296,0.0282 -0.116517,0.0424 -0.190664,0.0424 -0.102393,0 -0.180071,-0.0282 -0.236564,-0.0812 -0.05649,-0.053 -0.08474,-0.12711 -0.08474,-0.21892 0,-0.0388 0.0071,-0.0989 0.01765,-0.18007 l 0.07768,-0.55787 z"
         id="path18"
         style="display:inline;stroke-width:0.999998;fill:#ffffff" />
      <path
         d="m 27.56809,124.99345 h 0.190664 l -0.116517,0.83681 h 0.314242 l -0.02118,0.17301 h -0.504907 l 0.137702,-1.01335 z"
         id="path19"
         style="display:inline;stroke-width:0.999998;fill:#ffffff" />
      <path
         d="m 28.814468,124.99345 h 0.158887 l 0.250688,1.01335 H 29.04044 l -0.05296,-0.21538 h -0.402513 l -0.116517,0.21538 h -0.204787 l 0.547276,-1.01335 z m 0.127109,0.6179 -0.08121,-0.3319 -0.176541,0.3319 z"
         id="path20"
         style="display:inline;stroke-width:0.999998;fill:#ffffff" />
      <path
         d="m 29.803097,124.99345 h 0.176541 c 0.109455,0 0.183602,0.0106 0.229503,0.0282 0.05649,0.0247 0.09533,0.0565 0.123578,0.0989 0.02825,0.0424 0.04237,0.0918 0.04237,0.1483 0,0.0706 -0.02118,0.13064 -0.06355,0.18007 -0.04237,0.0494 -0.105925,0.0847 -0.187134,0.10592 l 0.218911,0.45195 H 30.14559 l -0.21538,-0.44135 h -0.01412 l -0.06002,0.44135 h -0.190664 z m 0.134171,0.40252 c 0.102394,0 0.169479,-0.0106 0.201257,-0.0318 0.03178,-0.0212 0.0459,-0.053 0.0459,-0.0953 0,-0.0247 -0.0071,-0.0424 -0.01765,-0.06 -0.01412,-0.0177 -0.03178,-0.0282 -0.05296,-0.0353 -0.02118,-0.007 -0.07062,-0.0106 -0.144764,-0.0106 l -0.03178,0.22951 z"
         id="path21"
         style="display:inline;stroke-width:0.999998;fill:#ffffff" />
      <path
         id="polygon21"
         class="st6"
         style="display:inline;fill:none;stroke:#ffffff;stroke-width:0.18;stroke-miterlimit:10;stroke-dasharray:none;stroke-opacity:1"
         d="M 21.615132,18.539315 21.947029,34.297352 7.0822882,26.374199 Z" />
      <path
         id="polygon22"
         class="st6"
         style="display:inline;fill:none;stroke:#ffffff;stroke-width:0.18;stroke-miterlimit:10;stroke-dasharray:none;stroke-opacity:1"
         d="M 22.367196,18.458106 21.124348,36.01333 5.4086809,25.685689 Z" />
      <path
         id="polygon23"
         class="st6"
         style="display:inline;fill:none;stroke:#ffffff;stroke-width:0.18;stroke-miterlimit:10;stroke-dasharray:none;stroke-opacity:1"
         d="M 23.11926,18.380428 20.301668,37.729307 3.7350735,24.99718 Z" />
      <path
         d="m 2.9018006,43.40333 h 0.2612805 l 0.08827,0.985098 L 3.717419,43.40333 H 3.9327989 L 4.1128705,44.363712 4.451829,43.40333 h 0.2754037 l -0.540215,1.521782 H 3.9539842 L 3.76332,43.918829 3.2866597,44.925112 H 3.0359717 L 2.8982698,43.40333 Z"
         id="path23"
         style="display:inline;stroke-width:0.999998;fill:#ffffff" />
      <path
         d="m 5.3627802,43.40333 h 0.2789346 l -0.211849,1.521782 H 5.154462 Z"
         id="path24"
         style="display:inline;stroke-width:0.999998;fill:#ffffff" />
      <path
         d="m 6.390248,43.40333 h 0.2400956 c 0.2259723,0 0.3954515,0.02825 0.5049069,0.08121 0.1094553,0.05296 0.2012565,0.137702 0.2683421,0.250688 0.070616,0.112986 0.1023937,0.247157 0.1023937,0.395451 0,0.148295 -0.035308,0.296589 -0.1094554,0.423698 -0.074147,0.12711 -0.1659484,0.222442 -0.2789345,0.282466 -0.1129862,0.06002 -0.2683421,0.08827 -0.4660679,0.08827 H 6.178399 L 6.3867172,43.40333 Z m 0.2506881,0.268342 -0.1341711,0.988629 h 0.095332 c 0.1447635,0 0.250688,-0.01059 0.3142427,-0.03531 0.091801,-0.03531 0.1624176,-0.0918 0.2189107,-0.176541 0.056493,-0.08474 0.081209,-0.187133 0.081209,-0.310712 0,-0.102394 -0.017654,-0.183603 -0.056493,-0.254219 -0.038839,-0.07062 -0.091801,-0.120048 -0.1624176,-0.158887 -0.070616,-0.03531 -0.1659484,-0.05649 -0.2824654,-0.05649 h -0.070616 z"
         id="path25"
         style="display:inline;stroke-width:0.999998;fill:#ffffff" />
      <path
         d="m 8.0991636,43.40333 h 0.9286049 l -0.031777,0.271873 H 8.6782176 L 8.5087384,44.925112 H 8.226273 L 8.3957522,43.675203 H 8.0638554 Z"
         id="path26"
         style="display:inline;stroke-width:0.999998;fill:#ffffff" />
      <path
         d="m 9.6103533,43.40333 h 0.2859962 l -0.077678,0.575523 h 0.5225605 l 0.07768,-0.575523 h 0.285997 l -0.208319,1.521782 h -0.285996 l 0.09533,-0.69204 H 9.7833634 l -0.095332,0.69204 H 9.4020351 Z"
         id="path27"
         style="display:inline;stroke-width:0.999998;fill:#ffffff" />
      <path
         d="m 30.24798,33.524103 h 0.264811 c 0.162418,0 0.278935,0.01412 0.34602,0.04237 0.08121,0.03531 0.144764,0.08474 0.187134,0.144764 0.04237,0.06355 0.06355,0.137702 0.06355,0.222441 0,0.105925 -0.03178,0.194195 -0.09533,0.271873 -0.06356,0.07768 -0.158887,0.12711 -0.282465,0.158887 l 0.331897,0.681448 H 30.76701 l -0.324835,-0.663794 h -0.02472 l -0.0918,0.663794 h -0.285996 z m 0.201256,0.607301 c 0.155356,0 0.254219,-0.01765 0.30012,-0.04943 0.0459,-0.03178 0.07062,-0.07768 0.07062,-0.141233 0,-0.03531 -0.01059,-0.06709 -0.02825,-0.08827 -0.01765,-0.02472 -0.0459,-0.04237 -0.08121,-0.04943 -0.03531,-0.01059 -0.105925,-0.01412 -0.21538,-0.01412 l -0.0459,0.34602 z"
         id="path28"
         style="display:inline;stroke-width:0.999998;fill:#ffffff" />
      <path
         d="m 32.401778,33.524103 h 0.240096 l 0.377797,1.521783 h -0.278934 l -0.08121,-0.324836 h -0.60377 l -0.17301,0.324836 h -0.307181 l 0.822681,-1.521783 z m 0.190664,0.928605 -0.120047,-0.501376 -0.268342,0.501376 z"
         id="path29"
         style="display:inline;stroke-width:0.999998;fill:#ffffff" />
      <path
         d="m 33.874129,33.524103 h 0.250688 l 0.547277,1.03453 0.141232,-1.03453 h 0.278935 l -0.208318,1.521783 h -0.243627 l -0.554338,-1.045122 -0.141233,1.045122 h -0.275403 z"
         id="path30"
         style="display:inline;stroke-width:0.999998;fill:#ffffff" />
      <path
         d="m 37.178974,33.806569 -0.236565,0.155356 c -0.07062,-0.07768 -0.134171,-0.134171 -0.201256,-0.162418 -0.06709,-0.02825 -0.137702,-0.0459 -0.218911,-0.0459 -0.176541,0 -0.317774,0.07062 -0.43076,0.211849 -0.08827,0.112986 -0.13064,0.236564 -0.13064,0.374266 0,0.137702 0.0459,0.247157 0.134171,0.338959 0.08827,0.0918 0.201257,0.137702 0.331897,0.137702 0.09886,0 0.187133,-0.02472 0.268342,-0.07062 0.08121,-0.0459 0.144764,-0.120048 0.197726,-0.211849 h -0.47313 l 0.03531,-0.268342 h 0.769719 c -0.01059,0.250688 -0.08827,0.451945 -0.236565,0.600239 -0.148294,0.148294 -0.331897,0.222441 -0.5614,0.222441 -0.247157,0 -0.441352,-0.08474 -0.582585,-0.257749 -0.112986,-0.137702 -0.169479,-0.30012 -0.169479,-0.490784 0,-0.229503 0.08474,-0.430759 0.250688,-0.600239 0.165948,-0.169479 0.363674,-0.250688 0.596708,-0.250688 0.08474,0 0.169479,0.01412 0.250688,0.03884 0.08121,0.02472 0.155356,0.06002 0.218911,0.105925 0.06708,0.0459 0.127109,0.105924 0.187133,0.180071 z"
         id="path31"
         style="display:inline;stroke-width:0.999998;fill:#ffffff" />
      <path
         d="m 38.051086,33.524103 h 0.819149 l -0.03531,0.268343 h -0.529622 l -0.04237,0.314242 h 0.533153 l -0.03531,0.268342 h -0.536684 l -0.05649,0.402514 h 0.540215 l -0.03531,0.264811 h -0.829742 l 0.208318,-1.521782 z"
         id="path32"
         style="display:inline;stroke-width:0.999998;fill:#ffffff" />
      <path
         id="circle32"
         d="m 23.949003,59.856938 a 0.24362639,0.24362639 0 0 1 -0.243627,0.243626 0.24362639,0.24362639 0 0 1 -0.243626,-0.243626 0.24362639,0.24362639 0 0 1 0.243626,-0.243626 0.24362639,0.24362639 0 0 1 0.243627,0.243626 z"
         style="display:inline;stroke-width:0.999998;fill:#ffffff" />
      <path
         id="circle33"
         d="m 24.701066,59.429709 a 0.24362639,0.24362639 0 0 1 -0.243626,0.243627 0.24362639,0.24362639 0 0 1 -0.243627,-0.243627 0.24362639,0.24362639 0 0 1 0.243627,-0.243626 0.24362639,0.24362639 0 0 1 0.243626,0.243626 z"
         style="display:inline;stroke-width:0.999998;fill:#ffffff" />
      <path
         id="circle34"
         d="m 25.393106,58.917741 a 0.24362639,0.24362639 0 0 1 -0.243627,0.243626 0.24362639,0.24362639 0 0 1 -0.243626,-0.243626 0.24362639,0.24362639 0 0 1 0.243626,-0.243627 0.24362639,0.24362639 0 0 1 0.243627,0.243627 z"
         style="display:inline;stroke-width:0.999998;fill:#ffffff" />
      <path
         id="circle35"
         d="m 26.018062,58.324567 a 0.24362639,0.24362639 0 0 1 -0.243626,0.243626 0.24362639,0.24362639 0 0 1 -0.243627,-0.243626 0.24362639,0.24362639 0 0 1 0.243627,-0.243626 0.24362639,0.24362639 0 0 1 0.243626,0.243626 z"
         style="display:inline;stroke-width:0.999998;fill:#ffffff" />
      <path
         id="circle36"
         d="m 27.031405,56.929887 a 0.24362639,0.24362639 0 0 1 -0.243627,0.243627 0.24362639,0.24362639 0 0 1 -0.243626,-0.243627 0.24362639,0.24362639 0 0 1 0.243626,-0.243626 0.24362639,0.24362639 0 0 1 0.243627,0.243626 z"
         style="display:inline;stroke-width:0.999998;fill:#ffffff" />
      <path
         id="circle37"
         d="m 27.402142,56.153111 a 0.24362639,0.24362639 0 0 1 -0.243627,0.243626 0.24362639,0.24362639 0 0 1 -0.243626,-0.243626 0.24362639,0.24362639 0 0 1 0.243626,-0.243627 0.24362639,0.24362639 0 0 1 0.243627,0.243627 z"
         style="display:inline;stroke-width:0.999998;fill:#ffffff" />
      <path
         id="circle38"
         d="m 27.674013,55.333961 a 0.24362639,0.24362639 0 0 1 -0.243626,0.243627 0.24362639,0.24362639 0 0 1 -0.243626,-0.243627 0.24362639,0.24362639 0 0 1 0.243626,-0.243626 0.24362639,0.24362639 0 0 1 0.243626,0.243626 z"
         style="display:inline;stroke-width:0.999998;fill:#ffffff" />
      <path
         id="circle39"
         d="m 27.847025,54.486565 a 0.24362639,0.24362639 0 0 1 -0.243626,0.243627 0.24362639,0.24362639 0 0 1 -0.243627,-0.243627 0.24362639,0.24362639 0 0 1 0.243627,-0.243626 0.24362639,0.24362639 0 0 1 0.243626,0.243626 z"
         style="display:inline;stroke-width:0.999998;fill:#ffffff" />
      <path
         id="circle40"
         d="m 27.87527,52.767057 a 0.24362639,0.24362639 0 0 1 -0.243626,0.243627 0.24362639,0.24362639 0 0 1 -0.243627,-0.243627 0.24362639,0.24362639 0 0 1 0.243627,-0.243626 0.24362639,0.24362639 0 0 1 0.243626,0.243626 z"
         style="display:inline;stroke-width:0.999998;fill:#ffffff" />
      <path
         id="circle41"
         d="m 27.734039,51.91613 a 0.24362639,0.24362639 0 0 1 -0.243626,0.243627 0.24362639,0.24362639 0 0 1 -0.243626,-0.243627 0.24362639,0.24362639 0 0 1 0.243626,-0.243626 0.24362639,0.24362639 0 0 1 0.243626,0.243626 z"
         style="display:inline;stroke-width:0.999998;fill:#ffffff" />
      <path
         id="circle42"
         d="m 27.490412,51.089919 a 0.24362639,0.24362639 0 0 1 -0.243626,0.243626 0.24362639,0.24362639 0 0 1 -0.243627,-0.243626 0.24362639,0.24362639 0 0 1 0.243627,-0.243626 0.24362639,0.24362639 0 0 1 0.243626,0.243626 z"
         style="display:inline;stroke-width:0.999998;fill:#ffffff" />
      <path
         id="circle43"
         d="m 27.144391,50.299016 a 0.24362639,0.24362639 0 0 1 -0.243627,0.243626 0.24362639,0.24362639 0 0 1 -0.243626,-0.243626 0.24362639,0.24362639 0 0 1 0.243626,-0.243626 0.24362639,0.24362639 0 0 1 0.243627,0.243626 z"
         style="display:inline;stroke-width:0.999998;fill:#ffffff" />
      <path
         id="circle44"
         d="m 26.70657,49.55401 a 0.24362639,0.24362639 0 0 1 -0.243626,0.243626 0.24362639,0.24362639 0 0 1 -0.243627,-0.243626 0.24362639,0.24362639 0 0 1 0.243627,-0.243626 0.24362639,0.24362639 0 0 1 0.243626,0.243626 z"
         style="display:inline;stroke-width:0.999998;fill:#ffffff" />
      <path
         id="circle45"
         d="m 26.180479,48.872566 a 0.24362639,0.24362639 0 0 1 -0.243626,0.243626 0.24362639,0.24362639 0 0 1 -0.243627,-0.243626 0.24362639,0.24362639 0 0 1 0.243627,-0.243627 0.24362639,0.24362639 0 0 1 0.243626,0.243627 z"
         style="display:inline;stroke-width:0.999998;fill:#ffffff" />
      <path
         id="circle46"
         d="m 24.902322,47.717989 a 0.24362639,0.24362639 0 0 1 -0.243626,0.243626 0.24362639,0.24362639 0 0 1 -0.243627,-0.243626 0.24362639,0.24362639 0 0 1 0.243627,-0.243627 0.24362639,0.24362639 0 0 1 0.243626,0.243627 z"
         style="display:inline;stroke-width:0.999998;fill:#ffffff" />
      <path
         id="circle47"
         d="m 24.167912,47.269571 a 0.24362639,0.24362639 0 0 1 -0.243626,0.243627 0.24362639,0.24362639 0 0 1 -0.243627,-0.243627 0.24362639,0.24362639 0 0 1 0.243627,-0.243626 0.24362639,0.24362639 0 0 1 0.243626,0.243626 z"
         style="display:inline;stroke-width:0.999998;fill:#ffffff" />
      <path
         id="circle48"
         d="m 23.380541,46.912962 a 0.24362639,0.24362639 0 0 1 -0.243626,0.243627 0.24362639,0.24362639 0 0 1 -0.243627,-0.243627 0.24362639,0.24362639 0 0 1 0.243627,-0.243626 0.24362639,0.24362639 0 0 1 0.243626,0.243626 z"
         style="display:inline;stroke-width:0.999998;fill:#ffffff" />
      <path
         id="circle49"
         d="m 22.55786,46.651678 a 0.24362639,0.24362639 0 0 1 -0.243626,0.243627 0.24362639,0.24362639 0 0 1 -0.243627,-0.243627 0.24362639,0.24362639 0 0 1 0.243627,-0.243626 0.24362639,0.24362639 0 0 1 0.243626,0.243626 z"
         style="display:inline;stroke-width:0.999998;fill:#ffffff" />
      <path
         id="circle50"
         d="m 21.710463,46.496329 a 0.24362639,0.24362639 0 0 1 -0.243626,0.243627 0.24362639,0.24362639 0 0 1 -0.243627,-0.243627 0.24362639,0.24362639 0 0 1 0.243627,-0.243626 0.24362639,0.24362639 0 0 1 0.243626,0.243626 z"
         style="display:inline;stroke-width:0.999998;fill:#ffffff" />
      <path
         id="circle51"
         d="m 19.987425,46.496329 a 0.24362639,0.24362639 0 0 1 -0.243626,0.243627 0.24362639,0.24362639 0 0 1 -0.243626,-0.243627 0.24362639,0.24362639 0 0 1 0.243626,-0.243626 0.24362639,0.24362639 0 0 1 0.243626,0.243626 z"
         style="display:inline;stroke-width:0.999998;fill:#ffffff" />
      <path
         id="circle52"
         d="m 19.140029,46.651678 a 0.24362639,0.24362639 0 0 1 -0.243626,0.243627 0.24362639,0.24362639 0 0 1 -0.243627,-0.243627 0.24362639,0.24362639 0 0 1 0.243627,-0.243626 0.24362639,0.24362639 0 0 1 0.243626,0.243626 z"
         style="display:inline;stroke-width:0.999998;fill:#ffffff" />
      <path
         id="circle53"
         d="m 18.317349,46.912962 a 0.24362639,0.24362639 0 0 1 -0.243626,0.243627 0.24362639,0.24362639 0 0 1 -0.243627,-0.243627 0.24362639,0.24362639 0 0 1 0.243627,-0.243626 0.24362639,0.24362639 0 0 1 0.243626,0.243626 z"
         style="display:inline;stroke-width:0.999998;fill:#ffffff" />
      <path
         id="circle54"
         d="m 17.533507,47.269571 a 0.24362639,0.24362639 0 0 1 -0.243626,0.243627 0.24362639,0.24362639 0 0 1 -0.243627,-0.243627 0.24362639,0.24362639 0 0 1 0.243627,-0.243626 0.24362639,0.24362639 0 0 1 0.243626,0.243626 z"
         style="display:inline;stroke-width:0.999998;fill:#ffffff" />
      <path
         id="circle55"
         d="m 16.799097,47.721523 a 0.24362639,0.24362639 0 0 1 -0.243627,0.243626 0.24362639,0.24362639 0 0 1 -0.243626,-0.243626 0.24362639,0.24362639 0 0 1 0.243626,-0.243626 0.24362639,0.24362639 0 0 1 0.243627,0.243626 z"
         style="display:inline;stroke-width:0.999998;fill:#ffffff" />
      <path
         id="circle56"
         d="m 15.517411,48.872566 a 0.24362639,0.24362639 0 0 1 -0.243627,0.243626 0.24362639,0.24362639 0 0 1 -0.243626,-0.243626 0.24362639,0.24362639 0 0 1 0.243626,-0.243627 0.24362639,0.24362639 0 0 1 0.243627,0.243627 z"
         style="display:inline;stroke-width:0.999998;fill:#ffffff" />
      <path
         id="circle57"
         d="m 14.99485,49.557544 a 0.24362639,0.24362639 0 0 1 -0.243626,0.243627 0.24362639,0.24362639 0 0 1 -0.243627,-0.243627 0.24362639,0.24362639 0 0 1 0.243627,-0.243626 0.24362639,0.24362639 0 0 1 0.243626,0.243626 z"
         style="display:inline;stroke-width:0.999998;fill:#ffffff" />
      <path
         id="circle58"
         d="m 14.557028,50.302547 a 0.24362639,0.24362639 0 0 1 -0.243626,0.243626 0.24362639,0.24362639 0 0 1 -0.243627,-0.243626 0.24362639,0.24362639 0 0 1 0.243627,-0.243627 0.24362639,0.24362639 0 0 1 0.243626,0.243627 z"
         style="display:inline;stroke-width:0.999998;fill:#ffffff" />
      <path
         id="circle59"
         d="m 14.211008,51.09345 a 0.24362639,0.24362639 0 0 1 -0.243626,0.243626 0.24362639,0.24362639 0 0 1 -0.243626,-0.243626 0.24362639,0.24362639 0 0 1 0.243626,-0.243627 0.24362639,0.24362639 0 0 1 0.243626,0.243627 z"
         style="display:inline;stroke-width:0.999998;fill:#ffffff" />
      <path
         id="circle60"
         d="m 13.967381,51.919665 a 0.24362639,0.24362639 0 0 1 -0.243626,0.243626 0.24362639,0.24362639 0 0 1 -0.243627,-0.243626 0.24362639,0.24362639 0 0 1 0.243627,-0.243627 0.24362639,0.24362639 0 0 1 0.243626,0.243627 z"
         style="display:inline;stroke-width:0.999998;fill:#ffffff" />
      <path
         id="circle61"
         d="m 13.826149,52.770588 a 0.24362639,0.24362639 0 0 1 -0.243626,0.243626 0.24362639,0.24362639 0 0 1 -0.243627,-0.243626 0.24362639,0.24362639 0 0 1 0.243627,-0.243626 0.24362639,0.24362639 0 0 1 0.243626,0.243626 z"
         style="display:inline;stroke-width:0.999998;fill:#ffffff" />
      <path
         id="circle62"
         d="m 13.854395,54.490099 a 0.24362639,0.24362639 0 0 1 -0.243626,0.243627 0.24362639,0.24362639 0 0 1 -0.243627,-0.243627 0.24362639,0.24362639 0 0 1 0.243627,-0.243626 0.24362639,0.24362639 0 0 1 0.243626,0.243626 z"
         style="display:inline;stroke-width:0.999998;fill:#ffffff" />
      <path
         id="circle63"
         d="m 14.027406,55.337492 a 0.24362639,0.24362639 0 0 1 -0.243627,0.243626 0.24362639,0.24362639 0 0 1 -0.243626,-0.243626 0.24362639,0.24362639 0 0 1 0.243626,-0.243626 0.24362639,0.24362639 0 0 1 0.243627,0.243626 z"
         style="display:inline;stroke-width:0.999998;fill:#ffffff" />
      <path
         id="circle64"
         d="m 14.302809,56.153111 a 0.24362639,0.24362639 0 0 1 -0.243626,0.243626 0.24362639,0.24362639 0 0 1 -0.243627,-0.243626 0.24362639,0.24362639 0 0 1 0.243627,-0.243627 0.24362639,0.24362639 0 0 1 0.243626,0.243627 z"
         style="display:inline;stroke-width:0.999998;fill:#ffffff" />
      <path
         id="circle65"
         d="m 14.673544,56.933421 a 0.24362639,0.24362639 0 0 1 -0.243626,0.243627 0.24362639,0.24362639 0 0 1 -0.243626,-0.243627 0.24362639,0.24362639 0 0 1 0.243626,-0.243626 0.24362639,0.24362639 0 0 1 0.243626,0.243626 z"
         style="display:inline;stroke-width:0.999998;fill:#ffffff" />
      <path
         id="circle66"
         d="m 15.68689,58.324567 a 0.24362639,0.24362639 0 0 1 -0.243626,0.243626 0.24362639,0.24362639 0 0 1 -0.243627,-0.243626 0.24362639,0.24362639 0 0 1 0.243627,-0.243626 0.24362639,0.24362639 0 0 1 0.243626,0.243626 z"
         style="display:inline;stroke-width:0.999998;fill:#ffffff" />
      <path
         id="circle67"
         d="m 16.311845,58.921268 a 0.24362639,0.24362639 0 0 1 -0.243627,0.243626 0.24362639,0.24362639 0 0 1 -0.243626,-0.243626 0.24362639,0.24362639 0 0 1 0.243626,-0.243626 0.24362639,0.24362639 0 0 1 0.243627,0.243626 z"
         style="display:inline;stroke-width:0.999998;fill:#ffffff" />
      <path
         id="circle68"
         d="m 17.003885,59.433244 a 0.24362639,0.24362639 0 0 1 -0.243627,0.243626 0.24362639,0.24362639 0 0 1 -0.243626,-0.243626 0.24362639,0.24362639 0 0 1 0.243626,-0.243627 0.24362639,0.24362639 0 0 1 0.243627,0.243627 z"
         style="display:inline;stroke-width:0.999998;fill:#ffffff" />
      <path
         id="circle69"
         d="m 17.755949,59.856938 a 0.24362639,0.24362639 0 0 1 -0.243626,0.243626 0.24362639,0.24362639 0 0 1 -0.243626,-0.243626 0.24362639,0.24362639 0 0 1 0.243626,-0.243626 0.24362639,0.24362639 0 0 1 0.243626,0.243626 z"
         style="display:inline;stroke-width:0.999998;fill:#ffffff" />
      <path
         id="rect69"
         d="m 20.859539,45.617152 v 0.413106 c 0,0.134969 -0.108658,0.243626 -0.243627,0.243626 -0.134969,0 -0.243626,-0.108657 -0.243626,-0.243626 v -0.413106 c 0,-0.134969 0.108657,-0.243626 0.243626,-0.243626 0.134969,0 0.243627,0.108657 0.243627,0.243626 z"
         style="display:inline;stroke-width:0.999998;fill:#ffffff" />
      <path
         id="rect70"
         d="m 26.066077,47.785303 -0.274649,0.308584 c -0.08973,0.10082 -0.243138,0.109746 -0.343958,0.02001 -0.10082,-0.08973 -0.109746,-0.243138 -0.02001,-0.343958 l 0.274649,-0.308584 c 0.08973,-0.10082 0.243138,-0.109746 0.343958,-0.02001 0.10082,0.08973 0.109746,0.243138 0.02001,0.343958 z"
         style="display:inline;stroke-width:0.999998;fill:#ffffff" />
      <path
         id="rect71"
         d="m 15.531046,47.462183 0.274541,0.30868 c 0.0897,0.100852 0.08072,0.254254 -0.02013,0.343951 -0.100851,0.0897 -0.254253,0.08072 -0.343951,-0.02013 l -0.274541,-0.30868 c -0.0897,-0.100851 -0.08072,-0.254253 0.02013,-0.343951 0.100851,-0.0897 0.254253,-0.08072 0.343951,0.02013 z"
         style="display:inline;stroke-width:0.999998;fill:#ffffff" />
      <path
         id="rect72"
         d="m 14.040478,57.963528 0.335645,-0.24083 c 0.109661,-0.07868 0.261288,-0.05374 0.339972,0.05592 0.07868,0.109661 0.05374,0.261289 -0.05592,0.339972 l -0.335644,0.24083 c -0.109661,0.07868 -0.261289,0.05374 -0.339972,-0.05592 -0.07868,-0.109661 -0.05375,-0.261289 0.05592,-0.339972 z"
         style="display:inline;stroke-width:0.999998;fill:#ffffff" />
      <path
         id="rect73"
         d="m 26.917351,58.356716 -0.33577,-0.240654 c -0.109703,-0.07863 -0.134721,-0.23024 -0.05609,-0.339943 0.07863,-0.109702 0.230241,-0.13472 0.339943,-0.05609 l 0.335771,0.240654 c 0.109702,0.07863 0.13472,0.230241 0.05609,0.339943 -0.07863,0.109702 -0.23024,0.13472 -0.339943,0.05609 z"
         style="display:inline;stroke-width:0.999998;fill:#ffffff" />
      <path
         id="rect74"
         d="m 28.530935,53.939681 -0.41303,-0.0079 c -0.134945,-0.0026 -0.241516,-0.113272 -0.238948,-0.248217 0.0026,-0.134944 0.113272,-0.241515 0.248217,-0.238947 l 0.41303,0.0079 c 0.134945,0.0026 0.241516,0.113272 0.238948,0.248217 -0.0026,0.134944 -0.113272,0.241515 -0.248217,0.238947 z"
         style="display:inline;stroke-width:0.999998;fill:#ffffff" />
      <path
         id="rect75"
         d="m 12.689574,53.376988 0.413087,-0.004 c 0.134963,-0.0013 0.244658,0.106314 0.245953,0.241277 0.0013,0.134962 -0.106313,0.244658 -0.241276,0.245953 l -0.413087,0.004 c -0.134962,0.0013 -0.244658,-0.106314 -0.245953,-0.241277 -0.0013,-0.134963 0.106313,-0.244658 0.241276,-0.245953 z"
         style="display:inline;stroke-width:0.999998;fill:#ffffff" />
      <path
         id="circle75"
         d="m 26.31818,23.228239 a 0.29658863,0.29658863 0 0 1 -0.296588,0.296589 0.29658863,0.29658863 0 0 1 -0.296589,-0.296589 0.29658863,0.29658863 0 0 1 0.296589,-0.296588 0.29658863,0.29658863 0 0 1 0.296588,0.296588 z"
         style="display:inline;stroke-width:0.999998;fill:#ffffff" />
      <path
         id="circle76"
         d="m 27.162045,22.635062 a 0.29658863,0.29658863 0 0 1 -0.296588,0.296589 0.29658863,0.29658863 0 0 1 -0.296589,-0.296589 0.29658863,0.29658863 0 0 1 0.296589,-0.296589 0.29658863,0.29658863 0 0 1 0.296588,0.296589 z"
         style="display:inline;stroke-width:0.999998;fill:#ffffff" />
      <path
         id="circle77"
         d="m 28.380176,20.876717 a 0.29658863,0.29658863 0 0 1 -0.296588,0.296588 0.29658863,0.29658863 0 0 1 -0.296589,-0.296588 0.29658863,0.29658863 0 0 1 0.296589,-0.296589 0.29658863,0.29658863 0 0 1 0.296588,0.296589 z"
         style="display:inline;stroke-width:0.999998;fill:#ffffff" />
      <path
         id="circle78"
         d="m 28.828592,19.933988 a 0.29658863,0.29658863 0 0 1 -0.296589,0.296588 0.29658863,0.29658863 0 0 1 -0.296589,-0.296588 0.29658863,0.29658863 0 0 1 0.296589,-0.296589 0.29658863,0.29658863 0 0 1 0.296589,0.296589 z"
         style="display:inline;stroke-width:0.999998;fill:#ffffff" />
      <path
         id="circle79"
         d="m 29.160489,18.945359 a 0.29658863,0.29658863 0 0 1 -0.296588,0.296589 0.29658863,0.29658863 0 0 1 -0.296589,-0.296589 0.29658863,0.29658863 0 0 1 0.296589,-0.296588 0.29658863,0.29658863 0 0 1 0.296588,0.296588 z"
         style="display:inline;stroke-width:0.999998;fill:#ffffff" />
      <path
         id="circle80"
         d="m 29.365274,17.921422 a 0.29658863,0.29658863 0 0 1 -0.296588,0.296588 0.29658863,0.29658863 0 0 1 -0.296589,-0.296588 0.29658863,0.29658863 0 0 1 0.296589,-0.296589 0.29658863,0.29658863 0 0 1 0.296588,0.296589 z"
         style="display:inline;stroke-width:0.999998;fill:#ffffff" />
      <path
         id="circle81"
         d="m 29.404114,15.83824 a 0.29658863,0.29658863 0 0 1 -0.296589,0.296589 0.29658863,0.29658863 0 0 1 -0.296588,-0.296589 0.29658863,0.29658863 0 0 1 0.296588,-0.296589 0.29658863,0.29658863 0 0 1 0.296589,0.296589 z"
         style="display:inline;stroke-width:0.999998;fill:#ffffff" />
      <path
         id="circle82"
         d="m 29.231105,14.810773 a 0.29658863,0.29658863 0 0 1 -0.296589,0.296588 0.29658863,0.29658863 0 0 1 -0.296589,-0.296588 0.29658863,0.29658863 0 0 1 0.296589,-0.296589 0.29658863,0.29658863 0 0 1 0.296589,0.296589 z"
         style="display:inline;stroke-width:0.999998;fill:#ffffff" />
      <path
         id="circle83"
         d="m 28.934517,13.80802 a 0.29658863,0.29658863 0 0 1 -0.296588,0.296589 0.29658863,0.29658863 0 0 1 -0.296589,-0.296589 0.29658863,0.29658863 0 0 1 0.296589,-0.296588 0.29658863,0.29658863 0 0 1 0.296588,0.296588 z"
         style="display:inline;stroke-width:0.999998;fill:#ffffff" />
      <path
         id="circle84"
         d="m 28.51788,12.851169 a 0.29658863,0.29658863 0 0 1 -0.296588,0.296589 0.29658863,0.29658863 0 0 1 -0.296589,-0.296589 0.29658863,0.29658863 0 0 1 0.296589,-0.296589 0.29658863,0.29658863 0 0 1 0.296588,0.296589 z"
         style="display:inline;stroke-width:0.999998;fill:#ffffff" />
      <path
         id="circle85"
         d="m 27.988258,11.954341 a 0.29658863,0.29658863 0 0 1 -0.296589,0.296589 0.29658863,0.29658863 0 0 1 -0.296588,-0.296589 0.29658863,0.29658863 0 0 1 0.296588,-0.296588 0.29658863,0.29658863 0 0 1 0.296589,0.296588 z"
         style="display:inline;stroke-width:0.999998;fill:#ffffff" />
      <path
         id="circle86"
         d="m 27.35271,11.124599 a 0.29658863,0.29658863 0 0 1 -0.296589,0.296589 0.29658863,0.29658863 0 0 1 -0.296589,-0.296589 0.29658863,0.29658863 0 0 1 0.296589,-0.296589 0.29658863,0.29658863 0 0 1 0.296589,0.296589 z"
         style="display:inline;stroke-width:0.999998;fill:#ffffff" />
      <path
         id="circle87"
         d="M 25.802681,9.729926 A 0.29658863,0.29658863 0 0 1 25.506093,10.026515 0.29658863,0.29658863 0 0 1 25.209504,9.729926 0.29658863,0.29658863 0 0 1 25.506093,9.4333373 0.29658863,0.29658863 0 0 1 25.802681,9.729926 Z"
         style="display:inline;stroke-width:0.999998;fill:#ffffff" />
      <path
         id="circle88"
         d="M 24.912914,9.1861805 A 0.29658863,0.29658863 0 0 1 24.616325,9.4827691 0.29658863,0.29658863 0 0 1 24.319737,9.1861805 0.29658863,0.29658863 0 0 1 24.616325,8.8895918 0.29658863,0.29658863 0 0 1 24.912914,9.1861805 Z"
         style="display:inline;stroke-width:0.999998;fill:#ffffff" />
      <path
         id="circle89"
         d="M 23.963126,8.7518903 A 0.29658863,0.29658863 0 0 1 23.666537,9.048479 0.29658863,0.29658863 0 0 1 23.369949,8.7518903 0.29658863,0.29658863 0 0 1 23.666537,8.4553017 0.29658863,0.29658863 0 0 1 23.963126,8.7518903 Z"
         style="display:inline;stroke-width:0.999998;fill:#ffffff" />
      <path
         id="circle90"
         d="M 22.967435,8.441178 A 0.29658863,0.29658863 0 0 1 22.670847,8.7377667 0.29658863,0.29658863 0 0 1 22.374258,8.441178 0.29658863,0.29658863 0 0 1 22.670847,8.1445894 0.29658863,0.29658863 0 0 1 22.967435,8.441178 Z"
         style="display:inline;stroke-width:0.999998;fill:#ffffff" />
      <path
         id="circle91"
         d="M 21.939966,8.2505143 A 0.29658863,0.29658863 0 0 1 21.643378,8.5471029 0.29658863,0.29658863 0 0 1 21.346789,8.2505143 0.29658863,0.29658863 0 0 1 21.643378,7.9539256 0.29658863,0.29658863 0 0 1 21.939966,8.2505143 Z"
         style="display:inline;stroke-width:0.999998;fill:#ffffff" />
      <path
         id="circle92"
         d="M 19.856785,8.2505143 A 0.29658863,0.29658863 0 0 1 19.560197,8.5471029 0.29658863,0.29658863 0 0 1 19.263608,8.2505143 0.29658863,0.29658863 0 0 1 19.560197,7.9539256 0.29658863,0.29658863 0 0 1 19.856785,8.2505143 Z"
         style="display:inline;stroke-width:0.999998;fill:#ffffff" />
      <path
         id="circle93"
         d="M 18.832847,8.441178 A 0.29658863,0.29658863 0 0 1 18.536259,8.7377667 0.29658863,0.29658863 0 0 1 18.23967,8.441178 0.29658863,0.29658863 0 0 1 18.536259,8.1445894 0.29658863,0.29658863 0 0 1 18.832847,8.441178 Z"
         style="display:inline;stroke-width:0.999998;fill:#ffffff" />
      <path
         id="circle94"
         d="M 17.837157,8.7554204 A 0.29658863,0.29658863 0 0 1 17.540569,9.0520091 0.29658863,0.29658863 0 0 1 17.24398,8.7554204 0.29658863,0.29658863 0 0 1 17.540569,8.4588318 0.29658863,0.29658863 0 0 1 17.837157,8.7554204 Z"
         style="display:inline;stroke-width:0.999998;fill:#ffffff" />
      <path
         id="circle95"
         d="M 16.887368,9.1897116 A 0.29658863,0.29658863 0 0 1 16.590779,9.4863003 0.29658863,0.29658863 0 0 1 16.294191,9.1897116 0.29658863,0.29658863 0 0 1 16.590779,8.893123 0.29658863,0.29658863 0 0 1 16.887368,9.1897116 Z"
         style="display:inline;stroke-width:0.999998;fill:#ffffff" />
      <path
         id="circle96"
         d="M 15.997602,9.7334571 A 0.29658863,0.29658863 0 0 1 15.701013,10.030046 0.29658863,0.29658863 0 0 1 15.404424,9.7334571 0.29658863,0.29658863 0 0 1 15.701013,9.4368685 0.29658863,0.29658863 0 0 1 15.997602,9.7334571 Z"
         style="display:inline;stroke-width:0.999998;fill:#ffffff" />
      <path
         id="circle97"
         d="m 14.447573,11.12813 a 0.29658863,0.29658863 0 0 1 -0.296588,0.296589 0.29658863,0.29658863 0 0 1 -0.296589,-0.296589 0.29658863,0.29658863 0 0 1 0.296589,-0.296589 0.29658863,0.29658863 0 0 1 0.296588,0.296589 z"
         style="display:inline;stroke-width:0.999998;fill:#ffffff" />
      <path
         id="circle98"
         d="m 13.812026,11.957872 a 0.29658863,0.29658863 0 0 1 -0.296588,0.296588 0.29658863,0.29658863 0 0 1 -0.296589,-0.296588 0.29658863,0.29658863 0 0 1 0.296589,-0.296589 0.29658863,0.29658863 0 0 1 0.296588,0.296589 z"
         style="display:inline;stroke-width:0.999998;fill:#ffffff" />
      <path
         id="circle99"
         d="M 13.282404,12.8547 A 0.29658863,0.29658863 0 0 1 12.985815,13.151288 0.29658863,0.29658863 0 0 1 12.689227,12.8547 0.29658863,0.29658863 0 0 1 12.985815,12.558111 0.29658863,0.29658863 0 0 1 13.282404,12.8547 Z"
         style="display:inline;stroke-width:0.999998;fill:#ffffff" />
      <path
         id="circle100"
         d="m 12.869298,13.811551 a 0.29658863,0.29658863 0 0 1 -0.296589,0.296588 0.29658863,0.29658863 0 0 1 -0.296589,-0.296588 0.29658863,0.29658863 0 0 1 0.296589,-0.296589 0.29658863,0.29658863 0 0 1 0.296589,0.296589 z"
         style="display:inline;stroke-width:0.999998;fill:#ffffff" />
      <path
         id="circle101"
         d="m 12.572709,14.814303 a 0.29658863,0.29658863 0 0 1 -0.296589,0.296588 0.29658863,0.29658863 0 0 1 -0.296588,-0.296588 0.29658863,0.29658863 0 0 1 0.296588,-0.296589 0.29658863,0.29658863 0 0 1 0.296589,0.296589 z"
         style="display:inline;stroke-width:0.999998;fill:#ffffff" />
      <path
         id="circle102"
         d="m 12.3997,15.841771 a 0.29658863,0.29658863 0 0 1 -0.296589,0.296588 0.29658863,0.29658863 0 0 1 -0.296589,-0.296588 0.29658863,0.29658863 0 0 1 0.296589,-0.296589 0.29658863,0.29658863 0 0 1 0.296589,0.296589 z"
         style="display:inline;stroke-width:0.999998;fill:#ffffff" />
      <path
         id="circle103"
         d="m 12.435007,17.924953 a 0.29658863,0.29658863 0 0 1 -0.296589,0.296589 0.29658863,0.29658863 0 0 1 -0.296588,-0.296589 0.29658863,0.29658863 0 0 1 0.296588,-0.296589 0.29658863,0.29658863 0 0 1 0.296589,0.296589 z"
         style="display:inline;stroke-width:0.999998;fill:#ffffff" />
      <path
         id="circle104"
         d="m 12.643325,18.948891 a 0.29658863,0.29658863 0 0 1 -0.296588,0.296588 0.29658863,0.29658863 0 0 1 -0.296589,-0.296588 0.29658863,0.29658863 0 0 1 0.296589,-0.296589 0.29658863,0.29658863 0 0 1 0.296588,0.296589 z"
         style="display:inline;stroke-width:0.999998;fill:#ffffff" />
      <path
         id="circle105"
         d="m 12.975222,19.937519 a 0.29658863,0.29658863 0 0 1 -0.296589,0.296589 0.29658863,0.29658863 0 0 1 -0.296589,-0.296589 0.29658863,0.29658863 0 0 1 0.296589,-0.296588 0.29658863,0.29658863 0 0 1 0.296589,0.296588 z"
         style="display:inline;stroke-width:0.999998;fill:#ffffff" />
      <path
         id="rect105"
         d="M 20.908968,7.1842071 V 7.689114 c 0,0.162354 -0.130703,0.2930578 -0.293057,0.2930578 h -0.0035 c -0.162354,0 -0.293058,-0.1307038 -0.293058,-0.2930578 V 7.1842071 c 0,-0.162354 0.130704,-0.2930578 0.293058,-0.2930578 h 0.0035 c 0.162354,0 0.293057,0.1307038 0.293057,0.2930578 z"
         style="display:inline;stroke-width:0.999998;fill:#ffffff" />
      <path
         id="rect106"
         d="m 27.209743,9.8093883 -0.335682,0.3771587 c -0.10794,0.121276 -0.29247,0.132013 -0.413747,0.02407 l -0.0026,-0.0023 c -0.121313,-0.107983 -0.13205,-0.2925141 -0.02411,-0.4137903 l 0.335682,-0.3771586 c 0.107939,-0.1212763 0.29247,-0.1320132 0.413746,-0.024074 l 0.0026,0.00235 c 0.121276,0.1079393 0.132013,0.2924703 0.02407,0.4137466 z"
         style="display:inline;stroke-width:0.999998;fill:#ffffff" />
      <path
         id="rect107"
         d="m 14.464574,9.4148383 0.335551,0.3772757 c 0.107897,0.1213139 0.0971,0.305841 -0.02422,0.413738 l -0.0026,0.0023 c -0.121314,0.107897 -0.305841,0.09709 -0.413738,-0.02422 L 14.02398,9.8067046 C 13.916083,9.6853907 13.92688,9.5008635 14.0482,9.3929665 l 0.0026,-0.00235 c 0.121314,-0.107897 0.305841,-0.097096 0.413738,0.024218 z"
         style="display:inline;stroke-width:0.999998;fill:#ffffff" />
      <path
         id="rect108"
         d="M 28.240345,22.604683 27.829959,22.31055 c -0.131961,-0.09458 -0.162055,-0.276956 -0.06748,-0.408917 l 0.0021,-0.0029 c 0.09458,-0.13196 0.276956,-0.162054 0.408916,-0.06747 l 0.410387,0.294132 c 0.13196,0.09458 0.162055,0.276956 0.06747,0.408917 l -0.0021,0.0029 c -0.09458,0.131961 -0.276956,0.162055 -0.408917,0.06748 z"
         style="display:inline;stroke-width:0.999998;fill:#ffffff" />
      <path
         id="rect109"
         d="m 30.197125,17.256714 -0.504815,-0.0096 c -0.162325,-0.0031 -0.290519,-0.136254 -0.28743,-0.298579 l 6.7e-5,-0.0035 c 0.0031,-0.162325 0.136255,-0.290519 0.298579,-0.28743 l 0.504816,0.0096 c 0.162324,0.0031 0.290518,0.136254 0.28743,0.298579 l -6.8e-5,0.0035 c -0.0031,0.162325 -0.136255,0.290519 -0.298579,0.28743 z"
         style="display:inline;stroke-width:0.999998;fill:#ffffff" />
      <path
         id="circle109"
         d="m 25.375453,23.736678 a 0.29658863,0.29658863 0 0 1 -0.296589,0.296588 0.29658863,0.29658863 0 0 1 -0.296588,-0.296588 0.29658863,0.29658863 0 0 1 0.296588,-0.296589 0.29658863,0.29658863 0 0 1 0.296589,0.296589 z"
         style="display:inline;stroke-width:0.999998;fill:#ffffff" />
      <path
         id="rect110"
         d="m 11.02292,16.575321 0.504883,-0.0048 c 0.162347,-0.0016 0.294299,0.127885 0.295858,0.290232 l 3.4e-5,0.0035 c 0.0016,0.162347 -0.127885,0.294299 -0.290231,0.295858 l -0.504884,0.0048 c -0.162347,0.0016 -0.294299,-0.127884 -0.295857,-0.290231 l -3.4e-5,-0.0035 c -0.0016,-0.162346 0.127884,-0.294299 0.290231,-0.295857 z"
         style="display:inline;stroke-width:0.999998;fill:#ffffff" />
      <path
         id="rect111"
         class="st0"
         style="display:inline;fill:#ffffff;stroke-width:0.999998"
         d="m 36.970656,83.93005 h 1.151046 v 0.176541 h -1.151046 z" />
      <path
         id="rect112"
         class="st0"
         style="display:inline;fill:#ffffff;stroke-width:0.999998"
         d="m 2.9547629,83.93005 h 1.1545772 v 0.176541 H 2.9547629 Z" />
      <path
         id="rect113"
         class="st0"
         style="display:inline;fill:#ffffff;stroke-width:0.999998"
         d="M 7.3047297,83.93005 H 18.998796 v 0.176541 H 7.3047297 Z" />
      <path
         id="rect114"
         class="st0"
         style="display:inline;fill:#ffffff;stroke-width:0.999998"
         d="m 26.311119,27.758279 h 8.481023 v 0.17654 h -8.481023 z" />
      <path
         id="rect115"
         class="st0"
         style="display:inline;fill:#ffffff;stroke-width:0.999998"
         d="m 22.194186,83.93005 h 11.584611 v 0.176541 H 22.194186 Z" />
      <path
         id="polygon115"
         d="m 5.9912657,46.111467 8.2268043,2.665767 -0.06356,0.194195 -7.9619927,-2.581028 v 4.459422 H 5.9912657 Z"
         style="display:inline;stroke-width:0.999998;fill:#ffffff" />
      <path
         d="m 2.9614314,97.203154 h 0.325842 l 0.3173943,1.281645 0.6866818,-1.281645 h 0.3584263 l -0.949769,1.775235 H 3.4019216 Z m 3.4430638,0.229295 -0.242571,0.224468 q -0.078443,-0.09051 -0.1918847,-0.138782 -0.1134413,-0.04948 -0.2461919,-0.04948 -0.1858506,0 -0.3560126,0.09534 -0.1701618,0.09534 -0.2655009,0.252228 -0.094132,0.156884 -0.094132,0.334287 0,0.241367 0.1665412,0.401874 0.1665416,0.1593 0.4272151,0.1593 0.278776,0 0.4827291,-0.161715 l 0.1967121,0.259465 q -0.3029124,0.213611 -0.7011639,0.213611 -0.2799828,0 -0.4766949,-0.106203 -0.1955052,-0.1062 -0.3149806,-0.311358 -0.1182687,-0.206366 -0.1182687,-0.446525 0,-0.257054 0.1399917,-0.492383 0.141198,-0.236536 0.3813558,-0.371703 0.2401577,-0.136371 0.5237607,-0.136371 0.3982514,0 0.6890954,0.273949 z m 1.8645406,-0.0036 q 0.2051599,0.235329 0.2051599,0.56117 0,0.277572 -0.1399913,0.523762 -0.1399916,0.244985 -0.3741151,0.377737 -0.2341236,0.131544 -0.5346223,0.131544 -0.271535,0 -0.461006,-0.109822 L 6.8015399,99.09909 6.6555145,98.978407 6.814815,98.796178 q -0.223262,-0.229299 -0.223262,-0.58893 0,-0.288432 0.1375776,-0.531003 0.1375779,-0.242571 0.3741148,-0.380149 0.2365372,-0.137578 0.5189337,-0.137578 0.2944645,0 0.4996244,0.141201 l 0.1544733,-0.177406 0.1460254,0.12551 z m -1.2297519,1.110276 0.8664986,-0.992008 q -0.1267165,-0.07362 -0.2908444,-0.07362 -0.1858506,0 -0.3439443,0.09293 -0.1568869,0.09292 -0.2534325,0.266707 -0.095339,0.172576 -0.095339,0.356013 0,0.202746 0.1170616,0.349978 z m 1.005283,-0.859256 -0.8568439,0.977524 q 0.1098208,0.05431 0.2570534,0.05431 0.2884303,0 0.4911766,-0.205161 0.2027462,-0.206366 0.2027462,-0.49721 0,-0.189471 -0.094132,-0.32946 z"
         id="text115"
         class="st3"
         style="display:inline;font-style:italic;font-weight:700;font-size:7px;font-family:CenturyGothic-BoldItalic, 'Century Gothic';fill:#ffffff;stroke-width:0.999998"
         aria-label="VCØ" />
      <path
         d="m 3.250993,114.95236 -0.2425713,0.22447 q -0.078443,-0.0905 -0.1918847,-0.13878 -0.1134413,-0.0495 -0.2461917,-0.0495 -0.1858507,0 -0.3560126,0.0953 -0.170162,0.0953 -0.2655009,0.25222 -0.094132,0.15689 -0.094132,0.33429 0,0.24137 0.1665415,0.40187 0.1665415,0.1593 0.4272151,0.1593 0.2787759,0 0.4827289,-0.16171 l 0.1967121,0.25947 q -0.3029124,0.2136 -0.7011638,0.2136 -0.2799828,0 -0.4766948,-0.1062 -0.1955052,-0.1062 -0.3149806,-0.31136 -0.1182686,-0.20636 -0.1182686,-0.44652 0,-0.25705 0.1399914,-0.49238 0.1411982,-0.23654 0.3813558,-0.3717 0.2401577,-0.13638 0.5237609,-0.13638 0.3982513,0 0.6890955,0.27395 z m 0.4151469,-0.22929 h 0.3342897 l -0.2003326,1.46991 h 0.5515179 l -0.038618,0.30532 H 3.4259822 Z m 2.5367404,0.22567 q 0.2051599,0.23533 0.2051599,0.56118 0,0.27756 -0.1399916,0.52376 -0.1399913,0.24498 -0.3741148,0.37773 -0.2341236,0.13154 -0.5346222,0.13154 -0.2715351,0 -0.4610061,-0.10981 l -0.1629211,0.18584 -0.1460254,-0.12068 0.1593005,-0.18223 q -0.223262,-0.22929 -0.223262,-0.58893 0,-0.28843 0.1375776,-0.531 0.1375776,-0.24257 0.3741148,-0.38015 0.2365372,-0.13758 0.5189337,-0.13758 0.2944645,0 0.4996244,0.1412 l 0.1544733,-0.1774 0.1460254,0.12551 z m -1.2297519,1.11028 0.8664986,-0.99201 q -0.1267165,-0.0736 -0.2908444,-0.0736 -0.1858505,0 -0.3439443,0.0929 -0.1568869,0.0929 -0.2534325,0.26671 -0.095339,0.17257 -0.095339,0.35601 0,0.20275 0.1170617,0.34998 z m 1.005283,-0.85926 -0.8568439,0.97753 q 0.1098208,0.0543 0.257053,0.0543 0.2884307,0 0.491177,-0.20515 0.2027462,-0.20637 0.2027462,-0.49721 0,-0.18948 -0.094132,-0.32947 z m 2.3629581,-0.2474 -0.2425714,0.22447 q -0.078443,-0.0905 -0.1918847,-0.13878 -0.1134413,-0.0495 -0.2461919,-0.0495 -0.1858506,0 -0.3560123,0.0953 -0.1701621,0.0953 -0.2655012,0.25222 -0.094132,0.15689 -0.094132,0.33429 0,0.24137 0.1665415,0.40187 0.1665413,0.1593 0.4272152,0.1593 0.2787756,0 0.4827287,-0.16171 l 0.1967121,0.25947 q -0.3029124,0.2136 -0.7011638,0.2136 -0.2799829,0 -0.476695,-0.1062 -0.1955048,-0.1062 -0.3149803,-0.31136 -0.1182686,-0.20636 -0.1182686,-0.44652 0,-0.25705 0.1399913,-0.49238 0.141198,-0.23654 0.3813558,-0.3717 0.2401577,-0.13638 0.523761,-0.13638 0.3982511,0 0.6890955,0.27395 z m 0.4139399,-0.22929 h 0.3342897 l -0.082064,0.60341 0.5720337,-0.60341 h 0.4127331 l -0.7735731,0.81219 0.6118588,0.96304 H 9.4576801 L 8.9568488,115.70904 8.8494417,116.4983 H 8.5187722 Z"
         id="text116"
         class="st3"
         style="display:inline;font-style:italic;font-weight:700;font-size:7px;font-family:CenturyGothic-BoldItalic, 'Century Gothic';fill:#ffffff;stroke-width:0.999998"
         aria-label="CLØCK" />
      <path
         d="m 16.778237,64.392499 h 0.429801 l -0.25757,1.889884 h 0.709094 l -0.04965,0.392563 h -1.140447 z m 3.261523,0.290155 q 0.263777,0.30257 0.263777,0.721509 0,0.356873 -0.179989,0.673408 -0.179989,0.31498 -0.481005,0.485657 -0.301016,0.169129 -0.687371,0.169129 -0.349117,0 -0.592723,-0.141197 l -0.209469,0.238948 -0.187748,-0.155162 0.204816,-0.234294 q -0.287052,-0.294813 -0.287052,-0.757198 0,-0.370838 0.176886,-0.682715 0.176886,-0.311878 0.481005,-0.488764 0.304119,-0.176884 0.6672,-0.176884 0.378598,0 0.642374,0.181541 l 0.198609,-0.228091 0.187747,0.161369 z m -1.58111,1.427499 1.11407,-1.275437 q -0.162921,-0.09465 -0.373942,-0.09465 -0.238951,0 -0.442215,0.119476 -0.201712,0.119476 -0.325842,0.34291 -0.122578,0.221883 -0.122578,0.457731 0,0.260673 0.150507,0.449971 z m 1.292507,-1.104761 -1.101656,1.256819 q 0.141198,0.06983 0.330497,0.06983 0.370839,0 0.631513,-0.263777 0.260673,-0.26533 0.260673,-0.639272 0,-0.243605 -0.121027,-0.423596 z m 2.957404,-0.322738 q 0.263777,0.30257 0.263777,0.721509 0,0.356873 -0.179989,0.673408 -0.179988,0.31498 -0.481005,0.485657 -0.301016,0.169129 -0.687371,0.169129 -0.349116,0 -0.592722,-0.141197 l -0.20947,0.238948 -0.187747,-0.155162 0.204815,-0.234294 q -0.287051,-0.294813 -0.287051,-0.757198 0,-0.370838 0.176885,-0.682715 0.176886,-0.311878 0.481005,-0.488764 0.304119,-0.176884 0.667201,-0.176884 0.378597,0 0.642374,0.181541 l 0.198608,-0.228091 0.187747,0.161369 z m -1.581109,1.427499 1.114069,-1.275437 q -0.162921,-0.09465 -0.373942,-0.09465 -0.238951,0 -0.442214,0.119476 -0.201712,0.119476 -0.325842,0.34291 -0.122579,0.221883 -0.122579,0.457731 0,0.260673 0.150508,0.449971 z m 1.292507,-1.104761 -1.101657,1.256819 q 0.141198,0.06983 0.330497,0.06983 0.370839,0 0.631513,-0.263777 0.260674,-0.26533 0.260674,-0.639272 0,-0.243605 -0.121027,-0.423596 z m 1.090794,-0.612893 h 0.401872 q 0.366185,0 0.516693,0.06362 0.186195,0.07913 0.282396,0.22033 0.0962,0.141201 0.0962,0.330499 0,0.207919 -0.113269,0.377045 -0.111717,0.167576 -0.301016,0.245159 -0.189298,0.07603 -0.629961,0.08224 l -0.130337,0.96356 H 23.20353 Z m 0.30412,0.915463 q 0.350668,-0.0014 0.45773,-0.07293 0.107063,-0.07137 0.107063,-0.212573 0,-0.07913 -0.0419,-0.13344 -0.04189,-0.0543 -0.12413,-0.07603 -0.08224,-0.02172 -0.325842,-0.02172 z"
         id="text117"
         class="st1"
         style="display:inline;font-style:italic;font-weight:700;font-size:9px;font-family:CenturyGothic-BoldItalic, 'Century Gothic';fill:#ffffff;stroke-width:0.999998"
         aria-label="LØØP" />
      <path
         d="M 5.4512438,78.187405 H 6.1262022 L 5.8189798,80.469852 H 5.4000402 L 5.6545073,78.586176 H 5.3162522 Z"
         id="text118"
         class="st1"
         style="display:inline;font-style:italic;font-weight:700;font-size:9px;font-family:CenturyGothic-BoldItalic, 'Century Gothic';fill:#ffffff;stroke-width:0.999998"
         aria-label="1" />
      <path
         d="m 15.091767,78.885638 h -0.415836 q 0.0093,-0.231191 0.102407,-0.403424 0.0931,-0.17378 0.248261,-0.262223 0.155163,-0.09 0.35222,-0.09 0.285499,0 0.471695,0.184644 0.186195,0.183094 0.186195,0.456182 0,0.217226 -0.145853,0.471692 -0.145853,0.252916 -0.715301,0.837881 h 0.768056 l -0.0512,0.389459 H 14.48198 l 0.03879,-0.299466 q 0.588067,-0.597375 0.763401,-0.799087 0.235848,-0.274638 0.291707,-0.404974 0.045,-0.100858 0.045,-0.195505 0,-0.107065 -0.07137,-0.176887 -0.06982,-0.07138 -0.172231,-0.07138 -0.108614,0 -0.181541,0.08224 -0.07293,0.08069 -0.103959,0.280844 z"
         id="text119"
         class="st1"
         style="display:inline;font-style:italic;font-weight:700;font-size:9px;font-family:CenturyGothic-BoldItalic, 'Century Gothic';fill:#ffffff;stroke-width:0.999998"
         aria-label="2" />
      <path
         d="M 25.196443,78.738234 H 24.80233 q 0.03413,-0.279295 0.218779,-0.443767 0.184644,-0.164473 0.451524,-0.164473 0.166024,0 0.299464,0.07603 0.13344,0.07447 0.212574,0.212572 0.08068,0.138094 0.08068,0.285499 0,0.148958 -0.08844,0.290155 -0.08689,0.141198 -0.265328,0.249813 0.308774,0.189297 0.308774,0.527553 0,0.311877 -0.228089,0.533761 -0.22809,0.22188 -0.555484,0.22188 -0.297912,0 -0.493417,-0.206366 -0.193954,-0.206365 -0.193954,-0.547725 h 0.403423 q 0.01707,0.173784 0.08224,0.252916 0.08999,0.107062 0.235847,0.107062 0.153612,0 0.243606,-0.114819 0.08999,-0.114822 0.08999,-0.273088 0,-0.08999 -0.04965,-0.167576 -0.0481,-0.07913 -0.128785,-0.119475 -0.07913,-0.04189 -0.243606,-0.0512 l 0.0512,-0.356874 q 0.197057,0 0.299465,-0.08844 0.103959,-0.08999 0.103959,-0.226537 0,-0.0931 -0.05896,-0.152058 -0.05741,-0.05896 -0.145853,-0.05896 -0.08999,0 -0.155163,0.05586 -0.06362,0.05586 -0.08069,0.158266 z"
         id="text120"
         class="st1"
         style="display:inline;font-style:italic;font-weight:700;font-size:9px;font-family:CenturyGothic-BoldItalic, 'Century Gothic';fill:#ffffff;stroke-width:0.999998"
         aria-label="3" />
      <path
         d="m 35.443101,78.129994 h 0.380149 l -0.200159,1.529907 h 0.224987 l -0.04965,0.370838 h -0.224983 l -0.05897,0.439113 h -0.389457 l 0.05586,-0.439113 h -0.958906 l 0.04965,-0.370838 z m -0.116372,0.724612 -0.605134,0.805295 h 0.505831 z"
         id="text121"
         class="st1"
         style="display:inline;font-style:italic;font-weight:700;font-size:9px;font-family:CenturyGothic-BoldItalic, 'Century Gothic';fill:#ffffff;stroke-width:0.999998"
         aria-label="4" />
      <path
         d="m 20.393249,97.044889 h 0.599963 l -0.273087,2.028839 h -0.372391 l 0.226193,-1.67438 h -0.300671 z"
         id="text122"
         class="st4"
         style="display:inline;font-style:italic;font-weight:700;font-size:8px;font-family:CenturyGothic-BoldItalic, 'Century Gothic';fill:#ffffff;stroke-width:0.999998"
         aria-label="1" />
      <path
         d="m 35.169388,97.66554 h -0.369632 q 0.0083,-0.205505 0.09103,-0.358601 0.08275,-0.154473 0.220676,-0.233087 0.137922,-0.08 0.313085,-0.08 0.253778,0 0.419285,0.16413 0.165507,0.162749 0.165507,0.405493 0,0.19309 -0.129648,0.419284 -0.129648,0.224811 -0.635824,0.74478 h 0.682717 l -0.04552,0.346186 h -1.253715 l 0.03448,-0.266192 q 0.522727,-0.530999 0.678576,-0.710301 0.209643,-0.244121 0.259297,-0.359978 0.04,-0.08965 0.04,-0.173779 0,-0.09517 -0.06345,-0.157235 -0.06206,-0.06344 -0.153092,-0.06344 -0.09655,0 -0.161369,0.0731 -0.06482,0.07172 -0.09241,0.24964 z"
         id="text123"
         class="st4"
         style="display:inline;font-style:italic;font-weight:700;font-size:8px;font-family:CenturyGothic-BoldItalic, 'Century Gothic';fill:#ffffff;stroke-width:0.999998"
         aria-label="2" />
      <path
         d="m 20.478761,115.05796 h -0.350324 q 0.03034,-0.24826 0.194471,-0.39446 0.164128,-0.1462 0.401355,-0.1462 0.147577,0 0.26619,0.0676 0.118614,0.0662 0.188954,0.18895 0.07172,0.12275 0.07172,0.25378 0,0.1324 -0.07862,0.25791 -0.07724,0.12551 -0.235848,0.22206 0.274466,0.16826 0.274466,0.46893 0,0.27723 -0.202746,0.47446 -0.202746,0.19723 -0.493762,0.19723 -0.264812,0 -0.438594,-0.18344 -0.172403,-0.18344 -0.172403,-0.48687 h 0.358598 q 0.01517,0.15448 0.0731,0.22482 0.08,0.0952 0.209642,0.0952 0.136544,0 0.216539,-0.10206 0.08,-0.10206 0.08,-0.24274 0,-0.08 -0.04414,-0.14896 -0.04276,-0.0703 -0.114476,-0.1062 -0.07034,-0.0372 -0.216538,-0.0455 l 0.04551,-0.31722 q 0.175162,0 0.266191,-0.0786 0.09241,-0.08 0.09241,-0.20137 0,-0.0828 -0.05241,-0.13516 -0.05103,-0.0524 -0.129647,-0.0524 -0.08,0 -0.137923,0.0496 -0.05655,0.0496 -0.07172,0.14068 z"
         id="text124"
         class="st4"
         style="display:inline;font-style:italic;font-weight:700;font-size:8px;font-family:CenturyGothic-BoldItalic, 'Century Gothic';fill:#ffffff;stroke-width:0.999998"
         aria-label="3" />
      <path
         d="m 35.683839,114.5173 h 0.33791 l -0.177918,1.35992 h 0.199985 l -0.04413,0.32964 h -0.199985 l -0.05241,0.39031 h -0.346186 l 0.04965,-0.39031 h -0.852359 l 0.04414,-0.32964 z m -0.103442,0.6441 -0.537898,0.71582 h 0.449627 z"
         id="text125"
         class="st4"
         style="display:inline;font-style:italic;font-weight:700;font-size:8px;font-family:CenturyGothic-BoldItalic, 'Century Gothic';fill:#ffffff;stroke-width:0.999998"
         aria-label="4" />
      <path
         d="m 15.957286,1.7285152 -0.34653,0.3068777 q -0.21378,-0.2758451 -0.398251,-0.2758451 -0.09137,0 -0.151715,0.055169 -0.06034,0.053445 -0.06034,0.1293024 0,0.070685 0.05517,0.1568868 0.05517,0.086202 0.334462,0.3810111 0.148267,0.1568869 0.194816,0.2224001 0.112061,0.1517148 0.160334,0.2844653 0.05,0.1310264 0.05,0.2672249 0,0.3051537 -0.217229,0.5120373 -0.217228,0.206884 -0.556862,0.206884 -0.517209,0 -0.843051,-0.4913492 l 0.36549,-0.2948094 q 0.220676,0.3361863 0.477557,0.3361863 0.122407,0 0.20516,-0.079306 0.08448,-0.079305 0.08448,-0.1913675 0,-0.087926 -0.05172,-0.1792994 -0.05,-0.091374 -0.289638,-0.3448063 -0.253433,-0.2672249 -0.332738,-0.4034235 -0.10689,-0.1844714 -0.10689,-0.3620466 0,-0.2344684 0.153439,-0.4206638 0.193092,-0.2327443 0.520658,-0.2327443 0.449972,0 0.753401,0.4172157 z m 0.310326,-0.3534265 h 0.434456 l 0.144819,1.6430023 0.777538,-1.6430023 h 0.358599 l 0.301705,1.5999015 0.563759,-1.5999015 h 0.460316 L 18.412308,3.9111396 H 18.022676 L 17.703731,2.2319325 16.908952,3.9111396 H 16.49346 Z m 4.277323,0 h 0.401699 L 21.57763,3.9111396 H 21.11559 L 20.981115,3.3715175 h -1.001662 l -0.291362,0.5396221 h -0.512037 z m 0.32067,1.5481805 -0.203436,-0.8327073 -0.446524,0.8327073 z m 1.448187,-1.5481805 h 0.443076 q 0.41032,0 0.577551,0.070685 0.208607,0.087926 0.313774,0.2448125 0.106889,0.1551629 0.106889,0.3689428 0,0.2637769 -0.156886,0.4534204 -0.156887,0.1879194 -0.474109,0.2620528 l 0.553414,1.1361371 H 23.184428 L 22.643082,2.804311 h -0.04482 l -0.146543,1.1068286 h -0.475832 z m 0.339634,1.0137307 q 0.391355,-0.00172 0.50859,-0.079306 0.118958,-0.079305 0.118958,-0.2361924 0,-0.08965 -0.04827,-0.1499907 -0.04655,-0.060341 -0.136199,-0.084478 -0.08965,-0.024136 -0.363771,-0.024136 z m 1.872299,-1.0137307 h 0.431008 l 0.429284,1.7671326 0.875808,-1.7671326 h 0.410319 l 0.03448,2.5360509 h -0.4448 l -0.02069,-1.5171481 -0.751678,1.5171481 h -0.36377 L 24.739505,2.3181341 24.334357,3.9111396 h -0.455144 z"
         id="text126"
         class="st2"
         style="display:inline;font-style:italic;font-weight:700;font-size:10px;font-family:CenturyGothic-BoldItalic, 'Century Gothic';fill:#ffffff;stroke-width:0.999998"
         aria-label="SWARM" />
    </g>
  </g>
  <g
     inkscape:groupmode="layer"
     id="layer1"
     inkscape:label="components"
     style="display:none">
    <circle
       style="fill:#ff0000;stroke-width:0.992163"
       id="path146"
       cx="20.61591"
       cy="16.629143"
       r="1.5013422"
       inkscape:label="TimeCoarse" />
    <circle
       style="fill:#ff0000;stroke-width:0.992163"
       id="path146-5"
       cx="20.61591"
       cy="35.045883"
       r="1.5013422"
       inkscape:label="TimeFine" />
    <circle
       style="fill:#ff0000;stroke-width:0.992163"
       id="path146-2"
       cx="20.61591"
       cy="53.459099"
       r="1.5013422"
       inkscape:label="Width" />
    <circle
       style="fill:#00ff00;stroke-width:0.992163"
       id="path146-8"
       cx="5.7017388"
       cy="27.246311"
       r="1.5013422"
       inkscape:label="TimeCvIn" />
    <circle
       style="fill:#00ff00;stroke-width:0.992163"
       id="path146-3"
       cx="5.7017388"
       cy="53.462627"
       r="1.5013422"
       inkscape:label="WidthCvIn" />
    <circle
       style="fill:#ff0000;stroke-width:0.992163"
       id="path146-9"
       cx="35.099323"
       cy="27.846552"
       r="1.5013422"
       inkscape:label="RangeSwitch" />
    <circle
       style="fill:#ff0000;stroke-width:0.992163"
       id="path146-90"
       cx="35.099323"
       cy="72.998642"
       r="1.5013422"
       inkscape:label="LoopFour" />
    <circle
       style="fill:#ff0000;stroke-width:0.992163"
       id="path146-39"
       cx="5.7017388"
       cy="72.998642"
       r="1.5013422"
       inkscape:label="LoopOne" />
    <circle
       style="fill:#ff0000;stroke-width:0.992163"
       id="path146-7"
       cx="15.326746"
       cy="72.998642"
       r="1.5013422"
       inkscape:label="LoopTwo" />
    <circle
       style="fill:#ff0000;stroke-width:0.992163"
       id="path146-398"
       cx="25.350737"
       cy="72.998642"
       r="1.5013422"
       inkscape:label="LoopThree" />
    <circle
       style="fill:#ff00ff;stroke-width:0.992163"
       id="path146-57"
       cx="35.378258"
       cy="84.018318"
       r="1.5013422"
       inkscape:label="TwoLED" />
    <circle
       style="fill:#ff00ff;stroke-width:0.992163"
       id="path146-27"
       cx="20.601788"
       cy="84.018318"
       r="1.5013422"
       inkscape:label="OneLED" />
    <circle
       style="fill:#ff00ff;stroke-width:0.992163"
       id="path146-399"
       cx="5.7017388"
       cy="84.018318"
       r="1.5013422"
       inkscape:label="VCOLED" />
    <circle
       style="fill:#ff00ff;stroke-width:0.992163"
       id="path146-71"
       cx="35.378258"
       cy="102.16271"
       r="1.5013422"
       inkscape:label="FourLED" />
    <circle
       style="fill:#ff00ff;stroke-width:0.992163"
       id="path146-84"
       cx="20.601788"
       cy="102.16271"
       r="1.5013422"
       inkscape:label="ThreeLED" />
    <circle
       style="fill:#ff00ff;stroke-width:0.992163"
       id="path146-0"
       cx="5.7017388"
       cy="102.16271"
       r="1.5013422"
       inkscape:label="ClockLED" />
    <circle
       style="fill:#0000ff;stroke-width:0.992163"
       id="path146-23"
       cx="5.7017388"
       cy="92.262779"
       r="1.5013422"
       inkscape:label="VCOOut" />
    <circle
       style="fill:#0000ff;stroke-width:0.992163"
       id="path146-55"
       cx="20.61591"
       cy="92.262779"
       r="1.5013422"
       inkscape:label="OneOut" />
    <circle
       style="fill:#0000ff;stroke-width:0.992163"
       id="path146-1"
       cx="35.378258"
       cy="92.262779"
       r="1.5013422"
       inkscape:label="TwoOut" />
    <circle
       style="fill:#0000ff;stroke-width:0.992163"
       id="path146-6"
       cx="35.378258"
       cy="109.74738"
       r="1.5013422"
       inkscape:label="FourOut" />
    <circle
       style="fill:#0000ff;stroke-width:0.992163"
       id="path146-32"
       cx="20.61591"
       cy="109.74738"
       r="1.5013422"
       inkscape:label="ThreeOut" />
    <circle
       style="fill:#0000ff;stroke-width:0.992163"
       id="path146-94"
       cx="5.7017388"
       cy="109.74738"
       r="1.5013422"
       inkscape:label="ClockOut" />
  </g>
</svg>
