<?xml version="1.0" encoding="UTF-8" standalone="no"?>
<!-- Created with Inkscape (http://www.inkscape.org/) -->

<svg
   width="60.959999mm"
   height="128.5mm"
   viewBox="0 0 60.959999 128.5"
   version="1.1"
   id="svg1"
   xml:space="preserve"
   inkscape:version="1.4 (e7c3feb1, 2024-10-09)"
   sodipodi:docname="Bobcat.svg"
   xmlns:inkscape="http://www.inkscape.org/namespaces/inkscape"
   xmlns:sodipodi="http://sodipodi.sourceforge.net/DTD/sodipodi-0.dtd"
   xmlns="http://www.w3.org/2000/svg"
   xmlns:svg="http://www.w3.org/2000/svg"><sodipodi:namedview
     id="namedview1"
     pagecolor="#ffffff"
     bordercolor="#000000"
     borderopacity="0.25"
     inkscape:showpageshadow="2"
     inkscape:pageopacity="0.0"
     inkscape:pagecheckerboard="0"
     inkscape:deskcolor="#d1d1d1"
     inkscape:document-units="mm"
     inkscape:zoom="11.2181"
     inkscape:cx="197.00306"
     inkscape:cy="417.89609"
     inkscape:window-width="2560"
     inkscape:window-height="1387"
     inkscape:window-x="0"
     inkscape:window-y="25"
     inkscape:window-maximized="0"
     inkscape:current-layer="SILK" /><defs
     id="defs1"><style
       id="style1">
      .st0 {
        fill: #060606;
      }

      .st1 {
        fill: #fff;
      }

      .st2 {
        fill: #cfcfcf;
      }
    </style><clipPath
       clipPathUnits="userSpaceOnUse"
       id="clipPath830"><path
         d="M 0,432 H 432 V 0 H 0 Z"
         transform="translate(-157.0578,-70.016004)"
         id="path830" /></clipPath><clipPath
       clipPathUnits="userSpaceOnUse"
       id="clipPath828"><path
         d="M 0,432 H 432 V 0 H 0 Z"
         transform="translate(-152.5504,-70.016004)"
         id="path828" /></clipPath><clipPath
       clipPathUnits="userSpaceOnUse"
       id="clipPath826"><path
         d="M 0,432 H 432 V 0 H 0 Z"
         transform="translate(-149.3112,-68.861199)"
         id="path826" /></clipPath></defs><g
     id="PANEL"
     transform="matrix(0.35368709,0,0,0.35105015,-1.4906966,-1.3468466)"><rect
       class="st2"
       x="-1.2902287"
       y="-2.1576941"
       width="187.08044"
       height="378.47958"
       id="rect1"
       style="stroke-width:1.06377;fill:#d0d0cf;fill-opacity:1" /></g><g
     id="SILK"
     transform="matrix(0.35368709,0,0,0.35105015,-1.4906966,-1.3468466)"><rect
       x="134.52"
       y="278.59"
       width="32.669998"
       height="46.82"
       rx="6.3299999"
       ry="6.3299999"
       id="rect2" /><polygon
       points="32.96,265.94 51.7,265.94 42.33,282.17 32.96,298.4 23.58,282.17 14.21,265.94 "
       id="polygon2" /><polygon
       points="32.96,303.38 51.7,303.38 42.33,319.61 32.96,335.84 23.58,319.61 14.21,303.38 "
       id="polygon3" /><rect
       x="15.76"
       y="250.42"
       width="152.98"
       height="0.5"
       id="rect3" /><g
       id="g46"><circle
         cx="153.63"
         cy="201.64999"
         r="0.83999997"
         id="circle3" /><circle
         cx="156.21001"
         cy="200.19"
         r="0.83999997"
         id="circle4" /><circle
         cx="158.58"
         cy="198.42999"
         r="0.83999997"
         id="circle5" /><circle
         cx="160.73"
         cy="196.39999"
         r="0.83999997"
         id="circle6" /><circle
         cx="164.19"
         cy="191.62"
         r="0.83999997"
         id="circle7" /><circle
         cx="165.46001"
         cy="188.95"
         r="0.83999997"
         id="circle8" /><circle
         cx="166.39999"
         cy="186.14999"
         r="0.83999997"
         id="circle9" /><circle
         cx="166.99001"
         cy="183.25"
         r="0.83999997"
         id="circle10" /><circle
         cx="167.09"
         cy="177.35001"
         r="0.83999997"
         id="circle11" /><circle
         cx="166.60001"
         cy="174.44"
         r="0.83999997"
         id="circle12" /><circle
         cx="165.75999"
         cy="171.60001"
         r="0.83999997"
         id="circle13" /><circle
         cx="164.58"
         cy="168.89"
         r="0.83999997"
         id="circle14" /><circle
         cx="163.08"
         cy="166.34"
         r="0.83999997"
         id="circle15" /><circle
         cx="161.28"
         cy="164"
         r="0.83999997"
         id="circle16" /><circle
         cx="156.89999"
         cy="160.05"
         r="0.83999997"
         id="circle17" /><circle
         cx="154.38"
         cy="158.50999"
         r="0.83999997"
         id="circle18" /><circle
         cx="151.69"
         cy="157.28"
         r="0.83999997"
         id="circle19" /><circle
         cx="148.87"
         cy="156.39999"
         r="0.83999997"
         id="circle20" /><circle
         cx="145.96001"
         cy="155.86"
         r="0.83999997"
         id="circle21" /><circle
         cx="140.06"
         cy="155.86"
         r="0.83999997"
         id="circle22" /><circle
         cx="137.14999"
         cy="156.39999"
         r="0.83999997"
         id="circle23" /><circle
         cx="134.33"
         cy="157.28999"
         r="0.83999997"
         id="circle24" /><circle
         cx="131.64"
         cy="158.50999"
         r="0.83999997"
         id="circle25" /><circle
         cx="129.12"
         cy="160.06"
         r="0.83999997"
         id="circle26" /><circle
         cx="124.74"
         cy="164.00999"
         r="0.83999997"
         id="circle27" /><circle
         cx="122.94"
         cy="166.35001"
         r="0.83999997"
         id="circle28" /><circle
         cx="121.44"
         cy="168.89999"
         r="0.83999997"
         id="circle29" /><circle
         cx="120.26"
         cy="171.61"
         r="0.83999997"
         id="circle30" /><circle
         cx="119.42"
         cy="174.45"
         r="0.83999997"
         id="circle31" /><circle
         cx="118.94"
         cy="177.36"
         r="0.83999997"
         id="circle32" /><circle
         cx="119.04"
         cy="183.25999"
         r="0.83999997"
         id="circle33" /><circle
         cx="119.63"
         cy="186.16"
         r="0.83999997"
         id="circle34" /><circle
         cx="120.57"
         cy="188.96001"
         r="0.83999997"
         id="circle35" /><circle
         cx="121.84"
         cy="191.63"
         r="0.83999997"
         id="circle36" /><circle
         cx="125.31"
         cy="196.39999"
         r="0.83999997"
         id="circle37" /><circle
         cx="127.46"
         cy="198.44"
         r="0.83999997"
         id="circle38" /><circle
         cx="129.83"
         cy="200.2"
         r="0.83999997"
         id="circle39" /><circle
         cx="132.41"
         cy="201.64999"
         r="0.83999997"
         id="circle40" /><rect
         x="141.5"
         y="152.73"
         width="3.0899999"
         height="1.67"
         rx="0.82999998"
         ry="0.82999998"
         transform="rotate(90,143.045,153.565)"
         id="rect40" /><rect
         x="159.08"
         y="159.42"
         width="3.0899999"
         height="1.67"
         rx="0.82999998"
         ry="0.82999998"
         transform="rotate(131.67,160.62661,160.24723)"
         id="rect41" /><rect
         x="123.92"
         y="159.41"
         width="3.0899999"
         height="1.67"
         rx="0.82999998"
         ry="0.82999998"
         transform="rotate(48.35,125.469,160.25435)"
         id="rect42" /><rect
         x="120.01"
         y="194.59"
         width="3.0899999"
         height="1.67"
         rx="0.82999998"
         ry="0.82999998"
         transform="rotate(-35.66,121.54598,195.41347)"
         id="rect43" /><rect
         x="163"
         y="194.58"
         width="3.0899999"
         height="1.67"
         rx="0.82999998"
         ry="0.82999998"
         transform="rotate(-144.37,164.54065,195.41476)"
         id="rect44" /><rect
         x="167.94"
         y="179.67999"
         width="3.0899999"
         height="1.67"
         rx="0.82999998"
         ry="0.82999998"
         transform="rotate(-178.91,169.48229,180.51431)"
         id="rect45" /><rect
         x="115.05"
         y="179.42999"
         width="3.0899999"
         height="1.67"
         rx="0.82999998"
         ry="0.82999998"
         transform="rotate(-0.55,116.85088,180.78489)"
         id="rect46" /></g><g
       id="g89"><circle
         cx="153.63"
         cy="100.65"
         r="0.83999997"
         id="circle46" /><circle
         cx="156.21001"
         cy="99.190002"
         r="0.83999997"
         id="circle47" /><circle
         cx="158.58"
         cy="97.43"
         r="0.83999997"
         id="circle48" /><circle
         cx="160.73"
         cy="95.400002"
         r="0.83999997"
         id="circle49" /><circle
         cx="164.19"
         cy="90.620003"
         r="0.83999997"
         id="circle50" /><circle
         cx="165.46001"
         cy="87.959999"
         r="0.83999997"
         id="circle51" /><circle
         cx="166.39999"
         cy="85.150002"
         r="0.83999997"
         id="circle52" /><circle
         cx="166.99001"
         cy="82.260002"
         r="0.83999997"
         id="circle53" /><circle
         cx="167.09"
         cy="76.349998"
         r="0.83999997"
         id="circle54" /><circle
         cx="166.60001"
         cy="73.440002"
         r="0.83999997"
         id="circle55" /><circle
         cx="165.75999"
         cy="70.610001"
         r="0.83999997"
         id="circle56" /><circle
         cx="164.58"
         cy="67.889999"
         r="0.83999997"
         id="circle57" /><circle
         cx="163.08"
         cy="65.349998"
         r="0.83999997"
         id="circle58" /><circle
         cx="161.28"
         cy="63"
         r="0.83999997"
         id="circle59" /><circle
         cx="156.89999"
         cy="59.060001"
         r="0.83999997"
         id="circle60" /><circle
         cx="154.38"
         cy="57.509998"
         r="0.83999997"
         id="circle61" /><circle
         cx="151.69"
         cy="56.290001"
         r="0.83999997"
         id="circle62" /><circle
         cx="148.87"
         cy="55.400002"
         r="0.83999997"
         id="circle63" /><circle
         cx="145.96001"
         cy="54.860001"
         r="0.83999997"
         id="circle64" /><circle
         cx="140.06"
         cy="54.860001"
         r="0.83999997"
         id="circle65" /><circle
         cx="137.14999"
         cy="55.400002"
         r="0.83999997"
         id="circle66" /><circle
         cx="134.33"
         cy="56.290001"
         r="0.83999997"
         id="circle67" /><circle
         cx="131.64"
         cy="57.52"
         r="0.83999997"
         id="circle68" /><circle
         cx="129.12"
         cy="59.060001"
         r="0.83999997"
         id="circle69" /><circle
         cx="124.74"
         cy="63.009998"
         r="0.83999997"
         id="circle70" /><circle
         cx="122.94"
         cy="65.360001"
         r="0.83999997"
         id="circle71" /><circle
         cx="121.44"
         cy="67.910004"
         r="0.83999997"
         id="circle72" /><circle
         cx="120.26"
         cy="70.620003"
         r="0.83999997"
         id="circle73" /><circle
         cx="119.42"
         cy="73.449997"
         r="0.83999997"
         id="circle74" /><circle
         cx="118.94"
         cy="76.370003"
         r="0.83999997"
         id="circle75" /><circle
         cx="119.04"
         cy="82.269997"
         r="0.83999997"
         id="circle76" /><circle
         cx="119.63"
         cy="85.160004"
         r="0.83999997"
         id="circle77" /><circle
         cx="120.57"
         cy="87.970001"
         r="0.83999997"
         id="circle78" /><circle
         cx="121.84"
         cy="90.629997"
         r="0.83999997"
         id="circle79" /><circle
         cx="125.31"
         cy="95.410004"
         r="0.83999997"
         id="circle80" /><circle
         cx="127.46"
         cy="97.440002"
         r="0.83999997"
         id="circle81" /><circle
         cx="129.83"
         cy="99.199997"
         r="0.83999997"
         id="circle82" /><circle
         cx="132.41"
         cy="100.65"
         r="0.83999997"
         id="circle83" /><rect
         x="141.5"
         y="51.73"
         width="3.0899999"
         height="1.67"
         rx="0.82999998"
         ry="0.82999998"
         transform="rotate(90,143.045,52.565)"
         id="rect83" /><rect
         x="159.08"
         y="58.419998"
         width="3.0899999"
         height="1.67"
         rx="0.82999998"
         ry="0.82999998"
         transform="rotate(131.67,160.62746,59.25288)"
         id="rect84" /><rect
         x="123.92"
         y="58.419998"
         width="3.0899999"
         height="1.67"
         rx="0.82999998"
         ry="0.82999998"
         transform="rotate(48.35,125.47124,59.252089)"
         id="rect85" /><rect
         x="120.01"
         y="93.599998"
         width="3.0899999"
         height="1.67"
         rx="0.82999998"
         ry="0.82999998"
         transform="rotate(-35.66,121.53835,94.428838)"
         id="rect86" /><rect
         x="163"
         y="93.589996"
         width="3.0899999"
         height="1.67"
         rx="0.82999998"
         ry="0.82999998"
         transform="rotate(-144.37,164.54393,94.420538)"
         id="rect87" /><rect
         x="167.94"
         y="78.68"
         width="3.0899999"
         height="1.67"
         rx="0.82999998"
         ry="0.82999998"
         transform="rotate(-178.91,169.48669,79.520127)"
         id="rect88" /><rect
         x="115.05"
         y="78.43"
         width="3.0899999"
         height="1.67"
         rx="0.82999998"
         ry="0.82999998"
         transform="rotate(-0.55,117.33588,79.736742)"
         id="rect89" /></g><g
       id="g132"><circle
         cx="51.810001"
         cy="201.64999"
         r="0.83999997"
         id="circle89" /><circle
         cx="54.380001"
         cy="200.19"
         r="0.83999997"
         id="circle90" /><circle
         cx="56.759998"
         cy="198.42999"
         r="0.83999997"
         id="circle91" /><circle
         cx="58.900002"
         cy="196.39999"
         r="0.83999997"
         id="circle92" /><circle
         cx="62.369999"
         cy="191.62"
         r="0.83999997"
         id="circle93" /><circle
         cx="63.639999"
         cy="188.95"
         r="0.83999997"
         id="circle94" /><circle
         cx="64.580002"
         cy="186.14999"
         r="0.83999997"
         id="circle95" /><circle
         cx="65.169998"
         cy="183.25"
         r="0.83999997"
         id="circle96" /><circle
         cx="65.269997"
         cy="177.35001"
         r="0.83999997"
         id="circle97" /><circle
         cx="64.779999"
         cy="174.44"
         r="0.83999997"
         id="circle98" /><circle
         cx="63.939999"
         cy="171.60001"
         r="0.83999997"
         id="circle99" /><circle
         cx="62.759998"
         cy="168.89"
         r="0.83999997"
         id="circle100" /><circle
         cx="61.259998"
         cy="166.34"
         r="0.83999997"
         id="circle101" /><circle
         cx="59.459999"
         cy="164"
         r="0.83999997"
         id="circle102" /><circle
         cx="55.07"
         cy="160.05"
         r="0.83999997"
         id="circle103" /><circle
         cx="52.549999"
         cy="158.50999"
         r="0.83999997"
         id="circle104" /><circle
         cx="49.860001"
         cy="157.28"
         r="0.83999997"
         id="circle105" /><circle
         cx="47.040001"
         cy="156.39999"
         r="0.83999997"
         id="circle106" /><circle
         cx="44.139999"
         cy="155.86"
         r="0.83999997"
         id="circle107" /><circle
         cx="38.240002"
         cy="155.86"
         r="0.83999997"
         id="circle108" /><circle
         cx="35.330002"
         cy="156.39999"
         r="0.83999997"
         id="circle109" /><circle
         cx="32.509998"
         cy="157.28999"
         r="0.83999997"
         id="circle110" /><circle
         cx="29.82"
         cy="158.50999"
         r="0.83999997"
         id="circle111" /><circle
         cx="27.299999"
         cy="160.06"
         r="0.83999997"
         id="circle112" /><circle
         cx="22.92"
         cy="164.00999"
         r="0.83999997"
         id="circle113" /><circle
         cx="21.120001"
         cy="166.35001"
         r="0.83999997"
         id="circle114" /><circle
         cx="19.620001"
         cy="168.89999"
         r="0.83999997"
         id="circle115" /><circle
         cx="18.440001"
         cy="171.61"
         r="0.83999997"
         id="circle116" /><circle
         cx="17.6"
         cy="174.45"
         r="0.83999997"
         id="circle117" /><circle
         cx="17.110001"
         cy="177.36"
         r="0.83999997"
         id="circle118" /><circle
         cx="17.219999"
         cy="183.25999"
         r="0.83999997"
         id="circle119" /><circle
         cx="17.809999"
         cy="186.16"
         r="0.83999997"
         id="circle120" /><circle
         cx="18.75"
         cy="188.96001"
         r="0.83999997"
         id="circle121" /><circle
         cx="20.02"
         cy="191.63"
         r="0.83999997"
         id="circle122" /><circle
         cx="23.49"
         cy="196.39999"
         r="0.83999997"
         id="circle123" /><circle
         cx="25.629999"
         cy="198.44"
         r="0.83999997"
         id="circle124" /><circle
         cx="28.01"
         cy="200.2"
         r="0.83999997"
         id="circle125" /><circle
         cx="30.58"
         cy="201.64999"
         r="0.83999997"
         id="circle126" /><rect
         x="39.68"
         y="152.73"
         width="3.0899999"
         height="1.67"
         rx="0.82999998"
         ry="0.82999998"
         transform="rotate(90,41.22,153.56)"
         id="rect126" /><rect
         x="57.259998"
         y="159.42"
         width="3.0899999"
         height="1.67"
         rx="0.82999998"
         ry="0.82999998"
         transform="rotate(131.67,58.808167,160.24904)"
         id="rect127" /><rect
         x="22.1"
         y="159.41"
         width="3.0899999"
         height="1.67"
         rx="0.82999998"
         ry="0.82999998"
         transform="rotate(48.35,23.647291,160.24523)"
         id="rect128" /><rect
         x="18.190001"
         y="194.59"
         width="3.0899999"
         height="1.67"
         rx="0.82999998"
         ry="0.82999998"
         transform="rotate(-35.66,19.724627,195.40927)"
         id="rect129" /><rect
         x="61.169998"
         y="194.58"
         width="3.0899999"
         height="1.67"
         rx="0.82999998"
         ry="0.82999998"
         transform="rotate(-144.37,62.720904,195.41749)"
         id="rect130" /><rect
         x="66.120003"
         y="179.67999"
         width="3.0899999"
         height="1.67"
         rx="0.82999998"
         ry="0.82999998"
         transform="rotate(-178.91,67.663064,180.51276)"
         id="rect131" /><rect
         x="13.23"
         y="179.42999"
         width="3.0899999"
         height="1.67"
         rx="0.82999998"
         ry="0.82999998"
         transform="rotate(-0.55,14.761002,180.29489)"
         id="rect132" /></g><g
       id="g175"><circle
         cx="51.810001"
         cy="100.65"
         r="0.83999997"
         id="circle132" /><circle
         cx="54.380001"
         cy="99.190002"
         r="0.83999997"
         id="circle133" /><circle
         cx="56.759998"
         cy="97.43"
         r="0.83999997"
         id="circle134" /><circle
         cx="58.900002"
         cy="95.400002"
         r="0.83999997"
         id="circle135" /><circle
         cx="62.369999"
         cy="90.620003"
         r="0.83999997"
         id="circle136" /><circle
         cx="63.639999"
         cy="87.959999"
         r="0.83999997"
         id="circle137" /><circle
         cx="64.580002"
         cy="85.150002"
         r="0.83999997"
         id="circle138" /><circle
         cx="65.169998"
         cy="82.260002"
         r="0.83999997"
         id="circle139" /><circle
         cx="65.269997"
         cy="76.349998"
         r="0.83999997"
         id="circle140" /><circle
         cx="64.779999"
         cy="73.440002"
         r="0.83999997"
         id="circle141" /><circle
         cx="63.939999"
         cy="70.610001"
         r="0.83999997"
         id="circle142" /><circle
         cx="62.759998"
         cy="67.889999"
         r="0.83999997"
         id="circle143" /><circle
         cx="61.259998"
         cy="65.349998"
         r="0.83999997"
         id="circle144" /><circle
         cx="59.459999"
         cy="63"
         r="0.83999997"
         id="circle145" /><circle
         cx="55.07"
         cy="59.060001"
         r="0.83999997"
         id="circle146" /><circle
         cx="52.549999"
         cy="57.509998"
         r="0.83999997"
         id="circle147" /><circle
         cx="49.860001"
         cy="56.290001"
         r="0.83999997"
         id="circle148" /><circle
         cx="47.040001"
         cy="55.400002"
         r="0.83999997"
         id="circle149" /><circle
         cx="44.139999"
         cy="54.860001"
         r="0.83999997"
         id="circle150" /><circle
         cx="38.240002"
         cy="54.860001"
         r="0.83999997"
         id="circle151" /><circle
         cx="35.330002"
         cy="55.400002"
         r="0.83999997"
         id="circle152" /><circle
         cx="32.509998"
         cy="56.290001"
         r="0.83999997"
         id="circle153" /><circle
         cx="29.82"
         cy="57.52"
         r="0.83999997"
         id="circle154" /><circle
         cx="27.299999"
         cy="59.060001"
         r="0.83999997"
         id="circle155" /><circle
         cx="22.92"
         cy="63.009998"
         r="0.83999997"
         id="circle156" /><circle
         cx="21.120001"
         cy="65.360001"
         r="0.83999997"
         id="circle157" /><circle
         cx="19.620001"
         cy="67.910004"
         r="0.83999997"
         id="circle158" /><circle
         cx="18.440001"
         cy="70.620003"
         r="0.83999997"
         id="circle159" /><circle
         cx="17.6"
         cy="73.449997"
         r="0.83999997"
         id="circle160" /><circle
         cx="17.110001"
         cy="76.370003"
         r="0.83999997"
         id="circle161" /><circle
         cx="17.219999"
         cy="82.269997"
         r="0.83999997"
         id="circle162" /><circle
         cx="17.809999"
         cy="85.160004"
         r="0.83999997"
         id="circle163" /><circle
         cx="18.75"
         cy="87.970001"
         r="0.83999997"
         id="circle164" /><circle
         cx="20.02"
         cy="90.629997"
         r="0.83999997"
         id="circle165" /><circle
         cx="23.49"
         cy="95.410004"
         r="0.83999997"
         id="circle166" /><circle
         cx="25.629999"
         cy="97.440002"
         r="0.83999997"
         id="circle167" /><circle
         cx="28.01"
         cy="99.199997"
         r="0.83999997"
         id="circle168" /><circle
         cx="30.58"
         cy="100.65"
         r="0.83999997"
         id="circle169" /><rect
         x="39.68"
         y="51.73"
         width="3.0899999"
         height="1.67"
         rx="0.82999998"
         ry="0.82999998"
         transform="rotate(90,41.225,52.565)"
         id="rect169" /><rect
         x="57.259998"
         y="58.419998"
         width="3.0899999"
         height="1.67"
         rx="0.82999998"
         ry="0.82999998"
         transform="rotate(131.67,58.804012,59.252443)"
         id="rect170" /><rect
         x="22.1"
         y="58.419998"
         width="3.0899999"
         height="1.67"
         rx="0.82999998"
         ry="0.82999998"
         transform="rotate(48.35,23.643391,59.259111)"
         id="rect171" /><rect
         x="18.190001"
         y="93.599998"
         width="3.0899999"
         height="1.67"
         rx="0.82999998"
         ry="0.82999998"
         transform="rotate(-35.66,19.73255,94.429639)"
         id="rect172" /><rect
         x="61.169998"
         y="93.589996"
         width="3.0899999"
         height="1.67"
         rx="0.82999998"
         ry="0.82999998"
         transform="rotate(-144.37,62.71758,94.419876)"
         id="rect173" /><rect
         x="66.120003"
         y="78.68"
         width="3.0899999"
         height="1.67"
         rx="0.82999998"
         ry="0.82999998"
         transform="rotate(-178.91,67.662461,79.518625)"
         id="rect174" /><rect
         x="13.23"
         y="78.43"
         width="3.0899999"
         height="1.67"
         rx="0.82999998"
         ry="0.82999998"
         transform="rotate(-0.55,15.246002,79.246742)"
         id="rect175" /></g><g
       id="g179"><path
         d="m 30.89,107.3 h 2.63 l -0.09,0.77 h -0.9 l -0.48,3.54 h -0.8 l 0.48,-3.54 h -0.94 z"
         id="path175" /><path
         d="m 36.63,107.3 h 0.68 l 1.07,4.31 h -0.79 l -0.23,-0.92 h -1.71 l -0.49,0.92 h -0.87 l 2.33,-4.31 z m 0.55,2.63 -0.34,-1.42 -0.76,1.42 z"
         id="path176" /><path
         d="m 40.77,107.3 h 0.79 l -0.6,4.31 h -0.78 z"
         id="path177" /><path
         d="m 43.69,107.3 h 0.81 l -0.49,3.57 h 1.34 l -0.09,0.74 h -2.15 l 0.59,-4.31 z"
         id="path178" /><path
         d="m 50.82,107.3 h 1.28 l -0.59,4.31 h -0.79 l 0.49,-3.56 h -0.64 l 0.26,-0.75 z"
         id="path179" /></g><g
       id="g184"><path
         d="m 30.89,207.97 h 2.63 l -0.09,0.77 h -0.9 l -0.48,3.54 h -0.8 l 0.48,-3.54 h -0.94 z"
         id="path180" /><path
         d="m 36.63,207.97 h 0.68 l 1.07,4.31 h -0.79 l -0.23,-0.92 h -1.71 l -0.49,0.92 h -0.87 l 2.33,-4.31 z m 0.55,2.63 -0.34,-1.42 -0.76,1.42 z"
         id="path181" /><path
         d="m 40.77,207.97 h 0.79 l -0.6,4.31 h -0.78 z"
         id="path182" /><path
         d="m 43.69,207.97 h 0.81 l -0.49,3.57 h 1.34 l -0.09,0.74 h -2.15 l 0.59,-4.31 z"
         id="path183" /><path
         d="m 50.85,209.29 h -0.79 c 0.01,-0.29 0.08,-0.55 0.19,-0.76 0.11,-0.21 0.27,-0.38 0.47,-0.5 0.2,-0.11 0.42,-0.17 0.67,-0.17 0.36,0 0.66,0.12 0.89,0.35 0.23,0.23 0.35,0.52 0.35,0.86 0,0.27 -0.09,0.57 -0.28,0.89 -0.19,0.32 -0.63,0.85 -1.35,1.58 h 1.45 l -0.1,0.74 h -2.66 l 0.07,-0.57 c 0.74,-0.75 1.22,-1.25 1.44,-1.51 0.3,-0.35 0.48,-0.6 0.55,-0.76 0.06,-0.13 0.08,-0.25 0.08,-0.37 0,-0.13 -0.04,-0.25 -0.13,-0.33 -0.09,-0.08 -0.2,-0.13 -0.33,-0.13 -0.14,0 -0.25,0.05 -0.34,0.15 -0.09,0.1 -0.16,0.28 -0.2,0.53 z"
         id="path184" /></g><g
       id="g189"><path
         d="m 131.79,207.97 h 0.81 l -0.22,1.63 h 1.48 l 0.22,-1.63 h 0.81 l -0.59,4.31 h -0.81 l 0.27,-1.96 h -1.48 l -0.27,1.96 h -0.81 z"
         id="path185" /><path
         d="m 137.04,207.97 h 0.79 l -0.6,4.31 h -0.78 z"
         id="path186" /><path
         d="m 142.14,208.57 -0.59,0.52 c -0.24,-0.31 -0.47,-0.47 -0.68,-0.47 -0.1,0 -0.19,0.03 -0.26,0.09 -0.07,0.06 -0.1,0.14 -0.1,0.22 0,0.08 0.03,0.17 0.09,0.27 0.06,0.1 0.25,0.31 0.57,0.65 0.17,0.18 0.28,0.3 0.33,0.38 0.13,0.17 0.22,0.33 0.27,0.48 0.05,0.15 0.08,0.3 0.08,0.46 0,0.35 -0.12,0.64 -0.37,0.87 -0.25,0.23 -0.56,0.35 -0.95,0.35 -0.59,0 -1.06,-0.28 -1.43,-0.83 l 0.62,-0.5 c 0.25,0.38 0.52,0.57 0.81,0.57 0.14,0 0.26,-0.04 0.35,-0.13 0.09,-0.09 0.14,-0.2 0.14,-0.33 0,-0.1 -0.03,-0.2 -0.09,-0.3 -0.06,-0.1 -0.22,-0.3 -0.49,-0.59 -0.29,-0.3 -0.48,-0.53 -0.57,-0.69 -0.12,-0.21 -0.18,-0.41 -0.18,-0.62 0,-0.27 0.09,-0.5 0.26,-0.71 0.22,-0.26 0.51,-0.4 0.88,-0.4 0.51,0 0.94,0.24 1.28,0.71 z"
         id="path187" /><path
         d="m 146.46,208.57 -0.59,0.52 c -0.24,-0.31 -0.47,-0.47 -0.68,-0.47 -0.1,0 -0.19,0.03 -0.26,0.09 -0.07,0.06 -0.1,0.14 -0.1,0.22 0,0.08 0.03,0.17 0.09,0.27 0.06,0.1 0.25,0.31 0.57,0.65 0.17,0.18 0.28,0.3 0.33,0.38 0.13,0.17 0.22,0.33 0.27,0.48 0.05,0.15 0.08,0.3 0.08,0.46 0,0.35 -0.12,0.64 -0.37,0.87 -0.25,0.23 -0.56,0.35 -0.95,0.35 -0.59,0 -1.06,-0.28 -1.43,-0.83 l 0.62,-0.5 c 0.25,0.38 0.52,0.57 0.81,0.57 0.14,0 0.26,-0.04 0.35,-0.13 0.09,-0.09 0.14,-0.2 0.14,-0.33 0,-0.1 -0.03,-0.2 -0.09,-0.3 -0.06,-0.1 -0.22,-0.3 -0.49,-0.59 -0.29,-0.3 -0.48,-0.53 -0.57,-0.69 -0.12,-0.21 -0.18,-0.41 -0.18,-0.62 0,-0.27 0.09,-0.5 0.26,-0.71 0.22,-0.26 0.51,-0.4 0.88,-0.4 0.51,0 0.94,0.24 1.28,0.71 z"
         id="path188" /><path
         d="m 151.91,209.29 h -0.79 c 0.01,-0.29 0.08,-0.55 0.19,-0.76 0.11,-0.21 0.27,-0.38 0.47,-0.5 0.2,-0.11 0.42,-0.17 0.67,-0.17 0.36,0 0.66,0.12 0.89,0.35 0.23,0.23 0.35,0.52 0.35,0.86 0,0.27 -0.09,0.57 -0.28,0.89 -0.19,0.32 -0.63,0.85 -1.35,1.58 h 1.45 l -0.1,0.74 h -2.66 l 0.07,-0.57 c 0.74,-0.75 1.22,-1.25 1.44,-1.51 0.3,-0.35 0.48,-0.6 0.55,-0.76 0.06,-0.13 0.08,-0.25 0.08,-0.37 0,-0.13 -0.04,-0.25 -0.13,-0.33 -0.09,-0.08 -0.2,-0.13 -0.33,-0.13 -0.14,0 -0.25,0.05 -0.34,0.15 -0.09,0.1 -0.16,0.28 -0.2,0.53 z"
         id="path189" /></g><g
       id="g194"><path
         d="m 132.31,107.3 h 0.81 l -0.22,1.63 h 1.48 l 0.22,-1.63 h 0.81 l -0.59,4.31 h -0.81 l 0.27,-1.96 h -1.48 l -0.27,1.96 h -0.81 z"
         id="path190" /><path
         d="m 137.56,107.3 h 0.79 l -0.6,4.31 h -0.78 z"
         id="path191" /><path
         d="m 142.66,107.9 -0.59,0.52 c -0.24,-0.31 -0.47,-0.47 -0.68,-0.47 -0.1,0 -0.19,0.03 -0.26,0.09 -0.07,0.06 -0.1,0.14 -0.1,0.22 0,0.08 0.03,0.17 0.09,0.27 0.06,0.1 0.25,0.31 0.57,0.65 0.17,0.18 0.28,0.3 0.33,0.38 0.13,0.17 0.22,0.33 0.27,0.48 0.05,0.15 0.08,0.3 0.08,0.46 0,0.35 -0.12,0.64 -0.37,0.87 -0.25,0.23 -0.56,0.35 -0.95,0.35 -0.59,0 -1.06,-0.28 -1.43,-0.83 l 0.62,-0.5 c 0.25,0.38 0.52,0.57 0.81,0.57 0.14,0 0.26,-0.04 0.35,-0.13 0.09,-0.09 0.14,-0.2 0.14,-0.33 0,-0.1 -0.03,-0.2 -0.09,-0.3 -0.06,-0.1 -0.22,-0.3 -0.49,-0.59 -0.29,-0.3 -0.48,-0.53 -0.57,-0.69 -0.12,-0.21 -0.18,-0.41 -0.18,-0.62 0,-0.27 0.09,-0.5 0.26,-0.71 0.22,-0.26 0.51,-0.4 0.88,-0.4 0.51,0 0.94,0.24 1.28,0.71 z"
         id="path192" /><path
         d="m 146.98,107.9 -0.59,0.52 c -0.24,-0.31 -0.47,-0.47 -0.68,-0.47 -0.1,0 -0.19,0.03 -0.26,0.09 -0.07,0.06 -0.1,0.14 -0.1,0.22 0,0.08 0.03,0.17 0.09,0.27 0.06,0.1 0.25,0.31 0.57,0.65 0.17,0.18 0.28,0.3 0.33,0.38 0.13,0.17 0.22,0.33 0.27,0.48 0.05,0.15 0.08,0.3 0.08,0.46 0,0.35 -0.12,0.64 -0.37,0.87 -0.25,0.23 -0.56,0.35 -0.95,0.35 -0.59,0 -1.06,-0.28 -1.43,-0.83 l 0.62,-0.5 c 0.25,0.38 0.52,0.57 0.81,0.57 0.14,0 0.26,-0.04 0.35,-0.13 0.09,-0.09 0.14,-0.2 0.14,-0.33 0,-0.1 -0.03,-0.2 -0.09,-0.3 -0.06,-0.1 -0.22,-0.3 -0.49,-0.59 -0.29,-0.3 -0.48,-0.53 -0.57,-0.69 -0.12,-0.21 -0.18,-0.41 -0.18,-0.62 0,-0.27 0.09,-0.5 0.26,-0.71 0.22,-0.26 0.51,-0.4 0.88,-0.4 0.51,0 0.94,0.24 1.28,0.71 z"
         id="path193" /><path
         d="m 152.41,107.3 h 1.28 l -0.59,4.31 h -0.79 l 0.49,-3.56 h -0.64 l 0.26,-0.75 z"
         id="path194" /></g><g
       id="g199"><path
         d="m 84.22,148.31 -0.59,0.52 c -0.24,-0.31 -0.47,-0.47 -0.68,-0.47 -0.1,0 -0.19,0.03 -0.26,0.09 -0.07,0.06 -0.1,0.14 -0.1,0.22 0,0.08 0.03,0.17 0.09,0.27 0.06,0.1 0.25,0.31 0.57,0.65 0.17,0.18 0.28,0.3 0.33,0.38 0.13,0.17 0.22,0.33 0.27,0.48 0.05,0.15 0.08,0.3 0.08,0.46 0,0.35 -0.12,0.64 -0.37,0.87 -0.25,0.23 -0.56,0.35 -0.95,0.35 -0.59,0 -1.06,-0.28 -1.43,-0.83 l 0.62,-0.5 c 0.25,0.38 0.52,0.57 0.81,0.57 0.14,0 0.26,-0.04 0.35,-0.13 0.09,-0.09 0.14,-0.2 0.14,-0.33 0,-0.1 -0.03,-0.2 -0.09,-0.3 -0.06,-0.1 -0.22,-0.3 -0.49,-0.59 -0.29,-0.3 -0.48,-0.53 -0.57,-0.69 -0.12,-0.21 -0.18,-0.41 -0.18,-0.62 0,-0.27 0.09,-0.5 0.26,-0.71 0.22,-0.26 0.51,-0.4 0.88,-0.4 0.51,0 0.94,0.24 1.28,0.71 z"
         id="path195" /><path
         d="m 86.35,147.71 h 0.71 l 1.55,2.93 0.4,-2.93 h 0.79 l -0.59,4.31 h -0.69 l -1.57,-2.96 -0.4,2.96 h -0.78 z"
         id="path196" /><path
         d="m 93.45,147.71 h 0.68 l 1.07,4.31 h -0.79 l -0.23,-0.92 h -1.71 l -0.49,0.92 h -0.87 l 2.33,-4.31 z m 0.55,2.63 -0.34,-1.42 -0.76,1.42 z"
         id="path197" /><path
         d="m 97.67,147.71 h 0.75 c 0.46,0 0.79,0.04 0.98,0.12 0.23,0.1 0.41,0.24 0.53,0.41 0.12,0.18 0.18,0.39 0.18,0.63 0,0.3 -0.09,0.55 -0.27,0.77 -0.18,0.22 -0.45,0.36 -0.8,0.45 l 0.94,1.93 h -0.84 l -0.92,-1.88 h -0.07 l -0.26,1.88 h -0.81 z m 0.58,1.72 c 0.44,0 0.72,-0.05 0.85,-0.14 0.13,-0.09 0.2,-0.22 0.2,-0.4 0,-0.1 -0.03,-0.19 -0.08,-0.25 -0.05,-0.07 -0.13,-0.12 -0.23,-0.14 -0.1,-0.03 -0.3,-0.04 -0.61,-0.04 l -0.13,0.98 z"
         id="path198" /><path
         d="m 102.31,147.71 h 0.81 l -0.49,3.57 h 1.34 l -0.09,0.74 h -2.15 l 0.59,-4.31 z"
         id="path199" /></g><g
       id="g204"><path
         d="m 63.92,294.15 h 2.63 l -0.09,0.77 h -0.9 l -0.48,3.54 h -0.8 l 0.48,-3.54 h -0.94 z"
         id="path200" /><path
         d="m 69.66,294.15 h 0.68 l 1.07,4.31 h -0.79 l -0.23,-0.92 h -1.71 l -0.49,0.92 h -0.87 l 2.33,-4.31 z m 0.55,2.63 -0.34,-1.42 -0.76,1.42 z"
         id="path201" /><path
         d="m 73.8,294.15 h 0.79 l -0.6,4.31 h -0.78 z"
         id="path202" /><path
         d="m 76.72,294.15 h 0.81 l -0.49,3.57 h 1.34 l -0.09,0.74 h -2.15 l 0.59,-4.31 z"
         id="path203" /><path
         d="m 83.85,294.15 h 1.28 l -0.59,4.31 h -0.79 l 0.49,-3.56 H 83.6 l 0.26,-0.75 z"
         id="path204" /></g><g
       id="g210"><path
         d="m 64.58,10.45 h 1.56 c 0.63,0 1.11,0.07 1.44,0.22 0.34,0.15 0.6,0.38 0.8,0.68 0.19,0.31 0.29,0.65 0.29,1.03 0,0.35 -0.09,0.67 -0.26,0.96 -0.17,0.29 -0.42,0.52 -0.75,0.7 0.41,0.14 0.73,0.3 0.95,0.49 0.22,0.19 0.39,0.42 0.52,0.68 0.12,0.27 0.18,0.56 0.18,0.87 0,0.63 -0.23,1.17 -0.7,1.61 -0.46,0.44 -1.09,0.66 -1.87,0.66 h -2.17 v -7.9 z m 0.77,0.78 v 2.53 h 0.45 c 0.55,0 0.95,-0.05 1.21,-0.15 0.26,-0.1 0.46,-0.26 0.61,-0.48 0.15,-0.22 0.23,-0.46 0.23,-0.73 0,-0.36 -0.13,-0.65 -0.38,-0.85 -0.25,-0.21 -0.66,-0.31 -1.21,-0.31 h -0.92 z m 0,3.32 v 3.03 h 0.98 c 0.58,0 1,-0.06 1.27,-0.17 0.27,-0.11 0.48,-0.29 0.65,-0.53 0.16,-0.24 0.24,-0.5 0.24,-0.78 0,-0.35 -0.11,-0.66 -0.34,-0.92 -0.23,-0.26 -0.54,-0.44 -0.95,-0.54 -0.27,-0.06 -0.74,-0.1 -1.4,-0.1 h -0.45 z"
         id="path205" /><path
         d="m 79.92,11.54 c 0.36,0.37 0.64,0.79 0.83,1.28 0.19,0.49 0.29,1.02 0.29,1.58 0,1.16 -0.4,2.14 -1.21,2.94 -0.8,0.81 -1.78,1.21 -2.94,1.21 -0.88,0 -1.66,-0.23 -2.35,-0.69 l -0.89,1.04 -0.58,-0.47 0.89,-1.04 c -0.83,-0.81 -1.25,-1.79 -1.25,-2.95 0,-0.76 0.18,-1.46 0.55,-2.11 0.37,-0.65 0.87,-1.16 1.51,-1.52 0.64,-0.36 1.34,-0.55 2.1,-0.55 0.92,0 1.76,0.26 2.51,0.79 l 0.77,-0.93 0.57,0.47 -0.81,0.95 z m -5.43,5.25 4.36,-5.13 c -0.6,-0.42 -1.26,-0.64 -1.98,-0.64 -0.58,0 -1.14,0.15 -1.66,0.46 -0.52,0.31 -0.93,0.72 -1.23,1.23 -0.3,0.51 -0.44,1.09 -0.44,1.73 0,0.91 0.32,1.7 0.95,2.35 z m 4.91,-4.63 -4.33,5.1 c 0.55,0.35 1.15,0.53 1.8,0.53 0.61,0 1.18,-0.15 1.7,-0.45 0.52,-0.3 0.93,-0.7 1.22,-1.22 0.29,-0.52 0.44,-1.09 0.44,-1.72 0,-0.87 -0.28,-1.62 -0.83,-2.24 z"
         id="path206" /><path
         d="m 84.85,10.45 h 1.56 c 0.63,0 1.11,0.07 1.44,0.22 0.34,0.15 0.6,0.38 0.8,0.68 0.19,0.31 0.29,0.65 0.29,1.03 0,0.35 -0.09,0.67 -0.26,0.96 -0.17,0.29 -0.42,0.52 -0.75,0.7 0.41,0.14 0.73,0.3 0.95,0.49 0.22,0.19 0.39,0.42 0.52,0.68 0.12,0.27 0.18,0.56 0.18,0.87 0,0.63 -0.23,1.17 -0.7,1.61 -0.46,0.44 -1.09,0.66 -1.87,0.66 h -2.17 v -7.9 z m 0.77,0.78 v 2.53 h 0.45 c 0.55,0 0.95,-0.05 1.21,-0.15 0.26,-0.1 0.46,-0.26 0.61,-0.48 0.15,-0.22 0.23,-0.46 0.23,-0.73 0,-0.36 -0.13,-0.65 -0.38,-0.85 -0.25,-0.21 -0.66,-0.31 -1.21,-0.31 h -0.92 z m 0,3.32 v 3.03 h 0.98 c 0.58,0 1,-0.06 1.27,-0.17 0.27,-0.11 0.48,-0.29 0.65,-0.53 0.16,-0.24 0.24,-0.5 0.24,-0.78 0,-0.35 -0.11,-0.66 -0.34,-0.92 -0.23,-0.26 -0.54,-0.44 -0.95,-0.54 -0.27,-0.06 -0.74,-0.1 -1.4,-0.1 h -0.45 z"
         id="path207" /><path
         d="m 100.7,11.92 -0.62,0.48 c -0.34,-0.45 -0.76,-0.79 -1.24,-1.02 -0.48,-0.23 -1.01,-0.35 -1.59,-0.35 -0.63,0 -1.21,0.15 -1.75,0.45 -0.54,0.3 -0.95,0.71 -1.25,1.22 -0.3,0.51 -0.44,1.08 -0.44,1.72 0,0.96 0.33,1.77 0.99,2.41 0.66,0.64 1.49,0.97 2.5,0.97 1.11,0 2.03,-0.43 2.78,-1.3 l 0.62,0.47 c -0.39,0.5 -0.89,0.89 -1.47,1.16 -0.59,0.27 -1.25,0.41 -1.97,0.41 -1.38,0 -2.47,-0.46 -3.27,-1.38 -0.67,-0.78 -1,-1.72 -1,-2.81 0,-1.16 0.41,-2.13 1.22,-2.92 0.81,-0.79 1.83,-1.18 3.05,-1.18 0.74,0 1.4,0.15 2,0.44 0.59,0.29 1.08,0.7 1.46,1.23 z"
         id="path208" /><path
         d="m 107.71,10.45 3.68,7.9 h -0.85 l -1.24,-2.6 h -3.4 l -1.23,2.6 h -0.88 l 3.73,-7.9 z m -0.1,1.68 -1.35,2.86 h 2.7 z"
         id="path209" /><path
         d="m 114.04,11.23 v -0.77 h 4.33 v 0.77 h -1.76 v 7.13 h -0.81 v -7.13 z"
         id="path210" /></g><g
       id="g215"><path
         d="m 107.25,294.15 h 0.81 l -0.22,1.63 h 1.48 l 0.22,-1.63 h 0.81 l -0.59,4.31 h -0.81 l 0.27,-1.96 h -1.48 l -0.27,1.96 h -0.81 z"
         id="path211" /><path
         d="m 112.5,294.15 h 0.79 l -0.6,4.31 h -0.78 z"
         id="path212" /><path
         d="m 117.6,294.75 -0.59,0.52 c -0.24,-0.31 -0.47,-0.47 -0.68,-0.47 -0.1,0 -0.19,0.03 -0.26,0.09 -0.07,0.06 -0.1,0.14 -0.1,0.22 0,0.08 0.03,0.17 0.09,0.27 0.06,0.1 0.25,0.31 0.57,0.65 0.17,0.18 0.28,0.3 0.33,0.38 0.13,0.17 0.22,0.33 0.27,0.48 0.05,0.15 0.08,0.3 0.08,0.46 0,0.35 -0.12,0.64 -0.37,0.87 -0.25,0.23 -0.56,0.35 -0.95,0.35 -0.59,0 -1.06,-0.28 -1.43,-0.83 l 0.62,-0.5 c 0.25,0.38 0.52,0.57 0.81,0.57 0.14,0 0.26,-0.04 0.35,-0.13 0.09,-0.09 0.14,-0.2 0.14,-0.33 0,-0.1 -0.03,-0.2 -0.09,-0.3 -0.06,-0.1 -0.22,-0.3 -0.49,-0.59 -0.29,-0.3 -0.48,-0.53 -0.57,-0.69 -0.12,-0.21 -0.18,-0.41 -0.18,-0.62 0,-0.27 0.09,-0.5 0.26,-0.71 0.22,-0.26 0.51,-0.4 0.88,-0.4 0.51,0 0.94,0.24 1.28,0.71 z"
         id="path213" /><path
         d="m 121.92,294.75 -0.59,0.52 c -0.24,-0.31 -0.47,-0.47 -0.68,-0.47 -0.1,0 -0.19,0.03 -0.26,0.09 -0.07,0.06 -0.1,0.14 -0.1,0.22 0,0.08 0.03,0.17 0.09,0.27 0.06,0.1 0.25,0.31 0.57,0.65 0.17,0.18 0.28,0.3 0.33,0.38 0.13,0.17 0.22,0.33 0.27,0.48 0.05,0.15 0.08,0.3 0.08,0.46 0,0.35 -0.12,0.64 -0.37,0.87 -0.25,0.23 -0.56,0.35 -0.95,0.35 -0.59,0 -1.06,-0.28 -1.43,-0.83 l 0.62,-0.5 c 0.25,0.38 0.52,0.57 0.81,0.57 0.14,0 0.26,-0.04 0.35,-0.13 0.09,-0.09 0.14,-0.2 0.14,-0.33 0,-0.1 -0.03,-0.2 -0.09,-0.3 -0.06,-0.1 -0.22,-0.3 -0.49,-0.59 -0.29,-0.3 -0.48,-0.53 -0.57,-0.69 -0.12,-0.21 -0.18,-0.41 -0.18,-0.62 0,-0.27 0.09,-0.5 0.26,-0.71 0.22,-0.26 0.51,-0.4 0.88,-0.4 0.51,0 0.94,0.24 1.28,0.71 z"
         id="path214" /><path
         d="m 127.35,294.15 h 1.28 l -0.59,4.31 h -0.79 l 0.49,-3.56 h -0.64 l 0.26,-0.75 z"
         id="path215" /></g><g
       id="g220"><path
         d="m 107.25,332.34 h 0.81 l -0.22,1.63 h 1.48 l 0.22,-1.63 h 0.81 l -0.59,4.31 h -0.81 l 0.27,-1.96 h -1.48 l -0.27,1.96 h -0.81 z"
         id="path216" /><path
         d="m 112.5,332.34 h 0.79 l -0.6,4.31 h -0.78 z"
         id="path217" /><path
         d="m 117.6,332.94 -0.59,0.52 c -0.24,-0.31 -0.47,-0.47 -0.68,-0.47 -0.1,0 -0.19,0.03 -0.26,0.09 -0.07,0.06 -0.1,0.14 -0.1,0.22 0,0.08 0.03,0.17 0.09,0.27 0.06,0.1 0.25,0.31 0.57,0.65 0.17,0.18 0.28,0.3 0.33,0.38 0.13,0.17 0.22,0.33 0.27,0.48 0.05,0.15 0.08,0.3 0.08,0.46 0,0.35 -0.12,0.64 -0.37,0.87 -0.25,0.23 -0.56,0.35 -0.95,0.35 -0.59,0 -1.06,-0.28 -1.43,-0.83 l 0.62,-0.5 c 0.25,0.38 0.52,0.57 0.81,0.57 0.14,0 0.26,-0.04 0.35,-0.13 0.09,-0.09 0.14,-0.2 0.14,-0.33 0,-0.1 -0.03,-0.2 -0.09,-0.3 -0.06,-0.1 -0.22,-0.3 -0.49,-0.59 -0.29,-0.3 -0.48,-0.53 -0.57,-0.69 -0.12,-0.21 -0.18,-0.41 -0.18,-0.62 0,-0.27 0.09,-0.5 0.26,-0.71 0.22,-0.26 0.51,-0.4 0.88,-0.4 0.51,0 0.94,0.24 1.28,0.71 z"
         id="path218" /><path
         d="m 121.92,332.94 -0.59,0.52 c -0.24,-0.31 -0.47,-0.47 -0.68,-0.47 -0.1,0 -0.19,0.03 -0.26,0.09 -0.07,0.06 -0.1,0.14 -0.1,0.22 0,0.08 0.03,0.17 0.09,0.27 0.06,0.1 0.25,0.31 0.57,0.65 0.17,0.18 0.28,0.3 0.33,0.38 0.13,0.17 0.22,0.33 0.27,0.48 0.05,0.15 0.08,0.3 0.08,0.46 0,0.35 -0.12,0.64 -0.37,0.87 -0.25,0.23 -0.56,0.35 -0.95,0.35 -0.59,0 -1.06,-0.28 -1.43,-0.83 l 0.62,-0.5 c 0.25,0.38 0.52,0.57 0.81,0.57 0.14,0 0.26,-0.04 0.35,-0.13 0.09,-0.09 0.14,-0.2 0.14,-0.33 0,-0.1 -0.03,-0.2 -0.09,-0.3 -0.06,-0.1 -0.22,-0.3 -0.49,-0.59 -0.29,-0.3 -0.48,-0.53 -0.57,-0.69 -0.12,-0.21 -0.18,-0.41 -0.18,-0.62 0,-0.27 0.09,-0.5 0.26,-0.71 0.22,-0.26 0.51,-0.4 0.88,-0.4 0.51,0 0.94,0.24 1.28,0.71 z"
         id="path219" /><path
         d="m 127.37,333.66 h -0.79 c 0.01,-0.29 0.08,-0.55 0.19,-0.76 0.11,-0.21 0.27,-0.38 0.47,-0.5 0.2,-0.11 0.42,-0.17 0.67,-0.17 0.36,0 0.66,0.12 0.89,0.35 0.23,0.23 0.35,0.52 0.35,0.86 0,0.27 -0.09,0.57 -0.28,0.89 -0.19,0.32 -0.63,0.85 -1.35,1.58 h 1.45 l -0.1,0.74 h -2.66 l 0.07,-0.57 c 0.74,-0.75 1.22,-1.25 1.44,-1.51 0.3,-0.35 0.48,-0.6 0.55,-0.76 0.06,-0.13 0.08,-0.25 0.08,-0.37 0,-0.13 -0.04,-0.25 -0.13,-0.33 -0.09,-0.08 -0.2,-0.13 -0.33,-0.13 -0.14,0 -0.25,0.05 -0.34,0.15 -0.09,0.1 -0.16,0.28 -0.2,0.53 z"
         id="path220" /></g><g
       id="g225"><path
         d="m 63.92,332.34 h 2.63 l -0.09,0.77 h -0.9 l -0.48,3.54 h -0.8 l 0.48,-3.54 h -0.94 z"
         id="path221" /><path
         d="m 69.66,332.34 h 0.68 l 1.07,4.31 h -0.79 l -0.23,-0.92 h -1.71 l -0.49,0.92 h -0.87 l 2.33,-4.31 z m 0.55,2.63 -0.34,-1.42 -0.76,1.42 z"
         id="path222" /><path
         d="m 73.8,332.34 h 0.79 l -0.6,4.31 h -0.78 z"
         id="path223" /><path
         d="m 76.72,332.34 h 0.81 l -0.49,3.57 h 1.34 l -0.09,0.74 h -2.15 l 0.59,-4.31 z"
         id="path224" /><path
         d="m 83.88,333.66 h -0.79 c 0.01,-0.29 0.08,-0.55 0.19,-0.76 0.11,-0.21 0.27,-0.38 0.47,-0.5 0.2,-0.11 0.42,-0.17 0.67,-0.17 0.36,0 0.66,0.12 0.89,0.35 0.23,0.23 0.35,0.52 0.35,0.86 0,0.27 -0.09,0.57 -0.28,0.89 -0.19,0.32 -0.63,0.85 -1.35,1.58 h 1.45 l -0.1,0.74 h -2.66 l 0.07,-0.57 c 0.74,-0.75 1.22,-1.25 1.44,-1.51 0.3,-0.35 0.48,-0.6 0.55,-0.76 0.06,-0.13 0.08,-0.25 0.08,-0.37 0,-0.13 -0.04,-0.25 -0.13,-0.33 -0.09,-0.08 -0.2,-0.13 -0.33,-0.13 -0.14,0 -0.25,0.05 -0.34,0.15 -0.09,0.1 -0.16,0.28 -0.2,0.53 z"
         id="path225" /></g><g
       id="g230"><path
         d="m 15.99,274.01 0.34,0.58 c 0.21,0.35 0.32,0.64 0.34,0.85 0.02,0.21 -0.01,0.42 -0.11,0.62 -0.1,0.2 -0.24,0.35 -0.43,0.46 -0.16,0.09 -0.32,0.14 -0.5,0.15 -0.18,0 -0.36,-0.03 -0.53,-0.12 -0.04,0.47 -0.25,0.81 -0.63,1.04 -0.2,0.12 -0.41,0.17 -0.64,0.16 -0.23,0 -0.43,-0.07 -0.59,-0.18 -0.16,-0.11 -0.34,-0.31 -0.51,-0.6 l -0.75,-1.29 4.02,-1.67 z m -2.9,2.07 0.23,0.43 c 0.12,0.21 0.25,0.34 0.39,0.39 0.14,0.05 0.28,0.03 0.42,-0.05 0.1,-0.06 0.18,-0.14 0.23,-0.25 0.05,-0.11 0.06,-0.22 0.04,-0.34 -0.02,-0.12 -0.12,-0.32 -0.28,-0.6 l -1.03,0.43 z m 1.71,-0.71 0.07,0.12 c 0.11,0.19 0.2,0.31 0.26,0.36 0.07,0.05 0.15,0.08 0.26,0.08 0.1,0 0.2,-0.02 0.29,-0.08 0.09,-0.05 0.15,-0.11 0.19,-0.19 0.04,-0.08 0.05,-0.16 0.03,-0.24 -0.02,-0.08 -0.09,-0.22 -0.21,-0.43 l -0.9,0.37 z"
         id="path226" /><path
         d="m 19.08,279.31 0.34,0.59 -3.18,3.1 -0.4,-0.68 0.68,-0.66 -0.86,-1.48 -1.04,0.04 -0.44,-0.75 z m -1.99,1.8 1.05,-1.01 -1.61,0.06 z"
         id="path227" /><path
         d="m 21.19,282.92 0.36,0.61 -1.75,2.82 2.73,-1.13 0.4,0.68 -4.02,1.67 -0.35,-0.6 1.76,-2.85 -2.76,1.14 -0.39,-0.67 z"
         id="path228" /><path
         d="m 25.21,291.41 -0.72,-0.36 c 0.09,-0.28 0.13,-0.52 0.12,-0.72 -0.02,-0.2 -0.08,-0.4 -0.2,-0.6 -0.25,-0.43 -0.63,-0.68 -1.13,-0.75 -0.4,-0.05 -0.77,0.02 -1.1,0.21 -0.33,0.19 -0.54,0.46 -0.64,0.82 -0.1,0.35 -0.05,0.69 0.14,1.01 0.14,0.24 0.32,0.42 0.56,0.55 0.23,0.13 0.5,0.19 0.8,0.18 l -0.68,-1.16 0.71,-0.3 1.1,1.88 c -0.63,0.33 -1.23,0.42 -1.8,0.28 -0.57,-0.15 -1.02,-0.5 -1.34,-1.05 -0.35,-0.6 -0.42,-1.2 -0.2,-1.79 0.17,-0.47 0.49,-0.85 0.96,-1.12 0.56,-0.33 1.17,-0.41 1.82,-0.24 0.65,0.17 1.14,0.53 1.47,1.1 0.12,0.21 0.21,0.43 0.27,0.67 0.06,0.24 0.08,0.46 0.06,0.69 -0.02,0.23 -0.07,0.46 -0.17,0.72 z"
         id="path229" /><path
         d="m 24.15,294.75 c 0.07,0.12 0.08,0.24 0.05,0.37 -0.03,0.13 -0.11,0.23 -0.23,0.3 -0.12,0.07 -0.24,0.08 -0.37,0.05 -0.13,-0.03 -0.23,-0.11 -0.3,-0.23 -0.07,-0.12 -0.09,-0.24 -0.05,-0.37 0.04,-0.13 0.11,-0.23 0.23,-0.3 0.12,-0.07 0.24,-0.09 0.37,-0.05 0.13,0.03 0.23,0.11 0.3,0.23 z m 3.11,-1.66 0.41,0.7 -2.94,1.2 -0.41,-0.7 2.94,-1.21 z"
         id="path230" /></g><g
       id="g235"><path
         d="m 15.61,310.5 0.34,0.58 c 0.21,0.35 0.32,0.64 0.34,0.85 0.02,0.21 -0.01,0.42 -0.11,0.62 -0.1,0.2 -0.24,0.35 -0.43,0.46 -0.16,0.09 -0.32,0.14 -0.5,0.15 -0.18,0 -0.36,-0.03 -0.53,-0.12 -0.04,0.47 -0.25,0.81 -0.63,1.04 -0.2,0.12 -0.41,0.17 -0.64,0.16 -0.23,0 -0.43,-0.07 -0.59,-0.18 -0.16,-0.11 -0.34,-0.31 -0.51,-0.6 l -0.75,-1.29 4.02,-1.67 z m -2.89,2.08 0.23,0.43 c 0.12,0.21 0.25,0.34 0.39,0.39 0.14,0.05 0.28,0.03 0.42,-0.05 0.1,-0.06 0.18,-0.14 0.23,-0.25 0.05,-0.11 0.06,-0.22 0.04,-0.34 -0.02,-0.12 -0.12,-0.32 -0.28,-0.6 l -1.03,0.43 z m 1.7,-0.71 0.07,0.12 c 0.11,0.19 0.2,0.31 0.26,0.36 0.07,0.05 0.15,0.08 0.26,0.08 0.1,0 0.2,-0.02 0.29,-0.08 0.09,-0.05 0.15,-0.11 0.19,-0.19 0.04,-0.08 0.05,-0.16 0.03,-0.24 -0.02,-0.08 -0.09,-0.22 -0.21,-0.43 l -0.9,0.37 z"
         id="path231" /><path
         d="m 18.71,315.81 0.34,0.59 -3.18,3.1 -0.4,-0.68 0.68,-0.66 -0.86,-1.48 -1.04,0.04 -0.44,-0.75 z m -2,1.8 1.05,-1.01 -1.61,0.06 z"
         id="path232" /><path
         d="m 20.81,319.41 0.36,0.61 -1.75,2.82 2.73,-1.13 0.4,0.68 -4.02,1.67 -0.35,-0.6 1.76,-2.85 -2.76,1.14 -0.39,-0.67 z"
         id="path233" /><path
         d="m 24.84,327.9 -0.72,-0.36 c 0.09,-0.28 0.13,-0.52 0.12,-0.72 -0.02,-0.2 -0.08,-0.4 -0.2,-0.6 -0.25,-0.43 -0.63,-0.68 -1.13,-0.75 -0.4,-0.05 -0.77,0.02 -1.1,0.21 -0.33,0.19 -0.54,0.46 -0.64,0.82 -0.1,0.35 -0.05,0.69 0.14,1.01 0.14,0.24 0.32,0.42 0.56,0.55 0.23,0.13 0.5,0.19 0.8,0.18 l -0.68,-1.16 0.71,-0.3 1.1,1.88 c -0.63,0.33 -1.23,0.42 -1.8,0.28 -0.57,-0.15 -1.02,-0.5 -1.34,-1.05 -0.35,-0.6 -0.42,-1.2 -0.2,-1.79 0.17,-0.47 0.49,-0.85 0.96,-1.12 0.56,-0.33 1.17,-0.41 1.82,-0.24 0.65,0.17 1.14,0.53 1.47,1.1 0.12,0.21 0.21,0.43 0.27,0.67 0.06,0.24 0.08,0.46 0.06,0.69 -0.02,0.23 -0.07,0.46 -0.17,0.72 z"
         id="path234" /><path
         d="m 23.78,331.25 c 0.07,0.12 0.08,0.24 0.05,0.37 -0.03,0.13 -0.11,0.23 -0.23,0.3 -0.12,0.07 -0.24,0.08 -0.37,0.05 -0.13,-0.03 -0.23,-0.11 -0.3,-0.23 -0.07,-0.12 -0.09,-0.24 -0.05,-0.37 0.04,-0.13 0.11,-0.23 0.23,-0.3 0.12,-0.07 0.24,-0.09 0.37,-0.05 0.13,0.03 0.23,0.11 0.3,0.23 z m 3.1,-1.66 0.41,0.7 -2.94,1.2 -0.41,-0.7 2.94,-1.21 z"
         id="path235" /></g><polygon
       points="33.38,27.82 32.04,44.69 30.15,43.69 28.61,34.53 29.02,34.46 30.52,43.42 31.67,44.03 33.17,25.21 33.58,25.21 34.99,42.75 36.29,36.75 37.79,38.33 39.26,29.24 41.04,27.67 42.69,31.33 44.01,39.02 45.6,30.24 47.09,47.32 48.53,35.33 50.03,43.35 51.56,27.49 53.35,37.13 54.68,45.48 55.98,38.72 57.74,27.19 59.43,43.3 60.64,46.14 62.21,35.01 63.74,41.25 65.28,31.42 66.76,38.44 68.19,24.51 70.08,25.93 71.44,42.02 72.95,29.41 74.45,45.26 75.76,31.61 76.17,31.61 77.61,48.64 78.99,44.67 80.46,47.99 81.85,41.09 83.42,29.74 85.27,31.09 86.73,34.7 88.3,33.78 89.87,42.47 91.25,48.65 92.52,45.46 94.17,27.16 95.97,36.84 97.23,42.99 98.73,29.39 100.51,36.39 101.96,37.15 103.3,38.2 104.98,34 106.36,41.49 107.87,23.6 109.68,32.26 110.99,40.7 112.37,30.91 114.24,32.09 114.25,32.19 115.64,43.41 116.89,38.44 118.69,27.63 120.14,46.1 121.46,30.07 121.87,30.07 123.35,43.26 124.53,42.23 126.04,38.59 127.73,26.97 129.34,35.91 130.84,31.44 132.52,38.47 133.72,40.56 135.39,25.21 136.91,41.15 138.24,27.54 140.07,22.83 141.59,36.57 143.08,31.96 144.57,41.33 145.99,34.62 147.49,37.88 149.16,27.71 150.8,42.76 151.98,41.44 153.5,25.49 153.91,25.5 155.45,46.05 155.04,46.08 153.68,27.94 152.37,41.62 150.49,43.73 149.08,30.76 147.68,39.28 146.14,35.92 144.51,43.6 142.94,33.72 141.39,38.52 139.85,24.55 138.64,27.67 137.11,43.33 136.7,43.33 135.37,29.27 133.99,41.87 132.13,38.59 130.77,32.94 129.22,37.57 127.78,29.53 126.43,38.7 124.84,42.51 123.02,44.08 121.69,32.22 120.34,48.69 119.93,48.69 118.54,31.03 117.29,38.52 115.5,45.65 113.86,32.34 112.69,31.6 111.02,43.52 109.28,32.33 108.04,26.44 106.51,44.6 104.83,35.47 103.47,38.87 101.73,37.5 100.16,36.67 98.89,31.69 97.35,45.63 95.56,36.92 94.31,30.18 92.91,45.58 91.14,50.05 89.47,42.55 88,34.43 86.53,35.29 84.94,31.35 83.74,30.48 82.26,41.16 80.61,49.35 79.03,45.8 77.37,50.62 75.95,33.92 74.65,47.45 74.24,47.45 72.9,33.28 71.37,46.08 69.68,26.15 68.52,25.28 66.9,41.1 65.34,33.7 63.83,43.34 62.32,37.19 60.85,47.65 59.02,43.38 57.67,30.42 56.39,38.79 54.65,47.86 52.94,37.2 51.69,30.45 50.17,46.29 48.62,38.04 47.02,51.32 45.46,33.35 44,41.39 42.29,31.42 40.9,28.35 39.64,29.46 38.07,39.22 36.53,37.6 34.8,45.56 "
       id="polygon238" /><g
       id="g255"
       style="display:inline"><path
         class="st0"
         d="m 50.42,357.99 h 0.73 l 0.73,3 1.49,-3 h 0.7 l 0.06,4.31 h -0.76 l -0.04,-2.58 -1.28,2.58 h -0.62 l -0.66,-2.71 -0.69,2.71 h -0.77 l 1.1,-4.31 z"
         id="path239" /><path
         class="st0"
         d="m 60.23,358.53 c 0.33,0.38 0.5,0.84 0.5,1.36 0,0.45 -0.11,0.87 -0.34,1.27 -0.23,0.4 -0.53,0.7 -0.91,0.92 -0.38,0.21 -0.81,0.32 -1.3,0.32 -0.44,0 -0.81,-0.09 -1.12,-0.27 l -0.4,0.45 -0.35,-0.29 0.39,-0.44 c -0.36,-0.37 -0.54,-0.85 -0.54,-1.43 0,-0.47 0.11,-0.9 0.33,-1.29 0.22,-0.39 0.53,-0.7 0.91,-0.92 0.38,-0.22 0.8,-0.33 1.26,-0.33 0.46,0 0.88,0.11 1.21,0.34 l 0.38,-0.43 0.35,0.3 z m -2.98,2.7 2.1,-2.41 c -0.21,-0.12 -0.44,-0.18 -0.71,-0.18 -0.3,0 -0.58,0.08 -0.83,0.23 -0.25,0.15 -0.46,0.37 -0.62,0.65 -0.16,0.28 -0.23,0.57 -0.23,0.87 0,0.33 0.09,0.61 0.28,0.85 z m 2.43,-2.09 -2.08,2.37 c 0.18,0.09 0.39,0.13 0.62,0.13 0.47,0 0.86,-0.17 1.19,-0.5 0.33,-0.33 0.49,-0.74 0.49,-1.21 0,-0.31 -0.08,-0.57 -0.23,-0.8 z"
         id="path240" /><path
         class="st0"
         d="M 62.9,357.99 H 65 l -0.1,0.76 h -1.29 l -0.13,0.89 h 1.3 l -0.1,0.76 h -1.3 l -0.26,1.9 h -0.81 z"
         id="path241" /><path
         class="st0"
         d="m 66.98,357.99 h 2.1 l -0.1,0.76 h -1.29 l -0.13,0.89 h 1.3 l -0.1,0.76 h -1.3 l -0.26,1.9 h -0.81 z"
         id="path242" /><path
         class="st0"
         d="m 71.06,357.99 h 2.32 l -0.1,0.76 h -1.5 l -0.12,0.89 h 1.51 l -0.1,0.76 h -1.52 l -0.16,1.14 h 1.53 l -0.1,0.75 h -2.35 l 0.59,-4.31 z"
         id="path243" /><path
         class="st0"
         d="m 75.43,357.99 h 0.71 l 1.55,2.93 0.4,-2.93 h 0.79 l -0.59,4.31 H 77.6 l -1.57,-2.96 -0.4,2.96 h -0.78 z"
         id="path244" /><path
         class="st0"
         d="m 80.81,357.99 h 2.43 l -1.71,3.56 h 1.35 l -0.1,0.75 h -2.46 l 1.71,-3.55 H 80.7 Z"
         id="path245" /><path
         class="st0"
         d="m 85.22,357.99 h 2.32 l -0.1,0.76 h -1.5 l -0.12,0.89 h 1.51 l -0.1,0.76 h -1.52 l -0.16,1.14 h 1.53 l -0.1,0.75 h -2.35 l 0.59,-4.31 z"
         id="path246" /><path
         class="st0"
         d="m 89.54,357.99 h 2.32 l -0.1,0.76 h -1.5 l -0.12,0.89 h 1.51 l -0.1,0.76 h -1.52 l -0.16,1.14 h 1.53 l -0.1,0.75 h -2.35 l 0.59,-4.31 z"
         id="path247" /><path
         class="st0"
         d="m 93.86,357.99 h 2.1 l -0.1,0.76 h -1.29 l -0.13,0.89 h 1.3 l -0.1,0.76 h -1.3 l -0.26,1.9 h -0.81 z"
         id="path248" /><path
         class="st0"
         d="m 101.17,357.99 h 0.73 l 0.73,3 1.49,-3 h 0.7 l 0.06,4.31 h -0.76 l -0.04,-2.58 -1.28,2.58 h -0.62 l -0.66,-2.71 -0.69,2.71 h -0.77 l 1.1,-4.31 z"
         id="path249" /><path
         class="st0"
         d="m 110.98,358.53 c 0.33,0.38 0.5,0.84 0.5,1.36 0,0.45 -0.11,0.87 -0.34,1.27 -0.23,0.4 -0.53,0.7 -0.91,0.92 -0.38,0.21 -0.81,0.32 -1.3,0.32 -0.44,0 -0.81,-0.09 -1.12,-0.27 l -0.4,0.45 -0.35,-0.29 0.39,-0.44 c -0.36,-0.37 -0.54,-0.85 -0.54,-1.43 0,-0.47 0.11,-0.9 0.33,-1.29 0.22,-0.39 0.53,-0.7 0.91,-0.92 0.38,-0.22 0.8,-0.33 1.26,-0.33 0.46,0 0.88,0.11 1.21,0.34 l 0.38,-0.43 0.35,0.3 z m -2.98,2.7 2.1,-2.41 c -0.21,-0.12 -0.44,-0.18 -0.71,-0.18 -0.3,0 -0.58,0.08 -0.83,0.23 -0.25,0.15 -0.46,0.37 -0.62,0.65 -0.16,0.28 -0.23,0.57 -0.23,0.87 0,0.33 0.09,0.61 0.28,0.85 z m 2.44,-2.09 -2.08,2.37 c 0.18,0.09 0.39,0.13 0.62,0.13 0.47,0 0.86,-0.17 1.19,-0.5 0.33,-0.33 0.49,-0.74 0.49,-1.21 0,-0.31 -0.08,-0.57 -0.23,-0.8 z"
         id="path250" /><path
         class="st0"
         d="m 113.71,357.99 h 0.68 c 0.64,0 1.12,0.08 1.43,0.23 0.31,0.15 0.57,0.39 0.76,0.71 0.2,0.32 0.29,0.7 0.29,1.12 0,0.42 -0.1,0.84 -0.31,1.2 -0.21,0.36 -0.47,0.63 -0.79,0.8 -0.32,0.17 -0.76,0.25 -1.32,0.25 h -1.34 l 0.59,-4.31 z m 0.71,0.76 -0.38,2.8 h 0.27 c 0.41,0 0.71,-0.03 0.89,-0.1 0.26,-0.1 0.46,-0.26 0.62,-0.5 0.16,-0.24 0.23,-0.53 0.23,-0.88 0,-0.29 -0.05,-0.52 -0.16,-0.72 -0.11,-0.2 -0.26,-0.34 -0.46,-0.45 -0.2,-0.1 -0.47,-0.16 -0.8,-0.16 h -0.2 z"
         id="path251" /><path
         class="st0"
         d="m 119.08,357.99 h 0.81 l -0.36,2.66 c -0.03,0.23 -0.05,0.4 -0.05,0.49 0,0.16 0.05,0.29 0.15,0.38 0.1,0.09 0.25,0.14 0.44,0.14 0.15,0 0.29,-0.03 0.4,-0.1 0.09,-0.05 0.15,-0.14 0.21,-0.25 0.06,-0.11 0.1,-0.35 0.15,-0.7 l 0.36,-2.61 h 0.82 l -0.35,2.57 c -0.07,0.53 -0.17,0.91 -0.28,1.14 -0.11,0.23 -0.29,0.41 -0.51,0.53 -0.22,0.12 -0.49,0.18 -0.81,0.18 -0.43,0 -0.76,-0.11 -1,-0.34 -0.24,-0.23 -0.36,-0.54 -0.36,-0.94 0,-0.17 0.02,-0.43 0.07,-0.76 l 0.32,-2.38 z"
         id="path252" /><path
         class="st0"
         d="m 124.16,357.99 h 0.81 l -0.49,3.57 h 1.34 l -0.09,0.74 h -2.15 l 0.59,-4.31 z"
         id="path253" /><path
         class="st0"
         d="m 129.45,357.99 h 0.68 l 1.07,4.31 h -0.79 l -0.23,-0.92 h -1.71 l -0.49,0.92 h -0.87 l 2.33,-4.31 z m 0.55,2.63 -0.34,-1.42 -0.76,1.42 z"
         id="path254" /><path
         class="st0"
         d="m 133.67,357.99 h 0.75 c 0.46,0 0.79,0.04 0.98,0.12 0.23,0.1 0.41,0.24 0.53,0.41 0.12,0.18 0.18,0.39 0.18,0.63 0,0.3 -0.09,0.55 -0.27,0.77 -0.18,0.22 -0.45,0.36 -0.8,0.45 l 0.94,1.93 h -0.84 l -0.92,-1.88 h -0.07 l -0.26,1.88 h -0.81 z m 0.58,1.72 c 0.44,0 0.72,-0.05 0.85,-0.14 0.13,-0.09 0.2,-0.22 0.2,-0.4 0,-0.1 -0.03,-0.19 -0.08,-0.25 -0.05,-0.07 -0.13,-0.12 -0.23,-0.14 -0.1,-0.03 -0.3,-0.04 -0.61,-0.04 l -0.13,0.98 z"
         id="path255" /></g><polygon
       points="59.3,43.42 51.91,35.66 44.77,38.59 37.3,42.94 30.02,32.36 22.86,38.6 15.55,41.56 15.36,41.1 22.63,38.16 30.12,31.62 37.45,42.28 44.55,38.14 52.04,35.06 59.25,42.64 66.42,32.72 73.98,30.15 81.26,42.14 88.42,38.52 95.72,36.95 103.07,36.84 110.44,36.06 117.79,41.36 124.85,43.66 132.2,30.17 139.69,36.98 146.85,39.16 154.06,36.17 161.52,30.88 168.96,42.23 168.54,42.5 161.39,31.59 154.3,36.61 146.88,39.69 139.4,37.39 132.33,30.97 125.09,44.27 117.52,41.79 110.3,36.57 103.1,37.34 95.78,37.44 88.56,39.01 81.08,42.8 73.77,30.75 66.73,33.15 "
       id="polygon255" /><path
       id="path825"
       d="m 0,0 -2.079,-2.374 c 0.178,-0.089 0.386,-0.133 0.625,-0.133 0.467,0 0.865,0.166 1.193,0.5 0.328,0.333 0.492,0.735 0.492,1.206 C 0.231,-0.494 0.154,-0.227 0,0 m -2.438,-2.088 2.104,2.408 c -0.206,0.119 -0.441,0.179 -0.707,0.179 -0.3,0 -0.578,-0.076 -0.833,-0.226 -0.254,-0.15 -0.459,-0.366 -0.615,-0.646 -0.155,-0.28 -0.233,-0.569 -0.233,-0.866 0,-0.328 0.095,-0.611 0.284,-0.849 m 2.983,2.697 c 0.334,-0.381 0.501,-0.836 0.501,-1.363 0,-0.45 -0.113,-0.873 -0.34,-1.271 -0.227,-0.397 -0.53,-0.703 -0.909,-0.917 -0.38,-0.214 -0.812,-0.321 -1.299,-0.321 -0.44,0 -0.813,0.09 -1.12,0.269 l -0.395,-0.451 -0.352,0.29 0.387,0.443 c -0.362,0.371 -0.542,0.847 -0.542,1.429 0,0.467 0.111,0.897 0.334,1.289 0.222,0.393 0.525,0.701 0.908,0.923 0.382,0.223 0.802,0.334 1.259,0.334 0.477,0 0.881,-0.114 1.213,-0.342 l 0.375,0.43 0.353,-0.303 z"
       style="display:inline;fill:#ffffff;fill-opacity:1;fill-rule:nonzero;stroke:none"
       transform="matrix(1.0039613,0,0,-1.0049213,146.72308,314.75112)"
       clip-path="url(#clipPath826)" /><path
       id="path827"
       d="M 0,0 H 0.806 L 0.446,-2.66 C 0.415,-2.893 0.399,-3.057 0.399,-3.152 c 0,-0.162 0.05,-0.289 0.151,-0.38 0.1,-0.091 0.246,-0.136 0.438,-0.136 0.155,0 0.289,0.034 0.405,0.103 0.086,0.05 0.154,0.135 0.206,0.253 0.052,0.118 0.102,0.353 0.151,0.705 L 2.106,0 H 2.922 L 2.573,-2.572 C 2.501,-3.102 2.406,-3.481 2.289,-3.712 2.172,-3.942 2.002,-4.118 1.781,-4.238 1.559,-4.358 1.289,-4.418 0.97,-4.418 c -0.429,0 -0.764,0.114 -1.005,0.343 -0.24,0.228 -0.36,0.541 -0.36,0.937 0,0.172 0.023,0.426 0.07,0.762 z"
       style="display:inline;fill:#ffffff;fill-opacity:1;fill-rule:nonzero;stroke:none"
       transform="matrix(1.0039613,0,0,-1.0049213,149.97511,313.59063)"
       clip-path="url(#clipPath828)" /><path
       id="path829"
       d="M 0,0 H 2.631 L 2.537,-0.768 H 1.639 L 1.155,-4.31 H 0.352 l 0.483,3.542 H -0.1 Z"
       style="display:inline;fill:#ffffff;fill-opacity:1;fill-rule:nonzero;stroke:none"
       transform="matrix(1.0039613,0,0,-1.0049213,154.50037,313.59063)"
       clip-path="url(#clipPath830)" /></g><g
     inkscape:groupmode="layer"
     id="layer1"
     inkscape:label="components"
     style="display:none"><circle
       style="fill:#ff0000;fill-opacity:1;stroke-width:0.0906606"
       id="path1"
       cx="13.147129"
       cy="26.400934"
       r="1"
       inkscape:label="Tail 1 " /><circle
       style="fill:#ff0000;fill-opacity:1;stroke-width:0.0906606"
       id="path1-7"
       cx="30.9806"
       cy="46.557941"
       r="1"
       inkscape:label="Snarl" /><circle
       style="fill:#ff0000;fill-opacity:1;stroke-width:0.0906606"
       id="path1-5"
       cx="49.071484"
       cy="26.350389"
       r="1"
       inkscape:label="Hiss 1 " /><circle
       style="fill:#ff0000;fill-opacity:1;stroke-width:0.0906606"
       id="path1-4"
       cx="49.08802"
       cy="61.754948"
       r="1"
       inkscape:label="Hiss 2 " /><circle
       style="fill:#ff0000;fill-opacity:1;stroke-width:0.0906606"
       id="path1-8"
       cx="13.055079"
       cy="61.672268"
       r="1"
       inkscape:label="Tail 2" /><circle
       style="fill:#ff00ff;fill-opacity:1;stroke-width:0.0906606"
       id="path1-46"
       cx="30.732552"
       cy="22.497396"
       r="1"
       inkscape:label="LED" /><circle
       style="fill:#00ff00;fill-opacity:1;stroke-width:0.0906606"
       id="path1-6"
       cx="10.194271"
       cy="95.853119"
       r="1"
       inkscape:label="Bang 1" /><circle
       style="fill:#00ff00;fill-opacity:1;stroke-width:0.0906606"
       id="path1-6-3"
       cx="10.19427"
       cy="109.01614"
       r="1"
       inkscape:label="Bang 2 " /><circle
       style="fill:#00ff00;fill-opacity:1;stroke-width:0.0906606"
       id="path1-6-38"
       cx="25.077082"
       cy="109.06575"
       r="1"
       inkscape:label="Tail 2 CV" /><circle
       style="fill:#00ff00;fill-opacity:1;stroke-width:0.0906606"
       id="path1-6-5"
       cx="25.060547"
       cy="95.853127"
       r="1"
       inkscape:label="Tail 1 CV" /><circle
       style="fill:#00ff00;fill-opacity:1;stroke-width:0.0906606"
       id="path1-6-59"
       cx="39.761459"
       cy="95.869659"
       r="1"
       inkscape:label="Hiss 1 CV" /><circle
       style="fill:#00ff00;fill-opacity:1;stroke-width:0.0906606"
       id="path1-6-1"
       cx="39.695312"
       cy="108.96653"
       r="1"
       inkscape:label="Hiss 2 CV" /><circle
       style="fill:#0000ff;fill-opacity:1;stroke-width:0.0906606"
       id="path1-6-4"
       cx="51.915756"
       cy="103.01341"
       r="1"
       inkscape:label="Bobcat" /></g></svg>
