<?xml version="1.0" encoding="UTF-8" standalone="no"?>
<!-- Created with Inkscape (http://www.inkscape.org/) -->

<svg
   width="60.959999mm"
   height="128.5mm"
   viewBox="0 0 60.959999 128.5"
   version="1.1"
   id="svg1"
   inkscape:version="1.4 (e7c3feb1, 2024-10-09)"
   sodipodi:docname="Mongrel.svg"
   xml:space="preserve"
   xmlns:inkscape="http://www.inkscape.org/namespaces/inkscape"
   xmlns:sodipodi="http://sodipodi.sourceforge.net/DTD/sodipodi-0.dtd"
   xmlns="http://www.w3.org/2000/svg"
   xmlns:svg="http://www.w3.org/2000/svg"><sodipodi:namedview
     id="namedview1"
     pagecolor="#ffffff"
     bordercolor="#000000"
     borderopacity="0.25"
     inkscape:showpageshadow="2"
     inkscape:pageopacity="0.0"
     inkscape:pagecheckerboard="0"
     inkscape:deskcolor="#d1d1d1"
     inkscape:document-units="mm"
     inkscape:zoom="8.0000002"
     inkscape:cx="177.125"
     inkscape:cy="422.74999"
     inkscape:window-width="2144"
     inkscape:window-height="1387"
     inkscape:window-x="0"
     inkscape:window-y="25"
     inkscape:window-maximized="0"
     inkscape:current-layer="svg1" /><defs
     id="defs1"><style
       id="style1">
      .st0 {
        fill: #cfcfcf;
        opacity: .92;
      }

      .st1 {
        fill: #060606;
      }

      .st2 {
        fill: #fff;
      }

      .st3 {
        fill: #bcbcbc;
      }
    </style><clipPath
       clipPathUnits="userSpaceOnUse"
       id="clipPath826"><path
         d="M 0,432 H 432 V 0 H 0 Z"
         transform="translate(-149.3112,-68.861199)"
         id="path826" /></clipPath><clipPath
       clipPathUnits="userSpaceOnUse"
       id="clipPath828"><path
         d="M 0,432 H 432 V 0 H 0 Z"
         transform="translate(-152.5504,-70.016004)"
         id="path828" /></clipPath><clipPath
       clipPathUnits="userSpaceOnUse"
       id="clipPath830"><path
         d="M 0,432 H 432 V 0 H 0 Z"
         transform="translate(-157.0578,-70.016004)"
         id="path830" /></clipPath></defs><g
     id="PANEL"
     style="display:inline;fill:#d0d0cf;fill-opacity:1"
     transform="matrix(0.35197357,0,0,0.35024206,-0.44764812,-0.51773468)"><rect
       class="st0"
       x="-8.3143024"
       y="-3.8735802"
       width="188.50572"
       height="377.27652"
       id="rect1"
       style="opacity:1;fill:#d0d0cf;fill-opacity:1;stroke-width:1.06613" /></g><path
     id="rect13"
     d="m 138.72,276.31 h 20.01 c 3.50682,0 6.33,2.82318 6.33,6.33 v 34.16 c 0,3.50682 -2.82318,6.33 -6.33,6.33 h -20.01 c -3.50682,0 -6.33,-2.82318 -6.33,-6.33 v -34.16 c 0,-3.50682 2.82318,-6.33 6.33,-6.33 z"
     transform="matrix(0.35197357,0,0,0.35024206,-0.59482355,-0.66491011)"
     style="display:inline" /><g
     id="Drill_and_panel"
     transform="matrix(0.35197356,0,0,0.35024205,-0.44764812,-0.51773469)"
     inkscape:label="drill"
     style="display:none"><rect
       class="st3"
       x="78.769997"
       y="129.78"
       width="21.6"
       height="9"
       id="rect2" /><g
       id="DRILL"><circle
         class="st3"
         cx="30.83"
         cy="274.70001"
         r="8.5"
         id="circle2" /><circle
         class="st3"
         cx="30.83"
         cy="312.07999"
         r="8.5"
         id="circle3" /><circle
         class="st3"
         cx="72.730003"
         cy="274.70001"
         r="8.5"
         id="circle4" /><circle
         class="st3"
         cx="72.730003"
         cy="312.07999"
         r="8.5"
         id="circle5" /><circle
         class="st3"
         cx="114.45"
         cy="274.70001"
         r="8.5"
         id="circle6" /><circle
         class="st3"
         cx="114.45"
         cy="312.07999"
         r="8.5"
         id="circle7" /><circle
         class="st3"
         cx="148.73"
         cy="294.91"
         r="8.5"
         id="circle8" /><circle
         class="st3"
         cx="38.990002"
         cy="177.35001"
         r="12.76"
         id="circle9" /><circle
         class="st3"
         cx="140.48"
         cy="177.35001"
         r="12.76"
         id="circle10" /><circle
         class="st3"
         cx="38.990002"
         cy="76.629997"
         r="12.76"
         id="circle11" /><circle
         class="st3"
         cx="140.48"
         cy="76.629997"
         r="12.76"
         id="circle12" /><circle
         class="st3"
         cx="88.980003"
         cy="65.699997"
         r="4.96"
         id="circle13" /></g></g><path
     id="path825"
     d="m 0,0 -2.079,-2.374 c 0.178,-0.089 0.386,-0.133 0.625,-0.133 0.467,0 0.865,0.166 1.193,0.5 0.328,0.333 0.492,0.735 0.492,1.206 C 0.231,-0.494 0.154,-0.227 0,0 m -2.438,-2.088 2.104,2.408 c -0.206,0.119 -0.441,0.179 -0.707,0.179 -0.3,0 -0.578,-0.076 -0.833,-0.226 -0.254,-0.15 -0.459,-0.366 -0.615,-0.646 -0.155,-0.28 -0.233,-0.569 -0.233,-0.866 0,-0.328 0.095,-0.611 0.284,-0.849 m 2.983,2.697 c 0.334,-0.381 0.501,-0.836 0.501,-1.363 0,-0.45 -0.113,-0.873 -0.34,-1.271 -0.227,-0.397 -0.53,-0.703 -0.909,-0.917 -0.38,-0.214 -0.812,-0.321 -1.299,-0.321 -0.44,0 -0.813,0.09 -1.12,0.269 l -0.395,-0.451 -0.352,0.29 0.387,0.443 c -0.362,0.371 -0.542,0.847 -0.542,1.429 0,0.467 0.111,0.897 0.334,1.289 0.222,0.393 0.525,0.701 0.908,0.923 0.382,0.223 0.802,0.334 1.259,0.334 0.477,0 0.881,-0.114 1.213,-0.342 l 0.375,0.43 0.353,-0.303 z"
     style="display:inline;fill:#ffffff;fill-opacity:1;fill-rule:nonzero;stroke:none"
     transform="matrix(0.35508814,0,0,-0.35277777,50.364612,108.72426)"
     clip-path="url(#clipPath826)" /><path
     id="path827"
     d="M 0,0 H 0.806 L 0.446,-2.66 C 0.415,-2.893 0.399,-3.057 0.399,-3.152 c 0,-0.162 0.05,-0.289 0.151,-0.38 0.1,-0.091 0.246,-0.136 0.438,-0.136 0.155,0 0.289,0.034 0.405,0.103 0.086,0.05 0.154,0.135 0.206,0.253 0.052,0.118 0.102,0.353 0.151,0.705 L 2.106,0 H 2.922 L 2.573,-2.572 C 2.501,-3.102 2.406,-3.481 2.289,-3.712 2.172,-3.942 2.002,-4.118 1.781,-4.238 1.559,-4.358 1.289,-4.418 0.97,-4.418 c -0.429,0 -0.764,0.114 -1.005,0.343 -0.24,0.228 -0.36,0.541 -0.36,0.937 0,0.172 0.023,0.426 0.07,0.762 z"
     style="display:inline;fill:#ffffff;fill-opacity:1;fill-rule:nonzero;stroke:none"
     transform="matrix(0.35508814,0,0,-0.35277777,51.514814,108.31687)"
     clip-path="url(#clipPath828)" /><path
     id="path829"
     d="M 0,0 H 2.631 L 2.537,-0.768 H 1.639 L 1.155,-4.31 H 0.352 l 0.483,3.542 H -0.1 Z"
     style="display:inline;fill:#ffffff;fill-opacity:1;fill-rule:nonzero;stroke:none"
     transform="matrix(0.35508814,0,0,-0.35277777,53.11534,108.31687)"
     clip-path="url(#clipPath830)" /><g
     id="SILK"
     transform="matrix(0.35197356,0,0,0.35024205,-0.59482354,-0.66491011)"><polygon
       points="40.2,279.89 30.83,296.12 21.45,279.89 12.08,263.66 30.83,263.66 49.57,263.66 "
       id="polygon13" /><polygon
       points="40.2,317.33 30.83,333.56 21.45,317.33 12.08,301.1 30.83,301.1 49.57,301.1 "
       id="polygon14" /><rect
       x="13.63"
       y="248.13"
       width="152.98"
       height="0.5"
       id="rect14" /><g
       id="g57"><circle
         cx="151.5"
         cy="199.36"
         r="0.83999997"
         id="circle14" /><circle
         cx="154.08"
         cy="197.91"
         r="0.83999997"
         id="circle15" /><circle
         cx="156.45"
         cy="196.14999"
         r="0.83999997"
         id="circle16" /><circle
         cx="158.60001"
         cy="194.11"
         r="0.83999997"
         id="circle17" /><circle
         cx="162.06"
         cy="189.34"
         r="0.83999997"
         id="circle18" /><circle
         cx="163.34"
         cy="186.67"
         r="0.83999997"
         id="circle19" /><circle
         cx="164.27"
         cy="183.87"
         r="0.83999997"
         id="circle20" /><circle
         cx="164.86"
         cy="180.97"
         r="0.83999997"
         id="circle21" /><circle
         cx="164.96001"
         cy="175.07001"
         r="0.83999997"
         id="circle22" /><circle
         cx="164.47"
         cy="172.14999"
         r="0.83999997"
         id="circle23" /><circle
         cx="163.63"
         cy="169.32001"
         r="0.83999997"
         id="circle24" /><circle
         cx="162.45"
         cy="166.61"
         r="0.83999997"
         id="circle25" /><circle
         cx="160.95"
         cy="164.06"
         r="0.83999997"
         id="circle26" /><circle
         cx="159.14999"
         cy="161.72"
         r="0.83999997"
         id="circle27" /><circle
         cx="154.77"
         cy="157.77"
         r="0.83999997"
         id="circle28" /><circle
         cx="152.25"
         cy="156.23"
         r="0.83999997"
         id="circle29" /><circle
         cx="149.56"
         cy="155"
         r="0.83999997"
         id="circle30" /><circle
         cx="146.74001"
         cy="154.11"
         r="0.83999997"
         id="circle31" /><circle
         cx="143.83"
         cy="153.58"
         r="0.83999997"
         id="circle32" /><circle
         cx="137.92999"
         cy="153.58"
         r="0.83999997"
         id="circle33" /><circle
         cx="135.02"
         cy="154.12"
         r="0.83999997"
         id="circle34" /><circle
         cx="132.2"
         cy="155.00999"
         r="0.83999997"
         id="circle35" /><circle
         cx="129.50999"
         cy="156.23"
         r="0.83999997"
         id="circle36" /><circle
         cx="126.99"
         cy="157.78"
         r="0.83999997"
         id="circle37" /><circle
         cx="122.61"
         cy="161.73"
         r="0.83999997"
         id="circle38" /><circle
         cx="120.81"
         cy="164.07001"
         r="0.83999997"
         id="circle39" /><circle
         cx="119.31"
         cy="166.62"
         r="0.83999997"
         id="circle40" /><circle
         cx="118.13"
         cy="169.33"
         r="0.83999997"
         id="circle41" /><circle
         cx="117.29"
         cy="172.17"
         r="0.83999997"
         id="circle42" /><circle
         cx="116.81"
         cy="175.08"
         r="0.83999997"
         id="circle43" /><circle
         cx="116.91"
         cy="180.98"
         r="0.83999997"
         id="circle44" /><circle
         cx="117.5"
         cy="183.88"
         r="0.83999997"
         id="circle45" /><circle
         cx="118.44"
         cy="186.67999"
         r="0.83999997"
         id="circle46" /><circle
         cx="119.71"
         cy="189.35001"
         r="0.83999997"
         id="circle47" /><circle
         cx="123.18"
         cy="194.12"
         r="0.83999997"
         id="circle48" /><circle
         cx="125.33"
         cy="196.16"
         r="0.83999997"
         id="circle49" /><circle
         cx="127.7"
         cy="197.91"
         r="0.83999997"
         id="circle50" /><circle
         cx="130.28"
         cy="199.37"
         r="0.83999997"
         id="circle51" /><rect
         x="139.37"
         y="150.45"
         width="3.0899999"
         height="1.67"
         rx="0.82999998"
         ry="0.82999998"
         transform="rotate(90,140.92,151.28)"
         id="rect51" /><rect
         x="156.95"
         y="157.14"
         width="3.0899999"
         height="1.67"
         rx="0.82999998"
         ry="0.82999998"
         transform="rotate(131.67,158.50241,157.96668)"
         id="rect52" /><rect
         x="121.79"
         y="157.13"
         width="3.0899999"
         height="1.67"
         rx="0.82999998"
         ry="0.82999998"
         transform="rotate(48.35,123.34564,157.96883)"
         id="rect53" /><rect
         x="117.88"
         y="192.31"
         width="3.0899999"
         height="1.67"
         rx="0.82999998"
         ry="0.82999998"
         transform="rotate(-35.66,119.41493,193.13277)"
         id="rect54" /><rect
         x="160.87"
         y="192.3"
         width="3.0899999"
         height="1.67"
         rx="0.82999998"
         ry="0.82999998"
         transform="rotate(-144.37,162.41281,193.13628)"
         id="rect55" /><rect
         x="165.81"
         y="177.39999"
         width="3.0899999"
         height="1.67"
         rx="0.82999998"
         ry="0.82999998"
         transform="rotate(-178.91,167.35541,178.23433)"
         id="rect56" /><rect
         x="112.92"
         y="177.14999"
         width="3.0899999"
         height="1.67"
         rx="0.82999998"
         ry="0.82999998"
         transform="rotate(-0.55,114.77741,178.69142)"
         id="rect57" /></g><g
       id="g100"><circle
         cx="151.5"
         cy="98.370003"
         r="0.83999997"
         id="circle57" /><circle
         cx="154.08"
         cy="96.910004"
         r="0.83999997"
         id="circle58" /><circle
         cx="156.45"
         cy="95.150002"
         r="0.83999997"
         id="circle59" /><circle
         cx="158.60001"
         cy="93.120003"
         r="0.83999997"
         id="circle60" /><circle
         cx="162.06"
         cy="88.339996"
         r="0.83999997"
         id="circle61" /><circle
         cx="163.34"
         cy="85.669998"
         r="0.83999997"
         id="circle62" /><circle
         cx="164.27"
         cy="82.870003"
         r="0.83999997"
         id="circle63" /><circle
         cx="164.86"
         cy="79.970001"
         r="0.83999997"
         id="circle64" /><circle
         cx="164.96001"
         cy="74.07"
         r="0.83999997"
         id="circle65" /><circle
         cx="164.47"
         cy="71.160004"
         r="0.83999997"
         id="circle66" /><circle
         cx="163.63"
         cy="68.32"
         r="0.83999997"
         id="circle67" /><circle
         cx="162.45"
         cy="65.610001"
         r="0.83999997"
         id="circle68" /><circle
         cx="160.95"
         cy="63.07"
         r="0.83999997"
         id="circle69" /><circle
         cx="159.14999"
         cy="60.720001"
         r="0.83999997"
         id="circle70" /><circle
         cx="154.77"
         cy="56.77"
         r="0.83999997"
         id="circle71" /><circle
         cx="152.25"
         cy="55.23"
         r="0.83999997"
         id="circle72" /><circle
         cx="149.56"
         cy="54.009998"
         r="0.83999997"
         id="circle73" /><circle
         cx="146.74001"
         cy="53.119999"
         r="0.83999997"
         id="circle74" /><circle
         cx="143.83"
         cy="52.580002"
         r="0.83999997"
         id="circle75" /><circle
         cx="137.92999"
         cy="52.580002"
         r="0.83999997"
         id="circle76" /><circle
         cx="135.02"
         cy="53.119999"
         r="0.83999997"
         id="circle77" /><circle
         cx="132.2"
         cy="54.009998"
         r="0.83999997"
         id="circle78" /><circle
         cx="129.50999"
         cy="55.240002"
         r="0.83999997"
         id="circle79" /><circle
         cx="126.99"
         cy="56.779999"
         r="0.83999997"
         id="circle80" /><circle
         cx="122.61"
         cy="60.73"
         r="0.83999997"
         id="circle81" /><circle
         cx="120.81"
         cy="63.080002"
         r="0.83999997"
         id="circle82" /><circle
         cx="119.31"
         cy="65.620003"
         r="0.83999997"
         id="circle83" /><circle
         cx="118.13"
         cy="68.339996"
         r="0.83999997"
         id="circle84" /><circle
         cx="117.29"
         cy="71.169998"
         r="0.83999997"
         id="circle85" /><circle
         cx="116.81"
         cy="74.089996"
         r="0.83999997"
         id="circle86" /><circle
         cx="116.91"
         cy="79.989998"
         r="0.83999997"
         id="circle87" /><circle
         cx="117.5"
         cy="82.879997"
         r="0.83999997"
         id="circle88" /><circle
         cx="118.44"
         cy="85.690002"
         r="0.83999997"
         id="circle89" /><circle
         cx="119.71"
         cy="88.349998"
         r="0.83999997"
         id="circle90" /><circle
         cx="123.18"
         cy="93.129997"
         r="0.83999997"
         id="circle91" /><circle
         cx="125.33"
         cy="95.160004"
         r="0.83999997"
         id="circle92" /><circle
         cx="127.7"
         cy="96.919998"
         r="0.83999997"
         id="circle93" /><circle
         cx="130.28"
         cy="98.370003"
         r="0.83999997"
         id="circle94" /><rect
         x="139.37"
         y="49.450001"
         width="3.0899999"
         height="1.67"
         rx="0.82999998"
         ry="0.82999998"
         transform="rotate(90,140.915,50.285)"
         id="rect94" /><rect
         x="156.95"
         y="56.139999"
         width="3.0899999"
         height="1.67"
         rx="0.82999998"
         ry="0.82999998"
         transform="rotate(131.67,158.49825,56.970085)"
         id="rect95" /><rect
         x="121.79"
         y="56.139999"
         width="3.0899999"
         height="1.67"
         rx="0.82999998"
         ry="0.82999998"
         transform="rotate(48.35,123.33675,56.971572)"
         id="rect96" /><rect
         x="117.88"
         y="91.32"
         width="3.0899999"
         height="1.67"
         rx="0.82999998"
         ry="0.82999998"
         transform="rotate(-35.66,119.42285,92.153134)"
         id="rect97" /><rect
         x="160.87"
         y="91.300003"
         width="3.0899999"
         height="1.67"
         rx="0.82999998"
         ry="0.82999998"
         transform="rotate(-144.37,162.41449,92.13705)"
         id="rect98" /><rect
         x="165.81"
         y="76.400002"
         width="3.0899999"
         height="1.67"
         rx="0.82999998"
         ry="0.82999998"
         transform="rotate(-178.91,167.35481,77.240198)"
         id="rect99" /><rect
         x="112.92"
         y="76.150002"
         width="3.0899999"
         height="1.67"
         rx="0.82999998"
         ry="0.82999998"
         transform="rotate(-0.55,115.26241,77.643275)"
         id="rect100" /></g><g
       id="g143"><circle
         cx="49.68"
         cy="199.36"
         r="0.83999997"
         id="circle100" /><circle
         cx="52.25"
         cy="197.91"
         r="0.83999997"
         id="circle101" /><circle
         cx="54.630001"
         cy="196.14999"
         r="0.83999997"
         id="circle102" /><circle
         cx="56.77"
         cy="194.11"
         r="0.83999997"
         id="circle103" /><circle
         cx="60.240002"
         cy="189.34"
         r="0.83999997"
         id="circle104" /><circle
         cx="61.509998"
         cy="186.67"
         r="0.83999997"
         id="circle105" /><circle
         cx="62.450001"
         cy="183.87"
         r="0.83999997"
         id="circle106" /><circle
         cx="63.040001"
         cy="180.97"
         r="0.83999997"
         id="circle107" /><circle
         cx="63.139999"
         cy="175.07001"
         r="0.83999997"
         id="circle108" /><circle
         cx="62.650002"
         cy="172.14999"
         r="0.83999997"
         id="circle109" /><circle
         cx="61.810001"
         cy="169.32001"
         r="0.83999997"
         id="circle110" /><circle
         cx="60.630001"
         cy="166.61"
         r="0.83999997"
         id="circle111" /><circle
         cx="59.130001"
         cy="164.06"
         r="0.83999997"
         id="circle112" /><circle
         cx="57.330002"
         cy="161.72"
         r="0.83999997"
         id="circle113" /><circle
         cx="52.950001"
         cy="157.77"
         r="0.83999997"
         id="circle114" /><circle
         cx="50.419998"
         cy="156.23"
         r="0.83999997"
         id="circle115" /><circle
         cx="47.73"
         cy="155"
         r="0.83999997"
         id="circle116" /><circle
         cx="44.91"
         cy="154.11"
         r="0.83999997"
         id="circle117" /><circle
         cx="42.009998"
         cy="153.58"
         r="0.83999997"
         id="circle118" /><circle
         cx="36.110001"
         cy="153.58"
         r="0.83999997"
         id="circle119" /><circle
         cx="33.200001"
         cy="154.12"
         r="0.83999997"
         id="circle120" /><circle
         cx="30.379999"
         cy="155.00999"
         r="0.83999997"
         id="circle121" /><circle
         cx="27.690001"
         cy="156.23"
         r="0.83999997"
         id="circle122" /><circle
         cx="25.17"
         cy="157.78"
         r="0.83999997"
         id="circle123" /><circle
         cx="20.790001"
         cy="161.73"
         r="0.83999997"
         id="circle124" /><circle
         cx="18.99"
         cy="164.07001"
         r="0.83999997"
         id="circle125" /><circle
         cx="17.49"
         cy="166.62"
         r="0.83999997"
         id="circle126" /><circle
         cx="16.309999"
         cy="169.33"
         r="0.83999997"
         id="circle127" /><circle
         cx="15.47"
         cy="172.17"
         r="0.83999997"
         id="circle128" /><circle
         cx="14.98"
         cy="175.08"
         r="0.83999997"
         id="circle129" /><circle
         cx="15.09"
         cy="180.98"
         r="0.83999997"
         id="circle130" /><circle
         cx="15.68"
         cy="183.88"
         r="0.83999997"
         id="circle131" /><circle
         cx="16.620001"
         cy="186.67999"
         r="0.83999997"
         id="circle132" /><circle
         cx="17.889999"
         cy="189.35001"
         r="0.83999997"
         id="circle133" /><circle
         cx="21.360001"
         cy="194.12"
         r="0.83999997"
         id="circle134" /><circle
         cx="23.51"
         cy="196.16"
         r="0.83999997"
         id="circle135" /><circle
         cx="25.879999"
         cy="197.91"
         r="0.83999997"
         id="circle136" /><circle
         cx="28.459999"
         cy="199.37"
         r="0.83999997"
         id="circle137" /><rect
         x="37.549999"
         y="150.45"
         width="3.0899999"
         height="1.67"
         rx="0.82999998"
         ry="0.82999998"
         transform="rotate(90,39.09,151.28)"
         id="rect137" /><rect
         x="55.130001"
         y="157.14"
         width="3.0899999"
         height="1.67"
         rx="0.82999998"
         ry="0.82999998"
         transform="rotate(131.67,56.676719,157.97124)"
         id="rect138" /><rect
         x="19.969999"
         y="157.13"
         width="3.0899999"
         height="1.67"
         rx="0.82999998"
         ry="0.82999998"
         transform="rotate(48.35,21.512795,157.96472)"
         id="rect139" /><rect
         x="16.059999"
         y="192.31"
         width="3.0899999"
         height="1.67"
         rx="0.82999998"
         ry="0.82999998"
         transform="rotate(-35.66,17.593578,193.12857)"
         id="rect140" /><rect
         x="59.049999"
         y="192.3"
         width="3.0899999"
         height="1.67"
         rx="0.82999998"
         ry="0.82999998"
         transform="rotate(-144.37,60.591462,193.13401)"
         id="rect141" /><rect
         x="63.990002"
         y="177.39999"
         width="3.0899999"
         height="1.67"
         rx="0.82999998"
         ry="0.82999998"
         transform="rotate(-178.91,65.531185,178.23283)"
         id="rect142" /><rect
         x="11.1"
         y="177.14999"
         width="3.0899999"
         height="1.67"
         rx="0.82999998"
         ry="0.82999998"
         transform="rotate(-0.55,12.687535,178.20142)"
         id="rect143" /></g><g
       id="g186"><circle
         cx="49.68"
         cy="98.370003"
         r="0.83999997"
         id="circle143" /><circle
         cx="52.25"
         cy="96.910004"
         r="0.83999997"
         id="circle144" /><circle
         cx="54.630001"
         cy="95.150002"
         r="0.83999997"
         id="circle145" /><circle
         cx="56.77"
         cy="93.120003"
         r="0.83999997"
         id="circle146" /><circle
         cx="60.240002"
         cy="88.339996"
         r="0.83999997"
         id="circle147" /><circle
         cx="61.509998"
         cy="85.669998"
         r="0.83999997"
         id="circle148" /><circle
         cx="62.450001"
         cy="82.870003"
         r="0.83999997"
         id="circle149" /><circle
         cx="63.040001"
         cy="79.970001"
         r="0.83999997"
         id="circle150" /><circle
         cx="63.139999"
         cy="74.07"
         r="0.83999997"
         id="circle151" /><circle
         cx="62.650002"
         cy="71.160004"
         r="0.83999997"
         id="circle152" /><circle
         cx="61.810001"
         cy="68.32"
         r="0.83999997"
         id="circle153" /><circle
         cx="60.630001"
         cy="65.610001"
         r="0.83999997"
         id="circle154" /><circle
         cx="59.130001"
         cy="63.07"
         r="0.83999997"
         id="circle155" /><circle
         cx="57.330002"
         cy="60.720001"
         r="0.83999997"
         id="circle156" /><circle
         cx="52.950001"
         cy="56.77"
         r="0.83999997"
         id="circle157" /><circle
         cx="50.419998"
         cy="55.23"
         r="0.83999997"
         id="circle158" /><circle
         cx="47.73"
         cy="54.009998"
         r="0.83999997"
         id="circle159" /><circle
         cx="44.91"
         cy="53.119999"
         r="0.83999997"
         id="circle160" /><circle
         cx="42.009998"
         cy="52.580002"
         r="0.83999997"
         id="circle161" /><circle
         cx="36.110001"
         cy="52.580002"
         r="0.83999997"
         id="circle162" /><circle
         cx="33.200001"
         cy="53.119999"
         r="0.83999997"
         id="circle163" /><circle
         cx="30.379999"
         cy="54.009998"
         r="0.83999997"
         id="circle164" /><circle
         cx="27.690001"
         cy="55.240002"
         r="0.83999997"
         id="circle165" /><circle
         cx="25.17"
         cy="56.779999"
         r="0.83999997"
         id="circle166" /><circle
         cx="20.790001"
         cy="60.73"
         r="0.83999997"
         id="circle167" /><circle
         cx="18.99"
         cy="63.080002"
         r="0.83999997"
         id="circle168" /><circle
         cx="17.49"
         cy="65.620003"
         r="0.83999997"
         id="circle169" /><circle
         cx="16.309999"
         cy="68.339996"
         r="0.83999997"
         id="circle170" /><circle
         cx="15.47"
         cy="71.169998"
         r="0.83999997"
         id="circle171" /><circle
         cx="14.98"
         cy="74.089996"
         r="0.83999997"
         id="circle172" /><circle
         cx="15.09"
         cy="79.989998"
         r="0.83999997"
         id="circle173" /><circle
         cx="15.68"
         cy="82.879997"
         r="0.83999997"
         id="circle174" /><circle
         cx="16.620001"
         cy="85.690002"
         r="0.83999997"
         id="circle175" /><circle
         cx="17.889999"
         cy="88.349998"
         r="0.83999997"
         id="circle176" /><circle
         cx="21.360001"
         cy="93.129997"
         r="0.83999997"
         id="circle177" /><circle
         cx="23.51"
         cy="95.160004"
         r="0.83999997"
         id="circle178" /><circle
         cx="25.879999"
         cy="96.919998"
         r="0.83999997"
         id="circle179" /><circle
         cx="28.459999"
         cy="98.370003"
         r="0.83999997"
         id="circle180" /><rect
         x="37.549999"
         y="49.450001"
         width="3.0899999"
         height="1.67"
         rx="0.82999998"
         ry="0.82999998"
         transform="rotate(90,39.095,50.285)"
         id="rect180" /><rect
         x="55.130001"
         y="56.139999"
         width="3.0899999"
         height="1.67"
         rx="0.82999998"
         ry="0.82999998"
         transform="rotate(131.67,56.677564,56.976891)"
         id="rect181" /><rect
         x="19.969999"
         y="56.139999"
         width="3.0899999"
         height="1.67"
         rx="0.82999998"
         ry="0.82999998"
         transform="rotate(48.35,21.520034,56.973594)"
         id="rect182" /><rect
         x="16.059999"
         y="91.32"
         width="3.0899999"
         height="1.67"
         rx="0.82999998"
         ry="0.82999998"
         transform="rotate(-35.66,17.601501,92.148935)"
         id="rect183" /><rect
         x="59.049999"
         y="91.300003"
         width="3.0899999"
         height="1.67"
         rx="0.82999998"
         ry="0.82999998"
         transform="rotate(-144.37,60.588139,92.136388)"
         id="rect184" /><rect
         x="63.990002"
         y="76.400002"
         width="3.0899999"
         height="1.67"
         rx="0.82999998"
         ry="0.82999998"
         transform="rotate(-178.91,65.535583,77.238648)"
         id="rect185" /><rect
         x="11.1"
         y="76.150002"
         width="3.0899999"
         height="1.67"
         rx="0.82999998"
         ry="0.82999998"
         transform="rotate(-0.55,13.172535,77.153275)"
         id="rect186" /></g><g
       id="g189"><path
         d="m 32.54,104.02 h 2.63 l -0.09,0.77 h -0.9 l -0.48,3.54 h -0.8 l 0.48,-3.54 h -0.94 z"
         id="path186" /><path
         d="m 38.28,104.02 h 0.68 l 1.07,4.31 h -0.79 l -0.23,-0.92 H 37.3 l -0.49,0.92 h -0.87 l 2.33,-4.31 z m 0.54,2.63 -0.34,-1.42 -0.76,1.42 z"
         id="path187" /><path
         d="m 42.42,104.02 h 0.79 l -0.6,4.31 h -0.78 z"
         id="path188" /><path
         d="m 45.34,104.02 h 0.81 l -0.49,3.57 H 47 l -0.09,0.74 h -2.15 l 0.59,-4.31 z"
         id="path189" /></g><g
       id="g194"><path
         d="m 81.36,144.65 -0.59,0.52 c -0.24,-0.31 -0.47,-0.47 -0.68,-0.47 -0.1,0 -0.19,0.03 -0.26,0.09 -0.07,0.06 -0.1,0.14 -0.1,0.22 0,0.08 0.03,0.17 0.09,0.27 0.06,0.1 0.25,0.31 0.57,0.65 0.17,0.18 0.28,0.3 0.33,0.38 0.13,0.17 0.22,0.33 0.27,0.48 0.05,0.15 0.08,0.3 0.08,0.46 0,0.35 -0.12,0.64 -0.37,0.87 -0.25,0.23 -0.56,0.35 -0.95,0.35 -0.59,0 -1.06,-0.28 -1.43,-0.83 l 0.62,-0.5 c 0.25,0.38 0.52,0.57 0.81,0.57 0.14,0 0.26,-0.04 0.35,-0.13 0.09,-0.09 0.14,-0.2 0.14,-0.33 0,-0.1 -0.03,-0.2 -0.09,-0.3 -0.06,-0.1 -0.22,-0.3 -0.49,-0.59 -0.29,-0.3 -0.48,-0.53 -0.57,-0.69 -0.12,-0.21 -0.18,-0.41 -0.18,-0.62 0,-0.27 0.09,-0.5 0.26,-0.71 0.22,-0.26 0.51,-0.4 0.88,-0.4 0.51,0 0.94,0.24 1.28,0.71 z"
         id="path190" /><path
         d="m 83.5,144.05 h 0.71 l 1.55,2.93 0.4,-2.93 h 0.79 l -0.59,4.31 h -0.69 l -1.57,-2.96 -0.4,2.96 h -0.78 z"
         id="path191" /><path
         d="m 90.6,144.05 h 0.68 l 1.07,4.31 h -0.79 l -0.23,-0.92 h -1.71 l -0.49,0.92 h -0.87 l 2.33,-4.31 z m 0.54,2.63 -0.34,-1.42 -0.76,1.42 z"
         id="path192" /><path
         d="m 94.82,144.05 h 0.75 c 0.46,0 0.79,0.04 0.98,0.12 0.23,0.1 0.41,0.24 0.53,0.41 0.12,0.18 0.18,0.39 0.18,0.63 0,0.3 -0.09,0.55 -0.27,0.77 -0.18,0.22 -0.45,0.36 -0.8,0.45 l 0.94,1.93 h -0.84 l -0.92,-1.88 H 95.3 l -0.26,1.88 h -0.81 z m 0.58,1.72 c 0.44,0 0.72,-0.05 0.85,-0.14 0.13,-0.09 0.2,-0.22 0.2,-0.4 0,-0.1 -0.03,-0.19 -0.08,-0.25 -0.05,-0.07 -0.13,-0.12 -0.23,-0.14 -0.1,-0.03 -0.3,-0.04 -0.61,-0.04 l -0.13,0.98 z"
         id="path193" /><path
         d="m 99.46,144.05 h 0.81 l -0.49,3.57 h 1.34 l -0.09,0.74 h -2.15 l 0.59,-4.31 z"
         id="path194" /></g><g
       id="g197"><path
         d="m 135.31,104.02 h 0.82 l 0.67,1.73 1.22,-1.73 h 0.93 l -1.84,2.59 -0.23,1.72 h -0.81 l 0.24,-1.72 z"
         id="path195" /><path
         d="m 140.8,104.02 h 0.79 l -0.6,4.31 h -0.78 z"
         id="path196" /><path
         d="m 143.71,104.02 h 0.76 c 0.46,0 0.78,0.04 0.97,0.12 0.23,0.1 0.41,0.24 0.53,0.42 0.12,0.18 0.18,0.39 0.18,0.62 0,0.26 -0.07,0.5 -0.21,0.71 -0.14,0.21 -0.33,0.37 -0.57,0.46 -0.24,0.09 -0.63,0.15 -1.19,0.16 l -0.25,1.82 h -0.81 z m 0.57,1.73 c 0.44,0 0.73,-0.05 0.86,-0.14 0.13,-0.09 0.2,-0.22 0.2,-0.4 0,-0.1 -0.03,-0.18 -0.08,-0.25 -0.05,-0.07 -0.13,-0.12 -0.23,-0.14 -0.1,-0.02 -0.31,-0.04 -0.61,-0.04 l -0.14,0.98 z"
         id="path197" /></g><g
       id="g202"><path
         d="m 31.13,205.49 -0.67,0.44 c -0.2,-0.22 -0.38,-0.38 -0.57,-0.46 -0.19,-0.08 -0.39,-0.13 -0.62,-0.13 -0.5,0 -0.9,0.2 -1.22,0.6 -0.25,0.32 -0.37,0.67 -0.37,1.06 0,0.39 0.13,0.7 0.38,0.96 0.25,0.26 0.57,0.39 0.94,0.39 0.28,0 0.53,-0.07 0.76,-0.2 0.23,-0.13 0.41,-0.34 0.56,-0.6 h -1.34 l 0.1,-0.76 h 2.18 c -0.03,0.71 -0.25,1.28 -0.67,1.7 -0.42,0.42 -0.94,0.63 -1.59,0.63 -0.7,0 -1.25,-0.24 -1.65,-0.73 -0.32,-0.39 -0.48,-0.85 -0.48,-1.39 0,-0.65 0.24,-1.22 0.71,-1.7 0.47,-0.48 1.03,-0.71 1.69,-0.71 0.24,0 0.48,0.04 0.71,0.11 0.23,0.07 0.44,0.17 0.62,0.3 0.19,0.13 0.36,0.3 0.53,0.51 z"
         id="path198" /><path
         d="m 33.69,204.69 h 0.75 c 0.46,0 0.79,0.04 0.98,0.12 0.23,0.1 0.41,0.24 0.53,0.41 0.12,0.18 0.18,0.39 0.18,0.63 0,0.3 -0.09,0.55 -0.27,0.77 -0.18,0.22 -0.45,0.36 -0.8,0.45 L 36,209 h -0.84 l -0.92,-1.88 H 34.17 L 33.91,209 H 33.1 Z m 0.58,1.72 c 0.44,0 0.72,-0.05 0.85,-0.14 0.13,-0.09 0.2,-0.22 0.2,-0.4 0,-0.1 -0.03,-0.19 -0.08,-0.25 -0.05,-0.07 -0.13,-0.12 -0.23,-0.14 -0.1,-0.03 -0.3,-0.04 -0.61,-0.04 l -0.13,0.98 z"
         id="path199" /><path
         d="m 41.84,205.23 c 0.33,0.38 0.5,0.84 0.5,1.36 0,0.45 -0.11,0.87 -0.34,1.27 -0.23,0.4 -0.53,0.7 -0.91,0.92 -0.38,0.21 -0.81,0.32 -1.3,0.32 -0.44,0 -0.81,-0.09 -1.12,-0.27 l -0.4,0.45 -0.35,-0.29 0.39,-0.44 c -0.36,-0.37 -0.54,-0.85 -0.54,-1.43 0,-0.47 0.11,-0.9 0.33,-1.29 0.22,-0.39 0.53,-0.7 0.91,-0.92 0.38,-0.22 0.8,-0.33 1.26,-0.33 0.46,0 0.88,0.11 1.21,0.34 l 0.38,-0.43 0.35,0.3 z m -2.98,2.7 2.1,-2.41 c -0.21,-0.12 -0.44,-0.18 -0.71,-0.18 -0.3,0 -0.58,0.08 -0.83,0.23 -0.25,0.15 -0.46,0.37 -0.62,0.65 -0.16,0.28 -0.23,0.57 -0.23,0.87 0,0.33 0.09,0.61 0.28,0.85 z m 2.44,-2.09 -2.08,2.37 c 0.18,0.09 0.39,0.13 0.62,0.13 0.47,0 0.86,-0.17 1.19,-0.5 0.33,-0.33 0.49,-0.74 0.49,-1.21 0,-0.31 -0.08,-0.57 -0.23,-0.8 z"
         id="path200" /><path
         d="m 44.16,204.69 h 0.74 l 0.25,2.79 1.32,-2.79 h 0.61 l 0.51,2.72 0.96,-2.72 h 0.78 L 47.8,209 H 47.14 L 46.6,206.15 45.25,209 h -0.71 l -0.39,-4.31 z"
         id="path201" /><path
         d="m 51.17,204.69 h 0.81 l -0.49,3.57 h 1.34 L 52.74,209 h -2.15 l 0.59,-4.31 z"
         id="path202" /></g><g
       id="g205"><path
         d="m 133.93,204.69 h 0.82 l 0.67,1.73 1.22,-1.73 h 0.93 l -1.84,2.59 -0.23,1.72 h -0.81 l 0.24,-1.72 z"
         id="path203" /><path
         d="m 140.91,204.69 h 0.68 l 1.07,4.31 h -0.79 l -0.23,-0.92 h -1.71 l -0.49,0.92 h -0.87 l 2.33,-4.31 z m 0.55,2.63 -0.34,-1.42 -0.76,1.42 z"
         id="path204" /><path
         d="m 145.09,204.69 h 0.76 c 0.46,0 0.78,0.04 0.97,0.12 0.23,0.1 0.41,0.24 0.53,0.42 0.12,0.18 0.18,0.39 0.18,0.62 0,0.26 -0.07,0.5 -0.21,0.71 -0.14,0.21 -0.33,0.37 -0.57,0.46 -0.24,0.09 -0.63,0.15 -1.19,0.16 l -0.25,1.82 h -0.81 z m 0.57,1.73 c 0.44,0 0.73,-0.05 0.86,-0.14 0.13,-0.09 0.2,-0.22 0.2,-0.4 0,-0.1 -0.03,-0.18 -0.08,-0.25 -0.05,-0.07 -0.13,-0.12 -0.23,-0.14 -0.1,-0.02 -0.31,-0.04 -0.61,-0.04 l -0.14,0.98 z"
         id="path205" /></g><g
       id="g209"><path
         d="m 65.04,291.63 h 2.63 l -0.09,0.77 h -0.9 l -0.48,3.54 h -0.8 l 0.48,-3.54 h -0.94 z"
         id="path206" /><path
         d="m 70.79,291.63 h 0.68 l 1.07,4.31 h -0.79 l -0.23,-0.92 h -1.71 l -0.49,0.92 h -0.87 l 2.33,-4.31 z m 0.54,2.63 -0.34,-1.42 -0.76,1.42 z"
         id="path207" /><path
         d="m 74.93,291.63 h 0.79 l -0.6,4.31 h -0.78 z"
         id="path208" /><path
         d="m 77.85,291.63 h 0.81 l -0.49,3.57 h 1.34 l -0.09,0.74 h -2.15 l 0.59,-4.31 z"
         id="path209" /></g><g
       id="g216"><path
         d="m 56.45,16.07 1.13,-7.9 h 0.13 l 3.21,6.48 3.18,-6.48 h 0.13 l 1.14,7.9 H 64.6 l -0.78,-5.65 -2.79,5.65 h -0.2 L 58,10.38 57.22,16.07 h -0.76 z"
         id="path210" /><path
         d="m 75.96,9.26 c 0.36,0.37 0.64,0.79 0.83,1.28 0.19,0.49 0.29,1.02 0.29,1.58 0,1.16 -0.4,2.14 -1.21,2.94 -0.8,0.81 -1.78,1.21 -2.94,1.21 -0.88,0 -1.66,-0.23 -2.35,-0.69 L 69.69,16.62 69.11,16.15 70,15.11 c -0.83,-0.81 -1.25,-1.79 -1.25,-2.95 0,-0.76 0.18,-1.46 0.55,-2.11 0.37,-0.65 0.87,-1.16 1.51,-1.52 0.64,-0.36 1.34,-0.55 2.1,-0.55 0.92,0 1.76,0.26 2.51,0.79 l 0.77,-0.93 0.57,0.47 -0.81,0.95 z m -5.43,5.25 4.36,-5.13 c -0.6,-0.42 -1.26,-0.64 -1.98,-0.64 -0.58,0 -1.14,0.15 -1.66,0.46 -0.52,0.31 -0.93,0.72 -1.23,1.23 -0.3,0.51 -0.44,1.09 -0.44,1.73 0,0.91 0.32,1.7 0.95,2.35 z m 4.91,-4.64 -4.33,5.1 c 0.55,0.35 1.15,0.53 1.8,0.53 0.61,0 1.18,-0.15 1.7,-0.45 0.52,-0.3 0.93,-0.7 1.22,-1.22 0.29,-0.52 0.44,-1.09 0.44,-1.72 0,-0.87 -0.28,-1.62 -0.83,-2.24 z"
         id="path211" /><path
         d="m 80.87,16.07 v -7.9 h 0.17 l 5.26,6.06 V 8.17 h 0.78 v 7.9 H 86.9 l -5.22,-5.98 v 5.98 h -0.82 z"
         id="path212" /><path
         d="m 98.82,9.5 -0.61,0.58 C 97.77,9.65 97.29,9.32 96.76,9.09 96.24,8.87 95.72,8.75 95.23,8.75 c -0.62,0 -1.21,0.15 -1.77,0.46 -0.56,0.3 -0.99,0.72 -1.3,1.24 -0.31,0.52 -0.46,1.07 -0.46,1.65 0,0.58 0.16,1.16 0.48,1.69 0.32,0.54 0.76,0.96 1.32,1.26 0.56,0.31 1.18,0.46 1.85,0.46 0.81,0 1.5,-0.23 2.06,-0.69 0.56,-0.46 0.9,-1.05 1,-1.78 h -2.52 v -0.76 h 3.41 c 0,1.22 -0.37,2.19 -1.09,2.91 -0.72,0.72 -1.68,1.08 -2.88,1.08 -1.46,0 -2.62,-0.5 -3.47,-1.49 -0.66,-0.77 -0.98,-1.65 -0.98,-2.66 0,-0.75 0.19,-1.44 0.56,-2.09 0.37,-0.65 0.89,-1.15 1.55,-1.51 0.66,-0.36 1.4,-0.54 2.22,-0.54 0.67,0 1.3,0.12 1.89,0.36 0.59,0.24 1.17,0.63 1.73,1.16 z"
         id="path213" /><path
         d="m 103.04,8.17 h 1.57 c 0.88,0 1.47,0.04 1.78,0.11 0.47,0.11 0.85,0.34 1.14,0.69 0.29,0.35 0.44,0.79 0.44,1.3 0,0.43 -0.1,0.81 -0.3,1.13 -0.2,0.33 -0.49,0.57 -0.87,0.74 -0.38,0.17 -0.9,0.25 -1.56,0.26 l 2.84,3.67 h -0.98 l -2.84,-3.67 h -0.45 v 3.67 h -0.79 v -7.9 z m 0.79,0.78 v 2.69 h 1.36 c 0.53,0.01 0.92,-0.04 1.17,-0.14 0.25,-0.1 0.45,-0.26 0.59,-0.48 0.14,-0.22 0.21,-0.47 0.21,-0.74 0,-0.27 -0.07,-0.51 -0.22,-0.72 -0.14,-0.22 -0.33,-0.37 -0.56,-0.46 -0.23,-0.09 -0.62,-0.14 -1.16,-0.14 h -1.39 z"
         id="path214" /><path
         d="m 111.88,8.17 h 4.53 v 0.77 h -3.74 v 2.48 h 3.71 v 0.77 h -3.71 v 3.1 h 3.71 v 0.77 h -4.5 v -7.9 z"
         id="path215" /><path
         d="m 119.97,8.17 h 0.79 v 7.14 h 3.04 v 0.76 h -3.83 z"
         id="path216" /></g><g
       id="g219"><path
         d="m 109.22,290.63 h 0.82 l 0.67,1.73 1.22,-1.73 h 0.93 l -1.84,2.59 -0.23,1.72 h -0.81 l 0.24,-1.72 z"
         id="path217" /><path
         d="m 114.7,290.63 h 0.79 l -0.6,4.31 h -0.78 z"
         id="path218" /><path
         d="m 117.62,290.63 h 0.76 c 0.46,0 0.78,0.04 0.97,0.12 0.23,0.1 0.41,0.24 0.53,0.42 0.12,0.18 0.18,0.39 0.18,0.62 0,0.26 -0.07,0.5 -0.21,0.71 -0.14,0.21 -0.33,0.37 -0.57,0.46 -0.24,0.09 -0.63,0.15 -1.19,0.16 l -0.25,1.82 h -0.81 z m 0.57,1.73 c 0.44,0 0.73,-0.05 0.86,-0.14 0.13,-0.09 0.2,-0.22 0.2,-0.4 0,-0.1 -0.03,-0.18 -0.08,-0.25 -0.05,-0.07 -0.13,-0.12 -0.23,-0.14 -0.1,-0.02 -0.31,-0.04 -0.61,-0.04 l -0.14,0.98 z"
         id="path219" /></g><g
       id="g224"><path
         d="m 63.64,330.1 -0.67,0.44 c -0.2,-0.22 -0.38,-0.38 -0.57,-0.46 -0.19,-0.08 -0.39,-0.13 -0.62,-0.13 -0.5,0 -0.9,0.2 -1.22,0.6 -0.25,0.32 -0.37,0.67 -0.37,1.06 0,0.39 0.13,0.7 0.38,0.96 0.25,0.26 0.57,0.39 0.94,0.39 0.28,0 0.53,-0.07 0.76,-0.2 0.23,-0.13 0.41,-0.34 0.56,-0.6 h -1.34 l 0.1,-0.76 h 2.18 c -0.03,0.71 -0.25,1.28 -0.67,1.7 -0.42,0.42 -0.94,0.63 -1.59,0.63 -0.7,0 -1.25,-0.24 -1.65,-0.73 -0.32,-0.39 -0.48,-0.85 -0.48,-1.39 0,-0.65 0.24,-1.22 0.71,-1.7 0.47,-0.48 1.03,-0.71 1.69,-0.71 0.24,0 0.48,0.04 0.71,0.11 0.23,0.07 0.44,0.17 0.62,0.3 0.19,0.13 0.36,0.3 0.53,0.51 z"
         id="path220" /><path
         d="m 66.2,329.29 h 0.75 c 0.46,0 0.79,0.04 0.98,0.12 0.23,0.1 0.41,0.24 0.53,0.41 0.12,0.18 0.18,0.39 0.18,0.63 0,0.3 -0.09,0.55 -0.27,0.77 -0.18,0.22 -0.45,0.36 -0.8,0.45 l 0.94,1.93 h -0.84 l -0.92,-1.88 h -0.07 l -0.26,1.88 h -0.81 z m 0.58,1.73 c 0.44,0 0.72,-0.05 0.85,-0.14 0.13,-0.09 0.2,-0.22 0.2,-0.4 0,-0.1 -0.03,-0.19 -0.08,-0.25 -0.05,-0.07 -0.13,-0.12 -0.23,-0.14 -0.1,-0.03 -0.3,-0.04 -0.61,-0.04 l -0.13,0.98 z"
         id="path221" /><path
         d="m 74.35,329.84 c 0.33,0.38 0.5,0.84 0.5,1.36 0,0.45 -0.11,0.87 -0.34,1.27 -0.23,0.4 -0.53,0.7 -0.91,0.92 -0.38,0.21 -0.81,0.32 -1.3,0.32 -0.44,0 -0.81,-0.09 -1.12,-0.27 l -0.4,0.45 -0.35,-0.29 0.39,-0.44 c -0.36,-0.37 -0.54,-0.85 -0.54,-1.43 0,-0.47 0.11,-0.9 0.33,-1.29 0.22,-0.39 0.53,-0.7 0.91,-0.92 0.38,-0.22 0.8,-0.33 1.26,-0.33 0.46,0 0.88,0.11 1.21,0.34 l 0.38,-0.43 0.35,0.3 z m -2.98,2.7 2.1,-2.41 c -0.21,-0.12 -0.44,-0.18 -0.71,-0.18 -0.3,0 -0.58,0.08 -0.83,0.23 -0.25,0.15 -0.46,0.37 -0.62,0.65 -0.16,0.28 -0.23,0.57 -0.23,0.87 0,0.33 0.09,0.61 0.28,0.85 z m 2.44,-2.09 -2.08,2.37 c 0.18,0.09 0.39,0.13 0.62,0.13 0.47,0 0.86,-0.17 1.19,-0.5 0.33,-0.33 0.49,-0.74 0.49,-1.21 0,-0.31 -0.08,-0.57 -0.23,-0.8 z"
         id="path222" /><path
         d="m 76.67,329.29 h 0.74 l 0.25,2.79 1.32,-2.79 h 0.61 l 0.51,2.72 0.96,-2.72 h 0.78 l -1.53,4.31 h -0.66 l -0.54,-2.85 -1.35,2.85 h -0.71 l -0.39,-4.31 z"
         id="path223" /><path
         d="m 83.68,329.29 h 0.81 L 84,332.86 h 1.34 l -0.09,0.74 H 83.1 l 0.59,-4.31 z"
         id="path224" /></g><g
       id="g229"><path
         d="m 15.13,312.24 -0.75,-0.25 c 0.15,-0.37 0.17,-0.64 0.06,-0.82 -0.05,-0.09 -0.12,-0.15 -0.21,-0.18 -0.09,-0.03 -0.17,-0.02 -0.24,0.02 -0.07,0.04 -0.13,0.11 -0.18,0.22 -0.05,0.1 -0.14,0.38 -0.27,0.82 -0.07,0.23 -0.12,0.39 -0.16,0.48 -0.08,0.2 -0.18,0.36 -0.28,0.48 -0.1,0.12 -0.22,0.22 -0.35,0.3 -0.3,0.17 -0.61,0.21 -0.94,0.12 -0.33,-0.09 -0.59,-0.31 -0.78,-0.64 -0.3,-0.51 -0.3,-1.06 0,-1.66 l 0.75,0.28 c -0.2,0.41 -0.23,0.74 -0.08,0.99 0.07,0.12 0.17,0.2 0.29,0.23 0.13,0.04 0.24,0.02 0.35,-0.04 0.09,-0.05 0.16,-0.13 0.22,-0.23 0.06,-0.1 0.15,-0.34 0.26,-0.72 0.12,-0.4 0.22,-0.68 0.31,-0.83 0.12,-0.21 0.27,-0.37 0.44,-0.47 0.23,-0.13 0.48,-0.18 0.75,-0.14 0.34,0.06 0.6,0.25 0.79,0.57 0.26,0.44 0.27,0.93 0.03,1.46 z"
         id="path225" /><path
         d="m 16.72,313.78 0.36,0.61 -1.75,2.82 2.73,-1.13 0.4,0.68 -4.02,1.67 -0.35,-0.6 1.76,-2.85 -2.76,1.14 -0.39,-0.67 z"
         id="path226" /><path
         d="m 20.3,319.92 0.34,0.59 -3.18,3.1 -0.4,-0.68 0.68,-0.66 -0.86,-1.48 -1.04,0.04 -0.44,-0.75 z m -2,1.79 1.05,-1.01 -1.61,0.06 z"
         id="path227" /><path
         d="m 22.43,323.56 0.38,0.65 c 0.23,0.4 0.36,0.7 0.39,0.9 0.03,0.25 0,0.48 -0.09,0.67 -0.09,0.19 -0.24,0.35 -0.45,0.47 -0.26,0.15 -0.52,0.2 -0.8,0.16 -0.27,-0.04 -0.54,-0.2 -0.79,-0.47 l -1.19,1.79 -0.42,-0.72 1.16,-1.74 -0.03,-0.06 -1.75,0.73 -0.41,-0.7 4.02,-1.66 z m -1.2,1.37 c 0.22,0.38 0.41,0.6 0.55,0.67 0.14,0.07 0.29,0.06 0.45,-0.03 0.09,-0.05 0.15,-0.12 0.18,-0.2 0.03,-0.08 0.04,-0.17 0,-0.27 -0.03,-0.1 -0.12,-0.28 -0.27,-0.55 z"
         id="path228" /><path
         d="m 24.77,327.57 0.41,0.7 -3.33,1.37 0.67,1.16 -0.69,0.29 -1.09,-1.86 4.02,-1.67 z"
         id="path229" /></g><g
       id="g234"><path
         d="m 12.54,268.72 0.34,0.58 c 0.21,0.35 0.32,0.64 0.34,0.85 0.02,0.21 -0.01,0.42 -0.11,0.62 -0.1,0.2 -0.24,0.35 -0.43,0.46 -0.16,0.09 -0.32,0.14 -0.5,0.15 -0.18,0 -0.36,-0.03 -0.53,-0.12 -0.04,0.47 -0.25,0.81 -0.63,1.04 -0.2,0.12 -0.41,0.17 -0.64,0.16 -0.23,0 -0.43,-0.07 -0.59,-0.18 -0.16,-0.11 -0.34,-0.31 -0.51,-0.6 l -0.75,-1.29 4.02,-1.67 z m -2.89,2.07 0.23,0.43 c 0.12,0.21 0.25,0.34 0.39,0.39 0.14,0.05 0.28,0.03 0.42,-0.05 0.1,-0.06 0.18,-0.14 0.23,-0.25 0.05,-0.11 0.06,-0.22 0.04,-0.34 -0.02,-0.12 -0.12,-0.32 -0.28,-0.6 l -1.03,0.43 z m 1.71,-0.71 0.07,0.12 c 0.11,0.19 0.2,0.31 0.26,0.36 0.07,0.05 0.15,0.08 0.26,0.08 0.1,0 0.2,-0.02 0.29,-0.08 0.09,-0.05 0.15,-0.11 0.19,-0.19 0.04,-0.08 0.05,-0.16 0.03,-0.24 -0.02,-0.08 -0.09,-0.22 -0.21,-0.43 l -0.9,0.37 z"
         id="path230" /><path
         d="m 15.64,274.03 0.34,0.59 -3.18,3.1 -0.4,-0.68 0.68,-0.66 -0.86,-1.48 -1.04,0.04 -0.44,-0.75 z m -2,1.79 1.05,-1.01 -1.61,0.06 z"
         id="path231" /><path
         d="m 17.74,277.63 0.36,0.61 -1.75,2.82 2.73,-1.13 0.4,0.68 -4.02,1.67 -0.35,-0.6 1.76,-2.85 -2.76,1.14 -0.39,-0.67 z"
         id="path232" /><path
         d="m 21.77,286.12 -0.72,-0.36 c 0.09,-0.28 0.13,-0.52 0.12,-0.72 -0.02,-0.2 -0.08,-0.4 -0.2,-0.6 -0.25,-0.43 -0.63,-0.68 -1.13,-0.75 -0.4,-0.05 -0.77,0.02 -1.1,0.21 -0.33,0.19 -0.54,0.46 -0.64,0.82 -0.1,0.35 -0.05,0.69 0.14,1.01 0.14,0.24 0.32,0.42 0.56,0.55 0.23,0.13 0.5,0.19 0.8,0.18 l -0.68,-1.16 0.71,-0.3 1.1,1.88 c -0.63,0.33 -1.23,0.42 -1.8,0.28 -0.57,-0.15 -1.02,-0.5 -1.34,-1.05 -0.35,-0.6 -0.42,-1.2 -0.2,-1.79 0.17,-0.47 0.49,-0.85 0.96,-1.12 0.56,-0.33 1.17,-0.41 1.82,-0.24 0.65,0.17 1.14,0.53 1.47,1.1 0.12,0.21 0.21,0.43 0.27,0.67 0.06,0.24 0.08,0.46 0.06,0.69 -0.02,0.23 -0.07,0.46 -0.17,0.72 z"
         id="path233" /><path
         d="m 20.844501,289.40042 c 0.07,0.12 0.08,0.24 0.05,0.37 -0.03,0.13 -0.11,0.23 -0.23,0.3 -0.12,0.07 -0.24,0.08 -0.37,0.05 -0.13,-0.03 -0.23,-0.11 -0.3,-0.23 -0.07,-0.12 -0.09,-0.24 -0.05,-0.37 0.04,-0.13 0.11,-0.23 0.23,-0.3 0.12,-0.07 0.24,-0.09 0.37,-0.05 0.13,0.03 0.23,0.11 0.3,0.23 z m 3.1,-1.66 0.41,0.7 -2.94,1.21 -0.41,-0.7 z"
         id="path234" /></g><g
       id="g237"><path
         d="m 107.78,329.29 h 0.82 l 0.67,1.73 1.22,-1.73 h 0.93 l -1.84,2.59 -0.23,1.72 h -0.81 l 0.24,-1.72 z"
         id="path235" /><path
         d="m 114.76,329.29 h 0.68 l 1.07,4.31 h -0.79 l -0.23,-0.92 h -1.71 l -0.49,0.92 h -0.87 l 2.33,-4.31 z m 0.55,2.64 -0.34,-1.42 -0.76,1.42 z"
         id="path236" /><path
         d="m 118.94,329.29 h 0.76 c 0.46,0 0.78,0.04 0.97,0.12 0.23,0.1 0.41,0.24 0.53,0.42 0.12,0.18 0.18,0.39 0.18,0.62 0,0.26 -0.07,0.5 -0.21,0.71 -0.14,0.21 -0.33,0.37 -0.57,0.46 -0.24,0.09 -0.63,0.15 -1.19,0.16 l -0.25,1.82 h -0.81 z m 0.57,1.73 c 0.44,0 0.73,-0.05 0.86,-0.14 0.13,-0.09 0.2,-0.22 0.2,-0.4 0,-0.1 -0.03,-0.18 -0.08,-0.25 -0.05,-0.07 -0.13,-0.12 -0.23,-0.14 -0.1,-0.02 -0.31,-0.04 -0.61,-0.04 l -0.14,0.98 z"
         id="path237" /></g><polygon
       points="57.69,27.87 50.34,32.3 43,22.56 35.95,23.96 28.66,33.26 21.22,35.69 13.84,33.4 13.99,32.92 21.21,35.17 28.36,32.83 35.67,23.5 43.21,22.01 50.47,31.63 57.71,27.28 65.08,32.19 72.3,32.26 79.62,32.79 86.92,33.49 94.18,33.04 101.41,32.17 108.81,27.36 116.07,32.82 123.3,25.34 130.83,26.02 138.08,35.67 145.25,32.61 152.47,32.73 159.9,21.05 167.42,31.47 167.01,31.76 159.92,21.94 152.74,33.24 145.35,33.11 137.91,36.28 130.56,26.5 123.49,25.86 116.12,33.49 108.79,27.97 101.53,32.66 94.23,33.54 86.91,33.99 79.58,33.29 72.28,32.76 64.92,32.69 "
       id="polygon240" /><polygon
       points="99.81,25.02 95,28.69 90.09,26.7 85.4,24.5 80.7,26.28 75.78,28.62 70.93,25.16 66.29,24.33 61.47,26.83 56.68,25.35 51.87,27.6 47.11,25.9 42.34,29.32 37.37,29.01 32.68,24.86 27.88,27.78 23.12,24.02 18.29,27.68 13.36,23.33 13.69,22.95 18.31,27.04 23.12,23.39 27.91,27.18 32.73,24.24 37.57,28.52 42.19,28.81 47.04,25.34 51.85,27.06 56.64,24.82 61.42,26.29 66.21,23.81 71.17,24.72 75.83,28.05 80.5,25.82 85.42,23.96 90.29,26.24 94.93,28.12 99.74,24.45 104.53,26.38 109.39,23.43 114.18,27.56 118.93,25.65 123.81,27.77 128.53,28.56 133.22,28.28 138.04,26.1 142.84,26.5 147.72,24.87 152.43,29.25 157.15,24.9 162.13,25.14 166.9,27.28 166.7,27.74 161.97,25.62 157.33,25.41 152.43,29.93 147.6,25.44 142.9,27.01 138.13,26.61 133.29,28.77 128.51,29.06 123.67,28.25 118.92,26.19 114.08,28.14 109.34,24.05 104.58,26.93 "
       id="polygon241" /><g
       id="g257"
       style="display:inline"><path
         class="st1"
         d="m 47.17,356.7 h 0.73 l 0.73,3 1.49,-3 h 0.7 l 0.06,4.31 h -0.76 l -0.04,-2.58 -1.28,2.58 h -0.62 l -0.66,-2.71 -0.69,2.71 h -0.77 l 1.1,-4.31 z"
         id="path241" /><path
         class="st1"
         d="m 56.98,357.25 c 0.33,0.38 0.5,0.84 0.5,1.36 0,0.45 -0.11,0.87 -0.34,1.27 -0.23,0.4 -0.53,0.7 -0.91,0.92 -0.38,0.21 -0.81,0.32 -1.3,0.32 -0.44,0 -0.81,-0.09 -1.12,-0.27 l -0.4,0.45 -0.35,-0.29 0.39,-0.44 c -0.36,-0.37 -0.54,-0.85 -0.54,-1.43 0,-0.47 0.11,-0.9 0.33,-1.29 0.22,-0.39 0.53,-0.7 0.91,-0.92 0.38,-0.22 0.8,-0.33 1.26,-0.33 0.46,0 0.88,0.11 1.21,0.34 l 0.38,-0.43 0.35,0.3 z m -2.98,2.7 2.1,-2.41 c -0.21,-0.12 -0.44,-0.18 -0.71,-0.18 -0.3,0 -0.58,0.08 -0.83,0.23 -0.25,0.15 -0.46,0.37 -0.62,0.65 -0.16,0.28 -0.23,0.57 -0.23,0.87 0,0.33 0.09,0.61 0.28,0.85 z m 2.43,-2.09 -2.08,2.37 c 0.18,0.09 0.39,0.13 0.62,0.13 0.47,0 0.86,-0.17 1.19,-0.5 0.33,-0.33 0.49,-0.74 0.49,-1.21 0,-0.31 -0.08,-0.57 -0.23,-0.8 z"
         id="path242" /><path
         class="st1"
         d="m 59.65,356.7 h 2.1 l -0.1,0.76 h -1.29 l -0.13,0.89 h 1.3 l -0.1,0.76 h -1.3 l -0.26,1.9 h -0.81 z"
         id="path243" /><path
         class="st1"
         d="m 63.73,356.7 h 2.1 l -0.1,0.76 h -1.29 l -0.13,0.89 h 1.3 l -0.1,0.76 h -1.3 l -0.26,1.9 h -0.81 z"
         id="path244" /><path
         class="st1"
         d="m 67.81,356.7 h 2.32 l -0.1,0.76 h -1.5 l -0.12,0.89 h 1.51 l -0.1,0.76 H 68.3 l -0.16,1.14 h 1.53 l -0.1,0.75 h -2.35 l 0.59,-4.31 z"
         id="path245" /><path
         class="st1"
         d="m 72.18,356.7 h 0.71 l 1.55,2.93 0.4,-2.93 h 0.79 l -0.59,4.31 h -0.69 l -1.57,-2.96 -0.4,2.96 H 71.6 Z"
         id="path246" /><path
         class="st1"
         d="m 77.56,356.7 h 2.43 l -1.71,3.56 h 1.35 l -0.1,0.75 h -2.46 l 1.71,-3.55 h -1.33 z"
         id="path247" /><path
         class="st1"
         d="m 81.97,356.7 h 2.32 l -0.1,0.76 h -1.5 l -0.12,0.89 h 1.51 l -0.1,0.76 h -1.52 l -0.16,1.14 h 1.53 l -0.1,0.75 h -2.35 l 0.59,-4.31 z"
         id="path248" /><path
         class="st1"
         d="m 86.29,356.7 h 2.32 l -0.1,0.76 h -1.5 l -0.12,0.89 h 1.51 l -0.1,0.76 h -1.52 l -0.16,1.14 h 1.53 L 88.05,361 H 85.7 l 0.59,-4.31 z"
         id="path249" /><path
         class="st1"
         d="m 90.61,356.7 h 2.1 l -0.1,0.76 h -1.29 l -0.13,0.89 h 1.3 l -0.1,0.76 h -1.3 l -0.26,1.9 h -0.81 z"
         id="path250" /><path
         class="st1"
         d="m 97.92,356.7 h 0.73 l 0.73,3 1.49,-3 h 0.7 l 0.06,4.31 h -0.76 l -0.04,-2.58 -1.28,2.58 h -0.62 l -0.66,-2.71 -0.69,2.71 h -0.77 l 1.1,-4.31 z"
         id="path251" /><path
         class="st1"
         d="m 107.73,357.25 c 0.33,0.38 0.5,0.84 0.5,1.36 0,0.45 -0.11,0.87 -0.34,1.27 -0.23,0.4 -0.53,0.7 -0.91,0.92 -0.38,0.21 -0.81,0.32 -1.3,0.32 -0.44,0 -0.81,-0.09 -1.12,-0.27 l -0.4,0.45 -0.35,-0.29 0.39,-0.44 c -0.36,-0.37 -0.54,-0.85 -0.54,-1.43 0,-0.47 0.11,-0.9 0.33,-1.29 0.22,-0.39 0.53,-0.7 0.91,-0.92 0.38,-0.22 0.8,-0.33 1.26,-0.33 0.46,0 0.88,0.11 1.21,0.34 l 0.38,-0.43 0.35,0.3 z m -2.98,2.7 2.1,-2.41 c -0.21,-0.12 -0.44,-0.18 -0.71,-0.18 -0.3,0 -0.58,0.08 -0.83,0.23 -0.25,0.15 -0.46,0.37 -0.62,0.65 -0.16,0.28 -0.23,0.57 -0.23,0.87 0,0.33 0.09,0.61 0.28,0.85 z m 2.44,-2.09 -2.08,2.37 c 0.18,0.09 0.39,0.13 0.62,0.13 0.47,0 0.86,-0.17 1.19,-0.5 0.33,-0.33 0.49,-0.74 0.49,-1.21 0,-0.31 -0.08,-0.57 -0.23,-0.8 z"
         id="path252" /><path
         class="st1"
         d="m 110.46,356.7 h 0.68 c 0.64,0 1.12,0.08 1.43,0.23 0.31,0.15 0.57,0.39 0.76,0.71 0.2,0.32 0.29,0.7 0.29,1.12 0,0.42 -0.1,0.84 -0.31,1.2 -0.21,0.36 -0.47,0.63 -0.79,0.8 -0.32,0.17 -0.76,0.25 -1.32,0.25 h -1.34 l 0.59,-4.31 z m 0.71,0.76 -0.38,2.8 h 0.27 c 0.41,0 0.71,-0.03 0.89,-0.1 0.26,-0.1 0.46,-0.26 0.62,-0.5 0.16,-0.24 0.23,-0.53 0.23,-0.88 0,-0.29 -0.05,-0.52 -0.16,-0.72 -0.11,-0.2 -0.26,-0.34 -0.46,-0.45 -0.2,-0.1 -0.47,-0.16 -0.8,-0.16 h -0.2 z"
         id="path253" /><path
         class="st1"
         d="m 115.83,356.7 h 0.81 l -0.36,2.66 c -0.03,0.23 -0.05,0.4 -0.05,0.49 0,0.16 0.05,0.29 0.15,0.38 0.1,0.09 0.25,0.14 0.44,0.14 0.15,0 0.29,-0.03 0.4,-0.1 0.09,-0.05 0.15,-0.14 0.21,-0.25 0.06,-0.11 0.1,-0.35 0.15,-0.7 l 0.36,-2.61 h 0.82 l -0.35,2.57 c -0.07,0.53 -0.17,0.91 -0.28,1.14 -0.11,0.23 -0.29,0.41 -0.51,0.53 -0.22,0.12 -0.49,0.18 -0.81,0.18 -0.43,0 -0.76,-0.11 -1,-0.34 -0.24,-0.23 -0.36,-0.54 -0.36,-0.94 0,-0.17 0.02,-0.43 0.07,-0.76 l 0.32,-2.38 z"
         id="path254" /><path
         class="st1"
         d="m 120.91,356.7 h 0.81 l -0.49,3.57 h 1.34 l -0.09,0.74 h -2.15 l 0.59,-4.31 z"
         id="path255" /><path
         class="st1"
         d="m 126.2,356.7 h 0.68 l 1.07,4.31 h -0.79 l -0.23,-0.92 h -1.71 l -0.49,0.92 h -0.87 l 2.33,-4.31 z m 0.55,2.64 -0.34,-1.42 -0.76,1.42 z"
         id="path256" /><path
         class="st1"
         d="m 130.42,356.7 h 0.75 c 0.46,0 0.79,0.04 0.98,0.12 0.23,0.1 0.41,0.24 0.53,0.41 0.12,0.18 0.18,0.39 0.18,0.63 0,0.3 -0.09,0.55 -0.27,0.77 -0.18,0.22 -0.45,0.36 -0.8,0.45 l 0.94,1.93 h -0.84 l -0.92,-1.88 h -0.07 l -0.26,1.88 h -0.81 z m 0.58,1.73 c 0.44,0 0.72,-0.05 0.85,-0.14 0.13,-0.09 0.2,-0.22 0.2,-0.4 0,-0.1 -0.03,-0.19 -0.08,-0.25 -0.05,-0.07 -0.13,-0.12 -0.23,-0.14 -0.1,-0.03 -0.3,-0.04 -0.61,-0.04 l -0.13,0.98 z"
         id="path257" /></g><g
       id="g240"
       style="display:none;fill:#ffffff"><path
         class="st2"
         d="m 145.28,311.84 c 0.33,0.38 0.5,0.84 0.5,1.36 0,0.45 -0.11,0.87 -0.34,1.27 -0.23,0.4 -0.53,0.7 -0.91,0.92 -0.38,0.21 -0.81,0.32 -1.3,0.32 -0.44,0 -0.81,-0.09 -1.12,-0.27 l -0.4,0.45 -0.35,-0.29 0.39,-0.44 c -0.36,-0.37 -0.54,-0.85 -0.54,-1.43 0,-0.47 0.11,-0.9 0.33,-1.29 0.22,-0.39 0.53,-0.7 0.91,-0.92 0.38,-0.22 0.8,-0.33 1.26,-0.33 0.46,0 0.88,0.11 1.21,0.34 l 0.38,-0.43 0.35,0.3 z m -2.98,2.7 2.1,-2.41 c -0.21,-0.12 -0.44,-0.18 -0.71,-0.18 -0.3,0 -0.58,0.08 -0.83,0.23 -0.25,0.15 -0.46,0.37 -0.62,0.65 -0.16,0.28 -0.23,0.57 -0.23,0.87 0,0.33 0.09,0.61 0.28,0.85 z m 2.44,-2.09 -2.08,2.37 c 0.18,0.09 0.39,0.13 0.62,0.13 0.47,0 0.86,-0.17 1.19,-0.5 0.33,-0.33 0.49,-0.74 0.49,-1.21 0,-0.31 -0.08,-0.57 -0.23,-0.8 z"
         id="path238"
         style="fill:#ffffff" /><path
         class="st2"
         d="m 147.98,311.29 h 0.81 l -0.36,2.66 c -0.03,0.23 -0.05,0.4 -0.05,0.49 0,0.16 0.05,0.29 0.15,0.38 0.1,0.09 0.25,0.14 0.44,0.14 0.15,0 0.29,-0.03 0.4,-0.1 0.09,-0.05 0.15,-0.14 0.21,-0.25 0.06,-0.11 0.1,-0.35 0.15,-0.7 l 0.36,-2.61 h 0.82 l -0.35,2.57 c -0.07,0.53 -0.17,0.91 -0.28,1.14 -0.11,0.23 -0.29,0.41 -0.51,0.53 -0.22,0.12 -0.49,0.18 -0.81,0.18 -0.43,0 -0.76,-0.11 -1,-0.34 -0.24,-0.23 -0.36,-0.54 -0.36,-0.94 0,-0.17 0.02,-0.43 0.07,-0.76 l 0.32,-2.38 z"
         id="path239"
         style="fill:#ffffff" /><path
         class="st2"
         d="m 152.48,311.29 h 2.63 l -0.09,0.77 h -0.9 l -0.48,3.54 h -0.8 l 0.48,-3.54 h -0.94 z"
         id="path240"
         style="fill:#ffffff" /></g></g><g
     inkscape:groupmode="layer"
     id="layer1"
     inkscape:label="components"
     style="display:none"><circle
       style="display:inline;fill:#ff0000;fill-opacity:1;stroke-width:0.157672"
       id="path1"
       cx="13.299436"
       cy="26.367804"
       r="1"
       inkscape:label="Tail" /><circle
       style="display:inline;fill:#ff0000;fill-opacity:1;stroke-width:0.157672"
       id="path1-9"
       cx="49.138119"
       cy="26.313791"
       r="1"
       inkscape:label="Yip" /><circle
       style="display:inline;fill:#ff0000;fill-opacity:1;stroke-width:0.157672"
       id="path1-5"
       cx="49.116108"
       cy="61.737236"
       r="1"
       inkscape:label="Yap" /><circle
       style="display:inline;fill:#ff0000;fill-opacity:1;stroke-width:0.157672"
       id="path1-8"
       cx="13.303813"
       cy="61.674412"
       r="1"
       inkscape:label="Growl" /><circle
       style="display:inline;fill:#ff0000;fill-opacity:1;stroke-width:0.157672"
       id="path1-2"
       cx="31.1625"
       cy="46.546391"
       r="1"
       inkscape:label="Snarl " /><circle
       style="display:inline;fill:#ff00ff;fill-opacity:1;stroke-width:0.157672"
       id="path1-84"
       cx="30.867193"
       cy="22.524794"
       r="1"
       inkscape:label="LED" /><circle
       style="display:inline;fill:#00ff00;fill-opacity:1;stroke-width:0.157672"
       id="path1-87"
       cx="10.299851"
       cy="95.603905"
       r="1"
       inkscape:label="Bang CV" /><circle
       style="display:inline;fill:#00ff00;fill-opacity:1;stroke-width:0.157672"
       id="path1-4"
       cx="10.197595"
       cy="108.95733"
       r="1"
       inkscape:label="Snarl CV" /><circle
       style="display:inline;fill:#00ff00;fill-opacity:1;stroke-width:0.157672"
       id="path1-55"
       cx="25.194012"
       cy="95.486969"
       r="1"
       inkscape:label="Tail CV" /><circle
       style="display:inline;fill:#00ff00;fill-opacity:1;stroke-width:0.157672"
       id="path1-98"
       cx="25.154579"
       cy="108.7308"
       r="1"
       inkscape:label="Growl CV" /><circle
       style="display:inline;fill:#00ff00;fill-opacity:1;stroke-width:0.157672"
       id="path1-48"
       cx="39.822216"
       cy="108.66936"
       r="1"
       inkscape:label="Yap CV" /><circle
       style="display:inline;fill:#00ff00;fill-opacity:1;stroke-width:0.157672"
       id="path1-0"
       cx="39.863026"
       cy="95.486969"
       r="1"
       inkscape:label="Yip CV" /><circle
       style="display:inline;fill:#0000ff;fill-opacity:1;stroke-width:0.157672"
       id="path1-52"
       cx="51.807335"
       cy="101.75948"
       r="1"
       inkscape:label="Mongrel" /></g></svg>
