<?xml version="1.0" encoding="UTF-8" standalone="no"?>
<!-- Uploaded to: SVG Repo, www.svgrepo.com, Generator: SVG Repo Mixer Tools -->

<svg
   fill="#000000"
   version="1.1"
   id="Capa_1"
   width="76.548149"
   height="38.848297"
   viewBox="0 0 36.503516 18.525588"
   xml:space="preserve"
   sodipodi:docname="Fish.svg"
   inkscape:version="1.4 (e7c3feb1, 2024-10-09)"
   xmlns:inkscape="http://www.inkscape.org/namespaces/inkscape"
   xmlns:sodipodi="http://sodipodi.sourceforge.net/DTD/sodipodi-0.dtd"
   xmlns="http://www.w3.org/2000/svg"
   xmlns:svg="http://www.w3.org/2000/svg"><defs
   id="defs3">
		
	
				
			</defs><sodipodi:namedview
   id="namedview3"
   pagecolor="#ffffff"
   bordercolor="#000000"
   borderopacity="0.25"
   inkscape:showpageshadow="2"
   inkscape:pageopacity="0.0"
   inkscape:pagecheckerboard="0"
   inkscape:deskcolor="#d1d1d1"
   inkscape:zoom="1.8225678"
   inkscape:cx="11.247867"
   inkscape:cy="85.867864"
   inkscape:window-width="1200"
   inkscape:window-height="1186"
   inkscape:window-x="0"
   inkscape:window-y="25"
   inkscape:window-maximized="0"
   inkscape:current-layer="Layer_5_13_" />
<g
   id="g3"
   transform="matrix(0.09448827,0,0,0.10327871,0.22806256,-10.436036)"
   style="stroke-width:10.123">
	<g
   id="Layer_5_13_"
   style="stroke-width:10.123">
			<g
   id="path1"><path
     style="fill:#ffffff"
     d="m 353.165,182.381 c 1.217,-2.613 9.533,-13.636 17.062,-25.062 0.007,-0.008 0.013,-0.016 0.017,-0.023 1.699,-2.578 3.355,-5.175 4.885,-7.702 0.043,-0.071 0.086,-0.143 0.129,-0.214 0.248,-0.412 17.859,-28.646 -7.225,-17.212 0,0.002 -0.002,0.005 -0.004,0.007 -4.713,2.417 -10.707,6.021 -18.244,11.072 -16.441,11.021 -49.885,27.154 -49.885,27.154 0,0 -5.82,3.144 -9.658,0.749 -19.396,-12.1 -47.656,-33.594 -84.912,-45.562 -0.621,-0.2 -1.408,-0.673 -0.338,-1.664 l 15.955,-11.158 c 0,0 1.25,-1.08 -0.355,-1.602 -7.896,-2.573 -40.783,-13.601 -69.24,-3.462 -5.797,2.065 -10.555,3.761 -14.467,5.155 -1.682,0.6 -3.391,1.305 -6.799,1.726 C 52.482,117.237 0,174.203 0,196.737 c 0,15.123 8.154,25.271 37.947,39.378 0.598,-0.095 5.146,3.17 15.137,0.168 2.678,-0.805 21.697,-7.968 22.453,-8.291 0.758,-0.346 1.25,-0.517 1.564,-0.466 0.404,0.064 0.701,0.962 0.699,1.144 -0.063,5.387 -10.16,9.75 -15.893,14.537 -0.984,0.459 -1.248,2.744 0.475,3.484 0.002,0 20.246,10.854 52.307,14.229 2.592,0.273 36.34,21.897 70.371,16.096 17.999,-3.069 26.564,-4.119 30.473,-5.197 3.412,-0.94 1.783,-2.022 1.783,-2.022 l -17.059,-13.592 c -1.155,-1.281 -0.221,-2.265 0.746,-2.539 37.882,-10.779 67.834,-27.771 85.672,-42.328 2.402,-1.961 8.645,2.701 13.102,4.953 14.801,7.477 76.238,32.803 81.301,27.442 0.436,-0.452 0.467,-1.125 0.023,-2.05 -8.645,-18.159 -39.891,-33.648 -27.936,-59.302 z m -290.33,-1.749 c -5.465,0 -9.895,-4.512 -9.895,-10.077 0,-5.565 4.43,-10.076 9.895,-10.076 5.465,0 9.896,4.511 9.896,10.076 0,5.565 -4.431,10.077 -9.896,10.077 z m 44.283,57.333 c -0.609,0.547 -1.164,1.373 -0.842,0.185 0,0 15.426,-23.21 17.426,-53.211 1.498,-22.484 -13.482,-50.02 -13.482,-50.02 0,0 0.029,-0.804 0.555,-0.169 5.333,6.45 57.843,47.938 -3.657,103.215 z"
     id="path2" /><path
     d="m 172.96094,101.16797 c -7.40901,0.37027 -15.03691,1.62925 -22.41992,4.25976 -5.79632,2.06476 -10.55545,3.76249 -14.4668,5.15625 -1.75634,0.62652 -3.10269,1.20874 -6.27539,1.60157 -0.003,4.2e-4 -0.004,0.002 -0.008,0.002 -39.276988,1.3946 -72.183728,16.47313 -95.312504,34.09766 -11.585719,8.82852 -20.727759,18.29267 -27.0273441,27.07617 -6.2995855,8.78349 -9.8652344,16.80459 -9.8652344,23.375 0,7.9953 2.32202223,15.13244 8.4492187,21.71484 6.1271968,6.58241 15.8570608,12.73285 30.8789058,19.8457 l 0.673829,0.31836 0.201171,-0.0312 c 0.154678,0.0601 0.285804,0.11117 0.535157,0.20313 0.746467,0.27529 1.845992,0.63337 3.253906,0.87891 2.815827,0.49107 6.878058,0.52717 12.201172,-1.07227 1.720539,-0.51719 6.904226,-2.44046 12.095703,-4.375 2.595739,-0.96727 5.129405,-1.9194 7.064453,-2.65039 0.625906,-0.23644 0.695228,-0.26966 1.146484,-0.43945 -0.834852,0.95429 -2.046988,2.00693 -3.52539,3.08203 -3.094053,2.25 -7.076482,4.53349 -10.201172,7.14258 l 0.527344,-0.33399 c -1.807635,0.8432 -2.223753,2.44031 -2.169922,3.91211 0.05304,1.45004 0.972975,3.16425 2.654297,3.92578 -0.01669,-0.004 -0.104623,-0.026 -0.103516,-0.0254 0.01193,0.006 0.03028,0.0156 0.05273,0.0273 0.0449,0.0236 0.10918,0.0583 0.19336,0.10157 0.168359,0.0866 0.415147,0.21105 0.736328,0.36914 0.642362,0.31618 1.585844,0.76634 2.814453,1.31445 2.457219,1.09622 6.053551,2.58314 10.660156,4.17578 9.21321,3.18528 22.465129,6.78984 38.710941,8.5 -0.52759,-0.0556 -0.18991,-0.0365 0.13867,0.10547 0.32858,0.14201 0.82097,0.37367 1.42578,0.66992 1.20961,0.59251 2.88723,1.44408 4.9375,2.44141 4.10053,1.99466 9.70658,4.58038 16.32617,6.97851 13.23919,4.79627 30.56566,8.8851 48.20117,5.87891 17.96386,-3.06301 26.31614,-4.03661 30.70899,-5.24805 1.01472,-0.27955 1.78134,-0.57682 2.48047,-1.07617 0.69912,-0.49934 1.40819,-1.433 1.46093,-2.49609 0.10549,-2.12618 -1.46289,-2.78711 -1.46289,-2.78711 l 0.16797,0.12305 -15.57812,-12.41407 c 37.43714,-10.88832 67.06522,-27.68655 84.95898,-42.28906 -0.15919,0.12996 -0.18191,0.006 0.43945,0.12891 0.62137,0.12298 1.6265,0.50698 2.74024,1.06054 2.22749,1.10713 4.8866,2.82506 7.30859,4.04883 7.62122,3.85 26.62455,12.01676 44.55274,18.64453 8.96409,3.31389 17.6252,6.23117 24.47265,8.00586 3.42373,0.88735 6.38184,1.49412 8.81055,1.70899 1.21435,0.10743 2.29568,0.12439 3.31836,-0.0254 1.01778,-0.14907 2.07972,-0.43937 2.97461,-1.37891 0.61025,-0.63635 0.99656,-1.60399 1.01367,-2.4668 0.0172,-0.86562 -0.22438,-1.60679 -0.55469,-2.29492 -4.69442,-9.85534 -14.79813,-18.22125 -21.97656,-27.29297 -3.58997,-4.5368 -6.43635,-9.17928 -7.69336,-14.03515 -1.25701,-4.85588 -1.03334,-9.94582 1.7461,-15.91016 0.13428,-0.28833 0.88263,-1.52741 1.93164,-3.07812 1.049,-1.55072 2.43243,-3.52538 4.01757,-5.7793 3.1703,-4.50785 7.14652,-10.14033 10.93946,-15.89649 l -0.19922,0.26172 c 0.082,-0.0937 0.17005,-0.19212 0.29687,-0.41406 l -0.0801,0.13086 c 1.71229,-2.59817 3.38341,-5.22092 4.93359,-7.78125 0.0482,-0.0796 0.0911,-0.15048 0.12891,-0.21289 l 0.002,-0.004 0.002,-0.002 c -0.0828,0.13756 0.33808,-0.54618 0.81055,-1.36328 0.47247,-0.8171 1.10302,-1.94309 1.77344,-3.25195 1.34083,-2.61773 2.85395,-5.92916 3.58789,-9.14063 0.36696,-1.60573 0.56201,-3.19779 0.28906,-4.79492 -0.27295,-1.59713 -1.21205,-3.30061 -2.83203,-4.20508 -3.23997,-1.80893 -7.40869,-0.86627 -13.92383,2.10352 l -1.41211,0.64257 v 0.15039 c -4.63523,2.45705 -10.19476,5.79685 -17.17773,10.47657 -16.08843,10.78465 -49.58985,26.98437 -49.58985,26.98437 l -0.0508,0.0254 -0.0488,0.0254 c 0,0 -1.21396,0.64821 -2.83008,1.05469 -1.61611,0.40648 -3.35064,0.42582 -4.40234,-0.23047 -18.73364,-11.68679 -46.41861,-32.58325 -82.78516,-44.84961 l 13.69727,-9.57812 0.0937,-0.082 c 0,0 0.71885,-0.42162 1.13477,-1.66797 0.20795,-0.62318 0.24453,-1.70996 -0.28516,-2.5625 -0.5293,-0.85192 -1.31392,-1.2574 -2.03516,-1.49219 h -0.002 c -5.88243,-1.91689 -26.15123,-8.81193 -48.37695,-7.70117 z m 0.21093,4.87109 c 19.02518,-0.90451 36.14337,4.12267 43.79883,6.5625 l -13.49804,9.43946 -0.1211,0.11132 c -0.44595,0.41303 -0.85904,0.88742 -1.11719,1.60743 -0.25814,0.72 -0.20345,1.73468 0.15625,2.41796 0.71942,1.36657 1.64343,1.52804 2.19922,1.70704 h 0.002 v 0.002 c 36.7932,11.81933 64.78125,33.0884 84.37304,45.31055 2.7863,1.73871 5.88139,1.38317 8.13477,0.8164 2.25241,-0.56652 3.94384,-1.48748 3.94531,-1.48828 h 0.002 c 0.17255,-0.083 33.33205,-16.04531 50.08204,-27.27344 7.47888,-5.01205 13.40275,-8.56824 17.98632,-10.91992 5.96519,-2.7031 8.98384,-2.5286 9.48633,-2.24805 0.25255,0.14101 0.32359,0.19331 0.42774,0.80274 0.10415,0.60942 0.0458,1.67356 -0.23633,2.9082 -0.56432,2.46929 -1.93259,5.57896 -3.17969,8.01367 -0.62355,1.21736 -1.21418,2.27597 -1.6543,3.03711 -0.44011,0.76114 -0.62472,1.04851 -0.76953,1.28907 -0.0466,0.0769 -0.0883,0.14832 -0.125,0.20898 -1.4869,2.45582 -3.10298,4.99035 -4.76172,7.50977 -0.007,0.0104 -0.0127,0.0208 -0.0195,0.0312 l -0.0723,0.10546 c -3.73607,5.66985 -7.68127,11.26199 -10.85547,15.77539 -1.5871,2.25671 -2.98056,4.2435 -4.06836,5.85157 -1.08781,1.60806 -1.83634,2.72597 -2.31055,3.74414 -3.19806,6.86266 -3.55239,13.32918 -2.04297,19.16015 1.50943,5.83097 4.77425,11.0063 8.58203,15.81836 7.39675,9.34761 16.79273,17.58829 20.95313,25.66016 -0.43843,0.0203 -0.8396,0.0561 -1.51758,-0.004 -1.95803,-0.17322 -4.74615,-0.72431 -8.02539,-1.57422 -6.55848,-1.6998 -15.13161,-4.57725 -24.00976,-7.85937 -17.75632,-6.56423 -36.871,-14.79878 -44.05079,-18.42578 -2.035,-1.02823 -4.72717,-2.76783 -7.33593,-4.06445 -1.30438,-0.64832 -2.58713,-1.20268 -3.95118,-1.47266 -1.36404,-0.26998 -3.06949,-0.24132 -4.42968,0.86914 -17.52487,14.30146 -47.24257,31.18703 -84.80274,41.875 -1.01654,0.28804 -2.06265,0.86136 -2.68945,2.17578 -0.6268,1.31442 -0.1914,3.1917 0.80859,4.30078 l 0.13282,0.14844 14.80664,11.79687 c -3.94424,0.90712 -12.10633,2.03319 -28.75,4.8711 -16.39549,2.79481 -32.95749,-1.02642 -45.74805,-5.66016 -6.39528,-2.31687 -11.83773,-4.82591 -15.85742,-6.78125 -2.00985,-0.97767 -3.66074,-1.81589 -4.92578,-2.43554 -0.63252,-0.30983 -1.16565,-0.56372 -1.63282,-0.76563 -0.46716,-0.20191 -0.69724,-0.38492 -1.54882,-0.47461 -15.815195,-1.66483 -28.714136,-5.17624 -37.638676,-8.26172 -4.46227,-1.54273 -7.930484,-2.97711 -10.271484,-4.02148 -1.1705,-0.52219 -2.060038,-0.9477 -2.650391,-1.23828 -0.218325,-0.10747 -0.352357,-0.17502 -0.488281,-0.24414 2.60154,-2.09141 6.25276,-4.27301 9.505859,-6.63868 1.701724,-1.23749 3.286398,-2.52455 4.544922,-4.01953 1.258525,-1.49498 2.24501,-3.30165 2.269532,-5.39843 0.008,-0.72366 -0.08583,-0.75017 -0.15625,-0.98047 -0.07042,-0.23031 -0.158226,-0.46047 -0.285157,-0.72071 -0.12693,-0.26023 -0.281696,-0.54616 -0.580078,-0.88476 -0.29772,-0.33785 -0.795477,-0.82029 -1.708984,-0.9668 -1.510765,-0.24338 -2.08235,0.24562 -2.894531,0.62695 0.209413,-0.0895 -1.426189,0.55318 -3.353516,1.28125 -1.927327,0.72808 -4.458614,1.6781 -7.046875,2.64258 -5.176523,1.92897 -10.841368,3.98758 -11.798828,4.27539 -4.667886,1.40256 -7.875046,1.30859 -9.980469,0.94141 -1.052711,-0.18359 -1.827373,-0.43793 -2.414062,-0.6543 -0.293345,-0.10818 -0.532946,-0.20642 -0.798829,-0.30469 -0.157497,-0.0582 -0.318103,-0.16426 -0.626953,-0.22656 C 24.060054,226.82445 14.911198,220.90189 9.5683594,215.16211 4.1703059,209.36302 2.4140625,203.86403 2.4140625,196.73633 c 0,-4.69659 2.995023,-12.24425 8.9609375,-20.5625 5.965914,-8.31826 14.794016,-17.48735 26.029297,-26.04883 22.470562,-17.12296 54.532652,-31.82143 92.763673,-33.12891 l 0.10742,-0.004 0.10742,-0.0137 c 3.63595,-0.44916 5.70673,-1.27485 7.3125,-1.84766 3.91219,-1.39407 8.67006,-3.08939 14.4668,-5.1543 6.84548,-2.43899 14.00218,-3.60434 21.00976,-3.9375 z m -62.27343,26.09375 c -0.5438,-0.0987 -1.26374,0.0223 -1.75391,0.31055 -0.49016,0.28826 -0.75392,0.64335 -0.91406,0.91016 -0.64057,1.06724 -0.42188,1.47851 -0.42188,1.47851 l -0.0254,0.66016 0.31641,0.58008 c 0,0 14.61172,27.41842 13.19336,48.70703 -1.95071,29.26155 -17.02735,52.03515 -17.02734,52.03515 l -0.2168,0.32617 -0.10156,0.37891 c -0.10783,0.39781 -0.36845,0.45053 -0.12696,1.6543 0.0604,0.30094 0.18715,0.76191 0.63672,1.23437 0.44958,0.47247 1.24196,0.76379 1.7832,0.76367 1.0825,-2.3e-4 1.31731,-0.35863 1.52344,-0.50781 0.82452,-0.59669 0.84046,-0.79081 0.9668,-0.90429 h 0.002 c 31.22729,-28.0675 33.93516,-53.6085 27.5625,-72.48438 -3.18633,-9.43794 -8.50611,-17.18981 -13.33789,-22.99414 -2.41589,-2.90217 -4.71342,-5.32002 -6.5625,-7.20313 -1.84908,-1.8831 -3.30803,-3.31887 -3.75976,-3.86523 v -0.002 h -0.002 c -0.29807,-0.35984 -0.64679,-0.88069 -1.73437,-1.07813 z m 6.9082,13.65821 c 0.51092,0.58349 0.9148,0.94787 1.43945,1.57812 4.59188,5.51614 9.55627,12.80124 12.47657,21.45117 5.15161,15.25912 4.30301,34.83969 -16.72657,57.91602 4.59266,-9.85531 9.95861,-24.31599 11.11329,-41.63672 0.94409,-14.17028 -4.04071,-29.06952 -8.30274,-39.30859 z m -54.970703,12.27343 c -6.793212,0 -12.310546,5.64431 -12.310546,12.49024 0,6.84592 5.51704,12.49023 12.310546,12.49023 6.793507,0 12.308594,-5.64402 12.308594,-12.49023 0,-6.84622 -5.515381,-12.49024 -12.308594,-12.49024 z m 0,4.82813 c 4.136788,0 7.480469,3.37832 7.480469,7.66211 0,4.28378 -3.343975,7.66406 -7.480469,7.66406 -4.136493,0 -7.482421,-3.37999 -7.482421,-7.66406 0,-4.28408 3.345634,-7.66211 7.482421,-7.66211 z m 152.757813,108.61719 0.30078,0.24023 0.0859,0.0566 c 0,0 -0.19822,-0.0667 -0.38672,-0.29687 z"
     id="path3" /></g>
		</g>
</g>
</svg>
