<?xml version="1.0" encoding="UTF-8" standalone="no"?>
<!-- Created with Inkscape (http://www.inkscape.org/) -->

<svg
   width="10.099999mm"
   height="10.099999mm"
   viewBox="0 0 10.099999 10.099999"
   version="1.1"
   id="svg1"
   inkscape:version="1.4 (e7c3feb1, 2024-10-09)"
   sodipodi:docname="LEDBezel-Dark.svg"
   xmlns:inkscape="http://www.inkscape.org/namespaces/inkscape"
   xmlns:sodipodi="http://sodipodi.sourceforge.net/DTD/sodipodi-0.dtd"
   xmlns="http://www.w3.org/2000/svg"
   xmlns:svg="http://www.w3.org/2000/svg">
  <sodipodi:namedview
     id="namedview1"
     pagecolor="#ffffff"
     bordercolor="#000000"
     borderopacity="0.25"
     inkscape:showpageshadow="2"
     inkscape:pageopacity="0.0"
     inkscape:pagecheckerboard="0"
     inkscape:deskcolor="#d1d1d1"
     inkscape:document-units="mm"
     inkscape:zoom="14.695511"
     inkscape:cx="14.290078"
     inkscape:cy="23.612653"
     inkscape:window-width="1920"
     inkscape:window-height="1027"
     inkscape:window-x="0"
     inkscape:window-y="25"
     inkscape:window-maximized="0"
     inkscape:current-layer="layer1" />
  <defs
     id="defs1" />
  <g
     inkscape:label="Layer 1"
     inkscape:groupmode="layer"
     id="layer1"
     transform="translate(-99.747919,-143.40416)">
    <path
       style="fill:#000000;stroke-linecap:round;stroke-linejoin:bevel;stroke-miterlimit:3.3;stroke-dashoffset:1"
       d="m 109.74792,148.45416 a 4.9499998,4.9499998 0 0 1 -4.95,4.95 4.9499998,4.9499998 0 0 1 -4.95,-4.95 4.9499998,4.9499998 0 0 1 4.95,-4.95 4.9499998,4.9499998 0 0 1 4.95,4.95 z"
       id="path1" />
    <path
       style="stroke-linecap:round;stroke-linejoin:bevel;stroke-miterlimit:3.3;stroke-dashoffset:1;fill:#ffffff"
       d="m 104.79883,143.4043 c -2.78786,0 -5.050783,2.26292 -5.050783,5.05078 0,2.78785 2.262923,5.04883 5.050783,5.04883 2.78785,0 5.04883,-2.26098 5.04883,-5.04883 0,-2.78786 -2.26098,-5.05078 -5.04883,-5.05078 z m 0,0.19922 c 2.67976,0 4.84961,2.17179 4.84961,4.85156 0,2.67976 -2.16985,4.84961 -4.84961,4.84961 -2.67977,0 -4.851564,-2.16985 -4.851564,-4.84961 0,-2.67977 2.171794,-4.85156 4.851564,-4.85156 z"
       id="path2" />
    <g
       id="g8"
       transform="rotate(-12.022911,104.75832,148.41457)">
      <circle
         style="fill:#ffffff;fill-opacity:1;stroke:none;stroke-width:0.499999;stroke-linecap:round;stroke-linejoin:round;stroke-miterlimit:3.3;stroke-dasharray:0.999997;stroke-dashoffset:0;paint-order:stroke fill markers"
         id="path5"
         cx="123.39956"
         cy="129.36104"
         r="0.5"
         transform="matrix(-0.20812416,0.97810241,0.97810241,0.20812416,0,0)" />
      <circle
         style="fill:#ffffff;fill-opacity:1;stroke:none;stroke-width:0.499999;stroke-linecap:round;stroke-linejoin:round;stroke-miterlimit:3.3;stroke-dasharray:0.999997;stroke-dashoffset:0;paint-order:stroke fill markers"
         id="path5-8"
         cx="123.39956"
         cy="137.36104"
         r="0.5"
         transform="matrix(-0.20812416,0.97810241,0.97810241,0.20812416,0,0)" />
      <circle
         style="fill:#ffffff;fill-opacity:1;stroke:none;stroke-width:0.499999;stroke-linecap:round;stroke-linejoin:round;stroke-miterlimit:3.3;stroke-dasharray:0.999997;stroke-dashoffset:0;paint-order:stroke fill markers"
         id="path5-2"
         cx="127.34956"
         cy="133.41104"
         r="0.5"
         transform="matrix(-0.20812416,0.97810241,0.97810241,0.20812416,0,0)" />
      <circle
         style="fill:#ffffff;fill-opacity:1;stroke:none;stroke-width:0.499999;stroke-linecap:round;stroke-linejoin:round;stroke-miterlimit:3.3;stroke-dasharray:0.999997;stroke-dashoffset:0;paint-order:stroke fill markers"
         id="path5-7"
         cx="119.34956"
         cy="133.41104"
         r="0.5"
         transform="matrix(-0.20812416,0.97810241,0.97810241,0.20812416,0,0)" />
    </g>
    <g
       id="g9"
       transform="matrix(0.83851724,-0.47984026,0.48157174,0.83550238,-54.568578,74.61518)"
       style="stroke-width:1.03603">
      <g
         id="g10"
         transform="translate(-0.06239453,0.1328088)">
        <circle
           style="fill:#ffffff;fill-opacity:1;stroke:none;stroke-width:0.518012;stroke-linecap:round;stroke-linejoin:round;stroke-miterlimit:3.3;stroke-dasharray:1.03603;stroke-dashoffset:0;paint-order:stroke fill markers"
           id="path6"
           cx="148.83203"
           cy="101.84698"
           r="0.25"
           transform="matrix(-0.00625811,0.99998042,0.99998042,0.00625811,0,0)" />
        <circle
           style="fill:#ffffff;fill-opacity:1;stroke:none;stroke-width:0.518012;stroke-linecap:round;stroke-linejoin:round;stroke-miterlimit:3.3;stroke-dasharray:1.03603;stroke-dashoffset:0;paint-order:stroke fill markers"
           id="path6-2"
           cx="151.59924"
           cy="106.78134"
           r="0.25"
           transform="matrix(-0.00625811,0.99998042,0.99998042,0.00625811,0,0)" />
        <circle
           style="fill:#ffffff;fill-opacity:1;stroke:none;stroke-width:0.518012;stroke-linecap:round;stroke-linejoin:round;stroke-miterlimit:3.3;stroke-dasharray:1.03603;stroke-dashoffset:0;paint-order:stroke fill markers"
           id="path6-3"
           cx="146.76149"
           cy="109.57441"
           r="0.25"
           transform="matrix(-0.00625811,0.99998042,0.99998042,0.00625811,0,0)" />
        <circle
           style="fill:#ffffff;fill-opacity:1;stroke:none;stroke-width:0.518012;stroke-linecap:round;stroke-linejoin:round;stroke-miterlimit:3.3;stroke-dasharray:1.03603;stroke-dashoffset:0;paint-order:stroke fill markers"
           id="path6-6"
           cx="143.87181"
           cy="104.71078"
           r="0.25"
           transform="matrix(-0.00625811,0.99998042,0.99998042,0.00625811,0,0)" />
      </g>
    </g>
    <path
       style="stroke-linecap:square;stroke-linejoin:round;stroke-miterlimit:3.3;stroke-dasharray:0.1, 0.6;paint-order:stroke fill markers;fill:#ffffff"
       d="m 104.75586,145.40625 -0.0996,0.002 -0.0508,0.002 0.002,0.0996 h 0.0508 l 0.0996,-0.004 h 0.0508 l -0.004,-0.0996 z m 0.55664,0.0449 -0.0176,0.0977 0.0488,0.01 0.0449,0.008 0.0508,0.0117 0.0488,0.01 0.0234,-0.0977 -0.0488,-0.01 -0.0527,-0.0117 a 0.050005,0.050005 0 0 0 -0.002,-0.002 l -0.0469,-0.008 z m -1.21094,0.0352 -0.0488,0.01 -0.0195,0.006 a 0.050005,0.050005 0 0 0 -0.002,0 l -0.0781,0.0215 -0.0469,0.0137 0.0273,0.0957 0.0469,-0.0137 0.0762,-0.0215 0.0195,-0.004 0.0469,-0.01 z m 1.89258,0.16406 -0.041,0.0918 0.0469,0.0215 0.0742,0.0332 0.0137,0.008 0.0449,0.0215 0.0449,-0.0879 -0.0449,-0.0234 -0.0156,-0.008 a 0.050005,0.050005 0 0 0 -0.002,-0.002 l -0.0742,-0.0332 z m -2.56055,0.0762 -0.0449,0.0234 -0.0469,0.0234 a 0.050005,0.050005 0 0 0 -0.002,0 l -0.041,0.0254 -0.043,0.0234 0.0488,0.0879 0.043,-0.0254 0.041,-0.0234 0.0449,-0.0234 0.0449,-0.0215 z m 3.17774,0.2793 -0.0625,0.0781 0.0391,0.0312 0.0801,0.0606 0.0391,0.0312 0.0605,-0.0781 -0.0391,-0.0312 -0.0781,-0.0625 z m -3.77344,0.10937 -0.0371,0.0332 -0.0566,0.0488 a 0.050005,0.050005 0 0 0 -0.002,0.002 l -0.0176,0.0176 -0.0371,0.0332 0.0703,0.0723 0.0352,-0.0332 0.0176,-0.0176 0.0566,-0.0469 0.0371,-0.0332 z m 4.29102,0.37696 -0.0781,0.0605 0.0312,0.0391 0.0605,0.0801 0.0312,0.0391 0.0781,-0.0625 -0.0312,-0.0391 -0.0605,-0.0781 z m -4.7793,0.13867 -0.0293,0.041 -0.0547,0.0781 a 0.050005,0.050005 0 0 0 0,0.002 l -0.004,0.004 -0.0273,0.041 0.084,0.0547 0.0273,-0.043 0.002,-0.002 0.0547,-0.0762 0.0293,-0.041 z m 5.16797,0.45117 -0.0879,0.0469 0.0215,0.0449 0.002,0.002 0.0391,0.0859 0.0195,0.0449 0.0918,-0.041 -0.0195,-0.0449 -0.0391,-0.0859 a 0.050005,0.050005 0 0 0 -0.002,-0.002 l -0.002,-0.006 z m -5.52539,0.16406 -0.0176,0.0469 -0.0371,0.0918 -0.0176,0.0469 0.0937,0.0371 0.0176,-0.0469 0.0371,-0.0937 0.0176,-0.0449 z m 5.76953,0.50391 -0.0977,0.0234 0.0117,0.0488 0.008,0.0391 0.0117,0.0566 0.008,0.0488 0.0977,-0.0176 -0.008,-0.0488 -0.01,-0.0586 a 0.050005,0.050005 0 0 0 -0.002,-0.002 l -0.008,-0.041 z m -5.9707,0.17383 -0.008,0.0508 -0.004,0.0156 a 0.050005,0.050005 0 0 0 0,0.002 l -0.01,0.084 -0.008,0.0488 0.0996,0.0137 0.006,-0.0508 0.0117,-0.082 0.002,-0.0137 0.01,-0.0508 z m 5.95507,0.48047 -0.002,0.0508 -0.002,0.0996 -0.002,0.0488 0.0996,0.004 0.002,-0.0508 0.002,-0.0996 0.002,-0.0508 z m -5.89648,0.22265 -0.0996,0.008 0.004,0.0488 0.006,0.082 a 0.050005,0.050005 0 0 0 0,0.004 l 0.002,0.0176 0.008,0.0488 0.0977,-0.0117 -0.006,-0.0508 -0.002,-0.0156 -0.006,-0.082 z m 5.82617,0.46289 -0.0117,0.0488 -0.0117,0.0547 -0.0117,0.0391 -0.0137,0.0488 0.0957,0.0273 0.0137,-0.0488 0.0117,-0.041 a 0.050005,0.050005 0 0 0 0,-0.002 l 0.0137,-0.0566 0.0117,-0.0488 z m -5.70898,0.21289 -0.0937,0.0312 0.0156,0.0488 0.0312,0.0937 0.0156,0.0469 0.0957,-0.0312 -0.0156,-0.0469 -0.0332,-0.0957 z m 5.48437,0.43555 -0.0215,0.0449 -0.041,0.0781 -0.004,0.008 -0.0254,0.043 0.0859,0.0508 0.0254,-0.0449 0.006,-0.008 a 0.050005,0.050005 0 0 0 0,-0.002 l 0.041,-0.0801 0.0234,-0.0449 z m -5.20898,0.19531 -0.0859,0.0508 0.0234,0.043 0.006,0.01 a 0.050005,0.050005 0 0 0 0.002,0.002 l 0.0469,0.0742 0.0273,0.043 0.084,-0.0547 -0.0254,-0.041 -0.0488,-0.0762 -0.004,-0.006 z m 4.84179,0.38282 -0.0332,0.0391 -0.0645,0.0762 -0.0332,0.0371 0.0742,0.0644 0.0332,-0.0371 0.0664,-0.0762 0.0312,-0.0371 z m -4.43164,0.16796 -0.0723,0.0684 0.0352,0.0371 0.0215,0.0215 a 0.050005,0.050005 0 0 0 0.002,0.002 l 0.0488,0.0469 0.0371,0.0352 0.0684,-0.0723 -0.0352,-0.0352 -0.0488,-0.0469 -0.0215,-0.0215 z m 3.93946,0.3125 -0.041,0.0293 -0.082,0.0566 -0.041,0.0293 0.0586,0.082 0.041,-0.0293 0.082,-0.0586 0.041,-0.0273 z m -3.41211,0.12696 -0.0547,0.084 0.043,0.0273 0.043,0.0273 a 0.050005,0.050005 0 0 0 0.004,0.002 l 0.041,0.0234 0.043,0.0254 0.0488,-0.0859 -0.043,-0.0254 -0.0391,-0.0234 -0.043,-0.0274 z m 2.82031,0.22461 -0.0469,0.0195 -0.01,0.006 -0.0801,0.0312 -0.0469,0.0176 0.0371,0.0937 0.0469,-0.0176 0.0801,-0.0332 a 0.050005,0.050005 0 0 0 0.002,0 l 0.0117,-0.006 0.0469,-0.0195 z m -2.20703,0.082 -0.0312,0.0957 0.0469,0.0156 0.0781,0.0254 a 0.050005,0.050005 0 0 0 0.002,0.002 l 0.0176,0.004 0.0488,0.0137 0.0273,-0.0957 -0.0488,-0.0137 -0.0156,-0.004 -0.0781,-0.0254 z m 1.55273,0.12305 -0.0508,0.01 -0.0508,0.008 -0.0449,0.006 -0.0488,0.006 0.0117,0.0996 0.0508,-0.006 0.0449,-0.006 a 0.050005,0.050005 0 0 0 0.002,0 l 0.0527,-0.01 0.0508,-0.01 z m -0.88476,0.0351 -0.008,0.0996 0.0508,0.004 0.0996,0.008 0.0488,0.002 0.008,-0.0996 -0.0488,-0.004 -0.0996,-0.006 z"
       id="path10" />
  </g>
</svg>
