<?xml version="1.0" encoding="UTF-8" standalone="no"?>
<!-- Created with Inkscape (http://www.inkscape.org/) -->

<svg
   width="10.099999mm"
   height="10.099999mm"
   viewBox="0 0 10.099999 10.099999"
   version="1.1"
   id="svg1"
   inkscape:version="1.4 (e7c3feb1, 2024-10-09)"
   sodipodi:docname="LEDBezelSilver.svg"
   xmlns:inkscape="http://www.inkscape.org/namespaces/inkscape"
   xmlns:sodipodi="http://sodipodi.sourceforge.net/DTD/sodipodi-0.dtd"
   xmlns="http://www.w3.org/2000/svg"
   xmlns:svg="http://www.w3.org/2000/svg">
  <sodipodi:namedview
     id="namedview1"
     pagecolor="#ffffff"
     bordercolor="#000000"
     borderopacity="0.25"
     inkscape:showpageshadow="2"
     inkscape:pageopacity="0.0"
     inkscape:pagecheckerboard="0"
     inkscape:deskcolor="#d1d1d1"
     inkscape:document-units="mm"
     inkscape:zoom="14.695511"
     inkscape:cx="16.43359"
     inkscape:cy="35.078739"
     inkscape:window-width="1200"
     inkscape:window-height="1186"
     inkscape:window-x="0"
     inkscape:window-y="25"
     inkscape:window-maximized="0"
     inkscape:current-layer="layer1" />
  <defs
     id="defs1" />
  <g
     inkscape:label="Layer 1"
     inkscape:groupmode="layer"
     id="layer1"
     transform="translate(-99.747919,-143.40416)">
    <g
       id="path188-6-3-3-6-5-6">
      <path
         style="fill:#cccccc;stroke-linecap:round;stroke-linejoin:bevel;stroke-miterlimit:3.3;stroke-dashoffset:1"
         d="m 109.74792,148.45416 a 4.9499998,4.9499998 0 0 1 -4.95,4.95 4.9499998,4.9499998 0 0 1 -4.95,-4.95 4.9499998,4.9499998 0 0 1 4.95,-4.95 4.9499998,4.9499998 0 0 1 4.95,4.95 z"
         id="path1" />
      <path
         style="stroke-linecap:round;stroke-linejoin:bevel;stroke-miterlimit:3.3;stroke-dashoffset:1"
         d="m 104.79883,143.4043 c -2.78786,0 -5.050783,2.26292 -5.050783,5.05078 0,2.78785 2.262923,5.04883 5.050783,5.04883 2.78785,0 5.04883,-2.26098 5.04883,-5.04883 0,-2.78786 -2.26098,-5.05078 -5.04883,-5.05078 z m 0,0.19922 c 2.67976,0 4.84961,2.17179 4.84961,4.85156 0,2.67976 -2.16985,4.84961 -4.84961,4.84961 -2.67977,0 -4.851564,-2.16985 -4.851564,-4.84961 0,-2.67977 2.171794,-4.85156 4.851564,-4.85156 z"
         id="path2" />
    </g>
    <circle
       style="fill:none;fill-opacity:1;stroke:#000000;stroke-width:0.1;stroke-linejoin:bevel;stroke-miterlimit:3.3;stroke-dasharray:none;stroke-opacity:1"
       id="path188-67-1"
       cx="104.79792"
       cy="148.45416"
       r="2.95" />
    <path
       style="stroke-linecap:round;stroke-linejoin:bevel;stroke-miterlimit:3.3;stroke-dasharray:0.1, 0.3;stroke-dashoffset:0.02"
       d="m 104.91992,144.95703 a 0.05,0.05 0 0 0 -0.0508,0.0488 0.05,0.05 0 0 0 0.0488,0.0508 l 0.0547,0.002 0.043,0.004 a 0.05,0.05 0 0 0 0.0527,-0.0469 0.05,0.05 0 0 0 -0.0449,-0.0527 l -0.0449,-0.004 h -0.002 z m -0.30469,0.002 -0.0996,0.008 a 0.05,0.05 0 0 0 -0.0449,0.0527 0.05,0.05 0 0 0 0.0527,0.0469 l 0.0996,-0.008 a 0.05,0.05 0 0 0 0.0469,-0.0527 0.05,0.05 0 0 0 -0.0547,-0.0469 z m 0.70899,0.0352 a 0.05,0.05 0 0 0 -0.0566,0.043 0.05,0.05 0 0 0 0.043,0.0566 h 0.006 l 0.0918,0.0156 a 0.05,0.05 0 0 0 0.0566,-0.041 0.05,0.05 0 0 0 -0.0391,-0.0566 l -0.0937,-0.0176 h -0.002 z m -1.11133,0.01 -0.0977,0.0176 a 0.05,0.05 0 0 0 -0.041,0.0586 0.05,0.05 0 0 0 0.0586,0.0391 l 0.0977,-0.0176 a 0.05,0.05 0 0 0 0.041,-0.0566 0.05,0.05 0 0 0 -0.0586,-0.041 z m 1.50977,0.0742 a 0.05,0.05 0 0 0 -0.0625,0.0352 0.05,0.05 0 0 0 0.0352,0.0606 l 0.0957,0.0273 a 0.05,0.05 0 0 0 0.0625,-0.0332 0.05,0.05 0 0 0 -0.0352,-0.0625 z m -1.9043,0.0156 -0.0605,0.0176 h -0.002 l -0.0352,0.0117 a 0.05,0.05 0 0 0 -0.0312,0.0644 0.05,0.05 0 0 0 0.0645,0.0312 l 0.0332,-0.0117 0.0586,-0.0176 a 0.05,0.05 0 0 0 0.0352,-0.0605 0.05,0.05 0 0 0 -0.0625,-0.0352 z m 2.28711,0.11328 a 0.05,0.05 0 0 0 -0.0644,0.0293 0.05,0.05 0 0 0 0.0273,0.0644 l 0.0527,0.0215 0.0371,0.0156 a 0.05,0.05 0 0 0 0.0664,-0.0254 0.05,0.05 0 0 0 -0.0254,-0.0644 l -0.0371,-0.0176 -0.004,-0.002 z m -2.66797,0.0215 -0.004,0.002 -0.0898,0.041 a 0.05,0.05 0 0 0 -0.0254,0.0645 0.05,0.05 0 0 0 0.0664,0.0254 l 0.0898,-0.0391 a 0.05,0.05 0 0 0 0.0273,-0.0664 0.05,0.05 0 0 0 -0.0644,-0.0273 z m 3.03711,0.15234 a 0.05,0.05 0 0 0 -0.0684,0.0195 0.05,0.05 0 0 0 0.0176,0.0664 l 0.0879,0.0508 a 0.05,0.05 0 0 0 0.0684,-0.0176 0.05,0.05 0 0 0 -0.0195,-0.0684 z m -3.40234,0.0293 -0.0859,0.0488 a 0.05,0.05 0 0 0 -0.0195,0.0684 0.05,0.05 0 0 0 0.0684,0.0176 l 0.0879,-0.0488 a 0.05,0.05 0 0 0 0.0176,-0.0684 0.05,0.05 0 0 0 -0.0684,-0.0176 z m 3.74414,0.18554 a 0.05,0.05 0 0 0 -0.0703,0.0117 0.05,0.05 0 0 0 0.0137,0.0703 l 0.0723,0.0527 0.006,0.004 a 0.05,0.05 0 0 0 0.0703,-0.008 0.05,0.05 0 0 0 -0.008,-0.0703 l -0.008,-0.006 -0.002,-0.002 z m -4.08399,0.0332 -0.0273,0.0195 -0.002,0.002 -0.0527,0.041 a 0.05,0.05 0 0 0 -0.008,0.0703 0.05,0.05 0 0 0 0.0703,0.008 l 0.0508,-0.0391 0.0273,-0.0195 a 0.05,0.05 0 0 0 0.0117,-0.0703 0.05,0.05 0 0 0 -0.0703,-0.0117 z m 4.40039,0.21875 a 0.05,0.05 0 0 0 -0.0703,0.006 0.05,0.05 0 0 0 0.006,0.0703 l 0.0156,0.0137 0.0547,0.0527 a 0.05,0.05 0 0 0 0.0703,-0.002 0.05,0.05 0 0 0 0,-0.0703 l -0.0566,-0.0547 h -0.002 z m -4.71289,0.041 -0.0742,0.0684 a 0.05,0.05 0 0 0 0,0.0703 0.05,0.05 0 0 0 0.0703,0.002 l 0.0723,-0.0684 a 0.05,0.05 0 0 0 0.002,-0.0723 0.05,0.05 0 0 0 -0.0703,0 z m 4.96485,0.23047 a 0.05,0.05 0 0 0 -0.0352,0.0117 0.05,0.05 0 0 0 -0.006,0.0723 l 0.0664,0.0742 a 0.05,0.05 0 0 0 0.0703,0.006 0.05,0.05 0 0 0 0.004,-0.0703 l -0.0645,-0.0762 a 0.05,0.05 0 0 0 -0.0352,-0.0176 z m -5.17579,0.0547 a 0.05,0.05 0 0 0 -0.0703,0.006 l -0.041,0.0469 -0.002,0.002 -0.0215,0.0293 a 0.05,0.05 0 0 0 0.008,0.0703 0.05,0.05 0 0 0 0.0703,-0.008 l 0.0215,-0.0293 0.041,-0.0449 a 0.05,0.05 0 0 0 -0.006,-0.0723 z m 5.39063,0.26953 a 0.05,0.05 0 0 0 -0.0117,0.0684 l 0.0293,0.041 0.0254,0.041 a 0.05,0.05 0 0 0 0.0703,0.0156 0.05,0.05 0 0 0 0.0137,-0.0703 l -0.0254,-0.041 -0.002,-0.002 -0.0293,-0.041 a 0.05,0.05 0 0 0 -0.0703,-0.0117 z m -5.67578,0.0371 a 0.05,0.05 0 0 0 -0.0312,0.0234 l -0.0547,0.084 a 0.05,0.05 0 0 0 0.0156,0.0684 0.05,0.05 0 0 0 0.0684,-0.0156 l 0.0547,-0.084 a 0.05,0.05 0 0 0 -0.0156,-0.0684 0.05,0.05 0 0 0 -0.0371,-0.008 z m 5.89258,0.29883 a 0.05,0.05 0 0 0 -0.0215,0.0684 l 0.0449,0.0879 a 0.05,0.05 0 0 0 0.0664,0.0215 0.05,0.05 0 0 0 0.0234,-0.0664 l -0.0469,-0.0898 a 0.05,0.05 0 0 0 -0.0664,-0.0215 z m -6.10157,0.0469 a 0.05,0.05 0 0 0 -0.0273,0.0254 l -0.043,0.084 -0.002,0.002 -0.002,0.006 a 0.05,0.05 0 0 0 0.0254,0.0664 0.05,0.05 0 0 0 0.0644,-0.0254 l 0.002,-0.004 0.043,-0.084 a 0.05,0.05 0 0 0 -0.0215,-0.0664 0.05,0.05 0 0 0 -0.0391,-0.004 z m 6.27344,0.31445 a 0.05,0.05 0 0 0 -0.0273,0.0645 l 0.0312,0.0801 0.004,0.0117 a 0.05,0.05 0 0 0 0.0625,0.0312 0.05,0.05 0 0 0 0.0312,-0.0645 l -0.004,-0.0117 v -0.002 l -0.0332,-0.082 a 0.05,0.05 0 0 0 -0.0644,-0.0273 z m -6.43945,0.0527 a 0.05,0.05 0 0 0 -0.0273,0.0273 l -0.01,0.0293 -0.002,0.002 -0.0215,0.0664 a 0.05,0.05 0 0 0 0.0312,0.0625 0.05,0.05 0 0 0 0.0625,-0.0312 l 0.0215,-0.0645 0.0117,-0.0273 a 0.05,0.05 0 0 0 -0.0293,-0.0644 0.05,0.05 0 0 0 -0.0371,0 z m 6.57031,0.32422 a 0.05,0.05 0 0 0 -0.0352,0.0625 l 0.008,0.0234 0.0156,0.0703 a 0.05,0.05 0 0 0 0.0605,0.0391 0.05,0.05 0 0 0 0.0371,-0.0605 l -0.0176,-0.0723 v -0.002 l -0.008,-0.0254 a 0.05,0.05 0 0 0 -0.0605,-0.0351 z m -6.6582,0.0547 a 0.05,0.05 0 0 0 -0.0605,0.0371 l -0.0215,0.0977 a 0.05,0.05 0 0 0 0.0371,0.0606 0.05,0.05 0 0 0 0.0605,-0.0371 l 0.0215,-0.0977 a 0.05,0.05 0 0 0 -0.0371,-0.0605 z m 6.74414,0.33593 a 0.05,0.05 0 0 0 -0.043,0.0566 l 0.0137,0.0996 a 0.05,0.05 0 0 0 0.0547,0.043 0.05,0.05 0 0 0 0.043,-0.0566 l -0.0117,-0.0996 a 0.05,0.05 0 0 0 -0.0566,-0.043 z m -6.82227,0.0566 a 0.05,0.05 0 0 0 -0.0547,0.043 l -0.0117,0.0879 v 0.002 l -0.002,0.0117 a 0.05,0.05 0 0 0 0.0469,0.0547 0.05,0.05 0 0 0 0.0527,-0.0469 l 0.002,-0.01 0.01,-0.0859 a 0.05,0.05 0 0 0 -0.043,-0.0566 z m 6.86133,0.3418 a 0.05,0.05 0 0 0 -0.0488,0.0508 l 0.002,0.0957 v 0.002 l -0.002,0.0781 a 0.05,0.05 0 0 0 0.0488,0.0508 0.05,0.05 0 0 0 0.0508,-0.0488 l 0.004,-0.0801 a 0.05,0.05 0 0 0 0,-0.002 l -0.004,-0.0977 a 0.05,0.05 0 0 0 -0.0508,-0.0488 z m -6.89453,0.0566 a 0.05,0.05 0 0 0 -0.0508,0.0488 v 0.041 0.002 0.0586 a 0.05,0.05 0 0 0 0.0527,0.0488 0.05,0.05 0 0 0 0.0469,-0.0508 v -0.0566 -0.041 a 0.05,0.05 0 0 0 -0.0488,-0.0508 z m 0.01,0.40039 a 0.05,0.05 0 0 0 -0.043,0.0547 l 0.0137,0.0996 a 0.05,0.05 0 0 0 0.0547,0.043 0.05,0.05 0 0 0 0.043,-0.0547 l -0.0117,-0.0996 a 0.05,0.05 0 0 0 -0.0566,-0.043 z m 6.87304,0.0195 a 0.05,0.05 0 0 0 -0.0547,0.043 l -0.0137,0.0996 a 0.05,0.05 0 0 0 0.043,0.0566 0.05,0.05 0 0 0 0.0566,-0.043 l 0.0117,-0.0996 a 0.05,0.05 0 0 0 -0.043,-0.0566 z m -6.8125,0.375 a 0.05,0.05 0 0 0 -0.0371,0.0606 l 0.0215,0.0977 a 0.05,0.05 0 0 0 0.0605,0.0371 0.05,0.05 0 0 0 0.0371,-0.0606 l -0.0215,-0.0977 a 0.05,0.05 0 0 0 -0.0605,-0.0371 z m 6.75196,0.0215 a 0.05,0.05 0 0 0 -0.0606,0.0371 l -0.0195,0.0879 -0.004,0.006 a 0.05,0.05 0 0 0 0.0352,0.0625 0.05,0.05 0 0 0 0.0625,-0.0352 l 0.002,-0.008 v -0.002 l 0.0215,-0.0898 a 0.05,0.05 0 0 0 -0.0371,-0.0586 z m -6.64649,0.36523 a 0.05,0.05 0 0 0 -0.0312,0.0625 l 0.0156,0.0488 0.002,0.002 0.0176,0.0449 a 0.05,0.05 0 0 0 0.0644,0.0293 0.05,0.05 0 0 0 0.0273,-0.0664 l -0.0176,-0.043 -0.0156,-0.0469 a 0.05,0.05 0 0 0 -0.0625,-0.0312 z m 6.53906,0.0195 a 0.05,0.05 0 0 0 -0.0625,0.0312 l -0.01,0.0274 -0.0254,0.0644 a 0.05,0.05 0 0 0 0.0273,0.0644 0.05,0.05 0 0 0 0.0664,-0.0293 l 0.0254,-0.0645 v -0.002 l 0.01,-0.0293 a 0.05,0.05 0 0 0 -0.0312,-0.0625 z m -6.39453,0.35157 a 0.05,0.05 0 0 0 -0.0215,0.0684 l 0.0469,0.0879 a 0.05,0.05 0 0 0 0.0664,0.0215 0.05,0.05 0 0 0 0.0215,-0.0664 l -0.0449,-0.0898 a 0.05,0.05 0 0 0 -0.0684,-0.0215 z m 6.2461,0.0195 a 0.05,0.05 0 0 0 -0.0684,0.0215 l -0.0449,0.0879 a 0.05,0.05 0 0 0 0.0215,0.0684 0.05,0.05 0 0 0 0.0664,-0.0215 l 0.0469,-0.0899 a 0.05,0.05 0 0 0 -0.0215,-0.0664 z m -6.01563,0.32422 a 0.05,0.05 0 0 0 -0.0371,0.008 0.05,0.05 0 0 0 -0.0156,0.0684 l 0.0469,0.0742 0.002,0.002 0.008,0.01 a 0.05,0.05 0 0 0 0.0684,0.0117 0.05,0.05 0 0 0 0.0117,-0.0703 l -0.006,-0.008 -0.0469,-0.0742 a 0.05,0.05 0 0 0 -0.0312,-0.0215 z m 5.82227,0.0254 a 0.05,0.05 0 0 0 -0.0703,0.0156 l -0.0352,0.0547 -0.0176,0.0254 a 0.05,0.05 0 0 0 0.0117,0.0703 0.05,0.05 0 0 0 0.0684,-0.0117 l 0.0195,-0.0273 0.002,-0.002 0.0352,-0.0566 a 0.05,0.05 0 0 0 -0.0137,-0.0684 z m -5.63086,0.30859 a 0.05,0.05 0 0 0 -0.008,0.0703 l 0.0117,0.0156 0.002,0.002 0.0527,0.0606 a 0.05,0.05 0 0 0 0.0703,0.006 0.05,0.05 0 0 0 0.006,-0.0723 l -0.0527,-0.0586 -0.0117,-0.0156 a 0.05,0.05 0 0 0 -0.0703,-0.008 z m 5.36328,0.006 a 0.05,0.05 0 0 0 -0.0332,0.0176 l -0.0664,0.0762 a 0.05,0.05 0 0 0 0.006,0.0703 0.05,0.05 0 0 0 0.0703,-0.006 l 0.0644,-0.0762 a 0.05,0.05 0 0 0 -0.004,-0.0703 0.05,0.05 0 0 0 -0.0371,-0.0117 z m -5.02735,0.29101 a 0.05,0.05 0 0 0 -0.0703,0.002 0.05,0.05 0 0 0 0.002,0.0703 l 0.0723,0.0703 a 0.05,0.05 0 0 0 0.0703,-0.002 0.05,0.05 0 0 0 -0.002,-0.0703 z m 4.75977,0.002 a 0.05,0.05 0 0 0 -0.0352,0.0137 l -0.0684,0.0644 -0.002,0.002 a 0.05,0.05 0 0 0 -0.006,0.0703 0.05,0.05 0 0 0 0.0703,0.006 l 0.004,-0.004 h 0.002 l 0.0684,-0.0664 a 0.05,0.05 0 0 0 0.002,-0.0703 0.05,0.05 0 0 0 -0.0352,-0.0156 z m -4.49805,0.24609 a 0.05,0.05 0 0 0 -0.0332,0.0195 0.05,0.05 0 0 0 0.01,0.0703 l 0.0371,0.0293 0.002,0.002 0.043,0.0293 a 0.05,0.05 0 0 0 0.0684,-0.0117 0.05,0.05 0 0 0 -0.0117,-0.0684 l -0.041,-0.0293 -0.0371,-0.0293 a 0.05,0.05 0 0 0 -0.0371,-0.0117 z m 4.19922,0.0137 a 0.05,0.05 0 0 0 -0.0371,0.01 l -0.0195,0.0176 -0.0586,0.041 a 0.05,0.05 0 0 0 -0.0117,0.0703 0.05,0.05 0 0 0 0.0703,0.0117 l 0.0586,-0.043 0.002,-0.002 0.0215,-0.0156 a 0.05,0.05 0 0 0 0.008,-0.0703 0.05,0.05 0 0 0 -0.0332,-0.0195 z m -3.83789,0.21875 a 0.05,0.05 0 0 0 -0.0684,0.0195 0.05,0.05 0 0 0 0.0195,0.0684 l 0.0859,0.0488 a 0.05,0.05 0 0 0 0.0684,-0.0176 0.05,0.05 0 0 0 -0.0176,-0.0684 z m 3.47461,0.0117 -0.0859,0.0488 a 0.05,0.05 0 0 0 -0.0176,0.0684 0.05,0.05 0 0 0 0.0683,0.0176 l 0.0859,-0.0488 a 0.05,0.05 0 0 0 0.0176,-0.0684 0.05,0.05 0 0 0 -0.0684,-0.0176 z m -3.16211,0.16992 a 0.05,0.05 0 0 0 -0.0273,0.0254 0.05,0.05 0 0 0 0.0234,0.0664 l 0.0742,0.0332 0.004,0.002 0.0156,0.006 a 0.05,0.05 0 0 0 0.0664,-0.0274 0.05,0.05 0 0 0 -0.0293,-0.0644 l -0.0156,-0.006 -0.0723,-0.0332 a 0.05,0.05 0 0 0 -0.0391,-0.002 z m 2.84961,0.008 a 0.05,0.05 0 0 0 -0.0371,0.002 l -0.0547,0.0254 -0.0352,0.0137 a 0.05,0.05 0 0 0 -0.0293,0.0645 0.05,0.05 0 0 0 0.0664,0.0273 l 0.0351,-0.0137 0.004,-0.002 0.0547,-0.0234 a 0.05,0.05 0 0 0 0.0254,-0.0664 0.05,0.05 0 0 0 -0.0293,-0.0273 z m -2.44336,0.13476 a 0.05,0.05 0 0 0 -0.0625,0.0312 0.05,0.05 0 0 0 0.0312,0.0645 l 0.0176,0.006 h 0.002 l 0.0781,0.0215 a 0.05,0.05 0 0 0 0.0625,-0.0332 0.05,0.05 0 0 0 -0.0352,-0.0625 l -0.0762,-0.0215 z m 2.03906,0.006 -0.0957,0.0274 a 0.05,0.05 0 0 0 -0.0352,0.0625 0.05,0.05 0 0 0 0.0625,0.0332 l 0.0957,-0.0273 a 0.05,0.05 0 0 0 0.0332,-0.0605 0.05,0.05 0 0 0 -0.0606,-0.0352 z m -1.6582,0.0899 a 0.05,0.05 0 0 0 -0.0586,0.041 0.05,0.05 0 0 0 0.041,0.0586 l 0.0977,0.0176 a 0.05,0.05 0 0 0 0.0586,-0.041 0.05,0.05 0 0 0 -0.041,-0.0586 z m 1.27539,0.004 -0.0996,0.0176 a 0.05,0.05 0 0 0 -0.041,0.0586 0.05,0.05 0 0 0 0.0586,0.041 l 0.0996,-0.0176 a 0.05,0.05 0 0 0 0.0391,-0.0586 0.05,0.05 0 0 0 -0.0566,-0.041 z m -0.88476,0.0488 a 0.05,0.05 0 0 0 -0.0527,0.0449 0.05,0.05 0 0 0 0.0449,0.0547 l 0.084,0.006 h 0.002 0.0176 a 0.05,0.05 0 0 0 0.0508,-0.0469 0.05,0.05 0 0 0 -0.0488,-0.0527 h -0.0156 z m 0.49218,0.002 -0.0605,0.004 -0.0371,0.002 a 0.05,0.05 0 0 0 -0.0488,0.0508 0.05,0.05 0 0 0 0.0527,0.0488 l 0.0371,-0.002 h 0.002 l 0.0625,-0.004 a 0.05,0.05 0 0 0 0.0469,-0.0547 0.05,0.05 0 0 0 -0.0547,-0.0449 z"
       id="path188-6-15-9" />
    <path
       style="stroke-linecap:round;stroke-linejoin:bevel;stroke-miterlimit:3.3;stroke-dasharray:0.4, 0.4"
       d="m 104.79688,144.4043 -0.10157,0.002 h -0.004 l -0.0996,0.004 h -0.004 -0.0117 a 0.1,0.1 0 0 0 -0.0937,0.10546 0.1,0.1 0 0 0 0.10742,0.0937 h 0.01 l 0.0996,-0.004 0.0996,-0.002 0.0977,0.002 0.082,0.004 a 0.1,0.1 0 0 0 0.10351,-0.0977 0.1,0.1 0 0 0 -0.0957,-0.10352 l -0.082,-0.002 h -0.004 l -0.10156,-0.002 z m 0.59765,0.043 a 0.1,0.1 0 0 0 -0.11328,0.0859 0.1,0.1 0 0 0 0.0859,0.11328 l 0.0156,0.002 0.19141,0.0332 0.17578,0.041 a 0.1,0.1 0 0 0 0.12109,-0.0742 0.1,0.1 0 0 0 -0.0762,-0.1211 l -0.17773,-0.041 h -0.006 l -0.19336,-0.0352 h -0.004 z m -1.22656,0.006 -0.18359,0.0332 h -0.006 l -0.18946,0.0449 -0.006,0.002 -0.0156,0.004 a 0.1,0.1 0 0 0 -0.0703,0.12305 0.1,0.1 0 0 0 0.125,0.0684 l 0.0137,-0.004 0.18554,-0.043 0.18165,-0.0312 a 0.1,0.1 0 0 0 0.0801,-0.11719 0.1,0.1 0 0 0 -0.11523,-0.0801 z m 2.01953,0.19532 a 0.1,0.1 0 0 0 -0.12695,0.0625 0.1,0.1 0 0 0 0.0625,0.12695 l 0.17383,0.0684 0.16992,0.0781 0.01,0.004 a 0.1,0.1 0 0 0 0.13477,-0.043 0.1,0.1 0 0 0 -0.043,-0.13476 l -0.0117,-0.006 -0.006,-0.002 -0.17383,-0.0801 -0.004,-0.002 -0.17969,-0.0703 z m -2.81055,0.0137 -0.15234,0.0586 -0.006,0.002 -0.17383,0.0801 -0.006,0.002 -0.0391,0.0195 a 0.1,0.1 0 0 0 -0.043,0.13476 0.1,0.1 0 0 0 0.13477,0.043 l 0.0371,-0.0176 0.16992,-0.0781 0.15039,-0.0586 a 0.1,0.1 0 0 0 0.0566,-0.13086 0.1,0.1 0 0 0 -0.12891,-0.0547 z m 3.47461,0.33398 a 0.1,0.1 0 0 0 -0.0625,0.043 0.1,0.1 0 0 0 0.0293,0.13867 l 0.13281,0.084 0.15039,0.10742 0.0391,0.0293 a 0.1,0.1 0 0 0 0.14062,-0.0156 0.1,0.1 0 0 0 -0.0176,-0.14062 l -0.041,-0.0312 -0.004,-0.004 -0.1543,-0.10937 -0.004,-0.004 -0.13282,-0.084 a 0.1,0.1 0 0 0 -0.0762,-0.0137 z m -4.13281,0.0156 a 0.1,0.1 0 0 0 -0.0742,0.0137 l -0.10937,0.0684 -0.004,0.004 -0.1543,0.10937 -0.004,0.004 -0.0645,0.0488 a 0.1,0.1 0 0 0 -0.0176,0.14062 0.1,0.1 0 0 0 0.14062,0.0176 l 0.0625,-0.0488 0.15039,-0.10742 0.10742,-0.0684 a 0.1,0.1 0 0 0 0.0293,-0.13867 0.1,0.1 0 0 0 -0.0625,-0.043 z m 4.78516,0.46875 a 0.1,0.1 0 0 0 -0.0703,0.0312 0.1,0.1 0 0 0 0.004,0.14062 l 0.082,0.0801 0.12891,0.13281 0.0586,0.0684 a 0.1,0.1 0 0 0 0.14063,0.01 0.1,0.1 0 0 0 0.01,-0.14063 l -0.0605,-0.0703 -0.002,-0.004 -0.13086,-0.13672 -0.004,-0.004 -0.0859,-0.0801 a 0.1,0.1 0 0 0 -0.0703,-0.0273 z m -5.4336,0.0195 A 0.1,0.1 0 0 0 102,145.52734 l -0.0644,0.0605 -0.004,0.004 -0.13086,0.13672 -0.002,0.004 -0.0801,0.0937 a 0.1,0.1 0 0 0 0.01,0.14063 0.1,0.1 0 0 0 0.14062,-0.01 l 0.0781,-0.0918 0.1289,-0.13281 0.0605,-0.0586 a 0.1,0.1 0 0 0 0.004,-0.14258 0.1,0.1 0 0 0 -0.0703,-0.0312 z m 5.90039,0.60156 a 0.1,0.1 0 0 0 -0.0234,0.14063 l 0.043,0.0586 0.0996,0.15625 0.0664,0.11328 a 0.1,0.1 0 0 0 0.13672,0.0371 0.1,0.1 0 0 0 0.0371,-0.13672 l -0.0664,-0.11523 -0.004,-0.004 -0.10157,-0.16015 -0.004,-0.004 -0.043,-0.0625 a 0.1,0.1 0 0 0 -0.14063,-0.0234 z m -6.36328,0.0254 a 0.1,0.1 0 0 0 -0.13867,0.0234 l -0.0273,0.0371 -0.004,0.004 -0.10156,0.16015 -0.002,0.004 -0.082,0.14258 a 0.1,0.1 0 0 0 0.0371,0.13672 0.1,0.1 0 0 0 0.13672,-0.0371 l 0.0801,-0.14063 0.0996,-0.15625 0.0254,-0.0352 a 0.1,0.1 0 0 0 -0.0234,-0.13867 z m 6.77149,0.66211 a 0.1,0.1 0 0 0 -0.0488,0.13086 l 0.0156,0.0352 0.0684,0.17578 0.0527,0.1543 a 0.1,0.1 0 0 0 0.12695,0.0625 0.1,0.1 0 0 0 0.0625,-0.12696 l -0.0527,-0.15625 -0.002,-0.006 -0.0703,-0.17773 -0.002,-0.006 -0.0176,-0.0371 a 0.1,0.1 0 0 0 -0.13281,-0.0488 z m -7.25196,0.0234 a 0.1,0.1 0 0 0 -0.0547,0.0527 l -0.006,0.01 -0.002,0.006 -0.0703,0.17773 -0.002,0.006 -0.0605,0.1836 -0.002,0.004 -0.002,0.002 a 0.1,0.1 0 0 0 0.0703,0.125 0.1,0.1 0 0 0 0.12304,-0.0703 l 0.0606,-0.17773 0.0684,-0.17578 0.004,-0.008 a 0.1,0.1 0 0 0 -0.0508,-0.13086 0.1,0.1 0 0 0 -0.0762,-0.004 z m 7.51368,0.73047 a 0.1,0.1 0 0 0 -0.0742,0.11914 l 0.004,0.0156 0.0332,0.19141 0.0137,0.0937 0.01,0.084 a 0.1,0.1 0 0 0 0.10938,0.0879 0.1,0.1 0 0 0 0.0879,-0.11133 l -0.008,-0.084 -0.002,-0.002 -0.0137,-0.0996 v -0.002 l -0.0352,-0.19532 v -0.006 l -0.004,-0.0176 a 0.1,0.1 0 0 0 -0.12109,-0.0742 z m -7.69727,0.0273 a 0.1,0.1 0 0 0 -0.11523,0.082 l -0.0332,0.1836 v 0.002 l -0.0137,0.0996 v 0.002 l -0.0117,0.0996 v 0.002 l -0.002,0.0156 a 0.1,0.1 0 0 0 0.0898,0.10742 0.1,0.1 0 0 0 0.10938,-0.0898 l 0.002,-0.0137 0.01,-0.0977 0.0137,-0.0937 0.0332,-0.18164 a 0.1,0.1 0 0 0 -0.082,-0.11719 z m 7.80273,0.76367 a 0.1,0.1 0 0 0 -0.0977,0.10157 v 0.0176 0.002 l -0.002,0.0976 -0.004,0.0996 -0.006,0.0977 -0.008,0.0937 a 0.1,0.1 0 0 0 0.0898,0.10937 0.1,0.1 0 0 0 0.10938,-0.0898 l 0.008,-0.0957 v -0.004 l 0.006,-0.0996 v -0.002 l 0.004,-0.10156 v -0.004 l 0.002,-0.10156 a 0.1,0.1 0 0 0 0,-0.002 v -0.0195 a 0.1,0.1 0 0 0 -0.006,-0.006 0.1,0.1 0 0 0 -0.0723,-0.0703 0.1,0.1 0 0 0 -0.0234,-0.0234 z m -7.89843,0.0293 a 0.1,0.1 0 0 0 -0.0996,0.10156 l 0.002,0.0918 v 0.004 l 0.004,0.10156 v 0.002 l 0.006,0.0996 v 0.004 l 0.01,0.0996 v 0.002 0.006 a 0.1,0.1 0 0 0 0.11133,0.0879 0.1,0.1 0 0 0 0.0879,-0.11133 v -0.004 l -0.01,-0.0977 -0.006,-0.0977 -0.004,-0.0996 -0.002,-0.0898 a 0.1,0.1 0 0 0 -0.0996,-0.0996 z m 7.83789,0.78711 a 0.1,0.1 0 0 0 -0.11524,0.0801 l -0.043,0.18555 -0.0527,0.18359 -0.002,0.004 a 0.1,0.1 0 0 0 0.0625,0.12695 0.1,0.1 0 0 0 0.12695,-0.0625 l 0.004,-0.008 v -0.004 l 0.0547,-0.1875 v -0.006 l 0.0449,-0.18945 v -0.006 -0.002 a 0.1,0.1 0 0 0 -0.0801,-0.11523 z m -7.77735,0.01 a 0.1,0.1 0 0 0 -0.0762,0.12109 l 0.043,0.18164 0.002,0.006 0.0527,0.1875 0.002,0.004 0.004,0.0176 a 0.1,0.1 0 0 0 0.12695,0.0625 0.1,0.1 0 0 0 0.0625,-0.12695 l -0.004,-0.0137 -0.0527,-0.18359 -0.041,-0.17969 a 0.1,0.1 0 0 0 -0.11914,-0.0762 z m 7.48438,0.75781 a 0.1,0.1 0 0 0 -0.0547,0.0508 l -0.0703,0.1543 -0.084,0.16601 -0.0176,0.0312 a 0.1,0.1 0 0 0 0.0371,0.13672 0.1,0.1 0 0 0 0.13671,-0.0371 l 0.0176,-0.0332 0.002,-0.004 0.0879,-0.16992 0.002,-0.006 0.0703,-0.1543 a 0.1,0.1 0 0 0 -0.0488,-0.13281 0.1,0.1 0 0 0 -0.0781,-0.002 z m -7.18555,0.008 a 0.1,0.1 0 0 0 -0.0762,0.004 0.1,0.1 0 0 0 -0.0508,0.13086 l 0.0664,0.14648 0.002,0.006 0.0879,0.16992 0.002,0.004 0.0234,0.041 a 0.1,0.1 0 0 0 0.13672,0.0371 0.1,0.1 0 0 0 0.0371,-0.13672 l -0.0234,-0.0391 -0.084,-0.16601 -0.0664,-0.14453 a 0.1,0.1 0 0 0 -0.0547,-0.0527 z m 6.89063,0.70117 a 0.1,0.1 0 0 0 -0.13868,0.0234 l -0.0762,0.10742 -0.11328,0.14453 -0.0488,0.0566 a 0.1,0.1 0 0 0 0.01,0.14063 0.1,0.1 0 0 0 0.14062,-0.01 l 0.0508,-0.0586 0.002,-0.002 0.11719,-0.15039 0.004,-0.004 0.0781,-0.10742 a 0.1,0.1 0 0 0 -0.0254,-0.14063 z m -6.59375,0.008 a 0.1,0.1 0 0 0 -0.0234,0.14062 l 0.0703,0.0996 0.004,0.004 0.11719,0.15039 0.002,0.002 0.0566,0.0664 a 0.1,0.1 0 0 0 0.14258,0.01 0.1,0.1 0 0 0 0.01,-0.14062 l -0.0566,-0.0645 -0.11328,-0.14453 -0.0703,-0.0996 a 0.1,0.1 0 0 0 -0.13867,-0.0234 z m 6.01953,0.58007 a 0.1,0.1 0 0 0 -0.0723,0.0273 l -0.0645,0.0625 -0.14063,0.12109 -0.0898,0.0703 a 0.1,0.1 0 0 0 -0.0176,0.14063 0.1,0.1 0 0 0 0.14063,0.0176 l 0.0937,-0.0742 0.002,-0.002 0.14453,-0.125 0.004,-0.002 0.0664,-0.0644 a 0.1,0.1 0 0 0 0.004,-0.14063 0.1,0.1 0 0 0 -0.0703,-0.0312 z m -5.44336,0.006 a 0.1,0.1 0 0 0 -0.0703,0.0312 0.1,0.1 0 0 0 0.004,0.14258 l 0.0586,0.0566 0.004,0.002 0.14453,0.125 0.002,0.002 0.10156,0.0801 a 0.1,0.1 0 0 0 0.14062,-0.0176 0.1,0.1 0 0 0 -0.0176,-0.14063 l -0.0977,-0.0762 -0.14063,-0.12109 -0.0566,-0.0547 a 0.1,0.1 0 0 0 -0.0723,-0.0293 z m 4.75586,0.5 -0.041,0.0254 -0.16211,0.0937 -0.13867,0.0703 a 0.1,0.1 0 0 0 -0.043,0.13476 0.1,0.1 0 0 0 0.13477,0.043 l 0.14062,-0.0723 0.004,-0.002 0.16601,-0.0937 0.004,-0.004 0.043,-0.0274 a 0.1,0.1 0 0 0 0.0312,-0.13867 0.1,0.1 0 0 0 -0.13867,-0.0293 z m -4.06836,0.004 a 0.1,0.1 0 0 0 -0.13672,0.0312 0.1,0.1 0 0 0 0.0293,0.13867 l 0.0352,0.0215 0.004,0.004 0.16601,0.0937 0.004,0.002 0.14844,0.0762 a 0.1,0.1 0 0 0 0.13476,-0.043 0.1,0.1 0 0 0 -0.043,-0.13477 l -0.14649,-0.0742 -0.16211,-0.0937 z m 3.36914,0.33984 -0.0156,0.006 -0.17773,0.0606 -0.17773,0.0508 a 0.1,0.1 0 0 0 -0.0703,0.12305 0.1,0.1 0 0 0 0.125,0.0684 L 106,152.32227 h 0.004 l 0.18359,-0.0625 0.006,-0.002 0.0176,-0.008 a 0.1,0.1 0 0 0 0.0566,-0.12891 0.1,0.1 0 0 0 -0.13086,-0.0566 z m -2.66797,0.004 a 0.1,0.1 0 0 0 -0.13086,0.0566 0.1,0.1 0 0 0 0.0566,0.12891 l 0.008,0.004 0.006,0.002 0.1836,0.0625 h 0.004 l 0.1875,0.0547 h 0.006 0.002 a 0.1,0.1 0 0 0 0.11914,-0.0742 0.1,0.1 0 0 0 -0.0742,-0.11914 l -0.1836,-0.0527 -0.17773,-0.0606 z m 1.91406,0.19141 -0.0937,0.0137 -0.0977,0.0117 -0.0977,0.008 -0.0977,0.006 a 0.1,0.1 0 0 0 -0.0937,0.10547 0.1,0.1 0 0 0 0.10743,0.0937 l 0.0977,-0.006 h 0.004 l 0.0996,-0.01 h 0.002 l 0.0996,-0.01 0.002,-0.002 0.0996,-0.0137 h 0.004 a 0.1,0.1 0 0 0 0.082,-0.11523 0.1,0.1 0 0 0 -0.11719,-0.082 z m -1.16406,0.002 a 0.1,0.1 0 0 0 -0.11328,0.084 0.1,0.1 0 0 0 0.0859,0.11328 l 0.0898,0.0117 0.002,0.002 0.0996,0.01 h 0.002 l 0.0996,0.01 h 0.004 l 0.0996,0.006 h 0.004 l 0.008,0.002 a 0.1,0.1 0 0 0 0.10352,-0.0977 0.1,0.1 0 0 0 -0.0957,-0.10351 h -0.008 l -0.0977,-0.006 -0.0976,-0.008 -0.0977,-0.0117 z"
       id="path188-6-3-9-3" />
    <path
       style="stroke-linecap:round;stroke-linejoin:bevel;stroke-miterlimit:3.3;stroke-dasharray:0.1, 0.3;stroke-dashoffset:0.02"
       d="m 104.68164,143.95508 -0.0781,0.004 a 0.05,0.05 0 0 0 -0.0488,0.0508 0.05,0.05 0 0 0 0.0527,0.0488 l 0.0762,-0.004 h 0.0215 a 0.05,0.05 0 0 0 0.0508,-0.0508 0.05,0.05 0 0 0 -0.0508,-0.0488 z m 0.32617,0.004 a 0.05,0.05 0 0 0 -0.0527,0.0488 0.05,0.05 0 0 0 0.0488,0.0508 l 0.0195,0.002 0.0781,0.004 a 0.05,0.05 0 0 0 0.0527,-0.0469 0.05,0.05 0 0 0 -0.0469,-0.0527 l -0.0781,-0.004 z m -0.70703,0.0234 -0.0762,0.008 -0.0254,0.004 a 0.05,0.05 0 0 0 -0.041,0.0566 0.05,0.05 0 0 0 0.0566,0.043 l 0.0234,-0.004 0.0742,-0.01 a 0.05,0.05 0 0 0 0.043,-0.0547 0.05,0.05 0 0 0 -0.0547,-0.043 z m 1.10938,0.0137 a 0.05,0.05 0 0 0 -0.0566,0.043 0.05,0.05 0 0 0 0.043,0.0566 l 0.0723,0.01 0.0254,0.004 a 0.05,0.05 0 0 0 0.0586,-0.041 0.05,0.05 0 0 0 -0.043,-0.0586 l -0.0254,-0.004 h -0.002 z m -1.50782,0.0469 -0.01,0.002 h -0.002 l -0.0879,0.0195 a 0.05,0.05 0 0 0 -0.0391,0.0606 0.05,0.05 0 0 0 0.0605,0.0371 l 0.0859,-0.0176 0.01,-0.002 a 0.05,0.05 0 0 0 0.041,-0.0586 0.05,0.05 0 0 0 -0.0586,-0.041 z m 1.9043,0.0254 a 0.05,0.05 0 0 0 -0.0586,0.0371 0.05,0.05 0 0 0 0.0391,0.0606 h 0.004 l 0.0918,0.0234 a 0.05,0.05 0 0 0 0.0605,-0.0371 0.05,0.05 0 0 0 -0.0371,-0.0605 l -0.0918,-0.0215 v -0.002 z m -2.29687,0.0742 -0.0488,0.0137 h -0.002 l -0.0469,0.0156 a 0.05,0.05 0 0 0 -0.0312,0.0625 0.05,0.05 0 0 0 0.0625,0.0332 l 0.0469,-0.0156 0.0469,-0.0137 a 0.05,0.05 0 0 0 0.0332,-0.0625 0.05,0.05 0 0 0 -0.0605,-0.0332 z m 2.6875,0.0332 a 0.05,0.05 0 0 0 -0.0625,0.0332 0.05,0.05 0 0 0 0.0312,0.0625 l 0.043,0.0137 0.0508,0.0176 a 0.05,0.05 0 0 0 0.0644,-0.0293 0.05,0.05 0 0 0 -0.0312,-0.0645 l -0.0508,-0.0176 -0.002,-0.002 z m -3.07032,0.0996 -0.0801,0.0312 -0.002,0.002 -0.0117,0.006 a 0.05,0.05 0 0 0 -0.0254,0.0645 0.05,0.05 0 0 0 0.0664,0.0254 l 0.0117,-0.004 0.0781,-0.0332 a 0.05,0.05 0 0 0 0.0273,-0.0645 0.05,0.05 0 0 0 -0.0645,-0.0273 z m 3.41016,0.043 a 0.05,0.05 0 0 0 -0.0273,0.0273 0.05,0.05 0 0 0 0.0273,0.0645 l 0.0723,0.0332 0.0176,0.008 a 0.05,0.05 0 0 0 0.0664,-0.0234 0.05,0.05 0 0 0 -0.0254,-0.0664 l -0.0176,-0.01 h -0.002 l -0.0723,-0.0312 a 0.05,0.05 0 0 0 -0.0391,-0.002 z m -3.74023,0.12109 a 0.05,0.05 0 0 0 -0.0371,0.002 l -0.01,0.004 -0.002,0.002 -0.0781,0.041 a 0.05,0.05 0 0 0 -0.0215,0.0684 0.05,0.05 0 0 0 0.0684,0.0195 l 0.0781,-0.041 0.01,-0.004 a 0.05,0.05 0 0 0 0.0215,-0.0664 0.05,0.05 0 0 0 -0.0293,-0.0254 z m 4.10351,0.0527 a 0.05,0.05 0 0 0 -0.0293,0.0234 0.05,0.05 0 0 0 0.0215,0.0684 l 0.002,0.002 0.084,0.0469 a 0.05,0.05 0 0 0 0.0684,-0.0195 0.05,0.05 0 0 0 -0.0195,-0.0684 l -0.084,-0.0469 v -0.002 h -0.004 a 0.05,0.05 0 0 0 -0.0391,-0.004 z m -4.45508,0.14258 a 0.05,0.05 0 0 0 -0.0371,0.006 l -0.0351,0.0215 -0.002,0.002 -0.0488,0.0312 a 0.05,0.05 0 0 0 -0.0137,0.0703 0.05,0.05 0 0 0 0.0684,0.0137 l 0.0488,-0.0312 0.0352,-0.0215 a 0.05,0.05 0 0 0 0.0156,-0.0684 0.05,0.05 0 0 0 -0.0312,-0.0234 z m 4.80274,0.0625 a 0.05,0.05 0 0 0 -0.0312,0.0215 0.05,0.05 0 0 0 0.0137,0.0684 l 0.0273,0.0176 0.0547,0.0391 a 0.05,0.05 0 0 0 0.0703,-0.0137 0.05,0.05 0 0 0 -0.0137,-0.0684 l -0.0547,-0.0391 h -0.002 l -0.0273,-0.0176 a 0.05,0.05 0 0 0 -0.0371,-0.008 z m -5.17383,0.17382 -0.0547,0.043 -0.0254,0.0195 a 0.05,0.05 0 0 0 -0.006,0.0703 0.05,0.05 0 0 0 0.0703,0.008 l 0.0234,-0.0195 0.0527,-0.041 a 0.05,0.05 0 0 0 0.01,-0.0703 0.05,0.05 0 0 0 -0.0703,-0.01 z m 5.50195,0.0605 a 0.05,0.05 0 0 0 -0.0332,0.0195 0.05,0.05 0 0 0 0.008,0.0703 l 0.0469,0.0371 0.0293,0.0254 a 0.05,0.05 0 0 0 0.0703,-0.006 0.05,0.05 0 0 0 -0.006,-0.0703 l -0.0312,-0.0254 v -0.002 l -0.0469,-0.0371 a 0.05,0.05 0 0 0 -0.0371,-0.0117 z m -5.8125,0.19922 -0.0703,0.0664 -0.004,0.002 a 0.05,0.05 0 0 0 0,0.0723 0.05,0.05 0 0 0 0.0703,0 l 0.002,-0.002 0.0703,-0.0664 a 0.05,0.05 0 0 0 0.002,-0.0703 0.05,0.05 0 0 0 -0.0703,-0.002 z m 6.08203,0.0801 a 0.05,0.05 0 0 0 0,0.0703 l 0.0645,0.0625 0.008,0.008 a 0.05,0.05 0 0 0 0.0703,0 0.05,0.05 0 0 0 0,-0.0703 l -0.008,-0.008 -0.002,-0.002 -0.0625,-0.0605 a 0.05,0.05 0 0 0 -0.0703,0 z m -6.33203,0.18945 a 0.05,0.05 0 0 0 -0.0352,0.0156 l -0.0117,0.0117 v 0.002 l -0.0566,0.0625 a 0.05,0.05 0 0 0 0.006,0.0703 0.05,0.05 0 0 0 0.0703,-0.004 l 0.0547,-0.0625 0.01,-0.0117 a 0.05,0.05 0 0 0 -0.002,-0.0703 0.05,0.05 0 0 0 -0.0352,-0.0137 z m 6.61133,0.0977 a 0.05,0.05 0 0 0 -0.006,0.0703 l 0.006,0.006 0.0586,0.0703 a 0.05,0.05 0 0 0 0.0703,0.006 0.05,0.05 0 0 0 0.006,-0.0703 l -0.0586,-0.0703 -0.002,-0.002 -0.004,-0.006 a 0.05,0.05 0 0 0 -0.0703,-0.004 z m -6.83594,0.21875 a 0.05,0.05 0 0 0 -0.0703,0.01 l -0.0273,0.0352 -0.0332,0.0449 a 0.05,0.05 0 0 0 0.0117,0.0703 0.05,0.05 0 0 0 0.0703,-0.01 l 0.0312,-0.0449 0.0273,-0.0352 a 0.05,0.05 0 0 0 -0.01,-0.0703 z m 7.08789,0.0918 a 0.05,0.05 0 0 0 -0.0117,0.0703 l 0.0215,0.0273 0.0352,0.0527 a 0.05,0.05 0 0 0 0.0703,0.0137 0.05,0.05 0 0 0 0.0117,-0.0703 l -0.0352,-0.0527 h -0.002 l -0.0215,-0.0293 a 0.05,0.05 0 0 0 -0.0684,-0.0117 z m -7.35742,0.22852 a 0.05,0.05 0 0 0 -0.0312,0.0215 l -0.0391,0.0625 -0.0137,0.0234 a 0.05,0.05 0 0 0 0.0176,0.0684 0.05,0.05 0 0 0 0.0683,-0.0176 l 0.0137,-0.0234 0.0371,-0.0605 a 0.05,0.05 0 0 0 -0.0156,-0.0684 0.05,0.05 0 0 0 -0.0371,-0.006 z m 7.58008,0.10351 a 0.05,0.05 0 0 0 -0.0176,0.0684 l 0.0332,0.0547 0.0156,0.0312 a 0.05,0.05 0 0 0 0.0684,0.0176 0.05,0.05 0 0 0 0.0195,-0.0664 l -0.0176,-0.0312 v -0.002 l -0.0332,-0.0547 a 0.05,0.05 0 0 0 -0.0684,-0.0176 z m -7.7832,0.24415 a 0.05,0.05 0 0 0 -0.0293,0.0254 l -0.043,0.0898 a 0.05,0.05 0 0 0 0.0215,0.0664 0.05,0.05 0 0 0 0.0664,-0.0215 l 0.0449,-0.0898 a 0.05,0.05 0 0 0 -0.0215,-0.0664 0.05,0.05 0 0 0 -0.0391,-0.004 z m 8.01562,0.10351 a 0.05,0.05 0 0 0 -0.0391,0.002 0.05,0.05 0 0 0 -0.0234,0.0664 l 0.0391,0.0859 0.002,0.004 a 0.05,0.05 0 0 0 0.0664,0.0254 0.05,0.05 0 0 0 0.0254,-0.0664 l -0.002,-0.002 v -0.002 l -0.041,-0.0879 a 0.05,0.05 0 0 0 -0.0273,-0.0254 z m -8.14648,0.26172 a 0.05,0.05 0 0 0 -0.0645,0.0273 l -0.0117,0.0254 v 0.002 l -0.0254,0.0684 a 0.05,0.05 0 0 0 0.0293,0.0644 0.05,0.05 0 0 0 0.0644,-0.0293 l 0.0254,-0.0684 0.01,-0.0234 a 0.05,0.05 0 0 0 -0.0273,-0.0664 z m 8.26758,0.10742 a 0.05,0.05 0 0 0 -0.0293,0.0645 l 0.008,0.0195 0.0254,0.0723 a 0.05,0.05 0 0 0 0.0644,0.0312 0.05,0.05 0 0 0 0.0293,-0.0644 l -0.0254,-0.0723 v -0.002 l -0.008,-0.0195 a 0.05,0.05 0 0 0 -0.0644,-0.0293 z m -8.4043,0.26953 a 0.05,0.05 0 0 0 -0.0625,0.0332 l -0.0176,0.0605 v 0.002 l -0.01,0.0352 a 0.05,0.05 0 0 0 0.0352,0.0606 0.05,0.05 0 0 0 0.0625,-0.0352 l 0.008,-0.0332 0.0195,-0.0625 a 0.05,0.05 0 0 0 -0.0352,-0.0606 z m 8.53125,0.10938 a 0.05,0.05 0 0 0 -0.0352,0.0605 l 0.0137,0.0586 0.01,0.0371 a 0.05,0.05 0 0 0 0.0606,0.0371 0.05,0.05 0 0 0 0.0371,-0.0606 l -0.01,-0.0391 v -0.002 l -0.0156,-0.0566 a 0.05,0.05 0 0 0 -0.0606,-0.0351 z m -8.63281,0.27734 a 0.05,0.05 0 0 0 -0.0586,0.0391 l -0.0195,0.0977 a 0.05,0.05 0 0 0 0.041,0.0586 0.05,0.05 0 0 0 0.0566,-0.0391 l 0.0195,-0.0996 a 0.05,0.05 0 0 0 -0.0391,-0.0566 z m 8.72461,0.11133 a 0.05,0.05 0 0 0 -0.041,0.0586 l 0.0156,0.0977 a 0.05,0.05 0 0 0 0.0586,0.041 0.05,0.05 0 0 0 0.041,-0.0566 l -0.0176,-0.0996 a 0.05,0.05 0 0 0 -0.0566,-0.041 z m -8.79102,0.28125 a 0.05,0.05 0 0 0 -0.0547,0.0449 l -0.006,0.043 -0.004,0.0586 a 0.05,0.05 0 0 0 0.0449,0.0527 0.05,0.05 0 0 0 0.0547,-0.0449 l 0.004,-0.0566 0.006,-0.041 a 0.05,0.05 0 0 0 -0.0449,-0.0566 z m 8.8457,0.11523 a 0.05,0.05 0 0 0 -0.0449,0.0547 l 0.004,0.0391 0.004,0.0586 a 0.05,0.05 0 0 0 0.0527,0.0469 0.05,0.05 0 0 0 0.0469,-0.0527 l -0.004,-0.0586 v -0.002 l -0.004,-0.041 a 0.05,0.05 0 0 0 -0.0547,-0.0449 z m -8.87695,0.28516 a 0.05,0.05 0 0 0 -0.0508,0.0488 v 0.0977 0.002 0.002 a 0.05,0.05 0 0 0 0.0488,0.0488 0.05,0.05 0 0 0 0.0508,-0.0508 v -0.0977 a 0.05,0.05 0 0 0 -0.0488,-0.0508 z m 8.89844,0.0977 a 0.05,0.05 0 0 0 -0.0508,0.0488 v 0.0801 a 0.05,0.05 0 0 0 0.0488,0.0508 0.05,0.05 0 0 0 0.0508,-0.0488 l 0.002,-0.0801 a 0.05,0.05 0 0 0 -0.0508,-0.0508 z m -8.89258,0.30078 a 0.05,0.05 0 0 0 -0.0469,0.0527 l 0.002,0.041 v 0.002 l 0.006,0.0586 a 0.05,0.05 0 0 0 0.0547,0.0449 0.05,0.05 0 0 0 0.0449,-0.0527 l -0.006,-0.0586 -0.002,-0.041 a 0.05,0.05 0 0 0 -0.0527,-0.0469 z m 8.88086,0.0781 a 0.05,0.05 0 0 0 -0.0547,0.0469 l -0.006,0.0742 -0.004,0.0234 a 0.05,0.05 0 0 0 0.0449,0.0547 0.05,0.05 0 0 0 0.0547,-0.043 l 0.004,-0.0254 0.006,-0.0762 a 0.05,0.05 0 0 0 -0.0449,-0.0547 z m -8.8418,0.32032 a 0.05,0.05 0 0 0 -0.041,0.0586 l 0.0137,0.0879 0.002,0.002 0.002,0.01 a 0.05,0.05 0 0 0 0.0566,0.0391 0.05,0.05 0 0 0 0.041,-0.0586 l -0.002,-0.01 -0.0156,-0.0879 a 0.05,0.05 0 0 0 -0.0566,-0.041 z m 8.79492,0.0781 a 0.05,0.05 0 0 0 -0.0586,0.041 l -0.002,0.01 -0.0156,0.0859 a 0.05,0.05 0 0 0 0.0391,0.0586 0.05,0.05 0 0 0 0.0586,-0.0391 l 0.0156,-0.0859 0.002,-0.002 0.002,-0.0117 a 0.05,0.05 0 0 0 -0.041,-0.0566 z m -8.71875,0.31445 a 0.05,0.05 0 0 0 -0.0371,0.0605 l 0.006,0.0215 v 0.002 l 0.0215,0.0742 a 0.05,0.05 0 0 0 0.0605,0.0351 0.05,0.05 0 0 0 0.0352,-0.0605 l -0.0195,-0.0742 -0.006,-0.0215 a 0.05,0.05 0 0 0 -0.0606,-0.0371 z m 8.63477,0.0762 a 0.05,0.05 0 0 0 -0.0605,0.0351 l -0.0137,0.0508 -0.0137,0.0449 a 0.05,0.05 0 0 0 0.0332,0.0605 0.05,0.05 0 0 0 0.0625,-0.0332 l 0.0137,-0.043 v -0.002 l 0.0137,-0.0527 a 0.05,0.05 0 0 0 -0.0352,-0.0605 z m -8.52344,0.30859 a 0.05,0.05 0 0 0 -0.0312,0.0625 l 0.0195,0.0566 v 0.002 l 0.0156,0.0371 a 0.05,0.05 0 0 0 0.0645,0.0293 0.05,0.05 0 0 0 0.0293,-0.0645 l -0.0156,-0.0371 -0.0195,-0.0566 a 0.05,0.05 0 0 0 -0.0625,-0.0293 z m 8.36914,0.0742 a 0.05,0.05 0 0 0 -0.0273,0.0293 l -0.0312,0.084 -0.004,0.008 a 0.05,0.05 0 0 0 0.0273,0.0645 0.05,0.05 0 0 0 0.0664,-0.0273 l 0.004,-0.008 v -0.002 l 0.0312,-0.084 a 0.05,0.05 0 0 0 -0.0293,-0.0644 0.05,0.05 0 0 0 -0.0371,0 z m -8.1875,0.29687 a 0.05,0.05 0 0 0 -0.0371,0.002 0.05,0.05 0 0 0 -0.0254,0.0664 l 0.041,0.084 v 0.002 l 0.002,0.006 a 0.05,0.05 0 0 0 0.0684,0.0215 0.05,0.05 0 0 0 0.0215,-0.0664 l -0.002,-0.006 -0.0391,-0.084 a 0.05,0.05 0 0 0 -0.0293,-0.0254 z m 8.03516,0.0703 a 0.05,0.05 0 0 0 -0.0293,0.0254 l -0.006,0.0137 -0.0371,0.0762 a 0.05,0.05 0 0 0 0.0234,0.0664 0.05,0.05 0 0 0 0.0664,-0.0215 l 0.0371,-0.0762 v -0.002 l 0.008,-0.0137 a 0.05,0.05 0 0 0 -0.0254,-0.0664 0.05,0.05 0 0 0 -0.0371,-0.002 z m -7.89453,0.28906 a 0.05,0.05 0 0 0 -0.0195,0.0684 l 0.01,0.0137 v 0.002 l 0.043,0.0703 a 0.05,0.05 0 0 0 0.0684,0.0176 0.05,0.05 0 0 0 0.0176,-0.0684 l -0.043,-0.0703 -0.008,-0.0137 a 0.05,0.05 0 0 0 -0.0684,-0.0195 z m 7.71093,0.0625 a 0.05,0.05 0 0 0 -0.0312,0.0234 l -0.0234,0.0391 -0.0274,0.0449 a 0.05,0.05 0 0 0 0.0156,0.0684 0.05,0.05 0 0 0 0.0684,-0.0156 l 0.0293,-0.0449 v -0.002 l 0.0234,-0.0391 a 0.05,0.05 0 0 0 -0.0176,-0.0684 0.05,0.05 0 0 0 -0.0371,-0.006 z m -7.46289,0.26953 a 0.05,0.05 0 0 0 -0.0371,0.008 0.05,0.05 0 0 0 -0.0137,0.0703 l 0.0254,0.0371 0.002,0.002 0.0312,0.043 a 0.05,0.05 0 0 0 0.0703,0.0117 0.05,0.05 0 0 0 0.0117,-0.0703 l -0.0332,-0.043 -0.0254,-0.0371 a 0.05,0.05 0 0 0 -0.0312,-0.0215 z m 7.28516,0.0723 a 0.05,0.05 0 0 0 -0.0703,0.0117 l -0.043,0.0586 -0.0156,0.0215 a 0.05,0.05 0 0 0 0.01,0.0684 0.05,0.05 0 0 0 0.0703,-0.008 l 0.0156,-0.0215 0.043,-0.0605 a 0.05,0.05 0 0 0 -0.01,-0.0703 z m -7.08398,0.25586 a 0.05,0.05 0 0 0 -0.006,0.0703 l 0.0469,0.0566 0.002,0.002 0.0176,0.0195 a 0.05,0.05 0 0 0 0.0703,0.004 0.05,0.05 0 0 0 0.004,-0.0703 l -0.0176,-0.0195 -0.0469,-0.0566 a 0.05,0.05 0 0 0 -0.0703,-0.006 z m 6.83984,0.0606 a 0.05,0.05 0 0 0 -0.0703,0.004 l -0.0664,0.0762 a 0.05,0.05 0 0 0 0.004,0.0703 0.05,0.05 0 0 0 0.0703,-0.004 l 0.0664,-0.0762 a 0.05,0.05 0 0 0 -0.004,-0.0703 z m -6.57422,0.23828 a 0.05,0.05 0 0 0 0.002,0.0703 l 0.0723,0.0703 a 0.05,0.05 0 0 0 0.0703,0 0.05,0.05 0 0 0 -0.002,-0.0723 l -0.0703,-0.0684 a 0.05,0.05 0 0 0 -0.0723,0 z m 6.26563,0.0391 a 0.05,0.05 0 0 0 -0.0352,0.0156 l -0.0156,0.0137 -0.0566,0.0527 a 0.05,0.05 0 0 0 -0.002,0.0703 0.05,0.05 0 0 0 0.0703,0.004 l 0.0566,-0.0527 v -0.002 l 0.0176,-0.0156 a 0.05,0.05 0 0 0 0,-0.0703 0.05,0.05 0 0 0 -0.0352,-0.0156 z m -5.9375,0.21485 a 0.05,0.05 0 0 0 -0.0332,0.0176 0.05,0.05 0 0 0 0.006,0.0703 l 0.0156,0.0137 v 0.002 l 0.0625,0.0488 a 0.05,0.05 0 0 0 0.0703,-0.008 0.05,0.05 0 0 0 -0.008,-0.0703 l -0.0606,-0.0488 -0.0156,-0.0137 a 0.05,0.05 0 0 0 -0.0371,-0.0117 z m 5.60546,0.0606 -0.0391,0.0312 -0.0391,0.0293 a 0.05,0.05 0 0 0 -0.01,0.0703 0.05,0.05 0 0 0 0.0703,0.01 l 0.041,-0.0312 0.0391,-0.0312 a 0.05,0.05 0 0 0 0.008,-0.0703 0.05,0.05 0 0 0 -0.0703,-0.008 z m -5.29101,0.18164 a 0.05,0.05 0 0 0 -0.0332,0.0215 0.05,0.05 0 0 0 0.0137,0.0703 l 0.0391,0.0274 h 0.002 l 0.041,0.0293 a 0.05,0.05 0 0 0 0.0703,-0.0156 0.05,0.05 0 0 0 -0.0137,-0.0684 l -0.043,-0.0273 -0.0391,-0.0274 a 0.05,0.05 0 0 0 -0.0371,-0.01 z m 4.97266,0.0527 -0.0645,0.041 -0.0195,0.0117 a 0.05,0.05 0 0 0 -0.0156,0.0703 0.05,0.05 0 0 0 0.0684,0.0156 l 0.0195,-0.0117 0.002,-0.002 0.0645,-0.043 a 0.05,0.05 0 0 0 0.0137,-0.0684 0.05,0.05 0 0 0 -0.0683,-0.0137 z m -4.63868,0.16211 a 0.05,0.05 0 0 0 -0.0312,0.0234 0.05,0.05 0 0 0 0.0195,0.0684 l 0.0684,0.0371 0.002,0.002 0.0176,0.01 a 0.05,0.05 0 0 0 0.0683,-0.0215 0.05,0.05 0 0 0 -0.0215,-0.0684 l -0.0176,-0.01 -0.0684,-0.0371 a 0.05,0.05 0 0 0 -0.0371,-0.004 z m 4.30078,0.041 -0.0898,0.0469 a 0.05,0.05 0 0 0 -0.0195,0.0684 0.05,0.05 0 0 0 0.0664,0.0195 l 0.0879,-0.0449 a 0.05,0.05 0 0 0 0.0215,-0.0684 0.05,0.05 0 0 0 -0.0664,-0.0215 z m -3.94921,0.14062 a 0.05,0.05 0 0 0 -0.0273,0.0254 0.05,0.05 0 0 0 0.0234,0.0664 l 0.002,0.002 h 0.002 l 0.0898,0.0391 a 0.05,0.05 0 0 0 0.0645,-0.0254 0.05,0.05 0 0 0 -0.0254,-0.0664 l -0.0898,-0.0391 a 0.05,0.05 0 0 0 -0.0391,-0.002 z m 3.63086,0.0312 a 0.05,0.05 0 0 0 -0.0391,0.002 l -0.0293,0.0117 -0.0625,0.0254 a 0.05,0.05 0 0 0 -0.0273,0.0664 0.05,0.05 0 0 0 0.0664,0.0273 l 0.0625,-0.0254 0.002,-0.002 0.0293,-0.0117 a 0.05,0.05 0 0 0 0.0254,-0.0664 0.05,0.05 0 0 0 -0.0273,-0.0273 z m -3.22461,0.11719 a 0.05,0.05 0 0 0 -0.0645,0.0312 0.05,0.05 0 0 0 0.0312,0.0625 l 0.0332,0.0117 0.002,0.002 0.0606,0.0195 a 0.05,0.05 0 0 0 0.0625,-0.0332 0.05,0.05 0 0 0 -0.0312,-0.0625 l -0.0606,-0.0195 z m 2.8164,0.0234 -0.0645,0.0215 -0.0293,0.01 a 0.05,0.05 0 0 0 -0.0332,0.0625 0.05,0.05 0 0 0 0.0606,0.0332 l 0.0312,-0.01 h 0.002 l 0.0645,-0.0215 a 0.05,0.05 0 0 0 0.0312,-0.0625 0.05,0.05 0 0 0 -0.0625,-0.0332 z m -2.43945,0.0898 a 0.05,0.05 0 0 0 -0.0586,0.0352 0.05,0.05 0 0 0 0.0352,0.0605 l 0.0742,0.0176 0.002,0.002 0.0234,0.004 a 0.05,0.05 0 0 0 0.0586,-0.0371 0.05,0.05 0 0 0 -0.0371,-0.0605 l -0.0234,-0.004 z m 2.05859,0.0176 -0.0977,0.0215 a 0.05,0.05 0 0 0 -0.0371,0.0586 0.05,0.05 0 0 0 0.0586,0.0391 l 0.0977,-0.0215 a 0.05,0.05 0 0 0 0.0391,-0.0605 0.05,0.05 0 0 0 -0.0605,-0.0371 z m -1.66992,0.0605 a 0.05,0.05 0 0 0 -0.0566,0.041 0.05,0.05 0 0 0 0.041,0.0566 l 0.008,0.002 h 0.002 l 0.0898,0.0117 a 0.05,0.05 0 0 0 0.0566,-0.041 0.05,0.05 0 0 0 -0.043,-0.0566 l -0.0899,-0.0137 z m 1.28125,0.01 -0.043,0.006 -0.0547,0.008 a 0.05,0.05 0 0 0 -0.0449,0.0547 0.05,0.05 0 0 0 0.0547,0.043 l 0.0586,-0.006 0.043,-0.006 a 0.05,0.05 0 0 0 0.043,-0.0566 0.05,0.05 0 0 0 -0.0566,-0.043 z m -0.88867,0.0312 a 0.05,0.05 0 0 0 -0.0527,0.0469 0.05,0.05 0 0 0 0.0469,0.0547 l 0.0606,0.004 h 0.041 a 0.05,0.05 0 0 0 0.0508,-0.0469 0.05,0.05 0 0 0 -0.0469,-0.0527 l -0.0391,-0.002 z m 0.49414,0.006 -0.0937,0.004 h -0.004 a 0.05,0.05 0 0 0 -0.0488,0.0508 0.05,0.05 0 0 0 0.0508,0.0488 h 0.004 l 0.0957,-0.004 a 0.05,0.05 0 0 0 0.0488,-0.0527 0.05,0.05 0 0 0 -0.0527,-0.0469 z"
       id="path188-6-3-3-1-7" />
  </g>
</svg>
