<?xml version="1.0" encoding="UTF-8" standalone="no"?>
<!-- Generator: Adobe Illustrator 25.2.3, SVG Export Plug-In . SVG Version: 6.00 Build 0)  -->

<svg
   version="1.0"
   id="svg113936"
   x="0px"
   y="0px"
   width="14mm"
   height="14mm"
   viewBox="0 0 52.913388 52.913385"
   enable-background="new 0 0 73.7008 73.70403"
   xml:space="preserve"
   sodipodi:docname="MediumKnob.svg"
   inkscape:version="1.4 (e7c3feb1, 2024-10-09)"
   xmlns:inkscape="http://www.inkscape.org/namespaces/inkscape"
   xmlns:sodipodi="http://sodipodi.sourceforge.net/DTD/sodipodi-0.dtd"
   xmlns="http://www.w3.org/2000/svg"
   xmlns:svg="http://www.w3.org/2000/svg"><defs
   id="defs4" />
<sodipodi:namedview
   bordercolor="#666666"
   borderopacity="1.0"
   fit-margin-bottom="0"
   fit-margin-left="0"
   fit-margin-right="0"
   fit-margin-top="0"
   id="base"
   inkscape:current-layer="svg113936"
   inkscape:cx="7.7314733"
   inkscape:cy="27.721401"
   inkscape:document-units="mm"
   inkscape:pageopacity="0.0"
   inkscape:pageshadow="2"
   inkscape:window-height="1302"
   inkscape:window-maximized="0"
   inkscape:window-width="2560"
   inkscape:window-x="0"
   inkscape:window-y="25"
   inkscape:zoom="9.8299505"
   pagecolor="#ffffff"
   showgrid="false"
   inkscape:showpageshadow="2"
   inkscape:pagecheckerboard="0"
   inkscape:deskcolor="#d1d1d1">
	</sodipodi:namedview>
<path
   opacity="0.38"
   fill="#CCCCCC"
   enable-background="new    "
   d="m 26.479507,0 v 2.0451006 c 1.288128,0.00147 2.553747,0.1047644 3.787524,0.3005175 0.466779,0.074267 0.862603,0.3629818 1.13208,0.7510517 2.23478,3.2196311 6.147926,5.1174198 10.05823,4.8769075 0.53078,-0.032466 1.063652,0.1106654 1.455916,0.4694679 1.813745,1.6604738 3.377314,3.5899888 4.622156,5.7285438 0.271386,0.466271 0.293828,1.026243 0.13993,1.543413 -1.135402,3.814765 -0.122896,8.132202 2.603055,11.03852 0.328321,0.349949 0.528939,0.807861 0.49777,1.286917 -0.164523,2.529569 -0.711606,4.953396 -1.588962,7.212691 -0.17682,0.455198 -0.562322,0.786459 -1.01896,0.960082 -3.828354,1.456115 -6.676736,5.0434 -7.224175,9.103102 -0.06524,0.484467 -0.300163,0.935494 -0.703178,1.211914 -1.961487,1.346184 -4.12888,2.410541 -6.44433,3.1402 -0.528261,0.16625 -1.093905,0.05533 -1.571258,-0.22526 -3.501076,-2.059362 -8.036362,-2.059362 -11.537444,0 -0.477354,0.2806 -1.042998,0.391513 -1.571259,0.22526 C 16.80135,48.939262 14.634387,47.87466 12.674682,46.528721 12.271726,46.251808 12.036861,45.800788 11.971258,45.316314 11.42185,41.256612 8.5734084,37.669082 4.7471412,36.213212 4.2906908,36.039589 3.9053801,35.708575 3.7286746,35.253375 2.8511908,32.99408 2.3038692,30.570008 2.1375585,28.040439 2.1060165,27.561383 2.3064545,27.103471 2.6347687,26.753522 5.3609232,23.847194 6.3753881,19.529767 5.2382636,15.715002 5.0841282,15.197824 5.1064466,14.637607 5.3778902,14.171589 6.6226073,12.033288 8.1860559,10.103526 9.9996219,8.4435368 10.392065,8.0842436 10.925183,7.941112 11.456335,7.9735773 15.368183,8.2140896 19.279539,6.3163009 21.514131,3.0966698 21.78355,2.7085999 22.179561,2.4198851 22.646339,2.3458641 23.881279,2.1498657 25.145556,2.046576 26.433806,2.0451006 V 0 C 11.832317,0.01229456 0,11.853511 0,26.455217 c 0,14.611544 11.844739,26.458168 26.456628,26.458168 14.612019,0 26.456756,-11.846624 26.456756,-26.458168 C 52.913391,11.853757 41.080883,0.01229456 26.479507,0 Z"
   id="path1"
   style="display:inline;fill:#000000;stroke-width:0.999995" />
<g
   id="path109720_13_"
   inkscape:connector-curvature="0"
   opacity="0.32"
   enable-background="new    "
   style="display:inline;fill:#000000;stroke-width:1.34204"
   transform="matrix(0.74515223,0,0,0.74512799,-1.0025055,-1.0030764)">
	<g
   id="g2"
   style="fill:#000000;stroke-width:1.34204">
		<path
   fill="#9C9C9C"
   d="m 36.8503,4.83974 c 1.66313,0 3.34405,0.13297 4.99605,0.39525 0.39013,0.06194 0.75264,0.30876 1.02075,0.69498 2.95208,4.25276 8.01755,6.89462 13.21965,6.89462 0.31313,0 0.62713,-0.0096 0.94068,-0.02884 0.05012,-0.0031 0.10022,-0.0046 0.15026,-0.0046 0.49721,0 0.94155,0.15609 1.25117,0.43951 2.39853,2.19571 4.4378,4.72307 6.06118,7.51188 0.23798,0.40881 0.2796,0.93442 0.11721,1.48001 -1.59678,5.3646 -0.15816,11.46488 3.66505,15.54117 0.32716,0.34882 0.4929,0.76273 0.46671,1.16548 -0.21221,3.26211 -0.91309,6.44384 -2.08313,9.45682 -0.14799,0.38105 -0.48003,0.6862 -0.93497,0.85923 -5.4063,2.0561 -9.39885,7.08731 -10.1715,12.81761 -0.06511,0.48289 -0.28701,0.87652 -0.62482,1.10837 -2.60117,1.78527 -5.44394,3.17049 -8.44934,4.11716 -0.14761,0.0465 -0.30387,0.07007 -0.46445,0.07007 -0.34162,0 -0.70075,-0.10503 -1.03856,-0.30372 -2.42047,-1.4237 -5.22897,-2.17622 -8.12189,-2.17622 -2.89293,0 -5.70145,0.75253 -8.12191,2.17622 -0.33782,0.1987 -0.69696,0.30372 -1.03858,0.30372 -0.16059,0 -0.31685,-0.02357 -0.46445,-0.07007 C 24.2192,66.34142 21.37759,64.95641 18.77949,63.17179 18.4416,62.9397 18.2195,62.54574 18.15411,62.0625 17.37868,56.3324 13.38618,51.30132 7.98274,49.24523 7.52809,49.07223 7.19625,48.76723 7.04837,48.38642 5.87889,45.37513 5.17704,42.19307 4.96233,38.92863 4.93585,38.526 5.10133,38.1123 5.42829,37.76373 9.2537,33.68546 10.69253,27.58504 9.09388,22.22218 8.93126,21.67666 8.97275,21.1511 9.21071,20.74231 c 1.62328,-2.7886 3.66239,-5.31578 6.06067,-7.51131 0.30988,-0.28368 0.75455,-0.43991 1.25213,-0.43989 0.05002,0 0.10023,0.0016 0.1503,0.0046 0.31398,0.0193 0.62741,0.02883 0.94097,0.02883 5.20184,0 10.26699,-2.64188 13.2188,-6.89465 0.268,-0.38612 0.63055,-0.63287 1.02088,-0.69482 1.65359,-0.26235 3.33444,-0.39538 4.99584,-0.39538 m 0,-0.75 c -1.73971,0 -3.44623,0.14014 -5.11338,0.40466 -0.62642,0.0994 -1.15783,0.48685 -1.51948,1.0079 -2.82817,4.07466 -7.65843,6.5723 -12.60267,6.5723 -0.29822,0 -0.59631,-0.0091 -0.89495,-0.02742 -0.06543,-0.004 -0.13099,-0.0061 -0.19632,-0.0061 -0.64631,-2e-5 -1.28018,0.19875 -1.75856,0.63669 -2.43383,2.22808 -4.53194,4.81752 -6.20242,7.6872 -0.36427,0.62577 -0.39424,1.37756 -0.18739,2.07144 1.52604,5.1193 0.16468,10.91381 -3.49387,14.81419 -0.44063,0.46975 -0.70959,1.08454 -0.66732,1.72722 0.22328,3.39472 0.95774,6.64802 2.13529,9.68009 0.23724,0.61089 0.75427,1.05519 1.36677,1.28826 5.13497,1.95393 8.95757,6.76854 9.69487,12.21688 0.08797,0.65009 0.40323,1.25549 0.94397,1.62692 2.62993,1.80648 5.53805,3.23496 8.64523,4.2137 0.22663,0.07139 0.4584,0.10472 0.68978,0.10472 0.49236,0 0.983,-0.15092 1.41881,-0.40725 2.34924,-1.38179 5.04546,-2.07269 7.74168,-2.07269 2.69622,0 5.39243,0.6909 7.74165,2.07269 0.43576,0.25631 0.92649,0.40726 1.4188,0.40726 0.23143,0 0.46311,-0.03332 0.68978,-0.10472 3.10745,-0.97882 6.01605,-2.40746 8.64842,-4.21414 0.5408,-0.37117 0.85604,-0.97651 0.94368,-1.62653 0.73463,-5.44831 4.55719,-10.26288 9.69484,-12.21681 0.61283,-0.23308 1.13014,-0.67755 1.36749,-1.28874 1.17741,-3.03192 1.91159,-6.28508 2.13242,-9.67963 0.04182,-0.64275 -0.22744,-1.25743 -0.66807,-1.72724 -3.6582,-3.90036 -5.01703,-9.69485 -3.49327,-14.81414 0.20654,-0.6939 0.17637,-1.44558 -0.18786,-2.07128 -1.67059,-2.86992 -3.76889,-5.45955 -6.20294,-7.68777 -0.47809,-0.43765 -1.1117,-0.63631 -1.7576,-0.63631 -0.06538,0 -0.13084,0.002 -0.19633,0.0061 -0.29818,0.01834 -0.59681,0.02742 -0.8946,0.02742 -4.94291,0 -9.7749,-2.49738 -12.60355,-6.5723 C 43.12151,4.98127 42.59037,4.59373 41.96393,4.49428 40.29828,4.22983 38.58971,4.08974 36.8503,4.08974 Z"
   id="path2"
   style="fill:#000000;stroke-width:1.34204" />
	</g>
</g>
<g
   id="path109720_1_"
   inkscape:connector-curvature="0"
   opacity="0.6"
   style="opacity:0.597;stroke-width:1.34204"
   transform="matrix(0.74515223,0,0,0.74512799,-1.0025055,-1.0030764)">
	<path
   fill="#ffffff"
   d="m 36.8504,8.49432 c 1.00917,0 2.0306,0.05545 3.03596,0.16502 1.0237,0.11155 2.01054,0.68385 2.77869,1.6116 2.77718,3.35488 7.02839,5.35757 11.37198,5.35757 0.11558,0 0.23185,-0.0013 0.34755,-0.0043 l 0.07016,-9.9e-4 c 0.75684,0 1.48078,0.29803 2.03858,0.83897 1.66045,1.60961 3.11795,3.41527 4.33206,5.36714 0.42156,0.67758 0.552,1.4974 0.35788,2.24957 -1.18121,4.57669 -0.0088,9.65043 3.05957,13.24162 0.51812,0.60629 0.75951,1.38848 0.67967,2.20204 -0.21066,2.14725 -0.66622,4.26315 -1.35403,6.28862 -0.30397,0.89507 -0.99934,1.63305 -1.95789,2.07761 -4.22021,1.95682 -7.38781,6.00544 -8.2667,10.56596 -0.17115,0.88814 -0.66227,1.62942 -1.38305,2.08652 -1.82386,1.15779 -3.78186,2.10468 -5.8197,2.81394 -0.31301,0.10891 -0.63837,0.16403 -0.96706,0.16403 -0.47469,0 -0.94546,-0.11816 -1.36161,-0.34193 -2.10332,-1.13039 -4.51068,-1.7281 -6.96183,-1.7281 -2.4514,0 -4.85895,0.59771 -6.96232,1.72843 -0.41595,0.22344 -0.8867,0.34159 -1.36135,0.34159 -0.32877,0 -0.65417,-0.05512 -0.96729,-0.16403 -2.03706,-0.70926 -3.99376,-1.65516 -5.8159,-2.81229 -0.72121,-0.4581 -1.21302,-1.20004 -1.38485,-2.08917 -0.88104,-4.56019 -4.04855,-8.60848 -8.26623,-10.56497 -0.95811,-0.44456 -1.65313,-1.18221 -1.95704,-2.07695 -0.68788,-2.02481 -1.14419,-4.1417 -1.35626,-6.29126 -0.07903,-0.80101 0.16818,-1.60301 0.6783,-2.19973 3.07036,-3.59251 4.24309,-8.66657 3.06051,-13.24227 -0.19437,-0.75183 -0.06407,-1.57199 0.35756,-2.24957 1.2137,-1.95121 2.67092,-3.75687 4.33102,-5.36648 0.55833,-0.54127 1.28287,-0.8393 2.04019,-0.8393 l 0.07022,9.9e-4 c 0.11597,0.003 0.23172,0.0043 0.3476,0.0043 4.34359,0 8.59449,-2.00303 11.37114,-5.35757 C 31.80366,9.34318 32.79027,8.77122 33.814,8.65966 34.82155,8.5501 35.84316,8.49432 36.8504,8.49432 m 0,-1.01389 c -1.06318,0 -2.11249,0.05875 -3.14615,0.17129 -1.37017,0.14918 -2.57056,0.91092 -3.44937,1.97266 -2.57875,3.1156 -6.54152,4.99023 -10.59009,4.99023 -0.10755,0 -0.215,-0.0013 -0.32265,-0.004 -0.03175,-6.6e-4 -0.0635,-0.0013 -0.09516,-0.0013 -1.02675,0 -2.0065,0.40859 -2.74582,1.12511 -1.71115,1.65912 -3.22107,3.52485 -4.48633,5.5589 -0.56543,0.90894 -0.74612,2.00269 -0.47824,3.03903 1.10226,4.2648 0.01335,8.97978 -2.84964,12.32971 -0.69958,0.8185 -1.02224,1.88652 -0.91655,2.95817 0.22279,2.25814 0.6998,4.44104 1.40525,6.51767 0.40924,1.20498 1.336,2.13504 2.49025,2.6707 3.93764,1.82645 6.87302,5.56979 7.69756,9.83756 0.21881,1.13237 0.86325,2.13438 1.83687,2.75255 1.87459,1.19046 3.89437,2.17201 6.02606,2.91394 0.42289,0.1472 0.86261,0.22047 1.30057,0.22047 0.63606,0 1.26853,-0.15446 1.84134,-0.46239 1.99358,-1.07165 4.23808,-1.60764 6.48234,-1.60764 2.24425,0 4.48824,0.53566 6.48182,1.60731 0.57284,0.30793 1.20553,0.46272 1.84161,0.46272 0.43798,0 0.87752,-0.07327 1.30042,-0.22047 2.13252,-0.74226 4.1533,-1.72414 6.02972,-2.91526 0.97309,-0.61751 1.61716,-1.61885 1.83526,-2.7509 0.82247,-4.26777 3.75792,-8.01111 7.69762,-9.83789 1.15482,-0.53566 2.0821,-1.46605 2.49142,-2.67136 0.70502,-2.07629 1.18156,-4.2582 1.40304,-6.51569 0.1052,-1.07231 -0.21796,-2.14065 -0.91789,-2.95982 -2.8624,-3.34993 -3.94933,-8.06491 -2.84868,-12.32938 0.26748,-1.03633 0.08659,-2.13009 -0.47873,-3.0387 -1.26545,-2.03438 -2.77569,-3.90044 -4.48723,-5.55956 -0.73889,-0.71652 -1.71813,-1.12478 -2.74427,-1.12478 -0.0317,0 -0.06339,6.6e-4 -0.09517,0.0013 -0.10736,0.0026 -0.21527,0.004 -0.32254,0.004 -4.04755,0 -8.01155,-1.87431 -10.59097,-4.99023 C 42.567,8.56264 41.3665,7.80057 39.99607,7.6514 38.96268,7.53885 37.91298,7.48043 36.8504,7.48043 Z"
   id="path3"
   style="stroke-width:2.37481" />
</g>
<path
   id="path109722_1_"
   inkscape:connector-curvature="0"
   fill="#383838"
   d="m 27.414277,1.011854 c 0,0.5294061 -0.430572,0.9552914 -0.957632,0.9552914 -0.527061,0 -0.955286,-0.4258779 -0.955286,-0.9552914 0,-0.52939113 0.428225,-0.95526903 0.955286,-0.95526903 0.52706,0 0.957632,0.4258779 0.957632,0.95526903"
   style="fill:#ffffff;stroke-width:0.999995" />
<path
   opacity="0.54"
   fill="#FFFFFF"
   enable-background="new    "
   d="m 26.456682,5.326279 c -0.750584,0 -1.511811,0.041563 -2.26264,0.123207 -0.762814,0.083118 -1.497965,0.5093098 -2.070064,1.2006025 -2.069011,2.4995689 -5.236549,3.9920745 -8.473199,3.9920745 -0.08638,0 -0.172652,-9.62e-4 -0.25903,-0.0032 l -0.05233,-7.46e-4 c -0.564289,0 -1.104234,0.222071 -1.52023,0.625387 -1.237027,1.199365 -2.3228704,2.544813 -3.2272913,3.998714 -0.3141785,0.504884 -0.4112571,1.116 -0.266407,1.676217 0.8811723,3.409483 0.00731,7.190314 -2.2805755,9.867187 -0.3800946,0.444633 -0.5643038,1.042225 -0.5054515,1.63908 0.1580623,1.601697 0.498067,3.179052 1.0106497,4.687795 0.226436,0.666694 0.7443103,1.216339 1.4582481,1.547593 3.1428215,1.457836 5.5031505,4.47433 6.1595995,7.872253 0.128077,0.662517 0.494513,1.215356 1.031932,1.5567 1.357787,0.862211 2.815855,1.567027 4.333745,2.095516 0.233329,0.08116 0.475817,0.12222 0.720764,0.12222 0.35371,0 0.704468,-0.08804 1.014398,-0.25453 1.567391,-0.842531 3.361337,-1.287902 5.188047,-1.287902 1.826473,0 3.620293,0.445371 5.187616,1.287657 0.310058,0.16674 0.660884,0.254782 1.014592,0.254782 0.244954,0 0.487382,-0.04106 0.720584,-0.12222 1.518495,-0.528492 2.977555,-1.234044 4.33657,-2.096748 0.537113,-0.340603 0.903059,-0.892946 1.030575,-1.554724 0.654923,-3.39817 3.015253,-6.414918 6.159966,-7.872993 0.714252,-0.331254 1.232422,-0.881143 1.458933,-1.548085 0.512523,-1.509235 0.851963,-3.085849 1.008921,-4.685825 0.05953,-0.6062 -0.120376,-1.189039 -0.506426,-1.640803 -2.286434,-2.675897 -3.160043,-6.456473 -2.279854,-9.866702 0.144667,-0.560455 0.04746,-1.171333 -0.266653,-1.676216 -0.90472,-1.454391 -1.990749,-2.799839 -3.228097,-3.999204 -0.415623,-0.40307 -0.955075,-0.625141 -1.518984,-0.625141 l -0.05232,7.38e-4 c -0.0862,0.0023 -0.17283,0.0032 -0.258963,0.0032 -3.236651,0 -6.404428,-1.4922597 -8.47388,-3.9920745 C 30.217068,5.9588032 29.481737,5.532374 28.718917,5.4492476 27.969756,5.3675961 27.208664,5.326279 26.456673,5.326279 Z"
   id="path4"
   style="fill:#000000;stroke:none;stroke-width:0.999995;stroke-opacity:1" />
<path
   id="path109724_1_"
   inkscape:connector-curvature="0"
   fill="#383838"
   d="m 26.647507,26.457557 h -0.379379 c -0.423477,0 -0.766769,-0.34328 -0.766769,-0.766745 V 6.5940696 c 0,-0.4234636 0.343292,-0.7667441 0.766769,-0.7667441 H 26.6475 c 0.423479,0 0.76677,0.3432879 0.76677,0.7667441 V 25.690812 c 7e-6,0.423465 -0.343284,0.766745 -0.766763,0.766745 z"
   style="fill:#ffffff;stroke-width:0.999995" />
</svg>
