<?xml version="1.0" encoding="UTF-8" standalone="no"?>
<svg
   id="Silk"
   viewBox="0 0 268.80001 485.66929"
   version="1.1"
   sodipodi:docname="14hpBlank.svg"
   inkscape:version="1.4 (e7c3feb1, 2024-10-09)"
   width="71.120003mm"
   height="128.5mm"
   xmlns:inkscape="http://www.inkscape.org/namespaces/inkscape"
   xmlns:sodipodi="http://sodipodi.sourceforge.net/DTD/sodipodi-0.dtd"
   xmlns="http://www.w3.org/2000/svg"
   xmlns:svg="http://www.w3.org/2000/svg">
  <defs
     id="defs47">
    <clipPath
       clipPathUnits="userSpaceOnUse"
       id="clipPath3">
      <path
         d="M 0,430.554 H 142.679 V 0 H 0 Z"
         transform="matrix(1.3333333,0,0,-1.3333333,0,574.072)"
         id="path3-7" />
    </clipPath>
    <clipPath
       clipPathUnits="userSpaceOnUse"
       id="clipPath1">
      <path
         d="M 46.8124,396.607 H 103.505 V 32.3555 H 46.8124 Z"
         id="path1-8" />
    </clipPath>
  </defs>
  <sodipodi:namedview
     id="namedview47"
     pagecolor="#ffffff"
     bordercolor="#000000"
     borderopacity="0.25"
     inkscape:showpageshadow="2"
     inkscape:pageopacity="0.0"
     inkscape:pagecheckerboard="0"
     inkscape:deskcolor="#d1d1d1"
     inkscape:zoom="1.9587392"
     inkscape:cx="163.62566"
     inkscape:cy="216.21051"
     inkscape:window-width="2128"
     inkscape:window-height="1318"
     inkscape:window-x="54"
     inkscape:window-y="25"
     inkscape:window-maximized="0"
     inkscape:current-layer="layer1"
     inkscape:document-units="mm" />
  <g
     inkscape:groupmode="layer"
     id="layer1"
     inkscape:label="artwork">
    <rect
       style="display:inline;fill:#d2d2d0;stroke:none;stroke-width:1.32283;fill-opacity:1"
       id="rect47"
       width="375.24139"
       height="578.94385"
       x="-47.479523"
       y="-34.716209" />
    <g
       id="g47"
       transform="matrix(1.2305508,0,0,1.2305508,10.919084,18.716779)"
       style="stroke-width:0.812644">
      <path
         d="m 170.81,166.54 c -0.33,1.32 -0.33,2.61 -0.11,3.8 0.41,2.22 0.07,4.38 -0.05,6.56 -0.12,2.17 -1.44,3.37 -3.32,3.85 -2.6,0.67 -4.97,1.81 -7.25,3.14 -2.13,1.25 -4.44,2.08 -6.69,3.05 -1.34,0.58 -2.69,1.13 -3.96,1.84 -1.2,0.66 -2.49,1.15 -3.75,1.57 -3.09,1.02 -5.97,2.5 -8.98,3.68 -3.12,1.21 -6.25,2.39 -9.36,3.62 -3.05,1.21 -6.1,2.45 -9.15,3.68 -1.86,0.75 -3.82,1.21 -5.74,1.82 -1.13,0.36 -2.3,0.64 -3.38,1.12 -2.72,1.19 -5.53,2.13 -8.27,3.28 -4.96,2.1 -9.9,4.28 -14.98,6.12 -4.09,1.48 -8.15,3.06 -12.22,4.6 -1.93,0.73 -3.77,0.42 -5.43,-0.66 -3.14,-2.04 -6.14,-4.26 -8.94,-6.79 -1.3,-1.17 -2.95,-1.97 -4.2,-3.27 -1.38,-1.43 -2.79,-2.82 -4.19,-4.22 -2.5,-2.49 -5.08,-4.9 -7.48,-7.49 -0.96,-1.04 -2.17,-1.71 -3.13,-2.71 -0.08,-0.08 -0.21,-0.13 -0.25,-0.22 -0.65,-1.59 -2.26,-2.26 -3.37,-3.41 -0.83,-0.86 -2.01,-1.45 -2.74,-2.44 -1.17,-1.61 -2.74,-2.86 -4.2,-4.09 -1.86,-1.56 -3.35,-3.5 -5.31,-4.92 -0.84,-0.6 -1.32,-1.52 -2.12,-2.2 -0.58,-0.49 -0.68,-1.83 -0.75,-2.78 -0.11,-1.41 -0.29,-2.82 0.39,-4.26 0.55,-1.17 -0.03,-2.57 0.07,-3.87 0.14,-1.99 0.17,-3.99 0.29,-5.98 0.09,-1.48 -0.05,-3.04 0.52,-4.39 0.44,-1.04 0.75,-2.38 2.15,-2.75 0.11,-0.03 0.27,-0.03 0.31,-0.1 1.29,-2.31 3.92,-2.79 5.86,-4.22 1.31,-0.97 2.93,-1.43 4.71,-1.36 1.6,0.06 3.07,-0.81 4.54,-1.42 2.65,-1.09 5.37,-1.96 8.03,-3.01 2.15,-0.85 4.32,-1.59 6.56,-2.18 0.73,-0.19 1.27,-0.74 1.84,-1.24 2.02,-1.73 4.14,-3.23 6.68,-4.27 1.95,-0.8 3.97,-0.92 5.93,-1.43 0.66,-0.17 1.06,-0.3 0.57,-1.17 -0.66,-1.18 -0.09,-3.02 1.07,-4.17 1.09,-1.08 1.14,-1.4 0.42,-2.8 -0.3,-0.58 -0.16,-0.92 0.49,-1.04 0.26,-0.05 0.51,-0.12 0.77,-0.14 0.91,-0.07 1.95,-0.48 2.62,0.4 0.97,1.27 2.44,2.41 1.51,4.4 -0.21,0.46 -0.89,1 -0.27,1.61 0.62,0.6 1.13,-0.12 1.61,-0.3 3.63,-1.34 7.3,-2.55 11.09,-3.34 1.42,-0.29 2.65,-1.23 4.19,-1.12 0.47,0.03 0.54,-0.48 0.46,-0.86 -0.45,-2.07 0.77,-3.67 1.55,-5.37 0.38,-0.84 3.33,-1.3 4.25,-0.7 1.25,0.82 2.38,1.77 2.79,3.34 0.23,0.88 0.65,1.22 1.72,0.84 2.42,-0.87 4.8,-1.85 7.24,-2.63 1.73,-0.55 3.54,-0.81 5.3,-1.34 2.81,-0.85 5.65,-1.6 8.31,-2.85 0.98,-0.46 2.11,-0.43 3.03,-1.06 0.26,-0.18 0.54,0.02 0.81,0.2 1.29,0.83 2.14,2.12 3.31,3.08 2.33,1.91 4.26,4.23 6.3,6.44 1.26,1.37 2.51,2.74 3.89,4 0.78,0.7 1.6,1.3 2.82,1.18 -4.58,-4.65 -8.77,-9.63 -13.07,-14.8 1.33,0.42 1.98,1.35 2.62,2.14 2.34,2.88 4.83,5.65 7.44,8.26 2.09,2.09 3.81,4.55 6.22,6.35 3,2.24 5.7,4.84 8.5,7.31 0.82,0.72 1.88,1.14 2.53,2.11 0.3,0.45 0.71,0.85 0.98,1.34 1.42,2.59 3.29,4.87 5.21,7.06 1.26,1.43 2.72,2.72 3.82,4.3 2.11,3.05 4.04,6.21 4.2,10.08 0.03,0.77 0.78,1.15 0.91,1.88 0.4,2.12 0.96,4.22 1.28,6.35 0.39,2.64 1.08,5.3 0.59,7.99 -0.62,3.4 -1.08,6.84 -2.11,10.14 -0.5,1.6 -1.48,3.05 -2.23,4.58 -0.53,1.07 -0.98,2.17 -1.57,3.2 -1.65,2.88 -3.97,5.13 -6.56,7.19 -2.74,2.18 -5.9,3.62 -8.92,5.3 -1.4,0.78 -2.71,1.71 -4.1,2.49 -2.75,1.55 -5.51,3.15 -8.81,3.18 -0.53,0 -0.78,0.25 -0.65,0.77 0.2,0.75 -0.04,1.34 -0.65,1.76 -0.34,0.24 -0.3,0.56 -0.38,0.88 -0.1,0.41 -0.4,0.77 -0.8,0.53 -1.16,-0.71 -1.56,0.54 -2.36,0.77 0.52,0.37 1.09,0.35 1.59,0.2 1.32,-0.41 2.65,-0.14 3.98,-0.15 0.26,0 0.7,-0.08 0.67,0.36 -0.02,0.38 -0.41,0.36 -0.71,0.37 -2.68,0.06 -5.36,0.29 -8.06,0.15 -2.27,-0.11 -4.55,0.21 -6.8,0.79 -1.48,0.39 -3.07,0.44 -4.61,0.72 -0.84,0.16 -1.7,0.16 -2.56,0.24 -1.45,0.14 -2.6,-0.42 -3.57,-1.45 -0.24,-0.25 -0.47,-0.45 -0.87,-0.4 -2.47,0.33 -4.99,0.12 -7.43,0.64 -1.12,0.24 -2.26,0.26 -3.39,0.52 -1.64,0.39 -3.33,0.65 -5.04,0.35 -0.82,-0.15 -1.34,-0.63 -1.57,-1.4 -0.24,-0.79 -0.02,-1.44 0.65,-1.97 1.2,-0.96 2.64,-1.1 4.07,-1.31 1.75,-0.27 3.5,-0.57 5.26,-0.85 1.65,-0.26 3.3,-0.47 4.88,-1.04 0.22,-0.08 0.52,-0.02 0.77,0.03 0.78,0.15 1.25,0.02 1.38,-0.93 0.19,-1.39 1.56,-2.61 3.02,-2.78 2.51,-0.29 4.99,-0.79 7.51,-1.04 1.96,-0.2 3.95,-0.62 5.94,-0.75 1.66,-0.11 3.31,-0.17 4.94,-0.56 0.86,-0.2 1.4,0.26 1.85,0.94 0.98,1.49 1.07,1.49 2.67,0.88 1.91,-0.73 3.81,-1.46 5.74,-2.12 0.94,-0.32 1.75,-0.87 2.51,-1.42 2.97,-2.13 6.32,-3.73 9.15,-6.03 2.21,-1.8 4.65,-3.42 6.38,-5.74 1.06,-1.42 1.78,-3.1 2.74,-4.61 1.01,-1.58 1.62,-3.35 2.45,-5.01 0.77,-1.53 0.44,-3.28 0.92,-4.9 0.62,-2.1 0.76,-4.29 0.72,-6.48 -0.01,-0.73 -0.44,-1.39 -0.53,-2.15 -0.21,-1.88 -0.59,-3.75 -0.5,-5.66 0.02,-0.47 -0.18,-0.86 -0.65,-1.27 z m -50.61,52.8 c 3.54,-1.01 7.1,-1.86 10.82,-1.78 0.33,0 0.68,-0.08 0.98,-0.22 1.68,-0.79 3.49,-1.04 5.31,-1.23 0.25,-0.03 0.5,-0.03 0.66,-0.31 0.83,-1.47 0.45,-2.19 -1.24,-2.3 -1.71,-0.11 -3.38,-0.46 -5.06,-0.73 -1.08,-0.18 -2.08,-0.89 -3.26,-0.51 -2.2,0.7 -4.46,1.15 -6.78,1.14 -0.57,0 -0.84,0.44 -1.14,0.8 -0.31,0.38 -0.04,0.62 0.23,0.93 0.4,0.45 0.44,1.12 0.09,1.57 -0.65,0.83 -0.57,1.74 -0.57,2.67 -0.51,0.57 -0.77,1.2 -0.36,2.11 0.19,-0.92 0.91,-0.81 1.47,-1.03 0.57,-0.22 1.13,-0.34 1.74,-0.31 0.28,0.01 0.59,-0.12 0.54,-0.42 -0.07,-0.44 -0.39,-0.11 -0.61,-0.11 -0.94,-0.04 -1.95,0.58 -2.81,-0.25 z m -9.64,-48.56 h 0.02 c 0.13,-0.73 0.83,-0.89 1.29,-1.31 0.16,-0.15 0.36,-0.33 0.2,-0.57 -0.15,-0.23 -0.35,-0.14 -0.58,0 -1.95,1.08 -3.85,2.26 -5.96,3.02 -0.53,0.19 -1.02,0.52 -1.79,0.91 1.2,0.36 2,-0.67 2.98,-0.26 -0.6,0.56 -1.25,0.83 -1.91,1.09 -1.39,0.55 -2.86,0.93 -4.07,1.87 -1.78,1.38 -3.94,1.91 -6.01,2.58 -4.13,1.35 -8.19,2.92 -12.3,4.32 -2.04,0.7 -4.11,1.35 -6.08,2.21 -1.19,0.53 -2.63,0.6 -3.57,1.52 -0.77,0.77 -1.44,0.45 -1.78,-0.08 -0.91,-1.39 -2.1,-2.41 -3.36,-3.45 -1.68,-1.38 -3.15,-3.01 -4.88,-4.37 -0.89,-0.7 -1.96,-1.31 -2.61,-2.24 -0.87,-1.26 -2.12,-2.07 -3.24,-2.99 -2.16,-1.77 -4.06,-3.79 -5.92,-5.86 -1.02,-1.13 -1.86,-2.42 -3.1,-3.37 -1.21,-0.93 -2.14,-2.18 -3.31,-3.14 -1.56,-1.27 -2.39,-3.26 -4.31,-4.15 -0.4,-0.19 -0.52,-0.67 -0.42,-1.08 0.12,-0.53 0.56,-0.37 0.92,-0.27 0.34,0.1 0.56,-0.11 0.81,-0.27 1.7,-1.1 3.53,-1.95 5.44,-2.58 2.3,-0.76 4.68,-1.28 6.96,-2.14 0.57,-0.22 0.72,-0.49 0.48,-0.99 -0.61,-1.31 -0.96,-2.63 -0.65,-4.1 0.12,-0.56 -0.04,-1.19 -0.1,-1.78 -0.04,-0.36 -0.16,-0.69 -0.65,-0.45 -1.22,0.59 -2.56,0.75 -3.83,1.16 -1.85,0.59 -3.89,0.89 -4.98,2.84 -0.1,0.17 -0.35,0.35 -0.55,0.36 -1.23,0.1 -2.05,0.98 -3.07,1.49 -1.16,0.58 -2.47,1.3 -3.67,1.23 -1.71,-0.11 -2.86,1.02 -4.35,1.24 -0.87,0.13 -1.34,0.94 -2.21,1.19 0.1,-1.05 1.42,-0.84 1.51,-1.85 -0.75,0.17 -1.23,0.7 -1.82,1.05 -0.98,0.58 -1.24,1.48 -0.75,2.52 0.19,0.4 0.43,0.78 0.62,1.19 0.7,1.46 1.56,2.93 2.71,3.92 1.2,1.04 2.29,2.19 3.47,3.25 2.37,2.14 4.33,4.69 6.69,6.85 0.79,0.73 1.58,1.46 2.39,2.17 1.28,1.14 2.48,2.36 3.73,3.52 1.79,1.67 3.94,3 5.55,4.82 3.16,3.58 6.99,6.42 10.29,9.85 2.05,2.13 4.19,4.18 6.14,6.41 0.82,0.93 1.41,1.01 2.49,0.36 0.71,-0.42 1.34,-0.99 2.32,-0.93 0.41,0.03 1.24,-0.32 0.78,-1.18 -0.09,-0.18 -0.19,-0.34 0,-0.49 0.17,-0.14 0.36,-0.05 0.52,0.05 0.22,0.14 0.39,0.43 0.62,0.46 0.84,0.14 1.14,1.46 2.27,0.94 1.45,-0.67 2.92,-1.32 4.42,-1.86 1.15,-0.41 2.28,-0.92 3.56,-0.9 1.5,0.03 2.94,-0.32 4.32,-0.93 3.62,-1.58 7.19,-3.29 10.88,-4.69 5.78,-2.18 11.64,-4.14 17.47,-6.18 1.86,-0.65 3.7,-1.36 5.49,-2.21 0.71,-0.34 1.01,-1.25 1.72,-1.37 1.76,-0.3 3.3,-1.14 4.93,-1.74 3.39,-1.23 6.74,-2.6 10.13,-3.83 1.19,-0.43 2.14,-1.25 3.41,-1.65 2.45,-0.78 4.85,-1.82 7.07,-3.27 2.38,-1.55 4.88,-2.97 7.64,-3.82 0.25,-0.08 0.55,-0.24 0.72,0 0.21,0.31 -0.07,0.58 -0.29,0.75 -0.69,0.52 -1.48,0.85 -2.29,1.15 -0.78,0.29 -1.57,0.61 -2.11,1.33 0.33,0.22 0.55,0.02 0.79,-0.07 1.42,-0.55 2.83,-1.14 4.26,-1.65 1.12,-0.4 2.31,-1.11 3.39,-0.98 1.78,0.22 2.26,-1.28 3.37,-1.91 0.25,-0.14 0.32,-0.44 0.12,-0.68 -0.26,-0.3 -0.45,0 -0.66,0.14 -1.53,0.98 -3.37,1.19 -4.95,2.03 -0.48,0.25 -0.56,-0.19 -0.76,-0.42 -0.26,-0.31 -0.03,-0.47 0.21,-0.6 0.32,-0.19 0.63,-0.43 0.97,-0.53 1.66,-0.46 3.08,-1.45 4.66,-2.08 0.53,-0.21 0.88,-0.89 0.49,-1.29 -0.88,-0.9 -1.14,-2.14 -1.97,-3.07 -1.28,-1.44 -2.71,-2.74 -4.05,-4.12 -2.17,-2.23 -4.45,-4.34 -6.46,-6.73 -0.24,-0.28 -0.5,-0.74 -1.11,-0.68 0.12,0.38 0.21,0.67 0.38,1.2 -0.83,-0.91 -1.43,-1.68 -2.16,-2.32 -0.34,-0.3 -0.4,-1.17 -0.92,-0.89 -0.51,0.27 0.49,0.73 0.17,1.31 -0.37,-0.54 -0.7,-1.06 -1.08,-1.54 -0.34,-0.44 -0.83,-1.1 -1.31,-0.91 -1.51,0.61 -2.44,-0.11 -3.26,-1.17 -1.25,-1.6 -2.91,-2.86 -3.81,-4.75 -0.14,-0.29 -0.44,-0.77 -0.85,-0.58 -0.54,0.26 -0.05,0.69 -0.03,1.06 0.05,0.92 1.08,0.82 1.41,1.45 0.81,1.52 2.11,2.66 3.21,3.96 0.43,0.51 0.82,1.06 1.21,1.61 0.21,0.29 0.19,0.74 -0.19,0.56 -0.64,-0.31 -1.16,0.16 -1.79,-0.06 0.21,0.44 0.41,0.86 0.84,0.64 0.44,-0.22 0.74,-0.34 0.98,0.2 0.11,0.24 0.33,0.5 0.16,0.73 -0.38,0.5 -0.63,-0.42 -1.08,-0.12 0.21,0.68 0.58,1.26 1.17,1.67 1.94,1.34 3.63,2.95 5.11,4.78 0.53,0.65 0.32,1.35 -0.49,1.51 -0.68,0.14 -1.18,0.48 -1.33,1.18 -0.08,0.4 -0.24,0.7 -0.66,0.81 -1.68,0.45 -3.2,1.3 -4.7,2.12 -2.13,1.17 -4.27,2.28 -6.51,3.2 -3.02,1.25 -6.05,2.46 -9.13,3.54 -1.15,0.4 -2.12,1.34 -3.37,1.32 -0.87,-0.01 -1.26,0.76 -2.01,0.87 -1.21,0.18 -0.69,1.21 -0.9,1.88 -0.32,1.03 0.13,1.68 1.1,1.97 0.62,0.19 0.93,0.63 1.31,1.12 0.76,0.99 0.45,2.1 0.6,3.17 0.09,0.64 0.04,1.16 -0.4,1.65 -1.43,1.62 -3.13,2.59 -5.33,2.93 -3.24,0.49 -6.38,0.37 -9.41,-0.84 -1.7,-0.68 -1.98,-2.46 -0.77,-3.79 0.28,-0.3 0.56,-0.59 0.82,-0.91 0.44,-0.54 0.32,-1.22 0.09,-1.7 -0.26,-0.52 -0.66,0.17 -1.03,0.2 -0.29,0.03 -0.57,0.18 -0.85,0.27 z m 56.9,-2.25 c 0.7,-1.27 0.35,-1.52 -0.63,-1.32 -0.39,0.08 -0.81,0.05 -1.22,0.01 -0.26,-0.02 -0.55,-0.13 -0.58,-0.44 -0.03,-0.26 0.23,-0.36 0.43,-0.45 0.41,-0.19 0.83,-0.34 1.22,-0.55 0.16,-0.08 0.3,-0.27 0.22,-0.47 -0.09,-0.23 -0.31,-0.18 -0.47,-0.1 -1.55,0.7 -3.27,0.75 -4.86,1.25 -3.34,1.05 -6.46,2.68 -9.76,3.87 -2.98,1.07 -5.87,2.38 -8.82,3.54 -3.63,1.43 -7.29,2.82 -10.93,4.23 -0.33,0.13 -0.86,0.25 -0.55,0.73 0.58,0.91 -0.11,1.07 -0.68,1.18 -2,0.4 -3.91,1.09 -5.83,1.75 -0.96,0.33 -1.87,1.3 -2.73,1.08 -1.18,-0.31 -2.04,0.13 -2.97,0.48 -3.72,1.39 -7.43,2.82 -11.13,4.27 -2.91,1.14 -5.8,2.31 -8.69,3.5 -1.79,0.74 -3.42,1.82 -5.23,2.51 -2.82,1.07 -5.86,1.31 -8.72,2.25 -3.39,1.12 -6.86,2 -9.81,4.16 -0.23,0.17 -0.57,0.21 -0.58,0.59 -0.03,1.64 -0.61,3.26 -0.42,4.89 0.12,1.11 -0.4,2.23 0.1,3.31 0.69,1.51 0.1,2.98 -0.79,3.94 -0.99,1.06 -1.05,2.03 -0.95,3.29 0.08,0.94 0.43,0.96 1.13,0.66 1.95,-0.82 3.93,-1.57 5.88,-2.36 2.22,-0.89 4.46,-1.75 6.69,-2.59 2.19,-0.82 4.35,-1.71 6.5,-2.62 3.56,-1.51 7.19,-2.89 10.62,-4.71 0.54,-0.29 1.18,-0.09 1.7,-0.48 1.45,-1.11 3.27,-1.4 4.93,-2 1.98,-0.72 4,-1.36 6.03,-1.95 1.8,-0.53 3.47,-1.49 5.26,-2.1 3.07,-1.04 6.07,-2.29 9.04,-3.56 2.59,-1.11 5.27,-1.96 7.84,-3.16 3.8,-1.78 7.96,-2.72 11.61,-4.87 1.4,-0.82 2.98,-1.16 4.42,-1.85 2.74,-1.31 5.4,-2.8 8.22,-3.96 1.76,-0.73 3.64,-1.01 5.38,-1.79 0.62,-0.28 0.89,-0.53 0.95,-1.27 0.24,-2.96 -0.49,-5.85 -0.51,-8.79 0,-1.07 -0.6,-0.39 -1.29,-0.08 z m -52.83,-13.08 c -2.1,-0.62 -4.06,-1.22 -5.98,-1.96 -0.87,-0.33 -1.41,-0.72 -1.52,-1.5 -0.13,-0.95 0,-1.93 -0.05,-2.9 -0.03,-0.73 1.16,-1.18 0.58,-1.88 -0.45,-0.54 -1.35,-0.5 -2.04,-0.79 -1.15,-0.48 -1.84,-1.5 -2.81,-2.12 -1.4,-0.89 -1.81,-2.34 -1.39,-3.17 0.56,-1.11 0.38,-2.19 0.19,-3.27 -0.18,-1 -0.08,-2.02 -0.26,-3.01 -0.1,-0.5 0.64,-1.25 -0.15,-1.44 -0.5,-0.12 -1.25,0.1 -1.79,0.49 -0.24,0.17 -0.48,0.36 -0.72,0.52 -0.57,0.38 -1.18,0.77 -1.85,0.7 -0.75,-0.08 -1.33,0.21 -1.95,0.49 -0.54,0.24 -0.74,0.55 -0.31,1.01 0.86,0.91 1.67,1.93 2.68,2.63 0.74,0.52 0.92,0.96 0.67,1.72 -0.17,0.52 -0.19,1.06 0.1,1.52 0.52,0.82 0.6,1.76 0.73,2.67 0.06,0.42 0.18,0.65 0.5,0.9 0.7,0.54 1.2,2.84 0.68,3.5 -0.62,0.78 -1.06,1.55 -1.14,2.57 -0.03,0.4 -0.4,0.78 -0.64,1.16 -0.77,1.22 -2.05,1.87 -3.22,2.53 -2.08,1.18 -1.95,2.19 -1.81,3.79 0.22,2.44 -1.91,5.48 -4.29,5.9 -2.34,0.42 -4.71,0.65 -7.02,1.24 -2.28,0.59 -4.67,0.37 -6.96,0.94 -0.71,0.18 -1.9,-0.74 -1.9,-1.42 0,-1.92 -0.74,-3.62 -1.56,-5.29 -0.14,-0.29 -0.22,-0.7 -0.66,-0.65 -0.41,0.05 -0.47,0.44 -0.59,0.74 -0.66,1.64 -1.03,3.36 -0.93,5.13 0.06,1.05 -0.26,1.25 -1.15,0.77 -0.13,-0.07 -0.31,-0.16 -0.41,-0.11 -1.43,0.63 -2.65,-0.1 -3.82,-0.69 -2.87,-1.46 -3.46,-3.34 -2.26,-6.14 0.07,-0.16 0.32,-0.41 0.21,-0.46 -1.11,-0.44 -0.64,-1.48 -0.53,-2.04 0.36,-1.87 -0.61,-2.57 -2.06,-3.32 -1.66,-0.87 -3.03,-2.44 -5.18,-1.16 -0.47,0.28 -1.28,0.19 -1.66,0.45 -2.07,1.39 -4.45,1.96 -6.73,2.77 -0.39,0.14 -1.02,-0.13 -1.12,0.49 -0.09,0.55 0.19,0.92 0.83,0.86 0.02,0 0.08,0.12 0.08,0.18 0.03,1 0.86,1.39 1.49,1.92 0.74,0.62 1.63,1.09 2.22,1.82 0.76,0.94 1.56,1.78 2.49,2.58 1.37,1.17 2.48,2.64 3.77,3.92 2.01,1.99 3.79,4.17 5.66,6.28 1.94,2.2 4.27,4.07 6.56,5.95 1.39,1.14 2.91,1.99 4.37,2.99 0.29,0.2 0.58,0.38 0.92,0.2 1.52,-0.81 3.21,-1.15 4.8,-1.76 2.11,-0.81 4.05,-2.01 6.22,-2.68 2.63,-0.82 5.32,-1.51 7.8,-2.66 3.28,-1.52 6.62,-2.86 9.93,-4.3 1.87,-0.81 3.79,-1.52 5.66,-2.33 1.45,-0.63 2.79,-1.53 4.33,-2.01 0.37,-0.12 0.41,-0.45 0.43,-0.82 0.04,-1.15 0.21,-2.3 0.19,-3.44 -0.03,-1.74 0.17,-3.46 0.25,-5.18 0.09,-1.94 -0.08,-1.95 1.79,-2.52 0.06,-0.02 0.11,-0.1 0.33,-0.3 z m -86.12,1.91 c -0.31,0.02 -0.46,0.21 -0.45,0.36 0.11,1.24 -0.83,2.22 -0.79,3.45 0.04,1.22 0.01,2.45 -0.02,3.67 -0.09,3.2 0,6.42 -0.38,9.59 -0.24,2.06 0.79,3.25 2.03,4.39 0.65,0.6 1.36,1.16 1.94,1.83 0.59,0.67 1.23,1.27 1.93,1.83 1.42,1.13 2.93,2.14 4.14,3.54 1.52,1.77 3.09,3.49 4.75,5.13 0.74,0.73 1.63,1.28 2.31,2.03 1.02,1.14 2.18,2.14 3.16,3.3 1.84,2.18 3.86,4.18 5.84,6.22 2.47,2.55 5.47,4.46 8.19,6.71 1.5,1.24 2.93,2.6 4.76,3.45 0.99,0.46 2.14,0.02 3.02,0.82 0.26,0.24 0.58,-0.05 0.58,-0.42 -0.03,-2.2 -0.06,-4.39 -0.11,-6.59 0,-0.35 -0.17,-0.64 -0.5,-0.82 -0.57,-0.33 -0.59,-0.78 -0.13,-1.18 0.56,-0.48 0.51,-1.08 0.55,-1.73 0.12,-1.74 -0.23,-3.5 0.23,-5.22 0.14,-0.53 -0.1,-0.73 -0.49,-0.97 -0.89,-0.55 -1.77,-1.13 -2.34,-2.03 -0.54,-0.86 -1.2,-1.62 -1.95,-2.29 -3.59,-3.18 -7.1,-6.47 -10.84,-9.45 -4.33,-3.45 -7.89,-7.66 -11.88,-11.45 -1.23,-1.17 -2.09,-2.72 -3.26,-3.96 -3.19,-3.38 -6.76,-6.38 -9.85,-9.85 -0.14,-0.16 -0.33,-0.28 -0.45,-0.39 z m 112.98,-17.45 c -0.4,0.16 -0.46,0.57 -0.63,0.88 -0.63,1.18 -1.13,2.44 -2.52,2.99 -0.39,0.16 -0.58,0.55 -0.5,1.03 0.25,1.45 0.16,2.91 0.02,4.35 -0.15,1.5 -0.9,2.73 -2.3,3.42 -1.23,0.62 -2.64,0.59 -3.96,1.11 -2.53,1 -5.3,1.39 -7.98,1.99 -0.66,0.15 -0.49,0.42 -0.24,0.75 0.58,0.76 0.69,1.64 0.61,2.55 -0.09,1.16 0.08,2.28 0.37,3.4 0.11,0.43 0.27,0.61 0.69,0.34 2.15,-1.43 4.75,-1.88 6.91,-3.28 0.31,-0.2 0.69,-0.27 1.02,-0.43 0.7,-0.35 1.49,-0.35 2.21,-0.74 2,-1.07 4.02,-2.1 6.09,-3.03 3.28,-1.46 6.65,-2.72 9.83,-4.4 0.43,-0.23 0.93,-0.35 0.29,-0.9 -2.14,-1.85 -4.29,-3.68 -6.4,-5.55 -1.44,-1.28 -2.82,-2.61 -3.53,-4.49 z M 99.76,129.79 c 0.58,0.16 0.9,-0.24 1.3,-0.38 0.25,-0.09 0.53,-0.25 0.73,-0.02 0.25,0.29 -0.12,0.44 -0.25,0.63 -0.46,0.68 -1.28,0.89 -1.88,1.38 -0.31,0.25 -0.67,0.43 -0.99,0.07 -0.28,-0.32 -0.03,-0.63 0.17,-0.9 0.13,-0.18 0.52,-0.32 0.19,-0.61 -0.21,-0.18 -0.52,-0.16 -0.72,0.05 -0.32,0.33 -0.69,0.58 -1.14,0.67 -0.69,0.15 -1.51,0.41 -1.98,-0.23 -0.41,-0.56 0.12,-1.17 0.45,-1.72 0.31,-0.51 0.68,-1.14 0.23,-1.66 -0.4,-0.46 -0.99,-0.02 -1.44,0.14 -2.84,1 -5.64,2.1 -8.6,2.74 -1.63,0.35 -3.21,0.95 -4.81,1.43 -0.25,0.08 -0.53,0.12 -0.55,0.45 -0.01,0.18 0.14,0.26 0.28,0.29 1.53,0.32 2.96,1.02 4.54,1.14 0.96,0.07 1.91,0.22 2.85,0.33 1.26,0.16 2.36,0.53 3.47,1.07 0.66,0.32 1.38,0.18 2.09,0.08 2.36,-0.33 4.4,-1.56 6.62,-2.26 1.32,-0.42 2.57,-0.82 2.91,-2.39 0.03,-0.15 0.24,-0.28 0.38,-0.4 1.92,-1.66 3.8,-3.35 5.77,-4.95 1.33,-1.08 2.94,-1.81 4.51,-2.31 2.07,-0.66 4.15,-1.37 6.44,-1.53 1.85,-0.12 3.75,-0.22 5.53,-0.08 3.08,0.24 6.27,0.44 9.05,2.11 0.2,0.12 0.43,0.24 0.57,-0.02 0.1,-0.18 -0.06,-0.34 -0.21,-0.46 -2.35,-2 -4.28,-4.49 -7.02,-6.05 -0.6,-0.34 -1.16,-0.54 -1.77,-0.22 -1.71,0.92 -3.52,1.63 -5.33,2.32 -2.26,0.85 -4.51,1.72 -6.77,2.56 -0.41,0.15 -0.95,0.34 -1.17,-0.23 -0.25,-0.66 -0.6,-0.5 -1.05,-0.31 -0.48,0.2 -0.97,0.38 -1.46,0.56 -2.65,0.97 -5.29,1.96 -7.95,2.88 -0.55,0.19 -0.83,0.65 -0.69,0.99 0.47,1.12 -0.29,1.81 -0.7,2.65 -0.39,0.8 -1.16,1.32 -1.58,2.15 z m 14.34,34.79 c 0.31,1.99 0.59,3.93 0.91,5.86 0.25,1.5 1,2.21 2.43,2.43 1.11,0.17 1.42,-0.1 1.28,-1.26 -0.06,-0.47 -0.08,-0.82 0.46,-0.94 0.27,-0.06 0.41,-0.31 0.38,-0.5 -0.16,-0.97 0.77,-1.4 1.04,-2.14 0.07,-0.18 0.19,-0.34 0.41,-0.29 0.24,0.05 0.24,0.28 0.21,0.45 -0.17,1.11 0.24,2.22 0.05,3.33 -0.05,0.28 -0.13,0.62 0.19,0.81 0.2,0.12 0.35,-0.07 0.47,-0.19 0.24,-0.23 0.53,-0.48 0.24,-0.85 -0.41,-0.52 -0.31,-1.14 -0.31,-1.73 0,-1.38 0.12,-2.77 -0.01,-4.13 -0.21,-2.09 0.17,-4.17 -0.07,-6.25 -0.04,-0.33 0.4,-0.79 -0.09,-0.98 -0.43,-0.17 -0.57,0.35 -0.76,0.65 -1.22,1.95 -3.32,2 -4.6,0.1 -0.27,-0.4 -0.65,-0.78 -1.07,-0.68 -0.56,0.13 -0.11,0.61 -0.12,0.94 0,0.14 -0.04,0.3 -0.11,0.42 -0.92,1.56 -0.54,3.33 -0.95,4.94 z m -0.43,55.13 c 1.36,-0.22 2.72,-0.45 4.08,-0.65 0.7,-0.1 1.32,-0.33 1.16,-1.16 -0.14,-0.74 -0.8,-0.76 -1.42,-0.72 -2.32,0.15 -4.63,0.32 -6.92,0.78 -3.29,0.65 -6.59,1.24 -9.89,1.82 -0.56,0.1 -0.63,0.4 -0.63,0.85 0,0.89 0.9,0.9 1.38,1.29 0.23,0.19 0.5,-0.43 0.66,-0.76 0.08,-0.17 0.16,-0.34 0.25,-0.5 0.17,-0.33 0.3,-0.75 0.77,-0.69 0.47,0.06 0.76,0.39 0.72,0.85 -0.05,0.61 0.35,0.62 0.71,0.55 0.8,-0.15 1.62,-0.27 2.36,-0.59 2.18,-0.93 4.54,-0.58 6.78,-1.07 z m 10.39,-46.16 c -0.62,0.03 -1.02,0.13 -1.41,0.4 -0.92,0.65 -1.99,0.77 -3.07,0.83 -0.56,0.03 -1.12,0.05 -1.66,0.16 -0.36,0.07 -0.96,-0.07 -0.97,0.51 -0.01,0.51 0.52,0.68 0.92,0.86 0.23,0.1 0.52,0.1 0.77,0.07 1.18,-0.14 2.36,-0.28 3.53,-0.46 0.32,-0.05 0.75,-0.13 0.81,-0.49 0.12,-0.71 0.74,-1.09 1.09,-1.87 z m 0.29,-41.13 c 0.68,0.04 0.96,-0.28 1.3,-0.49 2.13,-1.32 4.39,-2.34 6.83,-2.96 1.34,-0.34 2.7,-0.53 4.07,-0.62 0.2,-0.01 0.5,0 0.42,-0.35 -0.05,-0.22 -0.26,-0.23 -0.46,-0.2 -2.36,0.33 -4.78,0.12 -7.04,1.3 -1.76,0.92 -3.44,1.89 -5.12,3.31 z M 73.93,154.5 c -0.46,0.18 -1.03,-0.16 -1.07,0.35 -0.03,0.44 0.52,0.46 0.9,0.62 1.48,0.62 3.18,0.66 4.53,1.63 0.23,0.16 0.51,0.22 0.71,-0.02 0.23,-0.27 -0.1,-0.37 -0.24,-0.51 -1.37,-1.38 -3.28,-1.43 -4.84,-2.07 z m 48.57,-19.91 c -1.54,0.67 -3.07,3.15 -2.99,4.9 1.05,-1.79 1.97,-3.38 2.99,-4.9 z m 13.88,84.08 c -0.27,-0.46 -0.57,-0.33 -0.86,-0.29 -1.54,0.25 -3.03,0.72 -4.61,0.74 -0.59,0 -0.55,0.44 -0.53,0.87 1.93,-0.83 4.1,-0.43 6,-1.33 z m 1.55,-93.82 c 1.21,1.15 1.66,3.1 3.6,3.51 -1.01,-1.35 -2.48,-2.26 -3.6,-3.51 z m 0.61,8.17 c -1.17,-0.24 -2.33,-0.26 -3.47,0.13 1.19,0.82 2.31,-0.12 3.47,-0.13 z M 23.79,159.4 c -0.13,1.01 -1.09,2 -0.03,3.13 0.46,-1.1 0.14,-2.13 0.03,-3.13 z m 58.69,-12.32 c -0.12,0 -0.24,0 -0.37,0 0,0.83 0,1.66 0,2.5 0,0.23 0.11,0.46 0.38,0.44 0.3,-0.02 0.31,-0.28 0.3,-0.5 -0.05,-0.83 -0.07,-1.66 -0.32,-2.45 z m -47.26,2.03 c 0.81,0 1.51,0.16 2.13,-0.3 0.18,-0.13 0.36,-0.32 0.27,-0.56 -0.1,-0.27 -0.37,-0.19 -0.57,-0.13 -0.61,0.2 -1.31,0.24 -1.83,0.98 z m 78.11,-21.72 c -0.07,-0.09 -0.14,-0.19 -0.21,-0.28 -0.64,0.41 -1.29,0.8 -1.91,1.24 -0.15,0.11 -0.3,0.37 -0.14,0.6 0.18,0.25 0.43,0.09 0.59,-0.03 0.63,-0.43 1.21,-0.92 1.67,-1.53 z m -88.32,31.18 c 1.26,-0.82 1.27,-1.35 0.1,-2.38 0.15,0.79 -0.06,1.5 -0.1,2.38 z m 4.25,-3.93 c -0.35,-0.45 -0.69,-0.91 -1.07,-1.35 -0.1,-0.11 -0.3,-0.05 -0.38,0.09 -0.37,0.62 0.32,0.81 0.49,1.22 0.06,0.14 0.14,0.27 0.22,0.39 0.11,0.16 0.27,0.31 0.45,0.18 0.13,-0.09 0.17,-0.3 0.28,-0.53 z m 97.02,-17.18 c 1.11,-0.21 1.62,-1.23 2.44,-1.84 -1,0.36 -1.84,0.92 -2.44,1.84 z m -18.15,-5.69 c -0.53,0.8 -1.09,1.6 -1.27,2.88 1.07,-0.89 1.01,-1.95 1.27,-2.88 z m 59.49,33.27 c 0.18,-0.05 0.32,-0.09 0.45,-0.13 0.64,-0.18 0.55,-0.67 0.47,-1.15 -0.04,-0.21 -0.03,-0.5 -0.34,-0.45 -0.52,0.08 -0.27,0.6 -0.44,0.9 -0.12,0.2 -0.3,0.42 -0.14,0.83 z m -61.67,-20.61 c -0.15,-0.18 -0.25,-0.34 -0.38,-0.44 -0.41,-0.31 -0.81,-0.67 -1.39,-0.58 -0.07,0 -0.18,0.19 -0.16,0.24 0.24,0.48 0.77,0.54 1.18,0.77 0.18,0.1 0.37,0.27 0.75,0.01 z m 13.27,-18.3 c 0.24,-0.55 1.02,-0.74 0.9,-1.48 -0.01,-0.07 -0.37,-0.17 -0.49,-0.11 -0.63,0.33 -0.56,0.94 -0.41,1.59 z"
         id="path1"
         style="stroke-width:0.812644" />
      <path
         d="m 64.07,239.07 c 0.39,2.72 -0.19,5.34 -0.85,7.93 -0.56,2.18 -1.62,4.15 -3.1,5.85 -1.39,1.6 -2.4,1.55 -4.2,0.47 -1.43,-0.86 -1.97,-2.18 -2.37,-3.61 -0.52,-1.85 -0.69,-3.78 -1.22,-5.64 -0.78,-2.71 0.28,-5.04 1.69,-7.27 0.69,-1.1 1.47,-2.15 2.04,-3.33 0.37,-0.77 1,-1.03 1.94,-0.91 2.8,0.34 4.62,1.84 5.75,4.35 0.32,0.71 0.43,1.42 0.32,2.17 z m -1.55,1.56 c -0.06,-1.25 -0.05,-2.52 -0.67,-3.66 -0.22,-0.4 -0.56,-0.81 -0.88,0.02 -0.51,1.32 -1.17,2.58 -1.5,3.96 -0.63,2.64 -1.79,5.13 -2.21,7.84 -0.08,0.54 -0.47,0.97 -1.04,1.03 -1.24,0.13 -0.63,0.73 -0.29,1.16 0.53,0.67 2.1,0.84 2.76,0.27 0.95,-0.82 1.87,-1.7 2.29,-2.95 0.84,-2.49 1.84,-4.94 1.53,-7.67 z m -8.31,2.61 c -0.15,1.83 0.5,3.54 0.74,5.3 0.03,0.18 0.07,0.4 0.31,0.38 0.23,-0.02 0.25,-0.24 0.3,-0.41 0.42,-1.47 0.73,-2.98 1.29,-4.38 0.77,-1.93 0.93,-4.09 2.17,-5.82 0.61,-0.84 0.81,-1.83 1.26,-2.73 0.18,-0.37 0.07,-0.71 -0.34,-0.93 -0.71,-0.39 -1.5,-0.45 -2.26,-0.56 -0.38,-0.05 -0.71,0.24 -0.88,0.6 -1.28,2.73 -2.35,5.53 -2.59,8.57 z"
         id="path2"
         style="stroke-width:0.812644" />
      <path
         d="m 106.45,239.57 c -0.26,0.64 -0.39,1.23 -0.39,1.88 0,3.27 0.15,6.56 -0.31,9.82 -0.04,0.29 -0.15,0.57 -0.26,0.85 -0.14,0.34 -0.4,0.56 -0.79,0.48 -0.42,-0.08 -0.46,-0.43 -0.46,-0.78 0.04,-2.13 0.06,-4.26 0.12,-6.39 0.06,-2.34 0.17,-4.68 0.21,-7.01 0.03,-1.77 0.53,-3.46 0.69,-5.21 0.02,-0.23 0.07,-0.48 0.34,-0.5 0.33,-0.02 0.42,0.3 0.5,0.53 0.68,1.89 1.39,3.77 2,5.68 0.95,2.98 1.85,5.98 2.75,8.97 0.16,0.55 0.38,1.04 0.9,1.49 0.45,-0.82 0.24,-1.69 0.3,-2.49 0.27,-3.75 0.45,-7.5 0.66,-11.26 0.07,-1.15 0.07,-2.31 0.37,-3.44 0.1,-0.38 0.16,-0.79 0.64,-0.76 0.51,0.03 0.48,0.47 0.48,0.85 0.09,3.76 0.24,7.5 -0.08,11.27 -0.17,2.02 -0.45,4.06 -0.3,6.12 0.07,0.98 -0.22,1.91 -0.6,2.82 -0.16,0.37 -0.1,0.89 -0.66,0.87 -0.51,-0.02 -0.8,-0.43 -0.9,-0.88 -0.13,-0.62 -0.14,-1.09 -1.03,-0.61 -0.58,0.32 -0.87,-0.43 -0.92,-0.84 -0.22,-1.9 -0.78,-3.72 -1.33,-5.53 -0.6,-1.98 -1.39,-3.89 -1.94,-5.91 z"
         id="path3"
         style="stroke-width:0.812644" />
      <path
         d="m 129.1,251.42 c -2.96,-0.24 -5.62,0.54 -8.33,0.97 -1.62,0.26 -3.22,0.6 -4.83,0.91 -0.55,0.1 -0.86,0.13 -0.87,-0.67 -0.01,-1.33 0.43,-2.35 1.37,-3.25 3.34,-3.2 6.73,-6.34 10.34,-9.24 0.52,-0.42 1.4,-0.85 1.24,-1.57 -0.14,-0.63 -1.1,-0.41 -1.68,-0.63 -2.8,-1.05 -5.7,-1.73 -8.57,-2.54 -0.21,-0.06 -0.43,-0.13 -0.63,-0.22 -0.27,-0.13 -0.59,-0.24 -0.5,-0.63 0.07,-0.33 0.36,-0.31 0.61,-0.38 0.77,-0.2 1.49,0.07 2.2,0.24 2.58,0.6 5.18,1.03 7.81,1.39 0.91,0.12 1.8,0.33 2.56,1.01 0.83,0.74 1.98,0.83 3.03,1.06 0.48,0.11 0.93,0.22 0.86,0.8 -0.07,0.59 -0.49,0.62 -1.01,0.55 -0.97,-0.13 -1.83,0.39 -2.42,0.98 -2.08,2.08 -4.62,3.54 -6.97,5.23 -2.23,1.6 -4.2,3.46 -6.15,5.36 -0.15,0.15 -0.4,0.3 -0.31,0.55 0.14,0.37 0.46,0.16 0.67,0.11 1.71,-0.36 3.42,-0.73 5.13,-1.13 1.86,-0.43 3.75,-0.64 5.63,-0.84 0.45,-0.05 0.9,-0.07 1.29,-0.32 0.94,-0.59 1.55,-0.04 1.86,0.71 0.36,0.87 -0.46,1.12 -1.06,1.39 -0.45,0.2 -0.95,0.19 -1.27,0.18 z"
         id="path4"
         style="stroke-width:0.812644" />
      <path
         d="m 41.72,239.33 c -0.15,1.42 -0.34,2.84 -0.45,4.26 -0.18,2.51 -0.05,5.04 -0.37,7.54 -0.05,0.39 0.02,0.99 -0.5,0.96 -0.54,-0.03 -0.52,-0.6 -0.52,-1.06 0,-0.43 -0.08,-0.87 -0.15,-1.45 -0.52,0.74 -0.83,1.34 -0.76,2.1 0.03,0.35 0,0.87 -0.48,0.84 -0.45,-0.03 -0.47,-0.53 -0.44,-0.9 0.06,-0.88 0.02,-1.76 0.29,-2.64 0.62,-1.98 0.23,-4.07 0.55,-6.09 0.4,-2.53 0.58,-5.09 0.94,-7.63 0.11,-0.76 -0.02,-1.48 -0.01,-2.22 0,-0.22 -0.08,-0.47 0.17,-0.6 0.27,-0.13 0.49,0.11 0.52,0.28 0.25,1.25 1.33,2.04 1.61,3.35 0.36,1.73 1.2,3.36 1.88,5.01 0.18,0.43 0.5,0.29 0.62,-0.07 0.79,-2.33 2.18,-4.42 2.84,-6.8 0.23,-0.83 0.95,-1.33 1.26,-2.09 0.07,-0.17 0.27,-0.26 0.48,-0.18 0.29,0.12 0.35,0.37 0.35,0.64 0,1.03 0,2.07 0.01,3.1 0,3.2 -0.37,6.37 -0.5,9.56 -0.1,2.45 -0.27,4.91 -0.22,7.36 0,0.47 -0.07,0.86 -0.56,0.94 -0.5,0.08 -0.57,-0.38 -0.68,-0.72 -0.23,-0.74 0,-1.48 0.01,-2.22 0.04,-3.5 0.15,-7 0.19,-10.49 0,-0.79 0.47,-1.6 0,-2.39 -0.42,-0.01 -0.53,0.32 -0.64,0.56 -0.63,1.35 -1.22,2.72 -1.84,4.08 -0.14,0.31 -0.23,0.62 -0.24,0.97 0,0.27 0.12,0.66 -0.31,0.72 -0.34,0.04 -0.53,-0.26 -0.68,-0.5 -0.83,-1.32 -1.49,-2.72 -1.96,-4.22 -0.12,0 -0.24,0 -0.37,0 z"
         id="path5"
         style="stroke-width:0.812644" />
      <path
         d="m 94.53,250.97 c 1.64,-0.99 3.54,-1.2 5.37,-1.66 0.57,-0.14 1.12,-0.07 1.66,0.06 0.38,0.09 0.68,0.37 0.66,0.8 -0.02,0.46 -0.42,0.67 -0.79,0.64 -1.13,-0.09 -1.97,0.25 -2.67,1.21 -0.38,0.53 -1.18,0.32 -1.8,0.39 -1.29,0.15 -2.59,-0.23 -3.88,0.55 -0.64,0.39 -1.12,-0.5 -1.19,-1.23 -0.15,-1.5 0.22,-2.97 0.38,-4.45 0.25,-2.37 0.21,-4.75 0.2,-7.13 0,-2.01 0.22,-4.01 0.01,-6.03 -0.11,-1.07 0.41,-1.42 1.46,-1.17 1.78,0.43 3.56,0.68 5.39,0.44 0.44,-0.06 0.93,0.07 0.85,0.62 -0.11,0.76 -0.66,1.24 -1.43,1.07 -1.14,-0.25 -2.3,-0.13 -3.44,-0.27 -0.81,-0.1 -1.08,0.2 -1.03,0.98 0.09,1.56 0.14,3.12 0.19,4.67 0.01,0.5 0.29,0.66 0.72,0.65 0.63,-0.01 1.26,-0.06 1.89,-0.07 0.59,-0.01 1.21,0.08 1.31,0.76 0.09,0.63 -0.38,1.05 -0.97,1.2 -0.72,0.18 -1.46,0.33 -2.2,0.36 -0.61,0.02 -0.73,0.23 -0.72,0.8 0.04,2.23 0.02,4.45 0.02,6.8 z"
         id="path6"
         style="stroke-width:0.812644" />
      <path
         d="m 151.54,238.75 c 0,0.26 0,0.52 0,0.78 0,0.55 -0.18,1.23 0.07,1.64 0.36,0.59 1,-0.05 1.53,-0.02 0.35,0.02 0.71,0.09 0.86,0.42 0.18,0.41 -0.2,0.59 -0.46,0.78 -0.12,0.09 -0.26,0.19 -0.4,0.2 -1.63,0.08 -1.64,1.16 -1.63,2.41 0.01,1.61 0.15,3.2 0.24,4.8 0.04,0.72 0.3,0.86 0.99,0.75 1.87,-0.32 3.75,-0.61 5.66,-0.39 0.15,0.02 0.3,0 0.45,0.03 0.37,0.1 0.98,-0.01 1,0.49 0.02,0.56 -0.62,0.59 -1.02,0.63 -2.6,0.21 -5.16,0.63 -7.72,1.14 -1.09,0.22 -1.44,-0.21 -1.19,-1.33 0.28,-1.25 0.02,-2.5 -0.02,-3.76 -0.08,-2.22 -0.07,-4.45 0,-6.68 0.06,-1.9 0.58,-3.82 -0.12,-5.73 -0.26,-0.71 0.37,-1 0.97,-1.04 0.82,-0.05 1.68,-0.17 2.45,0.03 1.82,0.46 3.61,0.34 5.43,0.13 0.33,-0.04 0.73,-0.18 0.87,0.23 0.11,0.33 -0.25,0.5 -0.48,0.68 -1.34,0.97 -2.86,0.97 -4.4,0.8 -0.74,-0.08 -1.48,-0.2 -2.19,-0.4 -0.75,-0.22 -0.93,0.06 -0.9,0.74 0.03,0.89 0,1.78 0,2.67 0,0 0,0 0,0 z"
         id="path7"
         style="stroke-width:0.812644" />
      <path
         d="m 144.09,234.4 c 0.11,-0.02 0.22,-0.07 0.33,-0.07 0.3,0.02 0.77,-0.23 0.85,0.23 0.06,0.4 -0.41,0.45 -0.72,0.56 -1.65,0.57 -3.26,1.27 -5.04,1.42 -0.79,0.07 -1.13,0.55 -1.1,1.38 0.05,1.23 0.03,2.47 0,3.7 -0.02,0.65 0.17,0.79 0.78,0.61 0.62,-0.18 1.51,-0.56 1.68,0.36 0.14,0.74 -0.71,1.03 -1.41,1.11 -0.95,0.11 -1.21,0.55 -1.2,1.56 0.03,1.78 -0.21,3.57 -0.4,5.34 -0.08,0.74 0.11,0.92 0.84,0.77 2.33,-0.49 4.67,-0.93 7.01,-1.39 0.18,-0.04 0.37,-0.08 0.55,-0.08 0.54,0 1.2,0.09 1.28,0.65 0.1,0.71 -0.61,0.67 -1.12,0.76 -2.94,0.47 -5.82,1.25 -8.78,1.6 -0.33,0.04 -0.69,0.1 -1,0.03 -0.41,-0.1 -0.99,0.13 -1.21,-0.38 -0.25,-0.6 0.52,-0.52 0.67,-0.82 0.48,-0.98 0.57,-2.07 0.68,-3.13 0.29,-2.62 0.07,-5.27 0.61,-7.89 0.2,-0.94 0.02,-1.99 0.17,-2.99 0.07,-0.48 -0.11,-0.79 -0.67,-0.79 -0.4,0 -0.91,0.04 -0.94,-0.53 -0.03,-0.49 0.44,-0.63 0.79,-0.84 1.25,-0.73 2.7,-0.39 4.03,-0.77 1.06,-0.31 2.21,-0.3 3.32,-0.44 0,0.01 0,0.03 0,0.04 z"
         id="path8"
         style="stroke-width:0.812644" />
      <path
         d="m 170.01,232.4 c 0,0 -0.07,0 -0.11,0 -2.85,-0.01 -3.05,0.2 -2.75,3.13 0.08,0.81 -0.26,1.86 0.31,2.37 0.56,0.5 1.44,-0.27 2.21,-0.32 0.22,-0.01 0.45,-0.03 0.67,-0.01 0.51,0.03 1.02,0.13 1.04,0.76 0.02,0.63 -0.39,0.91 -1,0.97 -0.74,0.07 -1.48,0.2 -2.22,0.25 -0.71,0.05 -0.99,0.44 -0.99,1.09 -0.02,2.31 0,4.63 -0.07,6.94 -0.04,1.66 0.03,3.36 -0.97,4.84 -0.19,0.28 -0.26,0.7 -0.69,0.58 -0.49,-0.14 -0.53,-0.59 -0.46,-1.02 0.12,-0.74 0.36,-1.46 0.4,-2.2 0.18,-4.06 0.26,-8.13 0.5,-12.18 0.08,-1.41 0.07,-2.82 0.17,-4.22 0.04,-0.58 0.04,-0.99 -0.39,-1.5 -0.57,-0.67 0.15,-0.89 0.66,-0.94 1.81,-0.15 3.63,-0.27 5.44,-0.34 0.93,-0.03 1.88,-0.11 2.79,0.15 0.41,0.12 0.98,0.21 0.91,0.8 -0.06,0.5 -0.58,0.52 -0.98,0.56 -1.49,0.13 -2.97,0.23 -4.46,0.33 0,-0.01 0,-0.03 0,-0.04 z"
         id="path9"
         style="stroke-width:0.812644" />
      <path
         d="m 87.12,233.46 c -1.01,0.16 -2.04,-0.29 -3.1,-0.45 -1.46,-0.22 -1.88,0.02 -1.79,1.55 0.08,1.38 0.05,2.76 0.07,4.14 0,0.45 0,0.9 -0.05,1.34 -0.09,0.69 0.14,0.82 0.74,0.54 0.23,-0.11 0.5,-0.16 0.75,-0.21 0.63,-0.12 1.2,0.04 1.31,0.7 0.12,0.69 -0.48,0.81 -1.02,0.92 -1.9,0.38 -1.88,0.39 -2.08,2.29 -0.22,2.15 -0.49,4.29 -0.73,6.44 -0.05,0.48 -0.17,0.94 -0.75,0.93 -0.54,-0.01 -0.7,-0.46 -0.82,-0.92 -0.19,-0.75 0,-1.49 0.1,-2.22 0.65,-4.59 0.65,-9.25 1.32,-13.84 0.07,-0.51 0,-1.04 -0.02,-1.56 -0.03,-1.41 0.53,-1.97 1.96,-1.9 1.68,0.08 3.3,0.61 5,0.56 0.53,-0.01 1.21,0.29 1.18,0.96 -0.04,0.74 -0.72,0.73 -1.3,0.73 -0.22,0 -0.45,0 -0.77,0 z"
         id="path10"
         style="stroke-width:0.812644" />
      <path
         d="m 68.02,247.77 c 0.1,-3.19 -0.14,-6.37 0,-9.56 0.08,-1.8 0.74,-3.49 0.71,-5.3 0,-0.48 0.34,-0.84 0.91,-0.75 1.54,0.24 3.03,-0.21 4.54,-0.34 1.05,-0.09 2.09,-0.07 3.13,-0.1 0.41,-0.01 0.78,0.09 0.8,0.57 0.03,0.52 -0.31,0.73 -0.79,0.71 -2.02,-0.12 -3.98,0.46 -6,0.39 -0.82,-0.03 -1.38,0.27 -1.59,1.29 -0.25,1.22 -0.28,2.44 -0.42,3.65 -0.07,0.58 0.13,0.96 0.82,0.84 0.45,-0.08 0.91,0.02 0.96,0.51 0.05,0.45 -0.38,0.8 -0.79,0.79 -0.9,0 -0.91,0.53 -0.91,1.18 0.03,2.68 -0.03,5.37 -0.35,8.04 -0.06,0.5 0.1,1.41 -0.6,1.35 -0.7,-0.05 -0.51,-0.94 -0.52,-1.5 0,-0.59 0.05,-1.19 0.09,-1.78 z"
         id="path11"
         style="stroke-width:0.812644" />
      <path
         d="m 72.17,221.81 c 1.05,0.09 2,0.18 2.96,-0.15 0.37,-0.13 0.71,0.15 1.09,0.38 0.71,0.42 1.67,0.64 2.57,0.37 0.38,-0.11 0.37,-0.48 0.32,-0.84 -0.04,-0.28 0.4,-0.56 0.42,-0.43 0.11,0.77 0.89,0.91 1.18,1.43 0.22,0.4 -0.21,0.6 -0.62,0.71 -1.47,0.39 -2.96,0.15 -4.43,0.15 -1.2,0 -2.46,-0.01 -3.6,-0.53 -0.27,-0.12 -0.35,0.13 -0.53,0.24 -0.5,0.32 -0.7,-0.21 -0.91,-0.48 -0.24,-0.31 0.02,-0.61 0.31,-0.69 0.42,-0.11 0.88,-0.11 1.24,-0.14 z"
         id="path12"
         style="stroke-width:0.812644" />
      <path
         d="m 150.46,131.71 c -3.3,-2.99 -6.13,-6.11 -8.67,-9.81 1.25,0.11 1.62,1 2.16,1.56 1.18,1.23 2.22,2.59 3.32,3.89 0.88,1.04 1.78,2.07 2.67,3.11 0.24,0.28 0.54,0.52 0.52,1.25 z"
         id="path13"
         style="stroke-width:0.812644" />
      <path
         d="m 158.12,133.87 c -1.51,-0.49 -2.15,-1.78 -3.1,-2.72 -1.69,-1.69 -2.87,-3.79 -4.44,-5.57 -0.18,-0.21 -0.44,-0.43 -0.39,-0.77 0.03,-0.18 0.18,-0.24 0.33,-0.23 0.36,0.02 0.49,0.3 0.62,0.57 0.6,1.34 1.71,2.3 2.63,3.37 1.32,1.54 2.51,3.21 4.06,4.55 0.16,0.14 0.17,0.46 0.28,0.79 z"
         id="path14"
         style="stroke-width:0.812644" />
      <path
         d="m 156.46,134.83 c 2.56,2.22 4.59,4.95 7.07,7.23 -1.66,-0.34 -6.17,-4.96 -7.07,-7.23 z"
         id="path15"
         style="stroke-width:0.812644" />
      <path
         d="m 146.17,223.12 c -1.44,0.19 -2.88,0.39 -4.32,0.58 -0.61,0.08 -1.55,0.35 -1.64,-0.33 -0.1,-0.73 0.91,-0.5 1.43,-0.62 1.72,-0.4 3.47,-0.23 5.21,-0.21 0.18,0 0.4,-0.03 0.44,0.23 0.03,0.23 -0.14,0.33 -0.34,0.36 -0.26,0.04 -0.52,0.04 -0.77,0.06 0,-0.02 0,-0.04 0,-0.06 z"
         id="path16"
         style="stroke-width:0.812644" />
      <path
         d="m 170.6,152.46 c -1.24,-0.95 -2.32,-1.65 -2.83,-2.85 -0.25,-0.59 -0.85,-0.83 -1.09,-1.38 -0.11,-0.25 -0.22,-0.49 0,-0.72 0.22,-0.24 0.56,-0.21 0.69,0.02 0.87,1.52 2.56,2.42 3.12,4.16 0.04,0.13 0.05,0.28 0.12,0.78 z"
         id="path17"
         style="stroke-width:0.812644" />
      <path
         d="m 111.39,116.29 c -0.32,-0.09 -0.78,0 -0.85,-0.4 -0.08,-0.43 0.35,-0.54 0.68,-0.53 0.83,0.03 1.24,-0.8 2,-0.9 0.32,-0.04 0.68,-0.28 0.88,0.15 0.19,0.4 -0.14,0.63 -0.43,0.79 -0.71,0.41 -1.49,0.67 -2.27,0.88 z"
         id="path18"
         style="stroke-width:0.812644" />
      <path
         d="m 146.05,217.61 c 0.41,-0.03 0.81,-0.04 1.22,-0.09 0.25,-0.03 0.47,0 0.51,0.28 0.03,0.28 -0.2,0.35 -0.43,0.41 -0.97,0.25 -1.97,0.38 -2.97,0.42 -0.29,0.01 -0.65,0.02 -0.68,-0.39 -0.02,-0.36 0.24,-0.52 0.57,-0.55 0.59,-0.05 1.19,-0.08 1.78,-0.12 0,0 0,0.02 0,0.03 z"
         id="path19"
         style="stroke-width:0.812644" />
      <path
         d="m 121.32,111.83 c 0.03,0.78 -1.82,1.95 -2.5,1.61 -0.41,-0.2 -0.26,-0.5 -0.09,-0.74 0.51,-0.69 1.3,-0.98 2.02,-1.34 0.35,-0.18 0.5,0.18 0.57,0.47 z"
         id="path20"
         style="stroke-width:0.812644" />
      <path
         d="m 125.19,110.25 c 0.57,0.1 1.31,-0.39 1.36,0.23 0.04,0.52 -0.81,0.34 -1.24,0.38 -0.75,0.07 -1.46,0.24 -2.18,0.41 -0.3,0.07 -0.73,0.3 -0.85,-0.15 -0.11,-0.41 0.38,-0.58 0.64,-0.64 0.79,-0.2 1.6,-0.28 2.28,-0.22 z"
         id="path21"
         style="stroke-width:0.812644" />
      <path
         d="m 163.22,139.39 c -1.15,-1.18 -2.31,-2.38 -2.64,-4.07 1.46,0.92 1.98,2.53 2.64,4.07 z"
         id="path22"
         style="stroke-width:0.812644" />
      <path
         d="m 175.59,154.61 c 0.2,0.17 0.44,0.31 0.56,0.52 0.42,0.69 0.78,1.41 1.18,2.11 0.11,0.2 0.12,0.36 -0.08,0.46 -0.19,0.1 -0.41,0 -0.49,-0.16 -0.42,-0.79 -0.96,-1.49 -1.51,-2.18 -0.21,-0.26 -0.17,-0.64 0.33,-0.75 z"
         id="path23"
         style="stroke-width:0.812644" />
      <path
         d="m 169.25,146.6 c -1.4,-0.71 -2.01,-1.82 -2.73,-2.79 -0.05,-0.06 -0.03,-0.23 0.02,-0.3 0.11,-0.13 0.31,-0.13 0.39,0 0.61,1.04 1.95,1.49 2.33,3.1 z"
         id="path24"
         style="stroke-width:0.812644" />
      <path
         d="m 82.01,219.29 c -0.56,0.06 -0.89,-0.08 -0.91,-0.55 -0.02,-0.53 0.36,-0.71 0.81,-0.7 0.52,0.01 1.28,0.12 1.29,0.61 0.02,0.77 -0.88,0.4 -1.19,0.63 z"
         id="path25"
         style="stroke-width:0.812644" />
      <path
         d="m 139.19,208.43 c -0.45,0 -0.89,0.01 -0.81,-0.55 0.09,-0.68 0.74,-0.67 1.2,-0.79 0.35,-0.09 0.83,0.12 0.77,0.58 -0.09,0.64 -0.7,0.68 -1.15,0.75 z"
         id="path26"
         style="stroke-width:0.812644" />
      <path
         d="m 178.76,160.06 c -0.56,-0.21 -0.91,-0.67 -1.1,-1.25 -0.08,-0.27 0.05,-0.63 0.37,-0.53 0.62,0.19 1.12,0.61 1.27,1.28 0.06,0.28 -0.19,0.46 -0.54,0.51 z"
         id="path27"
         style="stroke-width:0.812644" />
      <path
         d="m 160.87,216.39 c -1.11,0.27 -2.21,0.62 -3.38,0.24 1.07,-0.73 2.24,-0.34 3.38,-0.24 z"
         id="path28"
         style="stroke-width:0.812644" />
      <path
         d="m 149.67,222.2 c 0.38,0.3 1.31,-0.34 1.18,0.52 -0.11,0.78 -0.83,0.18 -1.28,0.16 -0.04,0 -0.07,-0.02 -0.11,-0.03 -0.38,-0.11 -1.14,0.27 -1.09,-0.29 0.06,-0.62 0.83,-0.29 1.3,-0.36 z"
         id="path29"
         style="stroke-width:0.812644" />
      <path
         d="m 96.2,215.18 c 0.05,-0.42 0.37,-0.55 0.7,-0.59 0.3,-0.04 0.64,0.05 0.61,0.45 -0.03,0.37 -0.31,0.61 -0.67,0.65 -0.34,0.04 -0.52,-0.21 -0.64,-0.51 z"
         id="path30"
         style="stroke-width:0.812644" />
      <path
         d="m 86.88,220.2 c -0.03,0.38 -0.3,0.47 -0.61,0.45 -0.27,-0.02 -0.54,-0.11 -0.49,-0.44 0.05,-0.34 0.35,-0.44 0.65,-0.47 0.32,-0.03 0.46,0.15 0.45,0.46 z"
         id="path31"
         style="stroke-width:0.812644" />
      <path
         d="m 108.35,210.75 c 0.22,0.05 0.58,0.03 0.56,0.35 -0.02,0.37 -0.41,0.33 -0.68,0.39 -0.25,0.05 -0.5,-0.04 -0.51,-0.28 -0.02,-0.37 0.29,-0.45 0.63,-0.46 z"
         id="path32"
         style="stroke-width:0.812644" />
      <path
         d="m 86.3,188.66 c -0.92,-0.03 -1.86,0.19 -2.76,-0.24 -1.25,-0.59 -1.54,-1.64 -0.71,-2.73 0.75,-0.98 1.81,-1.61 2.92,-2 1.84,-0.65 3.57,-1.51 5.34,-2.29 1.96,-0.87 3.91,-0.81 5.82,-0.02 1.68,0.7 2.29,3.12 1.14,4.5 -0.75,0.89 -1.54,1.77 -2.88,1.93 -1.51,0.18 -3,0.61 -4.54,0.53 -1.46,-0.07 -2.86,0.52 -4.33,0.32 z"
         id="path33"
         style="stroke-width:0.812644" />
      <path
         d="m 139.24,166.21 c 0.18,-1.36 0.99,-2.55 2.08,-3.64 1.95,-1.95 4.49,-2.69 6.98,-3.53 1.08,-0.36 3.92,1.15 4.26,2.25 0.27,0.85 0,1.64 -0.64,2.13 -2.78,2.11 -5.5,4.38 -9.23,4.61 -0.35,0.02 -0.51,0.25 -0.73,0.45 -0.83,0.78 -1.44,0.72 -2.12,-0.2 -0.41,-0.56 -0.58,-1.2 -0.61,-2.08 z m 3.13,-0.38 c 1.71,0.5 4.43,-0.47 5.13,-1.83 -1.54,0.95 -3.55,0.49 -5.13,1.83 z"
         id="path34"
         style="stroke-width:0.812644" />
      <path
         d="m 78.58,190.88 c -0.06,0.5 -0.42,0.75 -0.89,0.79 -0.34,0.03 -0.72,-0.14 -0.65,-0.55 0.08,-0.47 0.48,-0.67 0.97,-0.73 0.4,-0.05 0.52,0.14 0.58,0.49 z"
         id="path35"
         style="stroke-width:0.812644" />
      <path
         d="m 68.74,192.14 c -0.42,-0.04 -0.61,-0.27 -0.62,-0.65 0,-0.34 0.18,-0.58 0.52,-0.57 0.38,0 0.58,0.29 0.61,0.64 0.03,0.35 -0.21,0.51 -0.5,0.58 z"
         id="path36"
         style="stroke-width:0.812644" />
      <path
         d="m 110.56,170.78 c -0.45,0.31 -0.9,0.63 -1.35,0.94 -0.2,0.13 -0.45,0.19 -0.59,-0.04 -0.14,-0.24 0.07,-0.45 0.25,-0.54 0.53,-0.25 1.09,-0.47 1.71,-0.36 z"
         id="path37"
         style="stroke-width:0.812644" />
      <path
         d="m 126.56,187.16 c 3.24,-1.02 6.24,-2.85 9.94,-3.02 -1.57,1.47 -6.57,2.99 -9.94,3.02 z"
         id="path38"
         style="stroke-width:0.812644" />
      <path
         d="m 93.05,204.11 c 0.34,-0.84 1.11,-1.1 1.72,-1.14 1.56,-0.1 2.79,-1.05 4.23,-1.38 0.31,-0.07 0.75,-0.37 0.9,0.01 0.19,0.48 -0.38,0.6 -0.69,0.69 -2.05,0.63 -4.11,1.21 -6.17,1.81 z"
         id="path39"
         style="stroke-width:0.812644" />
      <path
         d="m 108.98,194.78 c 1.41,-1.3 3.83,-1.98 5.56,-2.41 -0.67,0.77 -4.13,2.27 -5.56,2.41 z"
         id="path40"
         style="stroke-width:0.812644" />
      <path
         d="m 139.48,184.93 c 0.14,0.02 0.37,-0.04 0.4,0.2 0.01,0.12 -0.08,0.32 -0.17,0.36 -0.57,0.25 -1.14,0.49 -1.73,0.69 -0.2,0.07 -0.47,0 -0.58,-0.22 -0.16,-0.33 0.15,-0.48 0.35,-0.58 0.53,-0.26 1.1,-0.41 1.72,-0.46 z"
         id="path41"
         style="stroke-width:0.812644" />
      <path
         d="m 124.11,190.21 c -0.25,-0.01 -0.6,0.02 -0.47,-0.31 0.21,-0.53 0.72,-0.73 1.26,-0.8 0.24,-0.03 0.57,0.08 0.5,0.3 -0.19,0.61 -0.76,0.74 -1.29,0.81 z"
         id="path42"
         style="stroke-width:0.812644" />
      <path
         d="m 144.98,182.48 c 0.38,-0.58 0.87,-0.69 1.28,-0.92 0.19,-0.1 0.47,-0.39 0.64,0.02 0.1,0.25 -0.12,0.44 -0.32,0.52 -0.46,0.19 -0.92,0.47 -1.6,0.38 z"
         id="path43"
         style="stroke-width:0.812644" />
      <path
         d="m 87.53,205.84 c -0.13,0.37 -0.48,0.41 -0.79,0.49 -0.21,0.05 -0.43,0 -0.37,-0.24 0.08,-0.36 0.37,-0.54 0.75,-0.54 0.2,0 0.37,0.04 0.42,0.28 z"
         id="path44"
         style="stroke-width:0.812644" />
      <path
         d="m 48.17,196.49 c 1.85,0.91 3.5,2.11 5.04,3.42 1.27,1.08 2.74,1.88 3.95,3.04 0.53,0.51 0.72,1.31 1.47,1.62 0.13,0.06 0.25,0.31 0.08,0.48 -0.17,0.18 -0.35,0.06 -0.5,-0.05 -1.96,-1.38 -4.09,-2.56 -5.55,-4.53 -0.3,-0.41 -0.66,-0.18 -0.98,-0.36 -1.51,-0.87 -2.7,-2.05 -3.51,-3.62 z"
         id="path45"
         style="stroke-width:0.812644" />
      <path
         d="m 93.259765,129.61 c 0.34,0.12 1.01,0.06 0.92,0.53 -0.11,0.53 -0.72,0.81 -1.31,0.84 -0.37,0.01 -0.71,-0.21 -0.68,-0.58 0.05,-0.57 0.51,-0.76 1.07,-0.79 z"
         id="path46"
         style="stroke-width:0.812644" />
      <path
         d="m 91.63,132.83 c 0.25,0.04 0.64,-0.03 0.61,0.41 -0.05,0.54 -0.52,0.56 -0.92,0.57 -0.3,0 -0.61,-0.09 -0.67,-0.44 -0.05,-0.29 0.46,-0.56 0.99,-0.54 z"
         id="path47"
         style="stroke-width:0.812644" />
    </g>
  </g>
  <g
     inkscape:groupmode="layer"
     id="layer2"
     inkscape:label="components"
     style="display:none" />
</svg>
