<?xml version="1.0" encoding="UTF-8" standalone="no"?>
<!-- Created with Inkscape (http://www.inkscape.org/) -->

<svg
   width="60.959999mm"
   height="128.5mm"
   viewBox="0 0 60.960001 128.5"
   version="1.1"
   id="svg1"
   xml:space="preserve"
   inkscape:version="1.4 (e7c3feb1, 2024-10-09)"
   sodipodi:docname="GMO.svg"
   xmlns:inkscape="http://www.inkscape.org/namespaces/inkscape"
   xmlns:sodipodi="http://sodipodi.sourceforge.net/DTD/sodipodi-0.dtd"
   xmlns="http://www.w3.org/2000/svg"
   xmlns:svg="http://www.w3.org/2000/svg"><sodipodi:namedview
     id="namedview1"
     pagecolor="#ffffff"
     bordercolor="#000000"
     borderopacity="0.25"
     inkscape:showpageshadow="2"
     inkscape:pageopacity="0.0"
     inkscape:pagecheckerboard="0"
     inkscape:deskcolor="#d1d1d1"
     inkscape:document-units="mm"
     inkscape:zoom="9.9228823"
     inkscape:cx="226.04319"
     inkscape:cy="411.57397"
     inkscape:window-width="2560"
     inkscape:window-height="1387"
     inkscape:window-x="0"
     inkscape:window-y="25"
     inkscape:window-maximized="0"
     inkscape:current-layer="SILK" /><defs
     id="defs1"><style
       id="style1">
      .st0 {
        fill: none;
      }

      .st1 {
        fill: #a5a5a5;
      }

      .st2 {
        fill: #cfcfcf;
        opacity: .92;
      }

      .st3 {
        fill: #020202;
      }

      .st4 {
        fill: #fff;
      }
    </style><clipPath
       clipPathUnits="userSpaceOnUse"
       id="clipPath826"><path
         d="M 0,432 H 432 V 0 H 0 Z"
         transform="translate(-149.3112,-68.861199)"
         id="path826" /></clipPath><clipPath
       clipPathUnits="userSpaceOnUse"
       id="clipPath828"><path
         d="M 0,432 H 432 V 0 H 0 Z"
         transform="translate(-152.5504,-70.016004)"
         id="path828" /></clipPath><clipPath
       clipPathUnits="userSpaceOnUse"
       id="clipPath830"><path
         d="M 0,432 H 432 V 0 H 0 Z"
         transform="translate(-157.0578,-70.016004)"
         id="path830" /></clipPath></defs><g
     id="PANEL"
     transform="matrix(0.36896367,0,0,0.36003512,-22.772212,-9.9732857)"
     style="display:inline;fill:#d0d0cf;fill-opacity:1"><rect
       class="st2"
       x="58.720001"
       y="24.41"
       width="171.78"
       height="364.25"
       id="rect1"
       style="display:inline;opacity:1;fill:#d0d0cf;fill-opacity:1" /></g><g
     id="SILK"
     transform="matrix(0.35711416,0,0,0.35428256,-20.938917,-8.9348456)"><rect
       x="186.89"
       y="297.45999"
       width="32.669998"
       height="46.82"
       rx="6.3299999"
       ry="6.3299999"
       id="rect2" /><g
       id="g4"><path
         class="st3"
         d="m 135.37,32.52 -0.61,0.58 c -0.44,-0.43 -0.92,-0.76 -1.45,-0.99 -0.52,-0.22 -1.04,-0.34 -1.53,-0.34 -0.62,0 -1.21,0.15 -1.77,0.46 -0.56,0.3 -0.99,0.72 -1.3,1.24 -0.31,0.52 -0.46,1.07 -0.46,1.65 0,0.58 0.16,1.16 0.48,1.69 0.32,0.54 0.76,0.96 1.32,1.26 0.56,0.31 1.18,0.46 1.85,0.46 0.81,0 1.5,-0.23 2.06,-0.69 0.56,-0.46 0.9,-1.05 1,-1.78 h -2.52 V 35.3 h 3.41 c 0,1.22 -0.37,2.19 -1.09,2.91 -0.72,0.72 -1.68,1.08 -2.88,1.08 -1.46,0 -2.62,-0.5 -3.47,-1.49 -0.66,-0.77 -0.98,-1.65 -0.98,-2.66 0,-0.75 0.19,-1.44 0.56,-2.09 0.37,-0.65 0.89,-1.15 1.55,-1.51 0.66,-0.36 1.4,-0.54 2.22,-0.54 0.67,0 1.3,0.12 1.89,0.36 0.59,0.24 1.17,0.63 1.73,1.16 z"
         id="path2" /><path
         class="st3"
         d="m 139.18,39.09 1.13,-7.9 h 0.13 l 3.21,6.48 3.18,-6.48 h 0.13 l 1.14,7.9 h -0.77 l -0.78,-5.65 -2.79,5.65 h -0.2 l -2.83,-5.69 -0.78,5.69 h -0.76 z"
         id="path3" /><path
         class="st3"
         d="m 158.7,32.28 c 0.36,0.37 0.64,0.79 0.83,1.28 0.19,0.49 0.29,1.02 0.29,1.58 0,1.16 -0.4,2.14 -1.21,2.94 -0.8,0.81 -1.78,1.21 -2.94,1.21 -0.88,0 -1.66,-0.23 -2.35,-0.69 l -0.89,1.04 -0.58,-0.47 0.89,-1.04 c -0.83,-0.81 -1.25,-1.79 -1.25,-2.95 0,-0.76 0.18,-1.46 0.55,-2.11 0.37,-0.65 0.87,-1.16 1.51,-1.52 0.64,-0.36 1.34,-0.55 2.1,-0.55 0.92,0 1.76,0.26 2.51,0.79 l 0.77,-0.93 0.57,0.47 -0.81,0.95 z m -5.44,5.25 4.36,-5.13 c -0.6,-0.42 -1.26,-0.64 -1.98,-0.64 -0.58,0 -1.14,0.15 -1.66,0.46 -0.52,0.31 -0.93,0.72 -1.23,1.23 -0.3,0.51 -0.44,1.09 -0.44,1.73 0,0.91 0.32,1.7 0.95,2.35 z m 4.91,-4.63 -4.33,5.1 c 0.55,0.35 1.15,0.53 1.8,0.53 0.61,0 1.18,-0.15 1.7,-0.45 0.52,-0.3 0.93,-0.7 1.22,-1.22 0.29,-0.52 0.44,-1.09 0.44,-1.72 0,-0.87 -0.28,-1.62 -0.83,-2.24 z"
         id="path4" /></g><g
       id="g12"><path
         d="m 78.15,126.41 -0.59,0.52 c -0.24,-0.31 -0.47,-0.47 -0.68,-0.47 -0.1,0 -0.19,0.03 -0.26,0.09 -0.07,0.06 -0.1,0.14 -0.1,0.22 0,0.08 0.03,0.17 0.09,0.27 0.06,0.1 0.25,0.31 0.57,0.65 0.17,0.18 0.28,0.3 0.33,0.38 0.13,0.17 0.22,0.33 0.27,0.48 0.05,0.15 0.08,0.3 0.08,0.46 0,0.35 -0.12,0.64 -0.37,0.87 -0.25,0.23 -0.56,0.35 -0.95,0.35 -0.59,0 -1.06,-0.28 -1.43,-0.83 l 0.62,-0.5 c 0.25,0.38 0.52,0.57 0.81,0.57 0.14,0 0.26,-0.04 0.35,-0.13 0.09,-0.09 0.14,-0.2 0.14,-0.33 0,-0.1 -0.03,-0.2 -0.09,-0.3 -0.06,-0.1 -0.22,-0.3 -0.49,-0.59 -0.29,-0.3 -0.48,-0.53 -0.57,-0.69 -0.12,-0.21 -0.18,-0.41 -0.18,-0.62 0,-0.27 0.09,-0.5 0.26,-0.71 0.22,-0.26 0.51,-0.4 0.88,-0.4 0.51,0 0.94,0.24 1.28,0.71 z"
         id="path5" /><path
         d="m 80.28,125.81 h 0.76 c 0.46,0 0.78,0.04 0.97,0.12 0.23,0.1 0.41,0.24 0.53,0.42 0.12,0.18 0.18,0.39 0.18,0.62 0,0.26 -0.07,0.5 -0.21,0.71 -0.14,0.21 -0.33,0.37 -0.57,0.46 -0.24,0.09 -0.63,0.15 -1.19,0.16 l -0.25,1.82 h -0.81 z m 0.58,1.73 c 0.44,0 0.73,-0.05 0.86,-0.14 0.13,-0.09 0.2,-0.22 0.2,-0.4 0,-0.1 -0.03,-0.18 -0.08,-0.25 -0.05,-0.07 -0.13,-0.12 -0.23,-0.14 -0.1,-0.02 -0.31,-0.04 -0.61,-0.04 l -0.14,0.98 z"
         id="path6" /><path
         d="m 84.79,125.81 h 2.32 l -0.1,0.76 h -1.5 l -0.12,0.89 h 1.51 l -0.1,0.76 h -1.52 l -0.16,1.14 h 1.53 l -0.1,0.75 H 84.2 l 0.59,-4.31 z"
         id="path7" /><path
         d="m 92.83,126.37 -0.59,0.55 c -0.13,-0.15 -0.28,-0.26 -0.47,-0.34 -0.19,-0.08 -0.38,-0.12 -0.6,-0.12 -0.3,0 -0.59,0.08 -0.86,0.23 -0.28,0.15 -0.49,0.36 -0.64,0.61 -0.15,0.25 -0.23,0.52 -0.23,0.81 0,0.39 0.13,0.71 0.4,0.97 0.27,0.26 0.62,0.39 1.04,0.39 0.45,0 0.84,-0.13 1.17,-0.39 l 0.48,0.63 c -0.49,0.35 -1.06,0.52 -1.7,0.52 -0.45,0 -0.84,-0.09 -1.16,-0.26 -0.32,-0.17 -0.57,-0.42 -0.76,-0.76 -0.19,-0.34 -0.29,-0.69 -0.29,-1.08 0,-0.42 0.11,-0.81 0.34,-1.2 0.23,-0.39 0.54,-0.68 0.92,-0.9 0.38,-0.22 0.81,-0.33 1.27,-0.33 0.64,0 1.2,0.22 1.67,0.67 z"
         id="path8" /><path
         d="m 95.01,125.81 h 0.79 l -0.6,4.31 h -0.78 z"
         id="path9" /><path
         d="m 98.22,125.81 h 0.73 l 0.73,3 1.49,-3 h 0.7 l 0.06,4.31 h -0.76 l -0.04,-2.58 -1.28,2.58 h -0.62 l -0.66,-2.71 -0.69,2.71 h -0.77 l 1.1,-4.31 z"
         id="path10" /><path
         d="m 104.47,125.81 h 2.32 l -0.1,0.76 h -1.5 l -0.12,0.89 h 1.51 l -0.1,0.76 h -1.52 l -0.16,1.14 h 1.53 l -0.1,0.75 h -2.35 l 0.59,-4.31 z"
         id="path11" /><path
         d="m 108.84,125.81 h 0.71 l 1.55,2.93 0.4,-2.93 h 0.79 l -0.59,4.31 h -0.69 l -1.57,-2.96 -0.4,2.96 h -0.78 z"
         id="path12" /></g><g
       id="g17"><path
         d="m 187.09,126.41 -0.59,0.52 c -0.24,-0.31 -0.47,-0.47 -0.68,-0.47 -0.1,0 -0.19,0.03 -0.26,0.09 -0.07,0.06 -0.1,0.14 -0.1,0.22 0,0.08 0.03,0.17 0.09,0.27 0.06,0.1 0.25,0.31 0.57,0.65 0.17,0.18 0.28,0.3 0.33,0.38 0.13,0.17 0.22,0.33 0.27,0.48 0.05,0.15 0.08,0.3 0.08,0.46 0,0.35 -0.12,0.64 -0.37,0.87 -0.25,0.23 -0.56,0.35 -0.95,0.35 -0.59,0 -1.06,-0.28 -1.43,-0.83 l 0.62,-0.5 c 0.25,0.38 0.52,0.57 0.81,0.57 0.14,0 0.26,-0.04 0.35,-0.13 0.09,-0.09 0.14,-0.2 0.14,-0.33 0,-0.1 -0.03,-0.2 -0.09,-0.3 -0.06,-0.1 -0.22,-0.3 -0.49,-0.59 -0.29,-0.3 -0.48,-0.53 -0.57,-0.69 -0.12,-0.21 -0.18,-0.41 -0.18,-0.62 0,-0.27 0.09,-0.5 0.26,-0.71 0.22,-0.26 0.51,-0.4 0.88,-0.4 0.51,0 0.94,0.24 1.28,0.71 z"
         id="path13" /><path
         d="m 189.23,125.81 h 0.76 c 0.46,0 0.78,0.04 0.97,0.12 0.23,0.1 0.41,0.24 0.53,0.42 0.12,0.18 0.18,0.39 0.18,0.62 0,0.26 -0.07,0.5 -0.21,0.71 -0.14,0.21 -0.33,0.37 -0.57,0.46 -0.24,0.09 -0.63,0.15 -1.19,0.16 l -0.25,1.82 h -0.81 z m 0.57,1.73 c 0.44,0 0.73,-0.05 0.86,-0.14 0.13,-0.09 0.2,-0.22 0.2,-0.4 0,-0.1 -0.03,-0.18 -0.08,-0.25 -0.05,-0.07 -0.13,-0.12 -0.23,-0.14 -0.1,-0.02 -0.31,-0.04 -0.61,-0.04 l -0.14,0.98 z"
         id="path14" /><path
         d="m 193.73,125.81 h 2.32 l -0.1,0.76 h -1.5 l -0.12,0.89 h 1.51 l -0.1,0.76 h -1.52 l -0.16,1.14 h 1.53 l -0.1,0.75 h -2.35 l 0.59,-4.31 z"
         id="path15" /><path
         d="m 198.05,125.81 h 2.32 l -0.1,0.76 h -1.5 l -0.12,0.89 h 1.51 l -0.1,0.76 h -1.52 l -0.16,1.14 h 1.53 l -0.1,0.75 h -2.35 l 0.59,-4.31 z"
         id="path16" /><path
         d="m 202.43,125.81 h 0.68 c 0.64,0 1.12,0.08 1.43,0.23 0.31,0.15 0.57,0.39 0.76,0.71 0.2,0.32 0.29,0.7 0.29,1.12 0,0.42 -0.1,0.84 -0.31,1.2 -0.21,0.36 -0.47,0.63 -0.79,0.8 -0.32,0.17 -0.76,0.25 -1.32,0.25 h -1.34 l 0.59,-4.31 z m 0.71,0.76 -0.38,2.8 h 0.27 c 0.41,0 0.71,-0.03 0.89,-0.1 0.26,-0.1 0.46,-0.26 0.62,-0.5 0.16,-0.24 0.23,-0.53 0.23,-0.88 0,-0.29 -0.05,-0.52 -0.16,-0.72 -0.11,-0.2 -0.26,-0.34 -0.46,-0.45 -0.2,-0.1 -0.47,-0.16 -0.8,-0.16 h -0.2 z"
         id="path17" /></g><g
       id="g21"><path
         d="m 84.56,226.14 h 0.81 l -0.22,1.63 h 1.48 l 0.22,-1.63 h 0.81 l -0.59,4.31 h -0.81 l 0.27,-1.96 h -1.48 l -0.27,1.96 h -0.81 z"
         id="path18" /><path
         d="m 89.79,226.14 h 2.32 l -0.1,0.76 h -1.5 l -0.12,0.89 h 1.51 l -0.1,0.76 h -1.52 l -0.16,1.14 h 1.53 l -0.1,0.75 H 89.2 l 0.59,-4.31 z"
         id="path19" /><path
         d="m 95.63,226.14 h 0.68 l 1.07,4.31 h -0.79 l -0.23,-0.92 h -1.71 l -0.49,0.92 h -0.87 l 2.33,-4.31 z m 0.54,2.63 -0.34,-1.42 -0.76,1.42 z"
         id="path20" /><path
         d="m 99.8,226.14 h 0.68 c 0.64,0 1.12,0.08 1.43,0.23 0.31,0.15 0.57,0.39 0.76,0.71 0.2,0.32 0.29,0.7 0.29,1.12 0,0.42 -0.1,0.84 -0.31,1.2 -0.21,0.36 -0.47,0.63 -0.79,0.8 -0.32,0.17 -0.76,0.25 -1.32,0.25 H 99.2 l 0.59,-4.31 z m 0.71,0.76 -0.38,2.8 h 0.27 c 0.41,0 0.71,-0.03 0.89,-0.1 0.26,-0.1 0.46,-0.26 0.62,-0.5 0.16,-0.24 0.23,-0.53 0.23,-0.88 0,-0.29 -0.05,-0.52 -0.16,-0.72 -0.11,-0.2 -0.26,-0.34 -0.46,-0.45 -0.2,-0.1 -0.47,-0.16 -0.8,-0.16 h -0.2 z"
         id="path21" /></g><g
       id="g38"><path
         d="m 102.21,376.85 h 0.73 l 0.73,3 1.49,-3 h 0.7 l 0.06,4.31 h -0.76 l -0.04,-2.58 -1.28,2.58 h -0.62 l -0.66,-2.71 -0.69,2.71 h -0.77 l 1.1,-4.31 z"
         id="path22" /><path
         d="m 112.02,377.4 c 0.33,0.38 0.5,0.84 0.5,1.36 0,0.45 -0.11,0.87 -0.34,1.27 -0.23,0.4 -0.53,0.7 -0.91,0.92 -0.38,0.21 -0.81,0.32 -1.3,0.32 -0.44,0 -0.81,-0.09 -1.12,-0.27 l -0.4,0.45 -0.35,-0.29 0.39,-0.44 c -0.36,-0.37 -0.54,-0.85 -0.54,-1.43 0,-0.47 0.11,-0.9 0.33,-1.29 0.22,-0.39 0.53,-0.7 0.91,-0.92 0.38,-0.22 0.8,-0.33 1.26,-0.33 0.46,0 0.88,0.11 1.21,0.34 l 0.38,-0.43 0.35,0.3 z m -2.98,2.7 2.1,-2.41 c -0.21,-0.12 -0.44,-0.18 -0.71,-0.18 -0.3,0 -0.58,0.08 -0.83,0.23 -0.25,0.15 -0.46,0.37 -0.62,0.65 -0.16,0.28 -0.23,0.57 -0.23,0.87 0,0.33 0.09,0.61 0.28,0.85 z m 2.44,-2.09 -2.08,2.37 c 0.18,0.09 0.39,0.13 0.62,0.13 0.47,0 0.86,-0.17 1.19,-0.5 0.33,-0.33 0.49,-0.74 0.49,-1.21 0,-0.31 -0.08,-0.57 -0.23,-0.8 z"
         id="path23" /><path
         d="m 114.7,376.85 h 2.1 l -0.1,0.76 h -1.29 l -0.13,0.89 h 1.3 l -0.1,0.76 h -1.3 l -0.26,1.9 h -0.81 z"
         id="path24" /><path
         d="m 118.78,376.85 h 2.1 l -0.1,0.76 h -1.29 l -0.13,0.89 h 1.3 l -0.1,0.76 h -1.3 l -0.26,1.9 h -0.81 z"
         id="path25" /><path
         d="m 122.85,376.85 h 2.32 l -0.1,0.76 h -1.5 l -0.12,0.89 h 1.51 l -0.1,0.76 h -1.52 l -0.16,1.14 h 1.53 l -0.1,0.75 h -2.35 l 0.59,-4.31 z"
         id="path26" /><path
         d="m 127.22,376.85 h 0.71 l 1.55,2.93 0.4,-2.93 h 0.79 l -0.59,4.31 h -0.69 l -1.57,-2.96 -0.4,2.96 h -0.78 z"
         id="path27" /><path
         d="m 132.61,376.85 h 2.43 l -1.71,3.56 h 1.35 l -0.1,0.75 h -2.46 l 1.71,-3.55 h -1.33 z"
         id="path28" /><path
         d="m 137.01,376.85 h 2.32 l -0.1,0.76 h -1.5 l -0.12,0.89 h 1.51 l -0.1,0.76 h -1.52 l -0.16,1.14 h 1.53 l -0.1,0.75 h -2.35 l 0.59,-4.31 z"
         id="path29" /><path
         d="m 141.33,376.85 h 2.32 l -0.1,0.76 h -1.5 l -0.12,0.89 h 1.51 l -0.1,0.76 h -1.52 l -0.16,1.14 h 1.53 l -0.1,0.75 h -2.35 l 0.59,-4.31 z"
         id="path30" /><path
         d="m 145.66,376.85 h 2.1 l -0.1,0.76 h -1.29 l -0.13,0.89 h 1.3 l -0.1,0.76 h -1.3 l -0.26,1.9 h -0.81 z"
         id="path31" /><path
         d="m 152.97,376.85 h 0.73 l 0.73,3 1.49,-3 h 0.7 l 0.06,4.31 h -0.76 l -0.04,-2.58 -1.28,2.58 h -0.62 l -0.66,-2.71 -0.69,2.71 h -0.77 l 1.1,-4.31 z"
         id="path32" /><path
         d="m 162.78,377.4 c 0.33,0.38 0.5,0.84 0.5,1.36 0,0.45 -0.11,0.87 -0.34,1.27 -0.23,0.4 -0.53,0.7 -0.91,0.92 -0.38,0.21 -0.81,0.32 -1.3,0.32 -0.44,0 -0.81,-0.09 -1.12,-0.27 l -0.4,0.45 -0.35,-0.29 0.39,-0.44 c -0.36,-0.37 -0.54,-0.85 -0.54,-1.43 0,-0.47 0.11,-0.9 0.33,-1.29 0.22,-0.39 0.53,-0.7 0.91,-0.92 0.38,-0.22 0.8,-0.33 1.26,-0.33 0.46,0 0.88,0.11 1.21,0.34 l 0.38,-0.43 0.35,0.3 z m -2.98,2.7 2.1,-2.41 c -0.21,-0.12 -0.44,-0.18 -0.71,-0.18 -0.3,0 -0.58,0.08 -0.83,0.23 -0.25,0.15 -0.46,0.37 -0.62,0.65 -0.16,0.28 -0.23,0.57 -0.23,0.87 0,0.33 0.09,0.61 0.28,0.85 z m 2.43,-2.09 -2.08,2.37 c 0.18,0.09 0.39,0.13 0.62,0.13 0.47,0 0.86,-0.17 1.19,-0.5 0.33,-0.33 0.49,-0.74 0.49,-1.21 0,-0.31 -0.08,-0.57 -0.23,-0.8 z"
         id="path33" /><path
         d="m 165.5,376.85 h 0.68 c 0.64,0 1.12,0.08 1.43,0.23 0.31,0.15 0.57,0.39 0.76,0.71 0.2,0.32 0.29,0.7 0.29,1.12 0,0.42 -0.1,0.84 -0.31,1.2 -0.21,0.36 -0.47,0.63 -0.79,0.8 -0.32,0.17 -0.76,0.25 -1.32,0.25 h -1.34 l 0.59,-4.31 z m 0.71,0.76 -0.38,2.8 h 0.27 c 0.41,0 0.71,-0.03 0.89,-0.1 0.26,-0.1 0.46,-0.26 0.62,-0.5 0.16,-0.24 0.23,-0.53 0.23,-0.88 0,-0.29 -0.05,-0.52 -0.16,-0.72 -0.11,-0.2 -0.26,-0.34 -0.46,-0.45 -0.2,-0.1 -0.47,-0.16 -0.8,-0.16 h -0.2 z"
         id="path34" /><path
         d="m 170.87,376.85 h 0.81 l -0.36,2.66 c -0.03,0.23 -0.05,0.4 -0.05,0.49 0,0.16 0.05,0.29 0.15,0.38 0.1,0.09 0.25,0.14 0.44,0.14 0.15,0 0.29,-0.03 0.4,-0.1 0.09,-0.05 0.15,-0.14 0.21,-0.25 0.06,-0.11 0.1,-0.35 0.15,-0.7 l 0.36,-2.61 h 0.82 l -0.35,2.57 c -0.07,0.53 -0.17,0.91 -0.28,1.14 -0.11,0.23 -0.29,0.41 -0.51,0.53 -0.22,0.12 -0.49,0.18 -0.81,0.18 -0.43,0 -0.76,-0.11 -1,-0.34 -0.24,-0.23 -0.36,-0.54 -0.36,-0.94 0,-0.17 0.02,-0.43 0.07,-0.76 l 0.32,-2.38 z"
         id="path35" /><path
         d="m 175.95,376.85 h 0.81 l -0.49,3.57 h 1.34 l -0.09,0.74 h -2.15 l 0.59,-4.31 z"
         id="path36" /><path
         d="m 181.25,376.85 h 0.68 l 1.07,4.31 h -0.79 l -0.23,-0.92 h -1.71 l -0.49,0.92 h -0.87 l 2.33,-4.31 z m 0.54,2.64 -0.34,-1.42 -0.76,1.42 z"
         id="path37" /><path
         d="m 185.47,376.85 h 0.75 c 0.46,0 0.79,0.04 0.98,0.12 0.23,0.1 0.41,0.24 0.53,0.41 0.12,0.18 0.18,0.39 0.18,0.63 0,0.3 -0.09,0.55 -0.27,0.77 -0.18,0.22 -0.45,0.36 -0.8,0.45 l 0.94,1.93 h -0.84 l -0.92,-1.88 h -0.07 l -0.26,1.88 h -0.81 z m 0.57,1.73 c 0.44,0 0.72,-0.05 0.85,-0.14 0.13,-0.09 0.2,-0.22 0.2,-0.4 0,-0.1 -0.03,-0.19 -0.08,-0.25 -0.05,-0.07 -0.13,-0.12 -0.23,-0.14 -0.1,-0.03 -0.3,-0.04 -0.61,-0.04 l -0.13,0.98 z"
         id="path38" /></g><g
       id="g43"><path
         d="m 67.74,292.54 0.34,0.58 c 0.21,0.35 0.32,0.63 0.34,0.85 0.02,0.22 -0.01,0.42 -0.11,0.62 -0.1,0.2 -0.24,0.35 -0.43,0.46 -0.16,0.09 -0.32,0.14 -0.5,0.15 -0.18,0 -0.36,-0.03 -0.53,-0.12 -0.04,0.47 -0.25,0.81 -0.63,1.04 -0.2,0.12 -0.41,0.17 -0.64,0.16 -0.23,0 -0.43,-0.07 -0.59,-0.18 -0.17,-0.11 -0.34,-0.31 -0.51,-0.6 l -0.75,-1.28 4.02,-1.67 z m -2.89,2.08 0.23,0.43 c 0.12,0.21 0.25,0.34 0.39,0.39 0.14,0.05 0.28,0.03 0.42,-0.06 0.1,-0.06 0.18,-0.14 0.23,-0.25 0.05,-0.11 0.06,-0.22 0.04,-0.34 -0.02,-0.12 -0.12,-0.32 -0.28,-0.6 z m 1.71,-0.71 0.07,0.12 c 0.11,0.19 0.2,0.3 0.26,0.36 0.07,0.05 0.15,0.08 0.26,0.08 0.1,0 0.2,-0.02 0.29,-0.08 0.09,-0.05 0.15,-0.11 0.19,-0.19 0.04,-0.08 0.05,-0.16 0.03,-0.24 -0.02,-0.08 -0.09,-0.22 -0.21,-0.43 l -0.9,0.38 z"
         id="path39" /><path
         d="m 70.85,297.84 0.34,0.59 -3.17,3.11 -0.4,-0.68 0.67,-0.66 -0.86,-1.48 -1.04,0.04 -0.44,-0.75 z m -2,1.8 1.05,-1.02 -1.61,0.06 0.56,0.95 z"
         id="path40" /><path
         d="m 72.96,301.44 0.36,0.61 -1.74,2.82 2.73,-1.14 0.4,0.68 -4.01,1.67 -0.35,-0.6 1.76,-2.86 -2.76,1.15 -0.39,-0.67 4.01,-1.68 z"
         id="path41" /><path
         d="m 77,309.93 -0.72,-0.36 c 0.09,-0.28 0.13,-0.52 0.11,-0.72 -0.02,-0.2 -0.08,-0.4 -0.2,-0.6 -0.25,-0.43 -0.63,-0.68 -1.13,-0.75 -0.4,-0.05 -0.77,0.02 -1.1,0.22 -0.33,0.19 -0.54,0.47 -0.64,0.82 -0.1,0.35 -0.05,0.69 0.14,1.01 0.14,0.24 0.33,0.42 0.56,0.55 0.23,0.13 0.5,0.19 0.8,0.18 l -0.68,-1.16 0.71,-0.3 1.1,1.88 c -0.63,0.33 -1.23,0.43 -1.8,0.28 -0.57,-0.15 -1.02,-0.5 -1.35,-1.05 -0.35,-0.6 -0.42,-1.2 -0.21,-1.79 0.17,-0.47 0.49,-0.85 0.95,-1.12 0.56,-0.33 1.17,-0.41 1.82,-0.25 0.65,0.17 1.14,0.53 1.47,1.09 0.12,0.21 0.21,0.43 0.27,0.67 0.06,0.24 0.08,0.46 0.06,0.69 -0.02,0.23 -0.07,0.46 -0.17,0.72 z"
         id="path42" /><path
         d="m 75.94,313.27 c 0.07,0.12 0.09,0.24 0.05,0.37 -0.03,0.13 -0.11,0.23 -0.23,0.3 -0.12,0.07 -0.24,0.08 -0.37,0.05 -0.13,-0.04 -0.23,-0.11 -0.3,-0.23 -0.07,-0.12 -0.09,-0.24 -0.05,-0.37 0.04,-0.13 0.11,-0.23 0.23,-0.3 0.12,-0.07 0.24,-0.09 0.37,-0.05 0.13,0.03 0.23,0.11 0.3,0.23 z m 3.1,-1.66 0.41,0.7 -2.94,1.21 -0.41,-0.7 z"
         id="path43" /></g><g
       id="g51"><path
         d="m 112.05,313.68 -0.59,0.52 c -0.24,-0.31 -0.47,-0.47 -0.68,-0.47 -0.1,0 -0.19,0.03 -0.26,0.09 -0.07,0.06 -0.1,0.14 -0.1,0.22 0,0.08 0.03,0.17 0.09,0.27 0.06,0.1 0.25,0.31 0.57,0.65 0.17,0.18 0.28,0.3 0.33,0.38 0.13,0.17 0.22,0.33 0.27,0.48 0.05,0.15 0.08,0.3 0.08,0.46 0,0.35 -0.12,0.64 -0.37,0.87 -0.25,0.23 -0.56,0.35 -0.95,0.35 -0.59,0 -1.06,-0.28 -1.43,-0.83 l 0.62,-0.5 c 0.25,0.38 0.52,0.57 0.81,0.57 0.14,0 0.26,-0.04 0.35,-0.13 0.09,-0.09 0.14,-0.2 0.14,-0.33 0,-0.1 -0.03,-0.2 -0.09,-0.3 -0.06,-0.1 -0.22,-0.3 -0.49,-0.59 -0.29,-0.3 -0.48,-0.53 -0.57,-0.69 -0.12,-0.21 -0.18,-0.41 -0.18,-0.62 0,-0.27 0.09,-0.5 0.26,-0.71 0.22,-0.26 0.51,-0.4 0.88,-0.4 0.51,0 0.94,0.24 1.28,0.71 z"
         id="path44" /><path
         d="m 114.19,313.08 h 0.76 c 0.46,0 0.78,0.04 0.97,0.12 0.23,0.1 0.41,0.24 0.53,0.42 0.12,0.18 0.18,0.39 0.18,0.62 0,0.26 -0.07,0.5 -0.21,0.71 -0.14,0.21 -0.33,0.37 -0.57,0.46 -0.24,0.09 -0.63,0.15 -1.19,0.16 l -0.25,1.82 h -0.81 z m 0.57,1.73 c 0.44,0 0.73,-0.05 0.86,-0.14 0.13,-0.09 0.2,-0.22 0.2,-0.4 0,-0.1 -0.03,-0.18 -0.08,-0.25 -0.05,-0.07 -0.13,-0.12 -0.23,-0.14 -0.1,-0.02 -0.31,-0.04 -0.61,-0.04 l -0.14,0.98 z"
         id="path45" /><path
         d="m 118.69,313.08 h 2.32 l -0.1,0.76 h -1.5 l -0.12,0.89 h 1.51 l -0.1,0.76 h -1.52 l -0.16,1.14 h 1.53 l -0.1,0.75 h -2.35 l 0.59,-4.31 z"
         id="path46" /><path
         d="m 126.74,313.64 -0.59,0.55 c -0.13,-0.15 -0.28,-0.26 -0.47,-0.34 -0.19,-0.08 -0.38,-0.12 -0.6,-0.12 -0.3,0 -0.59,0.08 -0.86,0.23 -0.28,0.15 -0.49,0.36 -0.64,0.61 -0.15,0.25 -0.23,0.52 -0.23,0.81 0,0.39 0.13,0.71 0.4,0.97 0.27,0.26 0.62,0.39 1.04,0.39 0.45,0 0.84,-0.13 1.17,-0.39 l 0.48,0.63 c -0.49,0.35 -1.06,0.52 -1.7,0.52 -0.45,0 -0.84,-0.09 -1.16,-0.26 -0.32,-0.17 -0.57,-0.42 -0.76,-0.76 -0.19,-0.34 -0.29,-0.69 -0.29,-1.08 0,-0.42 0.11,-0.81 0.34,-1.2 0.23,-0.39 0.54,-0.68 0.92,-0.9 0.38,-0.22 0.81,-0.33 1.27,-0.33 0.64,0 1.2,0.22 1.67,0.67 z"
         id="path47" /><path
         d="m 128.91,313.08 h 0.79 l -0.6,4.31 h -0.78 z"
         id="path48" /><path
         d="m 132.13,313.08 h 0.73 l 0.73,3 1.49,-3 h 0.7 l 0.06,4.31 h -0.76 l -0.04,-2.58 -1.28,2.58 h -0.62 l -0.66,-2.71 -0.69,2.71 h -0.77 l 1.1,-4.31 z"
         id="path49" /><path
         d="m 138.37,313.08 h 2.32 l -0.1,0.76 h -1.5 l -0.12,0.89 h 1.51 l -0.1,0.76 h -1.52 l -0.16,1.14 h 1.53 l -0.1,0.75 h -2.35 l 0.59,-4.31 z"
         id="path50" /><path
         d="m 142.74,313.08 h 0.71 l 1.55,2.93 0.4,-2.93 h 0.79 l -0.59,4.31 h -0.69 l -1.57,-2.96 -0.4,2.96 h -0.78 z"
         id="path51" /></g><g
       id="g55"><path
         d="m 118.29,351.08 h 0.81 l -0.22,1.63 h 1.48 l 0.22,-1.63 h 0.81 l -0.59,4.31 h -0.81 l 0.27,-1.96 h -1.48 l -0.27,1.96 h -0.81 z"
         id="path52" /><path
         d="m 123.52,351.08 h 2.32 l -0.1,0.76 h -1.5 l -0.12,0.89 h 1.51 l -0.1,0.76 h -1.52 l -0.16,1.14 h 1.53 l -0.1,0.75 h -2.35 l 0.59,-4.31 z"
         id="path53" /><path
         d="m 129.36,351.08 h 0.68 l 1.07,4.31 h -0.79 l -0.23,-0.92 h -1.71 l -0.49,0.92 h -0.87 l 2.33,-4.31 z m 0.54,2.63 -0.34,-1.42 -0.76,1.42 z"
         id="path54" /><path
         d="m 133.53,351.08 h 0.68 c 0.64,0 1.12,0.08 1.43,0.23 0.31,0.15 0.57,0.39 0.76,0.71 0.2,0.32 0.29,0.7 0.29,1.12 0,0.42 -0.1,0.84 -0.31,1.2 -0.21,0.36 -0.47,0.63 -0.79,0.8 -0.32,0.17 -0.76,0.25 -1.32,0.25 h -1.34 l 0.59,-4.31 z m 0.71,0.76 -0.38,2.8 h 0.27 c 0.41,0 0.71,-0.03 0.89,-0.1 0.26,-0.1 0.46,-0.26 0.62,-0.5 0.16,-0.24 0.23,-0.53 0.23,-0.88 0,-0.29 -0.05,-0.52 -0.16,-0.72 -0.11,-0.2 -0.26,-0.34 -0.46,-0.45 -0.2,-0.1 -0.47,-0.16 -0.8,-0.16 h -0.2 z"
         id="path55" /></g><g
       id="g60"><path
         d="m 161.07,313.02 -0.59,0.52 c -0.24,-0.31 -0.47,-0.47 -0.68,-0.47 -0.1,0 -0.19,0.03 -0.26,0.09 -0.07,0.06 -0.1,0.14 -0.1,0.22 0,0.08 0.03,0.17 0.09,0.27 0.06,0.1 0.25,0.31 0.57,0.65 0.17,0.18 0.28,0.3 0.33,0.38 0.13,0.17 0.22,0.33 0.27,0.48 0.05,0.15 0.08,0.3 0.08,0.46 0,0.35 -0.12,0.64 -0.37,0.87 -0.25,0.23 -0.56,0.35 -0.95,0.35 -0.59,0 -1.06,-0.28 -1.43,-0.83 l 0.62,-0.5 c 0.25,0.38 0.52,0.57 0.81,0.57 0.14,0 0.26,-0.04 0.35,-0.13 0.09,-0.09 0.14,-0.2 0.14,-0.33 0,-0.1 -0.03,-0.2 -0.09,-0.3 -0.06,-0.1 -0.22,-0.3 -0.49,-0.59 -0.29,-0.3 -0.48,-0.53 -0.57,-0.69 -0.12,-0.21 -0.18,-0.41 -0.18,-0.62 0,-0.27 0.09,-0.5 0.26,-0.71 0.22,-0.26 0.51,-0.4 0.88,-0.4 0.51,0 0.94,0.24 1.28,0.71 z"
         id="path56" /><path
         d="m 163.21,312.42 h 0.76 c 0.46,0 0.78,0.04 0.97,0.12 0.23,0.1 0.41,0.24 0.53,0.42 0.12,0.18 0.18,0.39 0.18,0.62 0,0.26 -0.07,0.5 -0.21,0.71 -0.14,0.21 -0.33,0.37 -0.57,0.46 -0.24,0.09 -0.63,0.15 -1.19,0.16 l -0.25,1.82 h -0.81 z m 0.57,1.73 c 0.44,0 0.73,-0.05 0.86,-0.14 0.13,-0.09 0.2,-0.22 0.2,-0.4 0,-0.1 -0.03,-0.18 -0.08,-0.25 -0.05,-0.07 -0.13,-0.12 -0.23,-0.14 -0.1,-0.02 -0.31,-0.04 -0.61,-0.04 l -0.14,0.98 z"
         id="path57" /><path
         d="m 167.71,312.42 h 2.32 l -0.1,0.76 h -1.5 l -0.12,0.89 h 1.51 l -0.1,0.76 h -1.52 l -0.16,1.14 h 1.53 l -0.1,0.75 h -2.35 l 0.59,-4.31 z"
         id="path58" /><path
         d="m 172.03,312.42 h 2.32 l -0.1,0.76 h -1.5 l -0.12,0.89 h 1.51 l -0.1,0.76 h -1.52 l -0.16,1.14 h 1.53 l -0.1,0.75 h -2.35 l 0.59,-4.31 z"
         id="path59" /><path
         d="m 176.4,312.42 h 0.68 c 0.64,0 1.12,0.08 1.43,0.23 0.31,0.15 0.57,0.39 0.76,0.71 0.2,0.32 0.29,0.7 0.29,1.12 0,0.42 -0.1,0.84 -0.31,1.2 -0.21,0.36 -0.47,0.63 -0.79,0.8 -0.32,0.17 -0.76,0.25 -1.32,0.25 h -1.34 l 0.59,-4.31 z m 0.71,0.76 -0.38,2.8 H 177 c 0.41,0 0.71,-0.03 0.89,-0.1 0.26,-0.1 0.46,-0.26 0.62,-0.5 0.16,-0.24 0.23,-0.53 0.23,-0.88 0,-0.29 -0.05,-0.52 -0.16,-0.72 -0.11,-0.2 -0.26,-0.34 -0.46,-0.45 -0.2,-0.1 -0.47,-0.16 -0.8,-0.16 h -0.2 z"
         id="path60" /></g><g
       id="g67"><path
         d="m 161.74,351.08 h 2.63 l -0.09,0.77 h -0.9 l -0.48,3.54 h -0.8 l 0.48,-3.54 h -0.94 z"
         id="path64" /><path
         d="m 167.49,351.08 h 0.68 l 1.07,4.31 h -0.79 l -0.23,-0.92 h -1.71 l -0.49,0.92 h -0.87 l 2.33,-4.31 z m 0.54,2.63 -0.34,-1.42 -0.76,1.42 z"
         id="path65" /><path
         d="m 171.63,351.08 h 0.79 l -0.6,4.31 h -0.78 z"
         id="path66" /><path
         d="m 174.55,351.08 h 0.81 l -0.49,3.57 h 1.34 l -0.09,0.74 h -2.15 l 0.59,-4.31 z"
         id="path67" /></g><g
       id="g71"><path
         d="m 187.77,226.14 h 2.63 l -0.09,0.77 h -0.9 l -0.48,3.54 h -0.8 l 0.48,-3.54 h -0.94 z"
         id="path68" /><path
         d="m 193.51,226.14 h 0.68 l 1.07,4.31 h -0.79 l -0.23,-0.92 h -1.71 l -0.49,0.92 h -0.87 l 2.33,-4.31 z m 0.55,2.63 -0.34,-1.42 -0.76,1.42 z"
         id="path69" /><path
         d="m 197.65,226.14 h 0.79 l -0.6,4.31 h -0.78 z"
         id="path70" /><path
         d="m 200.57,226.14 h 0.81 l -0.49,3.57 h 1.34 l -0.09,0.74 h -2.15 l 0.59,-4.31 z"
         id="path71" /></g><polygon
       points="75.95,301.04 66.58,284.81 85.32,284.81 104.06,284.81 94.69,301.04 85.32,317.27 "
       id="polygon71" /><polygon
       points="75.95,338.48 66.58,322.25 85.32,322.25 104.06,322.25 94.69,338.48 85.32,354.71 "
       id="polygon72" /><g
       id="g72"><line
         x1="68.120003"
         y1="269.53"
         x2="221.10001"
         y2="269.53"
         id="line72" /><rect
         x="68.120003"
         y="269.28"
         width="152.98"
         height="0.5"
         id="rect72" /></g><g
       id="g102"><path
         d="m 221.01,50.94 0.29,-0.39 -0.4,-0.3 -0.07,0.09 -8.78,-3.87 -6.67,5.34 -1.2,-0.21 -1.81,-2.27 -2.1,-3.81 -2.13,3.53 -1.54,3.58 -2.4,-0.4 h -0.01 c 0,0 -1.28,-3 -1.28,-3 l -2.04,-3.5 -2.08,1.7 -0.16,0.05 -3.52,-3 -7.62,4.72 -1.77,-1.57 -1.99,1.1 -2,0.11 -0.09,0.29 -4.58,-1.01 -0.08,0.04 -0.55,-2.58 -2.26,1.54 -1.3,3.16 -3.06,1.58 -0.95,-2.32 -1.92,0.4 -1.83,-3.17 -2.01,-1.13 -2.14,0.05 -0.79,2.78 -1.08,-0.58 -3.11,2.08 -0.41,-1.24 -2.18,2.81 -0.22,0.3 -1.51,1.01 -1.81,-8.46 -2.08,7.11 -1.8,-0.99 -0.58,0.72 -1.93,-1.09 -1.02,-3.3 -2.19,-0.02 -1.73,2.04 -1.98,-3.69 -1.27,3.71 -3.18,0.02 -5.32,0.44 -1.49,-2.82 -1.79,3.1 -0.37,0.03 -1.75,-1.96 -0.86,3.06 -1.36,0.58 -1.4,-7.03 -1.93,7.13 -1.84,-6.26 -2.14,5.4 -0.21,0.42 -6.44,-6.23 -9.18,2.13 -6,2.99 -0.35,-0.74 -2.13,-1.68 -2.04,1.99 -0.95,2.34 -2.66,0.46 -1.73,-5.2 -2.15,1.37 0.27,0.42 1.61,-1.03 1.5,4.52 -3.29,0.57 0.08,0.49 3.37,-0.58 0.15,0.45 2.21,1.45 0.99,-2.47 2.28,-0.39 2.6,-1.3 1.49,3.11 2.01,-2.45 1.94,0.89 1.8,-3.95 1.68,2.77 2.15,2.23 2.02,-4.8 1.65,-1.78 1.8,2.53 1.82,-0.32 2.01,6.41 1.65,-3.35 2.28,2.21 4.72,-2.02 0.78,3.93 1.37,-4.85 2.04,-0.87 0.45,0.5 0.37,-0.64 2.69,-0.22 0.58,1.1 1.95,-1.17 1.74,1.75 2.07,2.22 2.07,-2.31 0.72,-2.08 2.62,-0.02 0.2,0.38 0.32,-0.38 h 2.29 c 0,0 2.01,1.12 2.01,1.12 l 1,3.23 1.47,-1.84 4.6,2.59 1.2,-0.8 0.25,1.18 1.94,-2.64 2.2,-1.47 1.57,4.73 2.18,-2.71 1.02,-3.56 7.63,4.1 1.45,-0.75 0.98,2.41 2.18,-3.02 0.54,-1.3 3.38,-1.74 1.32,6.14 2.27,0.19 1.77,-5.52 4.16,0.91 1.3,-0.81 0.03,0.03 2.09,0.29 1.81,-1.85 1.73,1.53 2.09,1.52 1.99,-2.85 1.34,-0.43 5.26,4.48 0.66,1.54 2.22,-0.29 0.25,-0.59 6.25,1.05 2.36,-1.89 0.5,0.09 1.94,-1.85 1.75,-0.49 1.72,0.7 2.06,4.97 2.12,-4.2 1.64,-1.66 1.92,3.47 1.83,-2.41 v 0 c 0,0 0,-0.02 0,-0.02 z M 73.65,53.96 72.1,52.94 72.03,52.73 74.31,52.34 Z m 3.39,-2.59 -1.94,0.33 0.77,-1.92 1.69,-1.65 1.67,1.29 0.33,0.69 -2.51,1.25 z m 7.92,0.07 -1.83,-0.84 -1.76,2.14 -1.15,-2.41 5.96,-2.97 0.71,-0.17 -1.93,4.24 z m 9.58,-5.66 -2.1,2.27 -1.79,4.21 -1.59,-1.64 -2.08,-3.45 8.05,-1.86 3.06,2.96 -1.58,0.28 z m 5.68,8.07 -1.58,-5.03 2.75,2.66 -1.17,2.38 z m 1.78,-2.49 0.29,-0.58 1.62,-4.07 1.79,6.09 -1.53,0.65 -2.16,-2.09 z m 4,1.31 1.68,-6.18 1,5.04 z m 3.64,1.15 -0.4,-1.99 1.09,-0.47 z m 1.46,-3.32 0.51,-1.79 1.02,1.14 z m 3,-0.93 1.16,-2.01 0.97,1.83 z m 2.92,0.26 1.13,-0.09 -0.9,0.54 z m 7.46,1.34 -1.67,1.87 -1.71,-1.82 -1.58,-1.59 2.58,-0.22 2.99,-0.02 -0.61,1.79 z m 1.3,-2.29 0.85,-2.47 1.32,2.45 h -2.17 z m 5.39,-0.03 h -1.99 c 0,0 1.3,-1.53 1.3,-1.53 l 1.59,0.02 0.76,2.45 z m 3.07,3.81 -0.57,-1.83 1.4,0.79 z m 5.85,1.22 -4.26,-2.4 0.27,-0.33 1.98,1.08 1.7,-5.81 1.43,6.72 -1.11,0.74 z m 1.73,-0.23 -0.06,-0.28 0.53,-0.35 -0.47,0.64 z m 2.62,-2.68 0.94,-1.21 0.16,0.48 z m 4.58,1.5 -1.57,1.96 -1.32,-3.99 2.98,-1.99 0.91,0.49 z m 9.08,0.25 -7.49,-4.03 0.72,-2.53 1.63,-0.04 1.77,1 1.95,3.37 1.86,-0.39 0.81,1.97 z m 4.17,-1.03 -1.62,2.24 -0.66,-1.62 2.58,-1.33 -0.29,0.71 z m 1.27,-1.78 1.03,-2.48 1.52,-1.03 0.43,1.98 -2.97,1.53 z m 6.31,4.77 -1.5,-0.12 -1.27,-5.91 0.04,-0.02 4.36,0.96 -1.63,5.1 z m 6.19,-4.61 -3.6,-0.79 1.37,-0.07 1.84,-0.99 1.39,1.23 z m 10.83,-2.04 -1.79,2.57 -1.66,-1.21 -2.07,-1.83 -1.97,2.01 -1.31,-0.18 6.99,-4.33 3.01,2.56 -1.2,0.39 z m 2.18,-0.21 1.68,-1.35 1.73,2.97 0.87,2.04 -4.28,-3.65 z m 7.25,5.49 -1.56,0.2 -0.32,-0.75 1.97,0.33 -0.09,0.21 z m 6.72,0.39 -5.91,-1 1.48,-3.44 1.67,-2.76 1.71,3.09 1.95,2.45 0.96,0.17 -1.85,1.48 z m 12.21,-2.46 -1.69,3.33 -1.73,-4.16 -2.07,-0.85 -1.15,0.32 3.54,-2.83 5.03,2.22 -1.94,1.97 z m 4,1.22 -1.67,-3.01 2.96,1.31 -1.29,1.71 z"
         id="path102"
         style="display:inline" /></g><g
       id="g145"><circle
         cx="206"
         cy="220.50999"
         r="0.83999997"
         id="circle102" /><circle
         cx="208.57001"
         cy="219.06"
         r="0.83999997"
         id="circle103" /><circle
         cx="210.95"
         cy="217.3"
         r="0.83999997"
         id="circle104" /><circle
         cx="213.09"
         cy="215.25999"
         r="0.83999997"
         id="circle105" /><circle
         cx="216.56"
         cy="210.49001"
         r="0.83999997"
         id="circle106" /><circle
         cx="217.83"
         cy="207.82001"
         r="0.83999997"
         id="circle107" /><circle
         cx="218.77"
         cy="205.02"
         r="0.83999997"
         id="circle108" /><circle
         cx="219.36"
         cy="202.12"
         r="0.83999997"
         id="circle109" /><circle
         cx="219.46001"
         cy="196.22"
         r="0.83999997"
         id="circle110" /><circle
         cx="218.97"
         cy="193.3"
         r="0.83999997"
         id="circle111" /><circle
         cx="218.13"
         cy="190.47"
         r="0.83999997"
         id="circle112" /><circle
         cx="216.95"
         cy="187.75999"
         r="0.83999997"
         id="circle113" /><circle
         cx="215.45"
         cy="185.21001"
         r="0.83999997"
         id="circle114" /><circle
         cx="213.64999"
         cy="182.87"
         r="0.83999997"
         id="circle115" /><circle
         cx="209.25999"
         cy="178.92"
         r="0.83999997"
         id="circle116" /><circle
         cx="206.74001"
         cy="177.38"
         r="0.83999997"
         id="circle117" /><circle
         cx="204.05"
         cy="176.14999"
         r="0.83999997"
         id="circle118" /><circle
         cx="201.23"
         cy="175.25999"
         r="0.83999997"
         id="circle119" /><circle
         cx="198.33"
         cy="174.73"
         r="0.83999997"
         id="circle120" /><circle
         cx="192.42"
         cy="174.73"
         r="0.83999997"
         id="circle121" /><circle
         cx="189.52"
         cy="175.27"
         r="0.83999997"
         id="circle122" /><circle
         cx="186.7"
         cy="176.16"
         r="0.83999997"
         id="circle123" /><circle
         cx="184.00999"
         cy="177.38"
         r="0.83999997"
         id="circle124" /><circle
         cx="181.49001"
         cy="178.92999"
         r="0.83999997"
         id="circle125" /><circle
         cx="177.10001"
         cy="182.88"
         r="0.83999997"
         id="circle126" /><circle
         cx="175.31"
         cy="185.22"
         r="0.83999997"
         id="circle127" /><circle
         cx="173.81"
         cy="187.77"
         r="0.83999997"
         id="circle128" /><circle
         cx="172.63"
         cy="190.48"
         r="0.83999997"
         id="circle129" /><circle
         cx="171.78999"
         cy="193.32001"
         r="0.83999997"
         id="circle130" /><circle
         cx="171.3"
         cy="196.23"
         r="0.83999997"
         id="circle131" /><circle
         cx="171.41"
         cy="202.13"
         r="0.83999997"
         id="circle132" /><circle
         cx="172"
         cy="205.03"
         r="0.83999997"
         id="circle133" /><circle
         cx="172.94"
         cy="207.83"
         r="0.83999997"
         id="circle134" /><circle
         cx="174.21001"
         cy="210.5"
         r="0.83999997"
         id="circle135" /><circle
         cx="177.67999"
         cy="215.27"
         r="0.83999997"
         id="circle136" /><circle
         cx="179.82001"
         cy="217.31"
         r="0.83999997"
         id="circle137" /><circle
         cx="182.2"
         cy="219.06"
         r="0.83999997"
         id="circle138" /><circle
         cx="184.77"
         cy="220.52"
         r="0.83999997"
         id="circle139" /><rect
         x="193.87"
         y="171.60001"
         width="3.0899999"
         height="1.67"
         rx="0.82999998"
         ry="0.82999998"
         transform="rotate(90,195.41,172.43)"
         id="rect139" /><rect
         x="211.45"
         y="178.28999"
         width="3.0899999"
         height="1.67"
         rx="0.82999998"
         ry="0.82999998"
         transform="rotate(131.67,212.99404,179.11858)"
         id="rect140" /><rect
         x="176.28999"
         y="178.28"
         width="3.0899999"
         height="1.67"
         rx="0.82999998"
         ry="0.82999998"
         transform="rotate(48.35,177.83328,179.11884)"
         id="rect141" /><rect
         x="172.38"
         y="213.46001"
         width="3.0899999"
         height="1.67"
         rx="0.82999998"
         ry="0.82999998"
         transform="rotate(-35.66,173.90295,214.27781)"
         id="rect142" /><rect
         x="215.36"
         y="213.45"
         width="3.0899999"
         height="1.67"
         rx="0.82999998"
         ry="0.82999998"
         transform="rotate(-144.37,216.90805,214.28255)"
         id="rect143" /><rect
         x="220.31"
         y="198.55"
         width="3.0899999"
         height="1.67"
         rx="0.82999998"
         ry="0.82999998"
         transform="rotate(-178.91,221.85154,199.38791)"
         id="rect144" /><rect
         x="167.42"
         y="198.3"
         width="3.0899999"
         height="1.67"
         rx="0.82999998"
         ry="0.82999998"
         transform="rotate(-0.55,169.88929,199.79109)"
         id="rect145" /></g><g
       id="g188"><circle
         cx="206"
         cy="119.52"
         r="0.83999997"
         id="circle145" /><circle
         cx="208.57001"
         cy="118.06"
         r="0.83999997"
         id="circle146" /><circle
         cx="210.95"
         cy="116.3"
         r="0.83999997"
         id="circle147" /><circle
         cx="213.09"
         cy="114.27"
         r="0.83999997"
         id="circle148" /><circle
         cx="216.56"
         cy="109.49"
         r="0.83999997"
         id="circle149" /><circle
         cx="217.83"
         cy="106.82"
         r="0.83999997"
         id="circle150" /><circle
         cx="218.77"
         cy="104.02"
         r="0.83999997"
         id="circle151" /><circle
         cx="219.36"
         cy="101.12"
         r="0.83999997"
         id="circle152" /><circle
         cx="219.46001"
         cy="95.220001"
         r="0.83999997"
         id="circle153" /><circle
         cx="218.97"
         cy="92.309998"
         r="0.83999997"
         id="circle154" /><circle
         cx="218.13"
         cy="89.470001"
         r="0.83999997"
         id="circle155" /><circle
         cx="216.95"
         cy="86.760002"
         r="0.83999997"
         id="circle156" /><circle
         cx="215.45"
         cy="84.220001"
         r="0.83999997"
         id="circle157" /><circle
         cx="213.64999"
         cy="81.870003"
         r="0.83999997"
         id="circle158" /><circle
         cx="209.25999"
         cy="77.919998"
         r="0.83999997"
         id="circle159" /><circle
         cx="206.74001"
         cy="76.379997"
         r="0.83999997"
         id="circle160" /><circle
         cx="204.05"
         cy="75.150002"
         r="0.83999997"
         id="circle161" /><circle
         cx="201.23"
         cy="74.269997"
         r="0.83999997"
         id="circle162" /><circle
         cx="198.33"
         cy="73.730003"
         r="0.83999997"
         id="circle163" /><circle
         cx="192.42"
         cy="73.730003"
         r="0.83999997"
         id="circle164" /><circle
         cx="189.52"
         cy="74.269997"
         r="0.83999997"
         id="circle165" /><circle
         cx="186.7"
         cy="75.160004"
         r="0.83999997"
         id="circle166" /><circle
         cx="184.00999"
         cy="76.389999"
         r="0.83999997"
         id="circle167" /><circle
         cx="181.49001"
         cy="77.93"
         r="0.83999997"
         id="circle168" /><circle
         cx="177.10001"
         cy="81.879997"
         r="0.83999997"
         id="circle169" /><circle
         cx="175.31"
         cy="84.230003"
         r="0.83999997"
         id="circle170" /><circle
         cx="173.81"
         cy="86.769997"
         r="0.83999997"
         id="circle171" /><circle
         cx="172.63"
         cy="89.480003"
         r="0.83999997"
         id="circle172" /><circle
         cx="171.78999"
         cy="92.32"
         r="0.83999997"
         id="circle173" /><circle
         cx="171.3"
         cy="95.230003"
         r="0.83999997"
         id="circle174" /><circle
         cx="171.41"
         cy="101.13"
         r="0.83999997"
         id="circle175" /><circle
         cx="172"
         cy="104.03"
         r="0.83999997"
         id="circle176" /><circle
         cx="172.94"
         cy="106.83"
         r="0.83999997"
         id="circle177" /><circle
         cx="174.21001"
         cy="109.5"
         r="0.83999997"
         id="circle178" /><circle
         cx="177.67999"
         cy="114.28"
         r="0.83999997"
         id="circle179" /><circle
         cx="179.82001"
         cy="116.31"
         r="0.83999997"
         id="circle180" /><circle
         cx="182.2"
         cy="118.07"
         r="0.83999997"
         id="circle181" /><circle
         cx="184.77"
         cy="119.52"
         r="0.83999997"
         id="circle182" /><rect
         x="193.87"
         y="70.599998"
         width="3.0899999"
         height="1.67"
         rx="0.82999998"
         ry="0.82999998"
         transform="rotate(90,195.41,71.43)"
         id="rect182" /><rect
         x="211.45"
         y="77.290001"
         width="3.0899999"
         height="1.67"
         rx="0.82999998"
         ry="0.82999998"
         transform="rotate(131.67,212.99213,78.116983)"
         id="rect183" /><rect
         x="176.28999"
         y="77.279999"
         width="3.0899999"
         height="1.67"
         rx="0.82999998"
         ry="0.82999998"
         transform="rotate(48.35,177.83552,78.116582)"
         id="rect184" /><rect
         x="172.38"
         y="112.46"
         width="3.0899999"
         height="1.67"
         rx="0.82999998"
         ry="0.82999998"
         transform="rotate(-35.66,173.91088,113.29817)"
         id="rect185" /><rect
         x="215.36"
         y="112.45"
         width="3.0899999"
         height="1.67"
         rx="0.82999998"
         ry="0.82999998"
         transform="rotate(-144.37,216.90633,113.28993)"
         id="rect186" /><rect
         x="220.31"
         y="97.550003"
         width="3.0899999"
         height="1.67"
         rx="0.82999998"
         ry="0.82999998"
         transform="rotate(-178.91,221.85089,98.388774)"
         id="rect187" /><rect
         x="167.42"
         y="97.300003"
         width="3.0899999"
         height="1.67"
         rx="0.82999998"
         ry="0.82999998"
         transform="rotate(-0.55,169.33255,98.737944)"
         id="rect188" /></g><g
       id="g231"><circle
         cx="104.18"
         cy="220.50999"
         r="0.83999997"
         id="circle188" /><circle
         cx="106.75"
         cy="219.06"
         r="0.83999997"
         id="circle189" /><circle
         cx="109.13"
         cy="217.3"
         r="0.83999997"
         id="circle190" /><circle
         cx="111.27"
         cy="215.25999"
         r="0.83999997"
         id="circle191" /><circle
         cx="114.74"
         cy="210.49001"
         r="0.83999997"
         id="circle192" /><circle
         cx="116.01"
         cy="207.82001"
         r="0.83999997"
         id="circle193" /><circle
         cx="116.95"
         cy="205.02"
         r="0.83999997"
         id="circle194" /><circle
         cx="117.53"
         cy="202.12"
         r="0.83999997"
         id="circle195" /><circle
         cx="117.64"
         cy="196.22"
         r="0.83999997"
         id="circle196" /><circle
         cx="117.15"
         cy="193.3"
         r="0.83999997"
         id="circle197" /><circle
         cx="116.31"
         cy="190.47"
         r="0.83999997"
         id="circle198" /><circle
         cx="115.13"
         cy="187.75999"
         r="0.83999997"
         id="circle199" /><circle
         cx="113.63"
         cy="185.21001"
         r="0.83999997"
         id="circle200" /><circle
         cx="111.83"
         cy="182.87"
         r="0.83999997"
         id="circle201" /><circle
         cx="107.44"
         cy="178.92"
         r="0.83999997"
         id="circle202" /><circle
         cx="104.92"
         cy="177.38"
         r="0.83999997"
         id="circle203" /><circle
         cx="102.23"
         cy="176.14999"
         r="0.83999997"
         id="circle204" /><circle
         cx="99.410004"
         cy="175.25999"
         r="0.83999997"
         id="circle205" /><circle
         cx="96.5"
         cy="174.73"
         r="0.83999997"
         id="circle206" /><circle
         cx="90.599998"
         cy="174.73"
         r="0.83999997"
         id="circle207" /><circle
         cx="87.699997"
         cy="175.27"
         r="0.83999997"
         id="circle208" /><circle
         cx="84.879997"
         cy="176.16"
         r="0.83999997"
         id="circle209" /><circle
         cx="82.190002"
         cy="177.38"
         r="0.83999997"
         id="circle210" /><circle
         cx="79.669998"
         cy="178.92999"
         r="0.83999997"
         id="circle211" /><circle
         cx="75.279999"
         cy="182.88"
         r="0.83999997"
         id="circle212" /><circle
         cx="73.480003"
         cy="185.22"
         r="0.83999997"
         id="circle213" /><circle
         cx="71.980003"
         cy="187.77"
         r="0.83999997"
         id="circle214" /><circle
         cx="70.809998"
         cy="190.48"
         r="0.83999997"
         id="circle215" /><circle
         cx="69.970001"
         cy="193.32001"
         r="0.83999997"
         id="circle216" /><circle
         cx="69.480003"
         cy="196.23"
         r="0.83999997"
         id="circle217" /><circle
         cx="69.580002"
         cy="202.13"
         r="0.83999997"
         id="circle218" /><circle
         cx="70.169998"
         cy="205.03"
         r="0.83999997"
         id="circle219" /><circle
         cx="71.110001"
         cy="207.83"
         r="0.83999997"
         id="circle220" /><circle
         cx="72.389999"
         cy="210.5"
         r="0.83999997"
         id="circle221" /><circle
         cx="75.860001"
         cy="215.27"
         r="0.83999997"
         id="circle222" /><circle
         cx="78"
         cy="217.31"
         r="0.83999997"
         id="circle223" /><circle
         cx="80.379997"
         cy="219.06"
         r="0.83999997"
         id="circle224" /><circle
         cx="82.949997"
         cy="220.52"
         r="0.83999997"
         id="circle225" /><rect
         x="92.040001"
         y="171.60001"
         width="3.0899999"
         height="1.67"
         rx="0.82999998"
         ry="0.82999998"
         transform="rotate(90,93.59,172.43)"
         id="rect225" /><rect
         x="109.63"
         y="178.28999"
         width="3.0899999"
         height="1.67"
         rx="0.82999998"
         ry="0.82999998"
         transform="rotate(131.67,111.1706,179.11814)"
         id="rect226" /><rect
         x="74.470001"
         y="178.28"
         width="3.0899999"
         height="1.67"
         rx="0.82999998"
         ry="0.82999998"
         transform="rotate(48.35,76.016572,179.12087)"
         id="rect227" /><rect
         x="70.550003"
         y="213.46001"
         width="3.0899999"
         height="1.67"
         rx="0.82999998"
         ry="0.82999998"
         transform="rotate(-35.66,72.097148,214.27861)"
         id="rect228" /><rect
         x="113.54"
         y="213.45"
         width="3.0899999"
         height="1.67"
         rx="0.82999998"
         ry="0.82999998"
         transform="rotate(-144.37,115.0883,214.28528)"
         id="rect229" /><rect
         x="118.49"
         y="198.55"
         width="3.0899999"
         height="1.67"
         rx="0.82999998"
         ry="0.82999998"
         transform="rotate(-178.91,120.02727,199.3814)"
         id="rect230" /><rect
         x="65.599998"
         y="198.3"
         width="3.0899999"
         height="1.67"
         rx="0.82999998"
         ry="0.82999998"
         transform="rotate(-0.55,67.799407,199.30109)"
         id="rect231" /></g><g
       id="g274"><circle
         cx="104.18"
         cy="119.52"
         r="0.83999997"
         id="circle231" /><circle
         cx="106.75"
         cy="118.06"
         r="0.83999997"
         id="circle232" /><circle
         cx="109.13"
         cy="116.3"
         r="0.83999997"
         id="circle233" /><circle
         cx="111.27"
         cy="114.27"
         r="0.83999997"
         id="circle234" /><circle
         cx="114.74"
         cy="109.49"
         r="0.83999997"
         id="circle235" /><circle
         cx="116.01"
         cy="106.82"
         r="0.83999997"
         id="circle236" /><circle
         cx="116.95"
         cy="104.02"
         r="0.83999997"
         id="circle237" /><circle
         cx="117.53"
         cy="101.12"
         r="0.83999997"
         id="circle238" /><circle
         cx="117.64"
         cy="95.220001"
         r="0.83999997"
         id="circle239" /><circle
         cx="117.15"
         cy="92.309998"
         r="0.83999997"
         id="circle240" /><circle
         cx="116.31"
         cy="89.470001"
         r="0.83999997"
         id="circle241" /><circle
         cx="115.13"
         cy="86.760002"
         r="0.83999997"
         id="circle242" /><circle
         cx="113.63"
         cy="84.220001"
         r="0.83999997"
         id="circle243" /><circle
         cx="111.83"
         cy="81.870003"
         r="0.83999997"
         id="circle244" /><circle
         cx="107.44"
         cy="77.919998"
         r="0.83999997"
         id="circle245" /><circle
         cx="104.92"
         cy="76.379997"
         r="0.83999997"
         id="circle246" /><circle
         cx="102.23"
         cy="75.150002"
         r="0.83999997"
         id="circle247" /><circle
         cx="99.410004"
         cy="74.269997"
         r="0.83999997"
         id="circle248" /><circle
         cx="96.5"
         cy="73.730003"
         r="0.83999997"
         id="circle249" /><circle
         cx="90.599998"
         cy="73.730003"
         r="0.83999997"
         id="circle250" /><circle
         cx="87.699997"
         cy="74.269997"
         r="0.83999997"
         id="circle251" /><circle
         cx="84.879997"
         cy="75.160004"
         r="0.83999997"
         id="circle252" /><circle
         cx="82.190002"
         cy="76.389999"
         r="0.83999997"
         id="circle253" /><circle
         cx="79.669998"
         cy="77.93"
         r="0.83999997"
         id="circle254" /><circle
         cx="75.279999"
         cy="81.879997"
         r="0.83999997"
         id="circle255" /><circle
         cx="73.480003"
         cy="84.230003"
         r="0.83999997"
         id="circle256" /><circle
         cx="71.980003"
         cy="86.769997"
         r="0.83999997"
         id="circle257" /><circle
         cx="70.809998"
         cy="89.480003"
         r="0.83999997"
         id="circle258" /><circle
         cx="69.970001"
         cy="92.32"
         r="0.83999997"
         id="circle259" /><circle
         cx="69.480003"
         cy="95.230003"
         r="0.83999997"
         id="circle260" /><circle
         cx="69.580002"
         cy="101.13"
         r="0.83999997"
         id="circle261" /><circle
         cx="70.169998"
         cy="104.03"
         r="0.83999997"
         id="circle262" /><circle
         cx="71.110001"
         cy="106.83"
         r="0.83999997"
         id="circle263" /><circle
         cx="72.389999"
         cy="109.5"
         r="0.83999997"
         id="circle264" /><circle
         cx="75.860001"
         cy="114.28"
         r="0.83999997"
         id="circle265" /><circle
         cx="78"
         cy="116.31"
         r="0.83999997"
         id="circle266" /><circle
         cx="80.379997"
         cy="118.07"
         r="0.83999997"
         id="circle267" /><circle
         cx="82.949997"
         cy="119.52"
         r="0.83999997"
         id="circle268" /><rect
         x="92.040001"
         y="70.599998"
         width="3.0899999"
         height="1.67"
         rx="0.82999998"
         ry="0.82999998"
         transform="rotate(90,93.59,71.43)"
         id="rect268" /><rect
         x="109.63"
         y="77.290001"
         width="3.0899999"
         height="1.67"
         rx="0.82999998"
         ry="0.82999998"
         transform="rotate(131.67,111.17144,78.123789)"
         id="rect269" /><rect
         x="74.470001"
         y="77.279999"
         width="3.0899999"
         height="1.67"
         rx="0.82999998"
         ry="0.82999998"
         transform="rotate(48.35,76.007673,78.123603)"
         id="rect270" /><rect
         x="70.550003"
         y="112.46"
         width="3.0899999"
         height="1.67"
         rx="0.82999998"
         ry="0.82999998"
         transform="rotate(-35.66,72.089526,113.29397)"
         id="rect271" /><rect
         x="113.54"
         y="112.45"
         width="3.0899999"
         height="1.67"
         rx="0.82999998"
         ry="0.82999998"
         transform="rotate(-144.37,115.08498,113.28766)"
         id="rect272" /><rect
         x="118.49"
         y="97.550003"
         width="3.0899999"
         height="1.67"
         rx="0.82999998"
         ry="0.82999998"
         transform="rotate(-178.91,120.03167,98.387224)"
         id="rect273" /><rect
         x="65.599998"
         y="97.300003"
         width="3.0899999"
         height="1.67"
         rx="0.82999998"
         ry="0.82999998"
         transform="rotate(-0.55,67.242674,98.247944)"
         id="rect274" /></g><path
       d="m 144.57,167.25 c 0.19,-0.2 0.97,-1.09 2.04,-1.66 0.44,-0.24 1.42,-0.61 1.42,-0.61 0.24,-0.09 0.44,-0.13 0.98,-0.23 1.22,-0.24 2.86,0.28 3.33,0.93 0.43,0.58 1.12,1.08 0.31,2.74 0,0 -0.86,1.25 -1.87,1.22 0,0 -0.14,-0.07 -0.36,-0.26 0,0 0,-0.04 -0.39,-0.18 l -0.36,-0.29 c 0,0 -0.17,-0.11 -0.37,-0.15 0,0 -0.07,-0.02 -0.18,-0.19 -0.14,-0.21 -0.36,0.24 -0.26,0.43 0,0 -0.11,0.18 -0.11,0.3 0,0 0.11,-0.2 0.2,-0.18 0.05,0.01 0.03,0.05 0.03,0.05 0,0 -0.21,0.16 -0.09,0.4 0,0 0.05,-0.24 0.21,-0.18 0.18,0.07 0.24,0.47 0.76,0.62 0,0 0.35,0.16 -0.5,0.59 0,0 -0.25,0.2 -0.59,0.11 0,0 -0.05,0.12 0.33,0.16 0.08,0.04 0.51,-0.09 0.75,-0.19 0,0.01 0.39,-0.13 0.51,-0.13 0.02,0.02 0.5,0.03 0.57,-0.21 0.02,-0.07 0.39,-0.01 1.14,-0.41 0,0 1.52,-0.85 1.78,-1.92 0,0 0.51,-1.09 -0.25,-2.27 -0.76,-1.18 -2.24,-2.17 -5.16,-1.7 0,0 -2.46,0.33 -4.29,2.42 0,0 -1.33,-1.85 -3.49,-2.33 -2.57,-0.57 -3.94,0.19 -4.67,1.09 -1.19,1.32 -0.96,3.42 0.59,4.3 1.14,0.65 2.44,1.14 4.64,0.41 1.08,-0.36 1.88,-0.98 3,-2.34 1.32,1.81 3.21,2.55 4.28,2.41 -1.24,-0.02 -3.21,-1.4 -3.92,-2.76 z m -5.98,1.98 c -2.67,-0.49 -2.47,-2.29 -2.24,-3.04 0.41,-0.82 1.01,-1.59 2.98,-1.53 2.55,0.08 4.38,2.24 4.38,2.24 0,0 -2.02,2.9 -5.12,2.33 z"
       id="path274" /><path
       d="m 71.08,341.77 c 0.27,0.07 1.43,0.29 2.46,0.92 0.43,0.26 1.25,0.91 1.25,0.91 0.19,0.16 0.33,0.32 0.69,0.73 0.83,0.93 1.2,2.61 0.89,3.34 -0.28,0.67 -0.37,1.51 -2.21,1.65 0,0 -1.51,-0.1 -2,-1 0,0 0,-0.15 0.04,-0.44 0,0 0.03,-0.02 -0.04,-0.43 l 0.07,-0.46 c 0,0 0.01,-0.2 -0.06,-0.39 0,0 -0.01,-0.07 0.07,-0.25 0.11,-0.23 -0.39,-0.19 -0.5,-0.01 0,0 -0.21,0 -0.31,0.05 0,0 0.22,0 0.25,0.08 0.02,0.05 -0.03,0.05 -0.03,0.05 0,0 -0.24,-0.1 -0.39,0.12 0,0 0.23,-0.08 0.26,0.09 0.03,0.18 -0.28,0.44 -0.15,0.97 0,0 0.04,0.39 -0.76,-0.14 0,0 -0.29,-0.11 -0.4,-0.45 0,0 -0.13,0.02 0.03,0.37 0,0.09 0.33,0.39 0.54,0.55 0,0 0.31,0.27 0.37,0.38 0,0.03 0.23,0.45 0.47,0.38 0.07,-0.02 0.21,0.33 0.93,0.78 0,0 1.5,0.88 2.55,0.56 0,0 1.2,-0.12 1.83,-1.37 0.63,-1.25 0.74,-3.03 -1.15,-5.31 0,0 -1.53,-1.95 -4.26,-2.47 0,0 0.92,-2.09 0.24,-4.19 -0.81,-2.51 -2.16,-3.3 -3.3,-3.47 -1.74,-0.36 -3.44,0.91 -3.41,2.69 0.02,1.31 0.25,2.69 2,4.21 0.86,0.75 1.8,1.13 3.54,1.4 -0.89,2.05 -0.57,4.06 0.09,4.91 -0.61,-1.08 -0.41,-3.48 0.39,-4.78 z m -4.73,-4.16 c -0.93,-2.55 0.73,-3.29 1.49,-3.47 0.92,-0.06 1.89,0.07 2.83,1.8 1.22,2.24 0.29,4.91 0.29,4.91 0,0 -3.53,-0.27 -4.61,-3.24 z"
       id="path275" /><path
       id="path825"
       d="m 0,0 -2.079,-2.374 c 0.178,-0.089 0.386,-0.133 0.625,-0.133 0.467,0 0.865,0.166 1.193,0.5 0.328,0.333 0.492,0.735 0.492,1.206 C 0.231,-0.494 0.154,-0.227 0,0 m -2.438,-2.088 2.104,2.408 c -0.206,0.119 -0.441,0.179 -0.707,0.179 -0.3,0 -0.578,-0.076 -0.833,-0.226 -0.254,-0.15 -0.459,-0.366 -0.615,-0.646 -0.155,-0.28 -0.233,-0.569 -0.233,-0.866 0,-0.328 0.095,-0.611 0.284,-0.849 m 2.983,2.697 c 0.334,-0.381 0.501,-0.836 0.501,-1.363 0,-0.45 -0.113,-0.873 -0.34,-1.271 -0.227,-0.397 -0.53,-0.703 -0.909,-0.917 -0.38,-0.214 -0.812,-0.321 -1.299,-0.321 -0.44,0 -0.813,0.09 -1.12,0.269 l -0.395,-0.451 -0.352,0.29 0.387,0.443 c -0.362,0.371 -0.542,0.847 -0.542,1.429 0,0.467 0.111,0.897 0.334,1.289 0.222,0.393 0.525,0.701 0.908,0.923 0.382,0.223 0.802,0.334 1.259,0.334 0.477,0 0.881,-0.114 1.213,-0.342 l 0.375,0.43 0.353,-0.303 z"
       style="display:inline;fill:#ffffff;fill-opacity:1;fill-rule:nonzero;stroke:none"
       transform="matrix(0.99432672,0,0,-0.99575257,200.06392,333.67348)"
       clip-path="url(#clipPath826)" /><path
       id="path827"
       d="M 0,0 H 0.806 L 0.446,-2.66 C 0.415,-2.893 0.399,-3.057 0.399,-3.152 c 0,-0.162 0.05,-0.289 0.151,-0.38 0.1,-0.091 0.246,-0.136 0.438,-0.136 0.155,0 0.289,0.034 0.405,0.103 0.086,0.05 0.154,0.135 0.206,0.253 0.052,0.118 0.102,0.353 0.151,0.705 L 2.106,0 H 2.922 L 2.573,-2.572 C 2.501,-3.102 2.406,-3.481 2.289,-3.712 2.172,-3.942 2.002,-4.118 1.781,-4.238 1.559,-4.358 1.289,-4.418 0.97,-4.418 c -0.429,0 -0.764,0.114 -1.005,0.343 -0.24,0.228 -0.36,0.541 -0.36,0.937 0,0.172 0.023,0.426 0.07,0.762 z"
       style="display:inline;fill:#ffffff;fill-opacity:1;fill-rule:nonzero;stroke:none"
       transform="matrix(0.99432672,0,0,-0.99575257,203.28474,332.52358)"
       clip-path="url(#clipPath828)" /><path
       id="path829"
       d="M 0,0 H 2.631 L 2.537,-0.768 H 1.639 L 1.155,-4.31 H 0.352 l 0.483,3.542 H -0.1 Z"
       style="display:inline;fill:#ffffff;fill-opacity:1;fill-rule:nonzero;stroke:none"
       transform="matrix(0.99432672,0,0,-0.99575257,207.76657,332.52358)"
       clip-path="url(#clipPath830)" /></g><g
     id="DRILL"
     transform="matrix(0.35711416,0,0,0.35428256,-20.938917,-8.9348456)"
     style="display:none"><circle
       class="st1"
       cx="85.32"
       cy="295.85001"
       r="8.5"
       id="circle275" /><circle
       class="st1"
       cx="85.32"
       cy="333.23001"
       r="8.5"
       id="circle276" /><circle
       class="st1"
       cx="127.22"
       cy="295.85001"
       r="8.5"
       id="circle277" /><circle
       class="st1"
       cx="127.22"
       cy="333.23001"
       r="8.5"
       id="circle278" /><circle
       class="st1"
       cx="168.95"
       cy="295.85001"
       r="8.5"
       id="circle279" /><circle
       class="st1"
       cx="168.95"
       cy="333.23001"
       r="8.5"
       id="circle280" /><circle
       class="st1"
       cx="203.22"
       cy="316.06"
       r="8.5"
       id="circle281" /><circle
       class="st1"
       cx="93.489998"
       cy="198.5"
       r="12.76"
       id="circle282" /><circle
       class="st1"
       cx="194.97"
       cy="198.5"
       r="12.76"
       id="circle283" /><circle
       class="st1"
       cx="93.489998"
       cy="97.779999"
       r="12.76"
       id="circle284" /><circle
       class="st1"
       cx="194.97"
       cy="97.779999"
       r="12.76"
       id="circle285" /><circle
       class="st1"
       cx="143.47"
       cy="86.849998"
       r="4.96"
       id="circle286" /><g
       id="CUT_OUT"><rect
         class="st1"
         x="133.25999"
         y="150.92999"
         width="21.6"
         height="9"
         id="rect286" /></g></g><g
     inkscape:groupmode="layer"
     id="layer1"
     inkscape:label="components"
     style="display:none"><circle
       style="fill:#ff0000;stroke-width:0.0448173"
       id="path1"
       cx="12.479012"
       cy="25.755848"
       r="1"
       inkscape:label="Speciment" /><circle
       style="fill:#ff0000;stroke-width:0.0448173"
       id="path1-0"
       cx="48.715248"
       cy="25.750504"
       r="1"
       inkscape:label="Speed" /><circle
       style="fill:#ff0000;stroke-width:0.0448173"
       id="path1-9"
       cx="30.519161"
       cy="46.168545"
       r="1"
       inkscape:label="Loop" /><circle
       style="fill:#ff0000;stroke-width:0.0448173"
       id="path1-7"
       cx="48.790455"
       cy="61.43029"
       r="1"
       inkscape:label="Tail" /><circle
       style="fill:#ff0000;stroke-width:0.0448173"
       id="path1-8"
       cx="12.512454"
       cy="61.331158"
       r="1"
       inkscape:label="Head" /><circle
       style="fill:#ff00ff;stroke-width:0.0448173"
       id="path1-4"
       cx="30.308584"
       cy="21.826876"
       r="1"
       inkscape:label="LED" /><circle
       style="fill:#00ff00;stroke-width:0.0448173"
       id="path1-95"
       cx="9.5657969"
       cy="95.811081"
       r="1"
       inkscape:label="Bang" /><circle
       style="fill:#00ff00;stroke-width:0.0448173"
       id="path1-95-7"
       cx="9.5958786"
       cy="109.16946"
       r="1"
       inkscape:label="Loop CV" /><circle
       style="fill:#00ff00;stroke-width:0.0448173"
       id="path1-95-1"
       cx="24.547916"
       cy="109.12433"
       r="1"
       inkscape:label="Head CV" /><circle
       style="fill:#00ff00;stroke-width:0.0448173"
       id="path1-95-5"
       cx="24.556799"
       cy="95.904053"
       r="1"
       inkscape:label="Specimen CV" /><circle
       style="fill:#00ff00;stroke-width:0.0448173"
       id="path1-95-6"
       cx="39.538918"
       cy="95.895172"
       r="1"
       inkscape:label="Speed CV" /><circle
       style="fill:#00ff00;stroke-width:0.0448173"
       id="path1-95-17"
       cx="39.584042"
       cy="109.14553"
       r="1"
       inkscape:label="Tail CV" /><circle
       style="fill:#0000ff;stroke-width:0.0448173"
       id="path1-95-8"
       cx="51.679668"
       cy="103.12029"
       r="1"
       inkscape:label="GMO" /></g></svg>
