<?xml version="1.0" encoding="UTF-8" standalone="no"?>
<!-- Created with Inkscape (http://www.inkscape.org/) -->

<svg
   width="152.39999mm"
   height="128.5mm"
   viewBox="0 0 152.39999 128.5"
   version="1.1"
   id="svg1"
   inkscape:version="1.4 (e7c3feb1, 2024-10-09)"
   sodipodi:docname="Tehom.svg"
   xmlns:inkscape="http://www.inkscape.org/namespaces/inkscape"
   xmlns:sodipodi="http://sodipodi.sourceforge.net/DTD/sodipodi-0.dtd"
   xmlns="http://www.w3.org/2000/svg"
   xmlns:svg="http://www.w3.org/2000/svg">
  <sodipodi:namedview
     id="namedview1"
     pagecolor="#ffffff"
     bordercolor="#000000"
     borderopacity="0.25"
     inkscape:showpageshadow="2"
     inkscape:pageopacity="0.0"
     inkscape:pagecheckerboard="0"
     inkscape:deskcolor="#d1d1d1"
     inkscape:document-units="mm"
     inkscape:zoom="1.2711951"
     inkscape:cx="271.79148"
     inkscape:cy="301.68461"
     inkscape:window-width="2368"
     inkscape:window-height="1186"
     inkscape:window-x="207"
     inkscape:window-y="25"
     inkscape:window-maximized="0"
     inkscape:current-layer="layer2"
     showguides="false" />
  <defs
     id="defs1">
    <clipPath
       clipPathUnits="userSpaceOnUse"
       id="clipPath4">
      <path
         d="M 0,239.04 H 239.04 V 0 H 0 Z"
         transform="translate(-121.9312,-164.4531)"
         id="path4" />
    </clipPath>
    <filter
       style="color-interpolation-filters:sRGB;"
       inkscape:label="Lightness-Contrast"
       id="filter10"
       x="0"
       y="0"
       width="1"
       height="1">
      <feColorMatrix
         values="7.738 0 0 -0.8738 -3.369 0 7.738 0 -0.8738 -3.369 0 0 7.738 -0.8738 -3.369 0 0 0 1 0"
         id="feColorMatrix10"
         result="fbSourceGraphic" />
      <feColorMatrix
         result="fbSourceGraphicAlpha"
         in="fbSourceGraphic"
         values="0 0 0 -1 0 0 0 0 -1 0 0 0 0 -1 0 0 0 0 1 0"
         id="feColorMatrix11" />
      <feColorMatrix
         id="feColorMatrix12"
         values="7.738 0 0 -0.8738 -3.369 0 7.738 0 -0.8738 -3.369 0 0 7.738 -0.8738 -3.369 0 0 0 1 0"
         in="fbSourceGraphic" />
    </filter>
  </defs>
  <g
     inkscape:groupmode="layer"
     id="layer2"
     inkscape:label="artwork">
    <rect
       style="fill:#cccccc;stroke-width:0.600001;stroke-linejoin:bevel;stroke-miterlimit:3.3"
       id="rect1"
       width="179.55402"
       height="147.76411"
       x="-13.540138"
       y="-5.5926661"
       rx="2.0917387"
       ry="2.5886953"
       inkscape:label="Panel"
       sodipodi:insensitive="true" />
    <rect
       style="fill:#000000;stroke-width:0.600001;stroke-linejoin:bevel;stroke-miterlimit:3.3"
       id="rect2"
       width="40"
       height="40"
       x="56.199997"
       y="39.487495"
       rx="2.0917387"
       ry="2.5886953"
       inkscape:label="XY Pad " />
    <g
       id="g13">
      <g
         id="g3"
         transform="matrix(1.793665,0,0,1.793665,-61.435127,-99.481533)"
         style="stroke-width:0.557518;filter:url(#filter10)">
        <g
           id="Layer_2"
           transform="matrix(0.01191366,0,0,0.01191366,76.929086,117.1174)"
           inkscape:label="Omri Logo"
           style="stroke-width:12.3816">
          <ellipse
             transform="rotate(-56.031998,498.34093,224.90326)"
             fill-rule="evenodd"
             clip-rule="evenodd"
             fill="#65995c"
             cx="498.34451"
             cy="224.9032"
             rx="15.54282"
             ry="5.5197701"
             id="ellipse9"
             style="stroke-width:12.3816;fill:#7a7a7a" />
          <path
             fill-rule="evenodd"
             clip-rule="evenodd"
             fill="#766857"
             d="m 448.53226,510.19894 c -28.45215,6.02347 -49.81116,19.7551 -58.58261,31.75797 -6.08405,8.32538 -2.75317,16.94897 6.07837,17.2511 4.10696,0.1405 8.28979,-0.2312 12.46396,-1.1626 l 90.53815,-20.20276 c 7.56784,-1.68866 14.47952,-4.93109 20.41702,-9.34393 1.20807,-0.89783 1.33075,-2.6662 0.25842,-3.72247 -7.71012,-7.59479 -22.75663,-24.82731 -71.17331,-14.57731 z"
             id="path10"
             style="stroke-width:12.3816;fill:#666666" />
          <g
             id="g12"
             style="stroke-width:12.3816">
            <g
               id="g11"
               style="stroke-width:12.3816">
              <path
                 fill-rule="evenodd"
                 clip-rule="evenodd"
                 fill="#ce1b42"
                 d="m 519.87396,528.17419 c 12.91187,-9.79376 21.09998,-25.17285 21.15753,-42.16785 5.5e-4,-0.15796 7.9e-4,-0.31598 7.9e-4,-0.47406 0,-64.06506 -43.87613,-116 -98.00003,-116 -54.1239,0 -98,51.93494 -98,116 0,13.74512 2.02039,26.93097 5.72845,39.16528 6.16888,20.35345 24.69025,33.73969 45.10791,34.49518 -8.70764,-0.40356 -11.96497,-8.96259 -5.91901,-17.2359 8.77148,-12.00281 30.13049,-25.7345 58.58264,-31.75793 48.41669,-10.25 63.4632,6.98254 71.17337,14.57733 1.07227,1.05627 0.94958,2.82465 -0.25848,3.72247 z"
                 id="path11"
                 style="stroke-width:12.3816;fill:#747474" />
            </g>
          </g>
          <ellipse
             transform="matrix(0.62184,-0.78314,0.78314,0.62184,-156.76128,555.46985)"
             fill-rule="evenodd"
             clip-rule="evenodd"
             fill="#ffffff"
             cx="496.79361"
             cy="440.05707"
             rx="9.6332598"
             ry="10.48686"
             id="ellipse12"
             style="stroke-width:12.3816;fill:#ffffff" />
          <ellipse
             transform="rotate(-24.392174,517.36552,459.53203)"
             fill-rule="evenodd"
             clip-rule="evenodd"
             fill="#ffffff"
             cx="517.36627"
             cy="459.53229"
             rx="10.48686"
             ry="9.6332598"
             id="ellipse13"
             style="stroke-width:12.3816;fill:#ffffff" />
          <ellipse
             transform="matrix(0.98661,-0.16311,0.16311,0.98661,-69.91473,85.6089)"
             fill-rule="evenodd"
             clip-rule="evenodd"
             fill="#ffffff"
             cx="486.38123"
             cy="468.56915"
             rx="10.48686"
             ry="8.8838396"
             id="ellipse14"
             style="stroke-width:12.3816;fill:#ffffff" />
          <path
             fill-rule="evenodd"
             clip-rule="evenodd"
             fill="#ffffff"
             d="m 364.73636,415.76483 c 0.46051,0.42108 0.9292,0.83728 1.42743,1.23291 9.50641,7.54852 22.2243,7.35651 28.40613,-0.42877 6.14087,-7.7337 3.5144,-20.04602 -5.83923,-27.60834 -9.21833,7.27692 -17.33607,16.35156 -23.99433,26.8042 z"
             id="path14"
             style="stroke-width:12.3816;fill:#ffffff" />
          <g
             id="g16"
             style="stroke-width:12.3816">
            <g
               id="g15"
               style="stroke-width:12.3816">
              <path
                 fill="#70aa67"
                 d="m 443.03226,154.25452 c -159.48755,0 -288.77777,129.29016 -288.77777,288.77777 0,159.48761 129.29021,288.77777 288.77777,288.77777 159.48756,0 288.7778,-129.29022 288.7778,-288.77777 0,-159.48755 -129.29022,-288.77777 -288.7778,-288.77777 z m 0,553.77777 c -146.35547,0 -265,-118.64453 -265,-265 0,-146.35547 118.64452,-265 265,-265 146.35548,0 265.00003,118.64453 265.00003,265 0,146.35547 -118.64453,265 -265.00003,265 z"
                 id="path15"
                 style="stroke-width:12.3816;fill:#888888" />
            </g>
          </g>
          <path
             fill-rule="evenodd"
             clip-rule="evenodd"
             fill="#a11534"
             d="m 389.94962,541.95685 c 3.66382,-5.01355 9.53082,-10.32727 17.18658,-15.25635 -7.41791,-8.22894 -13.73981,-17.58173 -18.10394,-28.16821 -19.08478,-46.29541 -5.48669,-100 33.02661,-126.32819 -44.04449,11.36847 -77.02661,57.78528 -77.02661,113.32819 0,13.74512 2.02039,26.93097 5.72845,39.16528 6.16888,20.35345 24.69025,33.73969 45.10791,34.49518 -8.70764,-0.40357 -11.96496,-8.96259 -5.919,-17.2359 z"
             id="path16"
             style="stroke-width:12.3816;fill:#5b5b5b" />
          <path
             fill-rule="evenodd"
             clip-rule="evenodd"
             fill="#c7c7c7"
             d="m 386.67612,390.65778 c -0.56134,0.46802 -1.12628,0.93048 -1.67889,1.41199 -0.56018,0.48816 -1.1076,0.99524 -1.65869,1.49707 -0.53442,0.48663 -1.073,0.96698 -1.59857,1.46631 -0.54968,0.52222 -1.08557,1.0636 -1.62549,1.59949 -0.50946,0.50562 -1.02386,1.00446 -1.52441,1.52203 -0.53766,0.55591 -1.06036,1.13116 -1.58759,1.70068 -0.48328,0.52197 -0.97223,1.0368 -1.44653,1.57001 -0.52649,0.59192 -1.03687,1.20319 -1.55219,1.80865 -0.45593,0.53564 -0.91821,1.06366 -1.36523,1.6098 -0.51538,0.62976 -1.01361,1.27911 -1.51691,1.92255 -0.42609,0.54462 -0.8595,1.08112 -1.27679,1.63531 -0.50977,0.67712 -1.00079,1.3739 -1.49719,2.06512 -0.38965,0.5426 -0.78766,1.07642 -1.16901,1.62756 -0.5116,0.7395 -1.00305,1.49884 -1.49939,2.25342 -0.31207,0.47437 -0.63208,0.9411 -0.93799,1.42126 0.45892,0.41949 0.92603,0.83441 1.42255,1.2287 6.03796,4.79443 13.36652,6.45404 19.49805,5.04095 2.60999,-8.12122 6.18311,-15.84882 10.67761,-22.9707 -1.50128,-3.70697 -4.06757,-7.23969 -7.59589,-10.09601 -0.1272,0.10034 -0.25787,0.1947 -0.38464,0.29572 -0.5677,0.45265 -1.12367,0.92384 -1.68281,1.39009 z"
             id="path17"
             style="stroke-width:12.3816;fill:#c7c7c7" />
          <g
             id="g17"
             style="stroke-width:12.3816">
            <polygon
               fill="#65995c"
               points="574.9906,186.61218 574.99017,186.61389 574.99353,186.61377 "
               id="polygon17"
               style="stroke-width:12.3816;fill:#7a7a7a" />
          </g>
          <path
             fill-rule="evenodd"
             clip-rule="evenodd"
             fill="#bba191"
             d="m 476.51028,507.0415 c -7.82922,-0.0605 -17.04596,0.84308 -27.97803,3.15741 -0.65308,0.13824 -1.28119,0.30212 -1.92651,0.44849 8.5e-4,-0.007 0.002,-0.0146 0.003,-0.0217 -0.51514,0.11664 -1.00989,0.25342 -1.52014,0.375 -0.98022,0.23401 -1.95844,0.46844 -2.92004,0.72028 -0.84906,0.2218 -1.68115,0.45764 -2.51556,0.69263 -0.82733,0.23364 -1.65668,0.46436 -2.46924,0.71051 -0.99194,0.29956 -1.96155,0.61542 -2.93103,0.93256 -0.62561,0.2052 -1.25702,0.40515 -1.87317,0.61731 -1.11145,0.3819 -2.19611,0.78094 -3.27576,1.18445 -0.34888,0.13049 -0.71362,0.25043 -1.05914,0.383 -3.1e-4,0.004 -5.5e-4,0.008 -8.5e-4,0.0118 -0.375,0.14386 -0.76636,0.27722 -1.13727,0.42358 -7.07684,48.45532 -36.71893,131.13342 -77.04712,117.56708 -1.62164,-0.79968 -3.22797,-1.62616 -4.82672,-2.46564 32.5,26.24597 66.56537,2.98462 77.02661,-17.07935 10.35721,-19.86432 17.38,-53.84363 21.65036,-82.32898 0.27344,-1.82379 1.38446,-3.41919 3.01279,-4.28491 25.55353,-13.58691 30.31024,-2.71942 30.31024,-2.71942 l 0.10828,0.0773 c -0.3567,-6.24549 -0.56898,-12.41761 -0.63026,-18.40144 z"
             id="path18"
             style="stroke-width:12.3816;fill:#a6a6a6" />
          <g
             id="g29"
             style="stroke-width:12.3816">
            <path
               fill-rule="evenodd"
               clip-rule="evenodd"
               fill="#bba191"
               d="m 644.5918,311.99396 c 1.5495,1.04391 0.42273,5.42725 -2.51678,9.79041 -2.93945,4.36316 -6.57855,7.05396 -8.12805,6.01004 l 4.97583,0.37784 c 1.14825,0.77356 3.84491,-1.22043 6.02319,-4.45367 2.17828,-3.23328 3.01331,-6.48148 1.86505,-7.25507 z"
               id="path19"
               style="stroke-width:12.3816;fill:#a6a6a6" />
            <g
               id="g20"
               style="stroke-width:12.3816">
              <path
                 fill-rule="evenodd"
                 clip-rule="evenodd"
                 fill="#7bba70"
                 d="m 489.66019,237.79358 c 2.52826,1.70329 8.46591,-2.68712 13.26215,-9.80629 4.7962,-7.11916 6.63477,-14.27116 4.10651,-15.97447 l 18.70023,2.901 c 3.84149,2.58801 1.04797,13.45491 -6.2395,24.27187 -7.28741,10.81697 -16.3092,17.48787 -20.15067,14.89984 z"
                 id="path20"
                 style="stroke-width:12.3816;fill:#959595" />
            </g>
            <path
               fill-rule="evenodd"
               clip-rule="evenodd"
               fill="#d0b3a1"
               d="m 644.59174,311.99399 -63.76825,-42.97519 -0.0109,0.0161 c -1.24854,2.66867 -2.82959,5.47626 -4.72107,8.28384 -1.89136,2.80743 -3.89935,5.32721 -5.9035,7.48663 l -0.0109,0.0162 63.76971,42.97287 c 1.54956,1.04382 5.1886,-1.64688 8.12811,-6.0101 2.93951,-4.36315 4.06628,-8.74648 2.51672,-9.79033 z"
               id="path21"
               style="stroke-width:12.3816;fill:#b8b8b8" />
            <path
               fill-rule="evenodd"
               clip-rule="evenodd"
               fill="#bba191"
               d="m 573.74774,280.56052 c -1.17194,1.52811 -2.36493,2.95752 -3.55969,4.24484 l -0.0109,0.0162 63.76971,42.97287 c 1.06213,0.71548 3.10602,-0.32452 5.23328,-2.45404 z"
               id="path22"
               style="stroke-width:12.3816;fill:#a6a6a6" />
            <g
               id="g23"
               style="stroke-width:12.3816">
              <path
                 fill-rule="evenodd"
                 clip-rule="evenodd"
                 fill="#70aa67"
                 d="m 499.3389,254.08553 c 3.84146,2.58803 12.86325,-4.08287 20.15067,-14.89984 7.28748,-10.81696 10.08099,-21.68385 6.2395,-24.27187 l 56.60199,38.13304 c 3.84149,2.58803 1.04797,13.45491 -6.2395,24.27187 -7.28741,10.81699 -16.3092,17.48785 -20.1507,14.89984 z"
                 id="path23"
                 style="stroke-width:12.3816;fill:#888888" />
            </g>
            <g
               id="g24"
               style="stroke-width:12.3816">
              <path
                 fill-rule="evenodd"
                 clip-rule="evenodd"
                 fill="#70aa67"
                 d="m 617.07251,316.42603 c 1.54956,1.04391 5.1886,-1.64688 8.12805,-6.01007 2.93951,-4.36316 4.06635,-8.74646 2.51685,-9.79037 l -3.59753,-2.42368 c 1.5495,1.04391 0.42267,5.42722 -2.51678,9.79037 -2.93951,4.36319 -6.57855,7.05399 -8.12811,6.01007 z"
                 id="path24"
                 style="stroke-width:12.3816;fill:#888888" />
            </g>
            <g
               id="g26"
               style="stroke-width:12.3816">
              <path
                 fill="#a79186"
                 d="m 639.18018,325.34039 -0.007,-0.005 c -1.34821,1.34796 -2.6637,2.27173 -3.71515,2.57367 l 3.46503,0.26312 c 0.83624,0.56329 2.49371,-0.34534 4.17395,-2.12708 z"
                 id="path25"
                 style="stroke-width:12.3816;fill:#969696" />
              <path
                 fill="#a79186"
                 d="m 635.4577,327.90909 -1.5108,-0.11465 c 0.38751,0.26101 0.90564,0.28848 1.5108,0.11465 z"
                 id="path26"
                 style="stroke-width:12.3816;fill:#969696" />
            </g>
            <path
               fill-rule="evenodd"
               clip-rule="evenodd"
               fill="#65995c"
               d="m 513.73285,246.51872 c -5.76709,6.26532 -11.52515,9.49959 -14.39392,7.56679 l 56.60193,38.13303 c 2.6731,1.8009 7.85486,-0.8891 13.21478,-6.33191 z"
               id="path27"
               style="stroke-width:12.3816;fill:#7a7a7a" />
            <g
               id="g28"
               style="stroke-width:12.3816">
              <path
                 fill-rule="evenodd"
                 clip-rule="evenodd"
                 fill="#70aa67"
                 d="m 499.13168,232.81549 c -3.79495,4.12225 -7.58368,6.24991 -9.47144,4.97809 l 9.67868,16.29193 c 2.86877,1.9328 8.62677,-1.30142 14.39392,-7.56679 z"
                 id="path28"
                 style="stroke-width:12.3816;fill:#888888" />
            </g>
          </g>
          <rect
             fill-rule="evenodd"
             clip-rule="evenodd"
             fill="none"
             width="886"
             height="886"
             id="rect29"
             x="0"
             y="0"
             style="stroke-width:12.3816" />
          <g
             id="g30"
             style="stroke-width:12.3816">
            <path
               fill-rule="evenodd"
               clip-rule="evenodd"
               fill="#d0b3a1"
               d="m 618.60596,582.4444 h -6e-5 c -4.77673,-3.79291 -11.70331,-3.21332 -15.73639,1.36249 -17.56659,19.93066 -38.80756,36.54004 -62.6543,48.79272 -46.2377,23.13477 -63.05063,-61.67877 -63.70493,-125.55811 -7.82922,-0.0605 -17.04596,0.84308 -27.97803,3.15741 -7.77777,1.64661 -15.02075,3.87207 -21.62616,6.47791 -7.07684,48.45532 -36.71893,131.13342 -77.04712,117.56708 C 279.40188,599.49939 230.20145,526.88788 230.03269,443.4726 229.79441,325.63367 325.24886,230.03229 443.03225,230.03229 c 17.95264,0 35.37708,2.24194 52.02905,6.4292 2.49481,-1.7439 5.33447,-4.72394 7.86102,-8.47418 2.9397,-4.36353 4.76135,-8.73346 5.15436,-11.85944 -21.55133,-6.16937 -44.35931,-9.36292 -67.95898,-9.078 C 310.298,208.617 206.75627,313.71704 207.03282,443.5459 c 0.27716,130.10303 105.83153,235.48639 235.99944,235.48639 70.50388,0 133.77853,-30.92352 177.02206,-79.9397 4.36725,-4.95032 3.72144,-12.54315 -1.44836,-16.64819 z"
               id="path29"
               style="stroke-width:12.3816;fill:#b8b8b8" />
          </g>
        </g>
      </g>
      <g
         id="g150"
         transform="matrix(0.06986554,0,0,0.06986554,53.805193,110.58262)"
         style="stroke-width:3.78704">
        <path
           id="path3"
           d="m 0,0 c -0.079,-0.178 -0.158,-0.356 -0.236,-0.535 0.639,-0.32 1.278,-0.64 1.918,-0.961 0.077,0.151 0.154,0.302 0.231,0.452 C 1.275,-0.696 0.638,-0.348 0,0 m 68.34,-21.374 c -0.203,-0.583 -0.406,-1.167 -0.629,-1.808 1.345,0.251 1.383,0.335 0.629,1.808 M 2.843,9.591 C 3,9.527 3.158,9.463 3.315,9.4 3.672,10.341 4.03,11.283 4.388,12.225 4.275,12.27 4.163,12.315 4.05,12.36 3.648,11.437 3.246,10.514 2.843,9.591 M 26.345,8.047 c -0.085,0.111 -0.17,0.221 -0.254,0.33 -0.865,-0.66 -1.73,-1.32 -2.594,-1.981 0.094,-0.122 0.188,-0.243 0.281,-0.364 z M -84.612,-16.408 c 1.273,1.024 1.27,1.499 0.159,2.489 -0.049,-0.77 -0.099,-1.545 -0.159,-2.489 m 3.231,5.72 c -0.477,-0.616 -0.264,-1.113 0.893,-2.075 0.317,0.691 0.317,0.691 -0.893,2.075 M 7.152,15.604 c 0.146,-0.185 0.292,-0.37 0.438,-0.555 0.749,0.61 1.497,1.22 2.246,1.829 C 9.732,17.012 9.628,17.146 9.525,17.28 8.734,16.721 7.943,16.162 7.152,15.604 M -71.265,-5.035 c -0.809,-0.302 -1.619,-0.604 -2.429,-0.906 0.039,-0.105 0.078,-0.21 0.117,-0.314 0.88,0.114 1.977,-0.353 2.312,1.22 m -15.202,-15.357 c 0.201,-0.017 0.401,-0.034 0.602,-0.05 v 3.192 c -0.105,0.004 -0.209,0.008 -0.314,0.012 -0.096,-1.052 -0.192,-2.103 -0.288,-3.154 m 63.35,16.305 c -0.609,-1.287 -0.497,-2.71 0.297,-3.302 -0.112,1.24 -0.204,2.27 -0.297,3.302 m 55.93,15.09 c 0.888,-0.677 3.205,-0.516 3.815,0 z m 2.986,8.591 c 1.59,-1.143 2.083,-3.196 3.758,-3.698 -1.112,1.094 -2.373,2.335 -3.758,3.698 M 34.418,-80.8 c -0.021,0.137 -0.042,0.275 -0.063,0.413 -0.215,0.033 -0.439,0.123 -0.645,0.092 -1.715,-0.261 -3.432,-0.52 -5.135,-0.849 -0.241,-0.047 -0.411,-0.465 -0.669,-0.778 2.326,0.401 4.419,0.761 6.512,1.122 M 19.632,9.231 C 17.371,8.352 16.997,6.275 16.174,4.48 c 0.101,-0.065 0.203,-0.13 0.304,-0.195 1.052,1.648 2.103,3.297 3.154,4.946 m -46.563,-24.111 0.135,0.34 c -1.88,1.733 -4.165,2.321 -6.61,2.457 l -0.186,-0.517 c 2.221,-0.76 4.441,-1.52 6.661,-2.28 M 21.73,11.634 c 2.227,1.029 4.308,2.188 6.524,2.959 2.205,0.767 4.546,1.144 6.738,1.671 -2.212,1.336 -9.42,-1.097 -13.262,-4.63 m -0.463,-43.903 c -0.621,-0.229 -1.032,-0.41 -1.46,-0.53 -1.125,-0.315 -2.251,-0.633 -3.39,-0.888 -0.576,-0.129 -1.189,-0.082 -1.769,-0.2 -0.349,-0.071 -0.665,-0.306 -0.996,-0.467 0.277,-0.307 0.502,-0.71 0.846,-0.891 0.322,-0.169 0.776,-0.167 1.16,-0.126 1.178,0.123 2.355,0.277 3.522,0.476 0.324,0.056 0.718,0.238 0.898,0.491 0.401,0.565 0.687,1.211 1.189,2.135 m -21.395,-50.957 -0.054,-0.348 c 0.994,0.199 1.988,0.402 2.984,0.596 2.322,0.452 4.637,0.942 6.969,1.335 1.678,0.283 3.389,0.374 5.058,0.691 0.371,0.071 0.63,0.733 0.941,1.123 -0.39,0.272 -0.786,0.786 -1.167,0.775 -2.047,-0.059 -4.117,-0.087 -6.127,-0.426 -3.997,-0.674 -7.963,-1.533 -11.934,-2.352 -0.341,-0.07 -0.893,-0.435 -0.88,-0.633 0.024,-0.394 0.326,-0.808 0.606,-1.135 0.211,-0.246 0.565,-0.368 0.96,-0.61 0.22,0.396 0.379,0.805 0.643,1.128 0.317,0.39 0.723,0.706 1.09,1.054 0.304,-0.399 0.607,-0.798 0.911,-1.198 m 18.417,51.889 c 0.806,0.539 1.379,0.782 0.817,1.629 -0.216,0.325 -0.186,0.844 -0.19,1.276 -0.017,1.632 -0.117,3.275 0.036,4.893 0.14,1.484 -0.583,2.91 0.071,4.476 0.359,0.86 -0.147,2.082 -0.267,3.184 -0.171,-0.074 -0.31,-0.09 -0.37,-0.168 -0.193,-0.25 -0.36,-0.521 -0.532,-0.787 -1.203,-1.874 -3.59,-1.872 -4.843,-0.035 -0.272,0.399 -0.757,0.652 -1.409,1.193 0.059,-0.844 0.18,-1.277 0.099,-1.668 -0.214,-1.028 -0.636,-2.024 -0.751,-3.058 -0.148,-1.332 -0.154,-2.693 -0.078,-4.034 0.066,-1.171 0.369,-2.327 0.498,-3.498 0.261,-2.362 0.888,-3.501 3.112,-3.774 0.754,-0.093 1.187,0.272 1.076,0.886 -0.257,1.423 1.082,2.12 1.341,3.308 0.118,0.536 0.674,0.976 1.031,1.459 0.119,-0.03 0.239,-0.061 0.359,-0.091 z M -25.42,12.394 c 0.021,-0.115 0.042,-0.23 0.063,-0.345 1.169,-0.345 2.323,-0.753 3.509,-1.022 2.91,-0.659 6.028,-0.362 8.743,-1.943 0.278,-0.162 0.727,-0.164 1.058,-0.083 1.652,0.405 3.311,0.804 4.93,1.319 1.36,0.432 2.697,0.964 3.989,1.569 0.643,0.301 1.227,0.805 1.723,1.326 0.696,0.73 1.173,1.699 1.941,2.325 2.691,2.191 4.995,4.926 8.497,6.006 1.798,0.555 3.489,1.572 5.314,1.894 2.382,0.421 4.847,0.422 7.28,0.493 3.978,0.115 7.836,-0.455 11.429,-2.306 0.108,-0.056 0.283,0.02 0.747,0.067 -0.727,0.668 -1.253,1.182 -1.812,1.659 -2.086,1.782 -4.148,3.596 -6.304,5.29 -0.429,0.336 -1.319,0.433 -1.846,0.237 C 21.902,28.157 20.045,27.219 18.123,26.446 15.729,25.484 13.312,24.58 10.88,23.72 10.529,23.596 9.777,23.732 9.667,23.964 9.349,24.635 8.998,24.483 8.518,24.276 8.006,24.056 7.478,23.872 6.954,23.68 4.124,22.645 1.281,21.64 -1.525,20.543 -1.874,20.408 -2.334,19.66 -2.229,19.422 c 0.428,-0.974 -0.127,-1.633 -0.555,-2.314 -0.577,-0.916 -1.253,-1.77 -2.031,-2.853 0.914,0.305 1.6,0.533 2.286,0.762 0.077,-0.159 0.154,-0.317 0.232,-0.475 -0.745,-0.545 -1.461,-1.139 -2.248,-1.614 -0.378,-0.228 -0.891,-0.234 -1.342,-0.34 0.156,0.443 0.314,0.885 0.465,1.329 0.024,0.07 0.013,0.151 0.032,0.437 -0.4,-0.127 -0.732,-0.214 -1.048,-0.339 -0.509,-0.202 -0.994,-0.552 -1.514,-0.61 -0.547,-0.06 -1.124,0.149 -1.688,0.24 0.116,0.556 0.229,1.112 0.35,1.666 0.145,0.666 0.298,1.331 0.448,1.996 -0.632,-0.088 -1.287,-0.099 -1.892,-0.278 -3.882,-1.151 -7.757,-2.328 -11.625,-3.524 -1.036,-0.32 -2.042,-0.738 -3.061,-1.111 M 39.852,3.66 C 39.667,3.371 39.51,3.154 39.383,2.92 38.652,1.57 38.123,0.081 36.53,-0.61 c -0.271,-0.118 -0.461,-0.716 -0.47,-1.097 -0.037,-1.55 0.097,-3.106 0.004,-4.651 -0.101,-1.694 -2.065,-4.444 -4.351,-3.988 -0.353,0.071 -0.774,-0.086 -1.14,-0.208 -1.372,-0.46 -2.713,-1.028 -4.106,-1.409 -2.044,-0.56 -4.122,-0.995 -5.832,-1.4 0.198,-1.389 0.383,-2.605 0.544,-3.824 0.168,-1.26 0.314,-2.522 0.476,-3.84 9.936,4.477 19.606,8.834 29.461,13.274 -2.62,2.304 -4.999,4.39 -7.371,6.483 -1.549,1.368 -3,2.816 -3.893,4.93 M -81.022,-14.916 c -0.191,-0.287 -0.338,-0.408 -0.354,-0.546 -0.226,-1.906 -0.881,-3.697 -0.858,-5.705 0.049,-4.406 -0.339,-8.817 -0.523,-13.228 -0.014,-0.328 0.079,-0.74 0.28,-0.984 0.948,-1.147 1.941,-2.258 2.936,-3.366 0.826,-0.92 1.547,-2.009 2.543,-2.688 2.79,-1.902 5.101,-4.282 7.33,-6.773 1.258,-1.407 2.539,-2.797 3.869,-4.136 1.251,-1.26 2.621,-2.403 3.861,-3.672 1.131,-1.156 2.12,-2.453 3.245,-3.616 1.045,-1.08 2.183,-2.07 3.289,-3.091 1.629,-1.506 3.211,-3.069 4.912,-4.487 2.561,-2.135 5.157,-4.236 7.845,-6.204 0.952,-0.697 2.216,-0.973 3.347,-1.416 0.295,-0.116 0.626,-0.136 0.94,-0.205 0.37,-0.081 0.738,-0.168 1.108,-0.253 0.044,0.294 0.093,0.588 0.128,0.883 0.018,0.157 0.015,0.319 0.014,0.478 -0.012,1.992 0,3.985 -0.064,5.974 -0.011,0.338 -0.271,0.765 -0.548,0.977 -0.629,0.481 -0.458,0.846 -0.092,1.402 0.301,0.457 0.488,1.055 0.53,1.606 0.146,1.932 0.232,3.871 0.276,5.809 0.006,0.301 -0.272,0.674 -0.519,0.905 -0.807,0.754 -1.711,1.41 -2.485,2.195 -0.834,0.846 -1.474,1.895 -2.355,2.681 -3.767,3.359 -7.66,6.578 -11.377,9.99 -4.27,3.92 -8.444,7.949 -12.572,12.02 -1.323,1.304 -2.265,2.992 -3.564,4.325 -2.689,2.758 -5.511,5.386 -8.257,8.088 -0.958,0.942 -1.854,1.948 -2.885,3.037 m 35.509,-2.963 c -0.185,0.778 -0.366,1.233 -0.387,1.693 -0.042,0.951 0.033,1.907 -0.009,2.857 -0.011,0.249 -0.218,0.575 -0.434,0.715 -1.346,0.879 -2.715,1.725 -4.092,2.555 -0.238,0.143 -0.629,0.309 -0.821,0.211 -1.499,-0.764 -3.203,-0.805 -4.748,-1.531 -2.318,-1.089 -4.812,-1.807 -7.248,-2.633 -0.67,-0.228 -0.815,-0.786 -0.368,-1.009 0.768,-0.383 0.813,-1.187 1.352,-1.67 1.945,-1.743 3.894,-3.482 5.768,-5.299 1.508,-1.461 2.936,-3.007 4.349,-4.56 2.027,-2.228 3.904,-4.603 6.04,-6.719 2.24,-2.219 4.663,-4.265 7.098,-6.275 1.45,-1.196 3.07,-2.186 4.632,-3.24 0.238,-0.161 0.625,-0.307 0.864,-0.227 1.687,0.572 3.372,1.157 5.02,1.831 1.755,0.718 3.432,1.639 5.208,2.29 3.286,1.202 6.669,2.145 9.918,3.432 3.546,1.405 6.979,3.094 10.477,4.623 1.128,0.492 2.331,0.815 3.456,1.312 2.424,1.068 4.829,2.183 7.219,3.325 0.285,0.136 0.594,0.548 0.619,0.855 0.245,2.953 0.601,5.913 0.569,8.867 -0.019,1.73 -0.232,3.181 2.246,3.213 -2.284,0.883 -4.352,1.71 -6.476,2.352 -0.783,0.237 -1.408,0.521 -1.468,1.302 -0.112,1.499 -0.684,3.054 0.381,4.48 0.407,0.545 0.39,1.01 -0.45,1.21 -0.651,0.155 -1.332,0.364 -1.881,0.729 -0.944,0.626 -1.74,1.481 -2.697,2.081 -1.602,1.005 -2.062,2.252 -1.354,4.013 0.14,0.347 0.184,0.763 0.16,1.14 -0.141,2.164 -0.317,4.324 -0.499,6.723 C -3.941,10.358 -4.873,9.9 -5.823,9.484 -6.509,9.184 -7.208,8.905 -7.919,8.678 -8.6,8.46 -9.333,8.388 -9.983,8.11 c -0.204,-0.087 -0.4,-0.808 -0.276,-0.946 0.924,-1.023 1.842,-2.092 2.942,-2.9 0.68,-0.501 0.654,-0.96 0.734,-1.655 0.201,-1.772 0.606,-3.52 0.945,-5.275 0.017,-0.091 0.174,-0.154 0.263,-0.233 0.727,-0.647 1.513,-2.93 0.964,-3.576 -0.923,-1.086 -1.164,-2.371 -1.597,-3.619 -0.075,-0.218 -0.223,-0.441 -0.399,-0.588 -1.123,-0.935 -2.161,-2.037 -3.422,-2.729 -2.339,-1.283 -2.141,-2.46 -1.971,-4.148 0.255,-2.523 -2.13,-5.833 -4.667,-6.267 -2.427,-0.414 -4.844,-0.888 -7.276,-1.271 -2.551,-0.4 -5.112,-0.73 -7.672,-1.074 -0.821,-0.11 -1.983,0.886 -1.991,1.707 -0.021,2.053 -0.852,3.855 -1.735,5.638 -0.11,0.224 -0.442,0.566 -0.539,0.527 -0.254,-0.104 -0.563,-0.356 -0.623,-0.604 -0.383,-1.576 -0.834,-3.152 -1.009,-4.756 -0.179,-1.654 -0.052,-1.668 -1.671,-1.59 -0.039,0.002 -0.084,0.007 -0.118,-0.008 -1.48,-0.669 -2.745,0.097 -3.968,0.7 -3.289,1.62 -3.877,3.934 -2.444,6.678 m 12.365,-60.852 c 0.444,0.094 0.762,0.118 1.046,0.229 2.143,0.832 4.282,1.674 6.416,2.527 2.412,0.964 4.812,1.957 7.228,2.91 2.286,0.901 4.615,1.697 6.871,2.664 3.768,1.614 7.49,3.338 11.242,4.989 0.571,0.252 1.224,0.311 1.805,0.545 1.761,0.71 3.477,1.542 5.264,2.178 2.201,0.783 4.477,1.356 6.68,2.132 1.866,0.657 3.665,1.498 5.51,2.214 3.191,1.238 6.412,2.401 9.589,3.675 2.83,1.135 5.61,2.394 8.426,3.567 4.145,1.726 8.304,3.418 12.452,5.136 1.54,0.637 3.084,1.27 4.596,1.969 2.987,1.381 5.921,2.881 8.94,4.186 1.884,0.815 3.898,1.325 5.819,2.062 0.361,0.139 0.803,0.717 0.79,1.078 -0.116,3.293 -0.322,6.582 -0.515,9.872 -0.008,0.129 -0.149,0.251 -0.226,0.373 -0.303,-0.158 -0.552,-0.288 -0.896,-0.468 0.079,0.506 0.137,0.873 0.197,1.251 -1.034,0.333 -2.212,-0.6 -3.145,0.601 0.803,0.456 1.538,0.873 2.272,1.29 -0.061,0.126 -0.122,0.253 -0.183,0.38 -0.692,-0.23 -1.373,-0.503 -2.078,-0.679 -1.273,-0.318 -2.599,-0.466 -3.833,-0.889 -1.882,-0.647 -3.704,-1.472 -5.554,-2.214 -3.471,-1.394 -6.936,-2.803 -10.418,-4.17 -3.369,-1.322 -6.758,-2.595 -10.136,-3.898 -1.747,-0.673 -3.495,-1.344 -5.224,-2.062 -0.249,-0.104 -0.608,-0.588 -0.549,-0.695 0.677,-1.235 -0.294,-1.179 -1.001,-1.358 -1.26,-0.319 -2.549,-0.563 -3.767,-1.003 -1.564,-0.566 -3.069,-1.297 -4.604,-1.946 -0.177,-0.074 -0.444,-0.181 -0.563,-0.106 -1.086,0.684 -2.026,-0.025 -2.939,-0.363 -4.059,-1.504 -8.095,-3.071 -12.124,-4.654 -3.183,-1.251 -6.36,-2.52 -9.508,-3.856 -1.827,-0.776 -3.532,-1.871 -5.399,-2.515 -2.271,-0.785 -4.67,-1.187 -6.983,-1.861 -3.847,-1.122 -7.808,-1.937 -11.293,-4.084 -1.142,-0.704 -2.463,-1.187 -2.176,-2.935 0.042,-0.256 -0.144,-0.541 -0.159,-0.817 -0.131,-2.399 -0.526,-4.774 0.073,-7.2 0.366,-1.477 -0.263,-2.864 -1.37,-3.98 -0.255,-0.258 -0.523,-0.63 -0.547,-0.968 -0.072,-0.997 -0.026,-2.002 -0.026,-3.107 m 39.951,49.33 0.03,-0.018 c 0.575,0.64 1.151,1.281 1.727,1.922 l -0.17,0.223 c -2.846,-1.408 -5.691,-2.816 -8.536,-4.223 0.019,-0.089 0.038,-0.178 0.057,-0.267 0.908,0.207 1.817,0.415 2.725,0.622 0.035,-0.117 0.07,-0.233 0.105,-0.35 -0.665,-0.333 -1.324,-0.68 -1.999,-0.994 -1.446,-0.673 -2.894,-1.342 -4.353,-1.986 -2.169,-0.958 -4.309,-1.998 -6.531,-2.816 -4.322,-1.59 -8.694,-3.045 -13.041,-4.568 -2.178,-0.763 -4.357,-1.527 -6.518,-2.339 -1.301,-0.488 -2.75,-0.84 -3.796,-1.675 -0.937,-0.748 -1.671,-0.495 -1.994,0.125 -1.224,2.358 -3.591,3.516 -5.337,5.311 -2.492,2.562 -5.368,4.747 -8.035,7.144 -2.331,2.096 -4.647,4.212 -6.875,6.415 -1.266,1.252 -2.272,2.766 -3.521,4.04 -1.917,1.957 -3.92,3.832 -5.929,5.695 -1.066,0.988 -1.661,2.457 -3.168,3.022 -0.249,0.094 -0.287,0.751 -0.422,1.149 0.306,0.09 0.612,0.18 0.918,0.271 0.325,0.096 0.668,0.154 0.972,0.295 1.947,0.905 3.837,1.958 5.84,2.711 2.348,0.883 4.783,1.544 7.2,2.234 0.88,0.25 0.945,0.663 0.601,1.388 -0.589,1.24 -0.869,2.499 -0.616,3.922 0.152,0.858 -0.146,1.796 -0.232,2.608 -1.535,-0.427 -2.838,-0.767 -4.126,-1.153 -1.745,-0.524 -3.601,-0.807 -5.001,-2.132 -0.449,-0.426 -0.768,-1.038 -1.28,-1.339 -1.145,-0.675 -2.347,-1.273 -3.575,-1.781 -1.25,-0.517 -2.613,-1.355 -3.83,-1.216 -1.744,0.2 -2.859,-0.958 -4.328,-1.252 -0.896,-0.18 -1.695,-0.848 -2.537,-1.297 -0.061,0.07 -0.123,0.14 -0.185,0.21 0.59,0.507 1.181,1.014 1.771,1.521 -0.061,0.08 -0.122,0.159 -0.183,0.239 -0.624,-0.395 -1.209,-0.885 -1.881,-1.164 -1.094,-0.455 -1.163,-1.406 -0.878,-2.181 0.83,-2.257 2.201,-4.251 3.75,-6.06 1.116,-1.304 2.616,-2.271 3.835,-3.497 1.985,-1.998 3.806,-4.164 5.834,-6.114 2.715,-2.613 5.577,-5.072 8.351,-7.625 3.215,-2.961 6.399,-5.956 9.606,-8.927 0.933,-0.864 1.927,-1.664 2.842,-2.546 1.311,-1.263 2.583,-2.566 3.857,-3.867 2.185,-2.231 4.361,-4.471 6.539,-6.709 0.995,-1.021 1.592,-1.214 2.672,-0.451 0.697,0.492 1.642,0.624 2.448,0.979 0.409,0.18 0.757,0.498 1.096,0.729 -0.158,0.447 -0.265,0.753 -0.373,1.059 0.58,-0.019 0.931,-0.383 1.334,-0.453 0.906,-0.159 1.202,-1.606 2.418,-1.063 1.561,0.696 3.12,1.411 4.73,1.98 1.226,0.434 2.524,0.671 3.799,0.962 1.535,0.35 3.161,0.458 4.603,1.033 3.958,1.58 7.797,3.458 11.764,5.015 4.409,1.731 8.904,3.244 13.366,4.841 3.179,1.137 6.398,2.173 9.532,3.423 1.218,0.486 2.178,1.597 3.384,2.14 1.654,0.745 3.443,1.184 5.15,1.819 3.655,1.36 7.271,2.831 10.955,4.107 1.258,0.435 2.131,1.395 3.529,1.76 2.455,0.641 4.74,2.008 7.024,3.209 2.91,1.53 5.634,3.424 8.82,4.395 0.271,0.083 0.561,0.099 1.185,0.203 -1.341,-2.264 -4.042,-1.936 -5.523,-3.85 0.492,0.144 0.716,0.193 0.927,0.273 1.633,0.625 3.237,1.345 4.905,1.859 1.456,0.448 3.092,0.43 4.442,1.06 1.058,0.494 1.803,1.662 2.676,2.542 0.009,0.009 -0.128,0.164 -0.118,0.151 -2.154,-0.849 -4.244,-1.672 -6.359,-2.506 -0.227,0.365 -0.406,0.653 -0.606,0.976 0.411,0.275 0.717,0.549 1.074,0.708 1.659,0.74 3.329,1.455 5,2.169 1.133,0.483 1.31,1.183 0.519,2.108 -0.129,0.151 -0.311,0.282 -0.379,0.457 -1.191,3.068 -4.079,4.678 -6.083,7.047 -1.758,2.08 -3.742,3.967 -5.635,5.932 -0.578,0.6 -1.183,1.175 -1.776,1.762 -0.075,-0.063 -0.15,-0.126 -0.225,-0.188 0.095,-0.341 0.19,-0.682 0.345,-1.243 -1.187,1.325 -2.205,2.462 -3.223,3.598 C 51.809,2.048 51.735,1.984 51.661,1.92 51.831,1.514 52,1.106 52.17,0.7 52.126,0.687 52.082,0.673 52.037,0.66 51.257,1.57 50.477,2.48 49.714,3.371 49.281,3.068 48.949,2.706 48.821,2.767 47.888,3.218 46.801,3.574 46.13,4.3 c -1.523,1.646 -2.828,3.492 -4.24,5.242 -0.23,0.284 -0.555,0.49 -1.068,0.933 0,-0.574 -0.005,-0.824 10e-4,-1.074 0.023,-1.069 1.095,-1.248 1.618,-1.895 1.193,-1.476 2.417,-2.927 3.607,-4.405 0.522,-0.648 0.993,-1.336 1.577,-2.13 H 45.178 C 45.171,0.824 45.164,0.678 45.157,0.531 45.678,0.488 46.198,0.444 46.898,0.386 47,0.101 47.158,-0.342 47.412,-1.051 c -0.618,0.285 -0.937,0.433 -1.256,0.58 0.194,-0.703 0.479,-1.293 0.936,-1.679 1.849,-1.563 3.905,-2.864 5.302,-4.958 0.434,-0.651 0.815,-1.091 0.548,-1.843 -1.376,-0.299 -1.365,-0.305 -2.215,-1.785 -0.123,-0.215 -0.392,-0.384 -0.631,-0.49 -1.644,-0.733 -3.324,-1.393 -4.944,-2.174 -2.362,-1.14 -4.633,-2.478 -7.036,-3.519 -3.201,-1.387 -6.491,-2.567 -9.741,-3.842 -1.171,-0.459 -2.334,-0.935 -3.502,-1.401 -0.754,-0.301 -1.489,-0.684 -2.271,-0.876 -1.332,-0.326 -0.689,-1.44 -0.945,-2.177 -0.321,-0.923 0.194,-1.508 1.005,-1.899 0.421,-0.203 0.932,-0.353 1.22,-0.685 1.245,-1.436 0.981,-3.229 1.012,-4.935 0.004,-0.238 -0.207,-0.516 -0.385,-0.715 -1.469,-1.627 -3.126,-2.731 -5.426,-3.148 -3.188,-0.578 -6.265,-0.392 -9.314,0.413 -3.039,0.802 -3.612,2.848 -1.448,5.036 0.812,0.82 0.706,1.539 0.456,2.44 -0.71,-0.249 -1.342,-0.471 -1.974,-0.693 m 10.324,-51.922 c 0.119,0.008 0.244,-0.008 0.354,0.026 3.317,1.01 6.659,1.842 10.168,1.806 0.783,-0.009 1.58,0.188 2.352,0.368 1.624,0.379 3.228,0.854 4.858,1.203 0.943,0.201 1.761,0.941 1.715,1.873 -0.012,0.241 -0.287,0.583 -0.521,0.674 -0.436,0.171 -0.929,0.202 -1.401,0.274 -1.688,0.256 -3.376,0.51 -5.066,0.753 -1.281,0.184 -2.586,0.585 -3.842,0.471 -2.359,-0.213 -4.698,-0.691 -7.028,-1.149 -0.48,-0.094 -0.928,-0.536 -1.289,-0.915 -0.097,-0.103 0.233,-0.555 0.276,-0.859 0.081,-0.566 0.199,-1.158 0.115,-1.71 -0.144,-0.956 -0.432,-1.889 -0.651,-2.838 -0.247,-0.665 -0.495,-1.33 -0.679,-1.824 1.58,0.492 2.98,0.929 4.38,1.365 -0.038,0.097 -0.076,0.193 -0.114,0.289 -0.212,-0.045 -0.429,-0.144 -0.636,-0.125 -0.998,0.091 -2.088,-0.649 -2.991,0.318 m -53.333,93.017 c -1.105,2.191 -0.81,3.929 0.754,5.462 1.09,1.068 1.176,1.569 0.427,2.902 -0.332,0.591 -0.277,0.989 0.436,1.147 0.466,0.103 0.938,0.207 1.412,0.252 2.519,0.238 4.724,-2.472 3.997,-4.91 -0.113,-0.381 -0.341,-0.734 -0.415,-1.12 -0.058,-0.301 -0.059,-0.708 0.104,-0.924 0.111,-0.146 0.582,-0.125 0.841,-0.033 2.697,0.948 5.367,1.977 8.082,2.873 1.353,0.447 2.787,0.646 4.177,0.989 1.614,0.397 3.231,0.791 4.818,1.279 0.262,0.081 0.584,0.673 0.531,0.966 -0.404,2.22 0.872,3.927 1.725,5.735 0.443,0.939 3.67,1.32 4.668,0.628 1.283,-0.888 2.442,-1.892 2.862,-3.523 0.223,-0.866 0.645,-1.323 1.745,-0.875 2.542,1.036 5.132,1.965 7.742,2.813 1.849,0.602 3.788,0.924 5.645,1.504 3.026,0.945 6.019,1.993 9.022,3.011 1.083,0.367 2.145,0.796 3.234,1.14 0.214,0.069 0.58,-0.041 0.758,-0.2 1.259,-1.125 2.522,-2.251 3.718,-3.442 2.162,-2.152 4.283,-4.346 6.413,-6.53 1.471,-1.508 2.904,-3.055 4.403,-4.534 0.786,-0.775 1.69,-1.413 2.962,-1.341 -4.68,5.254 -9.304,10.445 -13.928,15.636 0.11,0.111 0.22,0.223 0.33,0.335 0.828,-0.766 1.721,-1.472 2.471,-2.306 2.651,-2.948 5.194,-5.994 7.892,-8.897 2.182,-2.347 4.457,-4.619 6.82,-6.785 2.886,-2.646 5.707,-5.439 8.927,-7.624 3.127,-2.123 4.392,-5.536 6.774,-8.131 1.115,-1.214 2.221,-2.443 3.239,-3.737 1.389,-1.766 2.709,-3.586 4.021,-5.41 0.782,-1.086 1.7,-2.141 2.186,-3.358 0.744,-1.858 1.172,-3.843 1.72,-5.778 0.075,-0.264 -0.006,-0.592 0.116,-0.822 2.032,-3.833 2.049,-8.118 2.776,-12.244 0.526,-2.985 0.012,-5.848 -0.771,-8.729 -0.571,-2.1 -0.865,-4.275 -1.288,-6.416 -0.046,-0.234 -0.088,-0.478 -0.192,-0.689 -1.297,-2.628 -2.533,-5.29 -3.929,-7.864 -1.754,-3.232 -4.265,-5.853 -7.303,-7.879 -2.874,-1.917 -5.902,-3.601 -8.862,-5.388 -1.669,-1.007 -3.292,-2.101 -5.016,-3.002 -2.913,-1.525 -5.775,-3.241 -9.232,-3.299 -0.235,-0.004 -0.535,-0.477 -0.679,-0.79 -0.28,-0.607 -0.462,-1.259 -0.698,-1.887 -0.118,-0.315 -0.206,-0.669 -0.414,-0.916 -0.219,-0.258 -0.72,-0.645 -0.832,-0.571 -1.25,0.821 -1.655,-0.655 -2.575,-0.653 l 0.061,-0.295 h 6.691 c 0.02,-0.135 0.04,-0.271 0.06,-0.406 -0.362,-0.105 -0.722,-0.294 -1.086,-0.302 -2.91,-0.061 -5.829,0.023 -8.73,-0.162 -2.35,-0.15 -4.677,-0.64 -7.021,-0.926 -2.875,-0.35 -5.752,-0.773 -8.638,-0.881 -0.873,-0.034 -1.772,0.893 -2.68,1.338 -0.418,0.205 -0.883,0.424 -1.332,0.434 -0.951,0.02 -1.91,-0.046 -2.857,-0.16 -3.02,-0.362 -6.032,-0.806 -9.057,-1.129 -1.553,-0.166 -3.141,-0.284 -4.685,-0.134 -0.613,0.06 -1.333,0.802 -1.676,1.417 -0.447,0.804 -0.143,1.777 0.721,2.139 1.436,0.601 2.94,1.09 4.46,1.428 1.888,0.42 3.828,0.602 5.734,0.953 1.669,0.307 3.318,0.723 4.984,1.049 0.334,0.065 0.706,-0.085 1.061,-0.104 0.625,-0.032 1.022,0.135 1.149,0.885 0.297,1.751 1.652,2.944 3.433,3.164 2.644,0.327 5.29,0.628 7.929,0.984 2.157,0.291 4.301,0.675 6.458,0.964 1.676,0.225 3.368,0.336 5.045,0.56 0.982,0.131 1.577,-0.297 2.076,-1.071 0.962,-1.493 1.144,-1.525 2.761,-0.915 2.152,0.812 4.328,1.564 6.464,2.416 0.838,0.335 1.623,0.829 2.385,1.323 3.278,2.124 6.634,4.146 9.774,6.458 2.329,1.715 4.523,3.68 6.486,5.802 1.296,1.403 2.143,3.246 3.07,4.958 1.04,1.92 2.17,3.839 2.845,5.895 0.711,2.162 1.002,4.474 1.339,6.74 0.254,1.711 0.35,3.452 0.394,5.183 0.017,0.642 -0.401,1.283 -0.472,1.941 -0.233,2.172 -0.381,4.353 -0.606,6.526 -0.042,0.404 -0.289,0.787 -0.441,1.18 -0.133,-0.011 -0.267,-0.024 -0.4,-0.035 0,-1.315 -0.207,-2.67 0.045,-3.935 0.463,-2.327 0.072,-4.601 -0.026,-6.899 -0.099,-2.358 -1.552,-3.498 -3.554,-4.294 -2.652,-1.055 -5.276,-2.182 -7.886,-3.335 -2.433,-1.074 -4.834,-2.217 -7.245,-3.339 -1.628,-0.758 -3.238,-1.553 -4.873,-2.295 -1.068,-0.483 -2.163,-0.906 -3.251,-1.344 -3.208,-1.291 -6.408,-2.601 -9.63,-3.857 -3.294,-1.284 -6.625,-2.476 -9.912,-3.778 -3.27,-1.295 -6.481,-2.738 -9.764,-3.995 -2.001,-0.766 -4.092,-1.296 -6.138,-1.945 -1.25,-0.396 -2.514,-0.76 -3.733,-1.236 -2.916,-1.139 -5.809,-2.336 -8.712,-3.51 -5.345,-2.163 -10.674,-4.365 -16.039,-6.476 -4.331,-1.705 -8.708,-3.294 -13.061,-4.945 -1.966,-0.746 -3.875,-0.495 -5.594,0.572 -3.44,2.135 -6.726,4.489 -9.653,7.321 -0.612,0.591 -1.56,0.832 -2.184,1.415 -1.531,1.428 -2.937,2.99 -4.443,4.447 -1.876,1.815 -3.816,3.564 -5.7,5.372 -0.832,0.8 -1.564,1.703 -2.392,2.508 -1.851,1.8 -3.615,3.697 -5.718,5.222 -0.065,0.047 -0.158,0.082 -0.187,0.146 -0.787,1.67 -2.503,2.434 -3.667,3.746 -0.834,0.941 -1.967,1.61 -2.877,2.494 -1.528,1.483 -2.938,3.09 -4.483,4.554 -1.843,1.746 -3.783,3.39 -5.666,5.093 -0.834,0.755 -1.637,1.546 -2.447,2.327 -0.08,0.078 -0.15,0.199 -0.164,0.308 -0.229,1.754 -0.956,3.633 -0.565,5.237 0.842,3.446 0.133,6.914 0.684,10.339 0.37,2.298 0.16,4.705 0.673,6.958 0.252,1.107 0.784,2.606 2.329,3.001 0.111,0.028 0.27,0.058 0.313,0.137 1.311,2.429 4.086,2.859 6.062,4.389 1.457,1.127 3.292,1.487 5.244,1.578 1.603,0.075 3.184,0.887 4.747,1.45 2.915,1.05 5.798,2.187 8.715,3.229 2.28,0.815 4.606,1.5 6.88,2.332 0.688,0.252 1.284,0.78 1.893,1.219 1.961,1.415 3.773,3.113 5.901,4.19 1.823,0.921 4,1.144 6.024,1.665 0.873,0.224 1.754,0.418 2.741,0.652"
           style="fill:#000000;fill-opacity:1;fill-rule:nonzero;stroke:none;stroke-width:3.78704"
           transform="matrix(1.3333333,0,0,-1.3333333,162.57493,99.4492)"
           clip-path="url(#clipPath4)" />
      </g>
      <path
         style="font-style:italic;font-weight:bold;font-size:3.52777px;font-family:'Century Gothic';-inkscape-font-specification:'Century Gothic Bold Italic';text-align:center;letter-spacing:-0.105833px;text-anchor:middle;fill:#1a1a1a;stroke-width:0.6;stroke-linejoin:bevel;stroke-miterlimit:3.3"
         d="m 75.209308,118.78743 h 0.489203 l 0.356567,0.78376 0.552936,-0.78376 h 0.551214 l -0.892278,1.25402 0.58222,1.27985 h -0.492647 l -0.38585,-0.85955 -0.609781,0.85955 h -0.554659 l 0.950844,-1.32981 z"
         id="text4"
         aria-label="X" />
    </g>
    <path
       style="font-style:italic;font-weight:bold;font-size:2.82222px;font-family:'Century Gothic';-inkscape-font-specification:'Century Gothic Bold Italic';text-align:center;letter-spacing:-0.105833px;text-anchor:middle;display:inline;fill:#1a1a1a;stroke-width:0.6;stroke-linejoin:bevel;stroke-miterlimit:3.3"
       d="m 56.717041,95.570957 -0.276985,0.245297 q -0.170877,-0.220487 -0.318327,-0.220487 -0.07304,0 -0.121267,0.0441 -0.04823,0.0427 -0.04823,0.10335 0,0.0565 0.0441,0.125397 0.0441,0.0689 0.267339,0.30455 0.118511,0.125407 0.155718,0.177767 0.08957,0.12127 0.128158,0.22738 0.03996,0.10473 0.03996,0.2136 0,0.243907 -0.173633,0.409277 -0.173633,0.165357 -0.445106,0.165357 -0.413411,0 -0.67386,-0.392737 l 0.292144,-0.235647 q 0.176388,0.268717 0.381716,0.268717 0.09784,0 0.163986,-0.0634 0.06752,-0.0634 0.06752,-0.152957 0,-0.0703 -0.04134,-0.14332 -0.03996,-0.073 -0.23151,-0.27561 -0.202572,-0.213587 -0.265961,-0.322457 -0.08544,-0.14745 -0.08544,-0.289387 0,-0.18742 0.122646,-0.33624 0.15434,-0.186037 0.416167,-0.186037 0.359668,0 0.602202,0.333487 z m 0.31309,-0.28249 h 0.37207 l -0.279741,2.027091 h -0.36518 z m 0.583186,0 h 1.145149 l -0.804774,1.674311 h 0.638031 l -0.04685,0.35278 h -1.158929 l 0.806151,-1.670181 h -0.628384 z m 1.390715,0 h 1.101052 l -0.04685,0.35967 h -0.71658 l -0.05788,0.418917 h 0.719335 l -0.04548,0.356907 h -0.719335 l -0.07166,0.537437 h 0.723469 l -0.04823,0.35416 h -1.103808 z"
       id="text1"
       aria-label="SIZE" />
    <path
       style="font-style:italic;font-weight:bold;font-size:2.82222px;font-family:'Century Gothic';-inkscape-font-specification:'Century Gothic Bold Italic';text-align:center;letter-spacing:-0.105833px;text-anchor:middle;display:inline;fill:#1a1a1a;stroke-width:0.6;stroke-linejoin:bevel;stroke-miterlimit:3.3"
       d="m 74.375751,33.662649 -0.276986,0.245288 q -0.170876,-0.220478 -0.318326,-0.220478 -0.07304,0 -0.121268,0.0441 -0.04823,0.0427 -0.04823,0.103351 0,0.0565 0.0441,0.125397 0.0441,0.0689 0.267339,0.30455 0.118512,0.125397 0.155719,0.177757 0.08957,0.12127 0.128157,0.22738 0.03996,0.10473 0.03996,0.2136 0,0.243907 -0.173633,0.409267 -0.173632,0.165368 -0.445106,0.165368 -0.413411,0 -0.67386,-0.392738 l 0.292144,-0.235647 q 0.176389,0.268717 0.381716,0.268717 0.09784,0 0.163987,-0.0634 0.06752,-0.0634 0.06752,-0.152957 0,-0.0703 -0.04134,-0.14332 -0.03996,-0.073 -0.231511,-0.27561 -0.202571,-0.213587 -0.265961,-0.322457 -0.08544,-0.14745 -0.08544,-0.28938 0,-0.187418 0.122645,-0.336248 0.15434,-0.18603 0.416167,-0.18603 0.359668,0 0.602203,0.33348 z m 0.33376,-0.28249 h 0.381717 l -0.228755,1.678442 h 0.629763 l -0.0441,0.348641 h -1.012857 z m 1.09995,0 h 1.101052 l -0.04685,0.35966 h -0.716579 l -0.05788,0.418928 h 0.719336 l -0.04547,0.356907 h -0.719336 l -0.07166,0.537427 h 0.72347 l -0.04823,0.354161 h -1.103808 z m 1.206058,0 h 0.347266 l 0.115755,1.313265 0.621495,-1.313265 h 0.286631 l 0.241157,1.278815 0.450618,-1.278815 h 0.367936 l -0.716579,2.027083 h -0.311437 l -0.254937,-1.342205 -0.635275,1.342205 h -0.332107 z"
       id="text1-3"
       aria-label="SLEW" />
    <path
       style="font-style:italic;font-weight:bold;font-size:2.82222px;font-family:'Century Gothic';-inkscape-font-specification:'Century Gothic Bold Italic';text-align:center;letter-spacing:-0.105833px;text-anchor:middle;display:inline;fill:#1a1a1a;stroke-width:0.6;stroke-linejoin:bevel;stroke-miterlimit:3.3"
       d="m 70.62005,95.288467 h 0.356912 q 0.325217,0 0.458886,0.0565 0.165365,0.0703 0.250803,0.19568 0.08544,0.1254 0.08544,0.293517 0,0.18466 -0.100596,0.33487 -0.09922,0.148827 -0.267339,0.217727 -0.168121,0.0675 -0.559484,0.073 l -0.115755,0.855757 h -0.381716 z m 0.270096,0.813037 q 0.311436,-0.001 0.406521,-0.0648 0.09508,-0.0634 0.09508,-0.18879 0,-0.0703 -0.03721,-0.118507 -0.03721,-0.0482 -0.110243,-0.0675 -0.07304,-0.0193 -0.289388,-0.0193 z m 2.136233,-0.864024 q 0.417545,0 0.689019,0.268707 0.271473,0.268727 0.271473,0.682137 0,0.316947 -0.16123,0.598067 -0.159853,0.279737 -0.427192,0.429947 -0.265961,0.150207 -0.611848,0.150207 -0.432704,0 -0.691775,-0.256317 -0.257693,-0.25632 -0.257693,-0.675237 0,-0.475427 0.30868,-0.817174 0.34451,-0.380337 0.880566,-0.380337 z m -0.01378,0.359667 q -0.21773,0 -0.398253,0.10611 -0.179145,0.104727 -0.289388,0.303167 -0.110243,0.19706 -0.110243,0.407897 0,0.24943 0.152962,0.423057 0.152962,0.17363 0.439594,0.17363 0.332107,0 0.563617,-0.234267 0.232889,-0.23427 0.232889,-0.569127 0,-0.27699 -0.163987,-0.443727 -0.162608,-0.16674 -0.427191,-0.16674 z m 2.37739,-0.0262 -0.276986,0.245287 q -0.170876,-0.220487 -0.318326,-0.220487 -0.07304,0 -0.121268,0.0441 -0.04823,0.0427 -0.04823,0.10336 0,0.0565 0.0441,0.125397 0.0441,0.0689 0.267339,0.30455 0.118512,0.125397 0.155719,0.177757 0.08957,0.12127 0.128157,0.22738 0.03996,0.10473 0.03996,0.2136 0,0.243907 -0.173632,0.409277 -0.173633,0.165357 -0.445106,0.165357 -0.413412,0 -0.673861,-0.392737 l 0.292144,-0.235637 q 0.176389,0.268707 0.381717,0.268707 0.09784,0 0.163986,-0.0634 0.06752,-0.0634 0.06752,-0.152957 0,-0.0703 -0.04134,-0.14332 -0.03996,-0.073 -0.231511,-0.27561 -0.202571,-0.213587 -0.265961,-0.322457 -0.08544,-0.14745 -0.08544,-0.289387 0,-0.18741 0.122645,-0.33624 0.15434,-0.186027 0.416167,-0.186027 0.359668,0 0.602203,0.333477 z m 0.31309,-0.2825 h 0.37207 l -0.279742,2.027091 h -0.365179 z m 0.43987,0 h 1.237477 l -0.0441,0.36105 H 76.905 l -0.219108,1.666041 H 76.30831 l 0.219108,-1.666041 h -0.431326 z m 1.323192,0 h 0.37207 l -0.279742,2.027091 h -0.36518 z m 1.633249,-0.051 q 0.417545,0 0.689019,0.268717 0.271473,0.26872 0.271473,0.68213 0,0.316947 -0.16123,0.598067 -0.159853,0.279737 -0.427192,0.429947 -0.265961,0.150207 -0.611848,0.150207 -0.432704,0 -0.691775,-0.256317 -0.257693,-0.25631 -0.257693,-0.675237 0,-0.475427 0.30868,-0.817177 0.34451,-0.380337 0.880566,-0.380337 z m -0.01378,0.359667 q -0.21773,0 -0.398253,0.10611 -0.179145,0.10473 -0.289388,0.30317 -0.110243,0.19706 -0.110243,0.407897 0,0.24943 0.152962,0.423057 0.152963,0.17363 0.439594,0.17363 0.332107,0 0.563618,-0.234257 0.232888,-0.23427 0.232888,-0.569137 0,-0.27699 -0.163987,-0.44373 -0.162608,-0.16674 -0.427191,-0.16674 z m 1.342484,-0.30868 h 0.333485 l 0.734494,1.378037 0.186035,-1.378037 H 82.0528 l -0.272852,2.027094 h -0.325216 l -0.74414,-1.393194 -0.186035,1.393194 h -0.36518 z"
       id="text1-4"
       aria-label="POSITION" />
    <path
       style="font-style:italic;font-weight:bold;font-size:2.82222px;font-family:'Century Gothic';-inkscape-font-specification:'Century Gothic Bold Italic';text-align:center;letter-spacing:-0.105833px;text-anchor:middle;display:inline;fill:#1a1a1a;stroke-width:0.6;stroke-linejoin:bevel;stroke-miterlimit:3.3"
       d="m 90.317153,95.23748 h 0.391362 l 0.285254,0.627004 0.44235,-0.627004 h 0.440972 l -0.713824,1.003204 0.465777,1.023884 h -0.394119 l -0.30868,-0.687637 -0.487825,0.687637 h -0.443728 l 0.760676,-1.063844 z m 1.684237,1.113451 h 0.742762 l -0.04272,0.33486 h -0.74414 z m 1.20468,-1.113451 h 0.999077 l -0.04547,0.359667 h -0.615983 l -0.05788,0.418917 h 0.61736 l -0.04547,0.356917 h -0.618739 l -0.115755,0.891587 h -0.383094 z m 1.969491,0 h 0.321083 l 0.504362,2.027088 h -0.369314 l -0.107487,-0.43133 h -0.80064 l -0.232888,0.43133 H 94.0814 Z m 0.256315,1.237471 -0.162608,-0.665587 -0.356912,0.665587 z m 1.032426,-1.237471 h 0.32246 q 0.453375,0 0.673861,0.107477 0.221864,0.10611 0.359667,0.33487 0.139182,0.228747 0.139182,0.527787 0,0.307297 -0.14745,0.564997 -0.146072,0.256317 -0.369314,0.374827 -0.223242,0.11713 -0.620117,0.11713 h -0.629763 z m 0.334863,0.356907 -0.175011,1.316021 h 0.125401 q 0.289388,0 0.418924,-0.0482 0.181901,-0.0689 0.292144,-0.235637 0.110243,-0.16675 0.110243,-0.412037 0,-0.20119 -0.07855,-0.33624 -0.07717,-0.136427 -0.219107,-0.209457 -0.141938,-0.0744 -0.377583,-0.0744 z m 1.505093,-0.356907 h 1.101051 l -0.04685,0.359667 H 98.64188 L 98.584,96.016064 h 0.719335 l -0.04548,0.356917 H 98.53852 l -0.07166,0.537427 h 0.723469 l -0.04823,0.35416 h -1.103808 z"
       id="text1-4-5"
       aria-label="X-FADE" />
    <text
       xml:space="preserve"
       style="font-style:italic;font-weight:bold;font-size:7.05556px;font-family:'Century Gothic';-inkscape-font-specification:'Century Gothic Bold Italic';text-align:center;letter-spacing:-0.105833px;writing-mode:lr-tb;direction:ltr;text-anchor:middle;fill:#000000;stroke-width:0.600001;stroke-linejoin:bevel;stroke-miterlimit:3.3"
       x="76.470436"
       y="9.243947"
       id="text13"><tspan
         sodipodi:role="line"
         id="tspan13"
         style="font-size:7.05556px;stroke-width:0.6"
         x="76.417519"
         y="9.243947">TEHOM</tspan></text>
  </g>
  <g
     inkscape:label="components"
     inkscape:groupmode="layer"
     id="layer1"
     style="display:inline">
    <circle
       style="fill:#ff0000;stroke-width:0.6;stroke-linejoin:bevel;stroke-miterlimit:3.3"
       id="path2"
       cx="57.699997"
       cy="87.737495"
       r="1.5"
       inkscape:label="LoopSize" />
    <circle
       style="fill:#ff0000;stroke-width:0.6;stroke-linejoin:bevel;stroke-miterlimit:3.3"
       id="path2-1"
       cx="76.199997"
       cy="87.737495"
       r="1.5"
       inkscape:label="LoopPosition" />
    <circle
       style="display:inline;fill:#ff0000;stroke-width:0.6;stroke-linejoin:bevel;stroke-miterlimit:3.3"
       id="path2-1-8"
       cx="94.699997"
       cy="87.737495"
       r="1.5"
       inkscape:label="LoopXFade" />
    <circle
       style="display:inline;fill:#ff0000;stroke-width:0.6;stroke-linejoin:bevel;stroke-miterlimit:3.3"
       id="path2-1-8-3-8"
       cx="76.199997"
       cy="24.891665"
       r="1.5"
       inkscape:label="Slew" />
  </g>
</svg>
